<?xml version="1.0" encoding="utf-8"?>
<!-- Generator: Adobe Illustrator 16.0.0, SVG Export Plug-In . SVG Version: 6.00 Build 0)  -->
<!DOCTYPE svg PUBLIC "-//W3C//DTD SVG 1.1//EN" "http://www.w3.org/Graphics/SVG/1.1/DTD/svg11.dtd">
<svg version="1.1" id="Layer_1" xmlns="http://www.w3.org/2000/svg" xmlns:xlink="http://www.w3.org/1999/xlink" x="0px" y="0px"
	 width="154.361px" height="43.625px" viewBox="0 0 154.361 43.625" enable-background="new 0 0 154.361 43.625"
	 xml:space="preserve">
<g>
	<g>
		<path fill="#FFFFFF" d="M25.285,25.221l5.428,0.825c-1.067,2.951-2.659,5.207-4.777,6.767c-2.117,1.56-4.609,2.338-7.479,2.338
			c-3.201,0-5.706-0.967-7.517-2.899c-1.809-1.935-2.714-4.744-2.714-8.431c0-2.984,0.604-5.715,1.813-8.191
			c1.209-2.475,2.889-4.371,5.039-5.689c2.15-1.316,4.494-1.975,7.027-1.975c2.835,0,5.133,0.762,6.892,2.287
			c1.76,1.525,2.789,3.605,3.089,6.24l-5.177,0.5c-0.283-1.533-0.834-2.643-1.651-3.326c-0.816-0.684-1.9-1.025-3.251-1.025
			c-1.501,0-2.896,0.451-4.189,1.352c-1.292,0.9-2.325,2.316-3.102,4.252c-0.775,1.934-1.163,3.859-1.163,5.777
			c0,2.1,0.505,3.723,1.514,4.865c1.01,1.141,2.264,1.713,3.765,1.713c1.399,0,2.681-0.451,3.84-1.352
			C23.83,28.348,24.702,27.005,25.285,25.221z"/>
		<path fill="#FFFFFF" d="M51.222,26.771H38.341c-0.017,0.201-0.025,0.352-0.025,0.451c0,1.268,0.359,2.289,1.076,3.064
			c0.717,0.774,1.602,1.162,2.651,1.162c1.7,0,3.024-0.884,3.977-2.65l4.603,0.775c-0.884,1.85-2.076,3.237-3.576,4.163
			c-1.501,0.927-3.186,1.39-5.053,1.39c-2.552,0-4.627-0.81-6.229-2.428c-1.601-1.617-2.401-3.761-2.401-6.429
			c0-2.601,0.727-4.918,2.178-6.953c1.968-2.734,4.775-4.102,8.429-4.102c2.334,0,4.187,0.717,5.552,2.15
			c1.368,1.436,2.053,3.453,2.053,6.052C51.572,24.654,51.455,25.771,51.222,26.771z M46.895,23.621
			c0.019-0.217,0.025-0.393,0.025-0.524c0-1.4-0.316-2.455-0.951-3.164c-0.633-0.709-1.483-1.063-2.551-1.063
			c-1.066,0-2.021,0.4-2.863,1.201c-0.842,0.799-1.413,1.984-1.714,3.551H46.895z"/>
		<path fill="#FFFFFF" d="M57.174,15.668h4.853l-0.5,2.451c1.219-1.051,2.355-1.797,3.414-2.238c1.06-0.443,2.172-0.664,3.339-0.664
			c1.567,0,2.802,0.447,3.701,1.338c0.9,0.893,1.352,2.08,1.352,3.564c0,0.668-0.2,1.936-0.601,3.802l-2.227,10.754h-5.152
			l2.276-10.805c0.334-1.602,0.5-2.559,0.5-2.876c0-0.65-0.195-1.166-0.588-1.551c-0.393-0.383-0.93-0.574-1.613-0.574
			c-0.75,0-1.588,0.316-2.514,0.949c-0.926,0.635-1.646,1.477-2.163,2.527c-0.383,0.734-0.816,2.242-1.301,4.527l-1.625,7.803
			h-5.129L57.174,15.668z"/>
		<path fill="#FFFFFF" d="M76.808,19.469l0.802-3.801h2.5l0.625-3.053l5.904-3.551l-1.377,6.604h3.127l-0.801,3.801h-3.15
			l-1.651,7.98c-0.3,1.436-0.449,2.26-0.449,2.477c0,0.383,0.125,0.688,0.375,0.912c0.25,0.227,0.701,0.338,1.352,0.338
			c0.232,0,0.799-0.041,1.699-0.125l-0.799,3.803c-0.885,0.184-1.793,0.275-2.728,0.275c-1.817,0-3.135-0.353-3.952-1.051
			c-0.816-0.701-1.226-1.668-1.226-2.902c0-0.582,0.217-1.934,0.65-4.051l1.6-7.654h-2.501V19.469z"/>
		<path fill="#FFFFFF" d="M106.246,26.771H93.365c-0.017,0.201-0.025,0.352-0.025,0.451c0,1.268,0.359,2.289,1.076,3.064
			c0.719,0.774,1.602,1.162,2.651,1.162c1.699,0,3.025-0.884,3.978-2.65l4.602,0.775c-0.883,1.85-2.076,3.237-3.576,4.163
			c-1.502,0.927-3.186,1.39-5.053,1.39c-2.551,0-4.627-0.81-6.229-2.428c-1.601-1.617-2.4-3.761-2.4-6.429
			c0-2.601,0.725-4.918,2.176-6.953c1.97-2.734,4.777-4.102,8.431-4.102c2.334,0,4.186,0.717,5.551,2.15
			c1.369,1.436,2.053,3.453,2.053,6.052C106.598,24.654,106.48,25.771,106.246,26.771z M101.92,23.621
			c0.018-0.217,0.024-0.393,0.024-0.524c0-1.4-0.315-2.455-0.95-3.164c-0.634-0.709-1.484-1.063-2.552-1.063
			c-1.066,0-2.021,0.4-2.862,1.201c-0.843,0.799-1.414,1.984-1.715,3.551H101.92z"/>
		<path fill="#FFFFFF" d="M125.58,26.771c0-3.518,0.991-6.322,2.977-8.416c1.984-2.092,4.594-3.139,7.828-3.139
			c2.818,0,5.016,0.771,6.59,2.314c1.576,1.541,2.365,3.623,2.365,6.24c0,3.084-0.988,5.748-2.965,7.989
			c-1.978,2.242-4.615,3.365-7.916,3.365c-1.783,0-3.371-0.358-4.765-1.076c-1.393-0.717-2.428-1.733-3.102-3.051
			C125.918,29.682,125.58,28.273,125.58,26.771z M140.211,23.096c0-1.217-0.354-2.193-1.063-2.926
			c-0.707-0.734-1.621-1.102-2.737-1.102c-1.117,0-2.105,0.348-2.966,1.039c-0.856,0.691-1.524,1.691-2,3
			c-0.475,1.311-0.713,2.506-0.713,3.59c0,1.367,0.371,2.451,1.113,3.252s1.672,1.199,2.789,1.199c1.418,0,2.6-0.6,3.551-1.801
			C139.537,27.63,140.211,25.546,140.211,23.096z"/>
		<path id="XMLID_9_" fill="#FFFFFF" d="M130.6,10.434c0,0-10.289-0.713-16.643,10.715h-0.142l0.195-3.154h-4.584
			c-0.104,1.473-0.227,3.117-0.523,5.641l-1.348,11.492h5.318c0.235-2.006,0.471-4.01,0.707-6.014
			c0.217-1.851,0.352-3.675,1.084-5.472c0.401-0.988,0.922-1.943,1.553-2.828c1.779-2.498,4.398-4.199,7.295-4.877
			c0,0-4.684,2.039-7.098,6.963C120.869,21.127,130.277,21.467,130.6,10.434z"/>
	</g>
</g>
</svg>
