<?xml version="1.0" encoding="utf-8"?>
<!-- Generator: Adobe Illustrator 16.0.3, SVG Export Plug-In . SVG Version: 6.00 Build 0)  -->
<!DOCTYPE svg PUBLIC "-//W3C//DTD SVG 1.1//EN" "http://www.w3.org/Graphics/SVG/1.1/DTD/svg11.dtd">
<svg version="1.1" id="Layer_1" xmlns="http://www.w3.org/2000/svg" xmlns:xlink="http://www.w3.org/1999/xlink" x="0px" y="0px"
	 width="360px" height="107px" viewBox="0 0 360 107" enable-background="new 0 0 360 107" xml:space="preserve">
<g>
	<path fill="#FFFFFF" d="M13.662,42.867c-1.74-1.305-3.098-3.292-4.072-5.962c-0.976-2.67-1.462-5.985-1.462-9.945
		s0.487-7.275,1.462-9.945c0.975-2.669,2.332-4.657,4.072-5.962c1.74-1.305,3.78-1.958,6.12-1.958c2.31,0,4.335,0.653,6.075,1.958
		c1.739,1.305,3.097,3.293,4.072,5.962c0.975,2.67,1.462,5.985,1.462,9.945s-0.488,7.275-1.462,9.945
		c-0.975,2.67-2.333,4.658-4.072,5.962c-1.74,1.305-3.766,1.958-6.075,1.958C17.442,44.825,15.401,44.172,13.662,42.867z
		 M24.957,37.333c1.32-2.265,1.98-5.722,1.98-10.373c0-4.62-0.66-8.07-1.98-10.35c-1.32-2.28-3.045-3.42-5.175-3.42
		c-2.16,0-3.9,1.133-5.22,3.397c-1.32,2.266-1.98,5.723-1.98,10.373c0,4.65,0.653,8.107,1.958,10.373
		c1.305,2.265,3.052,3.397,5.243,3.397C21.912,40.73,23.636,39.598,24.957,37.333z M37.917,8.195h4.5v38.43h-4.5V8.195z"/>
	<path fill="#FFFFFF" d="M85.481,26.195v3.6H47.096v-3.6h8.415V21.38c-1.951-0.57-3.473-1.365-4.568-2.385
		c-1.095-1.02-1.642-2.25-1.642-3.69c0-2.459,1.575-4.297,4.725-5.512c3.15-1.215,7.23-1.823,12.24-1.823
		c5.01,0,9.09,0.607,12.24,1.823c3.15,1.215,4.725,3.053,4.725,5.512c0,1.44-0.547,2.67-1.643,3.69
		c-1.095,1.021-2.618,1.815-4.567,2.385v4.815H85.481z M78.506,34.385c3.09,1.08,4.635,2.851,4.635,5.31s-1.553,4.245-4.658,5.355
		c-3.105,1.109-7.177,1.664-12.217,1.664s-9.112-0.555-12.217-1.664c-3.105-1.11-4.658-2.896-4.658-5.355s1.545-4.23,4.635-5.31
		s7.17-1.62,12.24-1.62C71.335,32.765,75.416,33.305,78.506,34.385z M57.446,18.208c2.279,0.646,5.22,0.967,8.82,0.967
		s6.54-0.322,8.82-0.967c2.28-0.645,3.42-1.612,3.42-2.903c0-1.26-1.147-2.212-3.442-2.857c-2.295-0.645-5.228-0.967-8.797-0.967
		c-3.57,0-6.502,0.323-8.797,0.967c-2.295,0.646-3.443,1.598-3.443,2.857C54.026,16.595,55.166,17.563,57.446,18.208z
		 M74.996,42.373c2.31-0.555,3.465-1.447,3.465-2.678c0-1.2-1.155-2.07-3.465-2.61c-2.311-0.54-5.22-0.81-8.73-0.81
		c-3.51,0-6.413,0.27-8.708,0.81s-3.442,1.41-3.442,2.61c0,1.23,1.147,2.123,3.442,2.678c2.295,0.555,5.197,0.832,8.708,0.832
		C69.776,43.205,72.686,42.927,74.996,42.373z M59.921,26.195h12.69v-3.87c-2.101,0.241-4.215,0.36-6.345,0.36
		c-2.13,0-4.246-0.12-6.345-0.36V26.195z"/>
	<path fill="#FFFFFF" d="M111.131,8.42h4.185v37.53h-4.185V28.445h-5.085c-0.12,5.61-0.93,9.743-2.43,12.397
		c-1.5,2.655-3.66,3.982-6.48,3.982c-2.97,0-5.205-1.447-6.705-4.342c-1.5-2.895-2.25-7.403-2.25-13.522
		c0-6.12,0.75-10.627,2.25-13.522c1.5-2.895,3.735-4.343,6.705-4.343c2.729,0,4.838,1.23,6.323,3.69
		c1.485,2.46,2.332,6.271,2.542,11.43h5.13V8.42z M100.668,37.4c0.765-2.25,1.147-5.73,1.147-10.44c0-4.709-0.382-8.19-1.147-10.44
		s-1.943-3.375-3.533-3.375c-1.59,0-2.775,1.125-3.555,3.375c-0.781,2.25-1.17,5.73-1.17,10.44c0,4.71,0.389,8.19,1.17,10.44
		c0.78,2.25,1.964,3.375,3.555,3.375C98.726,40.775,99.903,39.65,100.668,37.4z M124.631,8.195v38.43h-4.23V8.195H124.631z"/>
	<path fill="#FFFFFF" d="M159.55,28.175v3.24h14.355v8.955h-28.71v2.52h29.385v3.286h-33.75V37.22h28.71V34.7h-28.8v-3.285h14.4
		v-3.24h-16.965V24.71h38.385v3.465H159.55z M173.77,21.875h-32.85V8.42h4.365v3.33h24.12V8.42h4.365V21.875z M169.405,18.5v-3.42
		h-24.12v3.42H169.405z"/>
	<path fill="#FFFFFF" d="M199.555,30.583c-2.159,0.255-4.59,0.382-7.29,0.382h-13.229v-3.78h4.5V12.92h-4.365V9.14h24.48v3.78
		h-4.455v13.995c2.34-0.27,4.169-0.645,5.489-1.125v3.735C203.425,29.975,201.715,30.328,199.555,30.583z M215.845,42.125v4.004
		H182.23v-11.7h4.5v7.695H215.845z M187.81,27.185h4.771c1.05,0,1.829-0.015,2.34-0.045V12.92h-7.11V27.185z M210.535,25.25h-5.67
		v-3.78h5.67v-4.545h-5.67v-3.78h5.67v-4.95h4.41v28.62h-4.41V25.25z"/>
	<path fill="#FFFFFF" d="M219.354,24.44h38.386v3.465h-38.386V24.44z M226.308,20.367c-3.105-1.125-4.658-2.902-4.658-5.333
		c0-2.399,1.553-4.162,4.658-5.287c3.104-1.125,7.178-1.688,12.217-1.688c5.04,0,9.113,0.563,12.218,1.688
		c3.105,1.125,4.657,2.888,4.657,5.287c0,2.43-1.552,4.208-4.657,5.333c-3.104,1.125-7.178,1.688-12.218,1.688
		C233.485,22.055,229.412,21.492,226.308,20.367z M222.01,36.995h28.71v-2.7h-28.8v-3.33h33.165v9.18h-28.71v2.7h29.385v3.331
		h-33.75V36.995z M247.39,17.735c2.279-0.6,3.42-1.5,3.42-2.7c0-1.199-1.147-2.1-3.442-2.7s-5.242-0.9-8.843-0.9
		c-3.6,0-6.547,0.3-8.842,0.9s-3.442,1.5-3.442,2.7c0,1.2,1.14,2.101,3.42,2.7c2.279,0.601,5.234,0.9,8.864,0.9
		S245.109,18.335,247.39,17.735z"/>
	<path fill="#FFFFFF" d="M269.844,40.595h38.386v4.185h-38.386V40.595z M272.364,9.59h33.345v4.14h-28.8v14.4h29.25v4.14h-33.795
		V9.59z"/>
	<path fill="#FFFFFF" d="M326.949,40.235c1.829,0,3.651-0.15,5.467-0.45c1.815-0.299,3.308-0.689,4.478-1.17v4.05
		c-1.14,0.509-2.632,0.915-4.478,1.214c-1.845,0.3-3.728,0.45-5.647,0.45h-14.31V24.755h14.895v-11.07h-14.984V9.59h19.35v19.215
		h-14.85v11.43H326.949z M346.614,8.195v38.43h-4.455v-14.31h-7.335V28.22h7.335v-7.245h-7.335V16.88h7.335V8.195H346.614z"/>
	<path fill="#FFFFFF" d="M22.459,95.369c1.649,0,3.263-0.127,4.837-0.381c1.575-0.256,2.948-0.623,4.118-1.104v3.916
		c-1.11,0.479-2.52,0.854-4.23,1.125c-1.71,0.27-3.45,0.404-5.22,0.404h-8.82V64.59H29.75v3.961h-12.24v26.818H22.459z
		 M48.919,63.195v38.43h-4.23V82.859h-6.255v18.09h-4.23V63.42h4.23v15.256h6.255v-15.48H48.919z"/>
	<path fill="#FFFFFF" d="M75.042,84.457c-2.176,0.314-4.613,0.473-7.313,0.473H53.915V64.141h23.445v3.869H58.415v13.051H68
		c2.639,0,5.01-0.143,7.11-0.428c2.1-0.285,3.765-0.697,4.995-1.238v3.826C78.904,83.73,77.217,84.143,75.042,84.457z M59.719,97.08
		h28.665v4.049H55.219V88.664h4.5V97.08z M92.75,72.33v4.275h-5.4v15.119h-4.455V63.195h4.455v9.135H92.75z"/>
	<path fill="#FFFFFF" d="M109.309,69.18h10.395v4.051h-25.29V69.18h10.35v-6.119h4.545V69.18z M112.639,77.775
		c1.649,0.99,2.932,2.377,3.848,4.162c0.915,1.785,1.373,3.818,1.373,6.098s-0.458,4.313-1.373,6.098
		c-0.916,1.785-2.198,3.172-3.848,4.162c-1.65,0.99-3.51,1.484-5.58,1.484c-2.1,0-3.968-0.494-5.603-1.484
		c-1.635-0.99-2.918-2.377-3.847-4.162c-0.93-1.785-1.395-3.818-1.395-6.098s0.465-4.313,1.395-6.098
		c0.929-1.785,2.212-3.172,3.847-4.162c1.635-0.99,3.502-1.486,5.603-1.486C109.129,76.289,110.988,76.785,112.639,77.775z
		 M110.344,94.896c0.99-0.645,1.77-1.559,2.34-2.744c0.57-1.186,0.855-2.557,0.855-4.117s-0.285-2.932-0.855-4.117
		c-0.57-1.186-1.343-2.1-2.317-2.746c-0.975-0.645-2.078-0.967-3.308-0.967c-1.23,0-2.34,0.322-3.33,0.967
		c-0.99,0.646-1.771,1.561-2.34,2.746c-0.57,1.186-0.855,2.557-0.855,4.117s0.285,2.932,0.855,4.117
		c0.569,1.186,1.35,2.1,2.34,2.744c0.99,0.646,2.1,0.969,3.33,0.969C108.258,95.865,109.354,95.543,110.344,94.896z M129.019,63.195
		v38.43h-4.455v-38.43H129.019z"/>
	<path fill="#FFFFFF" d="M159.348,95.145c5.879,0,10.08-0.539,12.6-1.619v4.184c-2.64,1.08-6.825,1.621-12.555,1.621h-15.75v-4.186
		h10.935v-8.865h4.41v8.865H159.348z M151.833,84.412c-2.1,1.455-4.575,2.334-7.425,2.633v-4.096
		c3.12-0.479,5.572-1.971,7.357-4.477c1.784-2.504,2.857-5.678,3.217-9.518h-9.855v-4.096h23.535v4.096h-9.135
		c-0.18,2.1-0.54,4.035-1.08,5.805l11.52,8.865l-2.7,3.24l-10.35-8.326C155.628,81,153.933,82.957,151.833,84.412z M179.598,63.195
		v38.43h-4.455v-38.43H179.598z"/>
	<path fill="#FFFFFF" d="M222.618,81.016v3.6h-38.386v-3.6h16.966v-5.807h4.409v5.807H222.618z M195.303,75.592
		c-3.15,1.275-6.375,1.943-9.675,2.004v-3.736c2.52-0.09,5.01-0.637,7.47-1.643c2.46-1.004,4.574-2.369,6.345-4.094
		s2.896-3.668,3.375-5.828l4.455,0.766c-0.3,1.529-0.885,3.014-1.755,4.455l15.976,6.795l-1.575,3.375l-16.74-7.201
		C201.077,72.615,198.453,74.318,195.303,75.592z M215.665,89.363c3.105,1.094,4.658,2.871,4.658,5.332
		c0,2.459-1.561,4.252-4.681,5.377s-7.2,1.688-12.24,1.688c-5.039,0-9.12-0.563-12.239-1.688c-3.121-1.125-4.681-2.918-4.681-5.377
		c0-2.461,1.553-4.238,4.658-5.332c3.104-1.096,7.192-1.643,12.262-1.643C208.473,87.721,212.561,88.268,215.665,89.363z
		 M212.133,97.395c2.31-0.568,3.465-1.469,3.465-2.699c0-1.199-1.155-2.078-3.465-2.633c-2.311-0.555-5.22-0.832-8.73-0.832
		c-3.51,0-6.42,0.277-8.729,0.832c-2.311,0.555-3.465,1.434-3.465,2.633c0,1.23,1.154,2.131,3.465,2.699
		c2.31,0.57,5.22,0.855,8.729,0.855C206.913,98.25,209.822,97.965,212.133,97.395z"/>
	<path fill="#FFFFFF" d="M250.788,69.811h-26.101v-3.42h10.8V62.52h4.5v3.871h10.801V69.811z M231.955,84.48
		c-1.726-0.541-3.075-1.32-4.05-2.34c-0.976-1.02-1.463-2.221-1.463-3.602c0-1.35,0.495-2.533,1.485-3.555
		c0.99-1.02,2.34-1.807,4.05-2.361s3.63-0.834,5.76-0.834s4.051,0.279,5.761,0.834s3.052,1.342,4.027,2.361
		c0.975,1.021,1.462,2.205,1.462,3.555c0,1.381-0.487,2.582-1.462,3.602c-0.976,1.02-2.317,1.799-4.027,2.34
		c-1.71,0.539-3.631,0.809-5.761,0.809S233.68,85.02,231.955,84.48z M255.288,86.865h4.319v14.264h-32.13V86.865h4.32v3.465h23.49
		V86.865z M232.63,76.02c-1.275,0.66-1.912,1.5-1.912,2.52c0,1.021,0.637,1.861,1.912,2.521s2.978,0.99,5.107,0.99
		c2.1,0,3.795-0.33,5.085-0.99s1.936-1.5,1.936-2.521c0-1.02-0.646-1.859-1.936-2.52s-2.985-0.99-5.085-0.99
		C235.607,75.029,233.905,75.359,232.63,76.02z M255.288,97.619V93.75h-23.49v3.869H255.288z M265.008,75.391h-5.4v9.404h-4.455
		v-21.6h4.455v8.055h5.4V75.391z"/>
	<path fill="#FFFFFF" d="M267.616,64.365h4.545v30.869h11.16c1.8,0,3.615-0.172,5.445-0.518c1.829-0.344,3.33-0.801,4.5-1.371v4.094
		c-1.17,0.57-2.655,1.027-4.455,1.373c-1.8,0.344-3.63,0.518-5.49,0.518h-15.705V64.365z M296.821,63.195h4.455v38.43l-4.455,0.045
		V63.195z"/>
	<path fill="#FFFFFF" d="M323.057,95.279c1.829,0,3.651-0.164,5.467-0.494s3.308-0.779,4.478-1.35v4.049
		c-1.14,0.57-2.647,1.02-4.522,1.35s-3.757,0.496-5.647,0.496h-15.029V64.59h22.185v4.051h-17.64v26.639H323.057z M346.187,83.039
		h-5.4v18.586h-4.455v-38.43h4.455v15.57h5.4V83.039z"/>
	<path fill="#FFFFFF" d="M347.648,100.342c-0.615-0.615-0.922-1.371-0.922-2.271s0.307-1.658,0.922-2.273
		c0.615-0.613,1.373-0.922,2.272-0.922c0.9,0,1.649,0.309,2.25,0.922c0.6,0.615,0.9,1.373,0.9,2.273s-0.301,1.656-0.9,2.271
		c-0.601,0.615-1.35,0.924-2.25,0.924C349.021,101.266,348.264,100.957,347.648,100.342z"/>
</g>
</svg>
