<?xml version="1.0" encoding="utf-8"?>
<!-- Generator: Adobe Illustrator 16.0.0, SVG Export Plug-In . SVG Version: 6.00 Build 0)  -->
<!DOCTYPE svg PUBLIC "-//W3C//DTD SVG 1.1//EN" "http://www.w3.org/Graphics/SVG/1.1/DTD/svg11.dtd">
<svg version="1.1" id="Layer_1" xmlns="http://www.w3.org/2000/svg" xmlns:xlink="http://www.w3.org/1999/xlink" x="0px" y="0px"
	 width="640px" height="640px" viewBox="0 0 640 640" enable-background="new 0 0 640 640" xml:space="preserve">
<g id="Layer_1_1_">
	<g>
		<path fill="#D4D4D4" d="M8.591,600.577V441.264c0-13.479,10.928-24.408,24.409-24.408h257.242c1.949,0,3.53,1.582,3.53,3.531
			c0,1.951-1.581,3.533-3.53,3.533H33c-9.579,0-17.347,7.766-17.347,17.344v159.313c0,9.578,7.768,17.344,17.347,17.344h576.592
			c9.578,0,17.344-7.766,17.344-17.344V441.264c0-9.578-7.766-17.344-17.344-17.344H350.289c-1.947,0-3.529-1.582-3.529-3.533
			c0-1.949,1.582-3.531,3.529-3.531h259.303c13.479,0,24.408,10.93,24.408,24.408v159.313c0,13.479-10.93,24.408-24.408,24.408H33
			C19.519,624.985,8.591,614.058,8.591,600.577"/>
		<path fill="#D4D4D4" d="M337.857,255.826L337.857,255.826c-1.381-1.379-3.617-1.379-4.996,0l-9.063,9.063v-33.316
			c0-9.396-7.617-17.015-17.016-17.015H33c-9.579,0-17.347-7.765-17.347-17.344V39.089c0-9.579,7.768-17.344,17.347-17.344h576.592
			c9.578,0,17.344,7.765,17.344,17.344v158.124c0,9.579-7.766,17.344-17.344,17.344H350.289c-1.947,0-3.529,1.581-3.529,3.532
			c0,1.951,1.582,3.533,3.529,3.533h259.303c13.479,0,24.408-10.929,24.408-24.41V39.089c0-13.48-10.93-24.408-24.408-24.408H33
			c-13.481,0-24.409,10.928-24.409,24.408v158.125c0,13.481,10.928,24.409,24.409,24.409h273.783c5.495,0,9.95,4.454,9.95,9.949
			v33.316l-9.062-9.063c-1.381-1.379-3.616-1.379-4.996,0l0,0c-1.38,1.38-1.38,3.616,0,4.996l15.283,15.283
			c1.272,1.273,3.338,1.273,4.612,0l15.283-15.283C339.236,259.442,339.236,257.206,337.857,255.826"/>
		<path fill="#D4D4D4" d="M33,379.119c-9.579,0-17.347-7.766-17.347-17.344v-85.072c0-9.58,7.768-17.344,17.347-17.344h257.242
			c1.949,0,3.53-1.582,3.53-3.533c0-1.951-1.581-3.532-3.53-3.532H33c-13.481,0-24.409,10.929-24.409,24.409v85.072
			c0,13.479,10.928,24.408,24.409,24.408h257.242c1.949,0,3.53-1.58,3.53-3.531s-1.581-3.533-3.53-3.533H33z"/>
		<path fill="#D4D4D4" d="M337.857,420.387L337.857,420.387c-1.381-1.379-3.617-1.379-4.996,0l-9.063,9.063v-33.316
			c0-5.493,4.455-9.948,9.947-9.948h275.846c13.479,0,24.406-10.929,24.406-24.408v-85.071c0-13.48-10.928-24.409-24.406-24.409
			H350.289c-1.947,0-3.529,1.581-3.529,3.532s1.582,3.533,3.529,3.533h259.303c9.578,0,17.344,7.764,17.344,17.344v85.071
			c0,9.578-7.766,17.345-17.344,17.345H333.746c-9.396,0-17.013,7.616-17.013,17.014v33.316l-9.062-9.063
			c-1.381-1.38-3.616-1.38-4.996,0s-1.38,3.616,0,4.995l15.281,15.283c1.274,1.273,3.34,1.273,4.614,0l15.283-15.283
			C339.236,424.004,339.236,421.768,337.857,420.387"/>
	</g>
</g>
<g>
	<g id="Rounded_Rectangle_9_2_">
		<g>
			<path fill="#F7966D" d="M236.666,56.873h-187.1c-4.133,0-7.482,3.352-7.482,7.484v35.547c0,4.133,3.352,7.484,7.482,7.484h187.1
				c4.133,0,7.479-3.352,7.479-7.484V64.357C244.145,60.225,240.799,56.873,236.666,56.873z"/>
		</g>
	</g>
	<g enable-background="new    ">
		<path fill="#FFFFFF" d="M82.998,69.833h4.088c1.306,0,2.613,0,3.92,0c1.306,0,2.623-0.019,3.948-0.057
			c-0.112,1.494-0.458,2.917-1.036,4.271c-0.579,1.354-1.377,2.604-2.395,3.752c-1.018,1.147-2.245,2.17-3.682,3.065
			c-1.438,0.896-3.052,1.624-4.844,2.185l-1.4-1.904c2.931-0.877,5.301-2.086,7.112-3.626c1.81-1.54,2.939-3.439,3.388-5.698
			c-1.12,0.038-2.229,0.062-3.332,0.07c-1.102,0.01-2.212,0.014-3.332,0.014h-2.436V69.833z M101.338,93.885h-15.68v-9.576h15.68
			V93.885z M98.93,86.465H88.066v5.32H98.93V86.465z M105.37,76.749h-4.032v6.104H98.93v-14.14h2.408v5.88h4.032V76.749z"/>
		<path fill="#FFFFFF" d="M116.85,86.745v-3.08h-10.892v-2.072h24.332v2.072h-10.977v3.08h7.057v7.615h-2.408v-5.544h-14.477v-2.071
			H116.85z M109.794,71.904h7.784c1.176,0,2.347,0,3.514,0s2.394-0.018,3.682-0.056c0.205,0.019,0.351,0.117,0.435,0.294
			c0.084,0.178,0.079,0.341-0.015,0.49c-0.374,0.71-0.934,1.4-1.68,2.072s-1.624,1.297-2.632,1.876
			c1.101,0.41,2.268,0.774,3.5,1.092c1.231,0.318,2.52,0.579,3.864,0.784l-1.148,1.848c-1.438-0.242-2.87-0.588-4.298-1.036
			c-1.428-0.448-2.786-0.97-4.074-1.567c-1.512,0.709-3.118,1.302-4.815,1.777c-1.699,0.477-3.305,0.78-4.816,0.91l-1.008-1.82
			c1.399-0.13,2.767-0.354,4.102-0.672c1.334-0.317,2.59-0.69,3.767-1.12c1.176-0.429,2.239-0.9,3.191-1.414
			c0.952-0.513,1.754-1.04,2.408-1.582c-1.045,0.038-2.082,0.066-3.108,0.084c-1.026,0.02-2.054,0.028-3.079,0.028h-5.572V71.904
			L109.794,71.904z M113.098,68.377h9.072v2.044h-9.072V68.377z"/>
		<path fill="#FFFFFF" d="M132.026,88.677l-1.735-1.54c1.138-0.821,2.192-1.764,3.164-2.828c0.97-1.063,1.792-2.282,2.464-3.654
			c0.672-1.371,1.171-2.916,1.498-4.634c0.326-1.717,0.415-3.63,0.266-5.74h2.548c0.037,1.232,0,2.399-0.111,3.5
			c-0.112,1.103-0.271,2.156-0.477,3.164c0.672,1.923,1.624,3.683,2.856,5.278c1.231,1.595,2.696,2.964,4.396,4.103l-1.567,1.792
			c-1.4-0.989-2.656-2.161-3.767-3.515c-1.11-1.353-2.058-2.879-2.842-4.578c-0.709,1.83-1.628,3.458-2.758,4.887
			C134.83,86.339,133.519,87.595,132.026,88.677z M155.546,80.921h-4.396v13.355h-2.407V68.685h2.407v10.08h4.396V80.921z"/>
		<path fill="#FFFFFF" d="M170.218,74.117h4.844v-5.404h2.408v13.104h-2.408v-5.544h-4.788c-0.111,0.803-0.346,1.526-0.699,2.17
			c-0.355,0.645-0.813,1.195-1.372,1.652c-0.561,0.458-1.209,0.813-1.946,1.064s-1.536,0.378-2.395,0.378
			c-0.934,0-1.796-0.149-2.59-0.448c-0.794-0.299-1.479-0.714-2.058-1.246c-0.579-0.532-1.031-1.176-1.358-1.932
			c-0.327-0.757-0.489-1.601-0.489-2.534c0-0.915,0.162-1.75,0.489-2.506c0.327-0.757,0.779-1.4,1.358-1.933
			c0.579-0.533,1.265-0.947,2.058-1.246c0.793-0.298,1.656-0.447,2.59-0.447c0.821,0,1.587,0.116,2.297,0.348
			c0.709,0.232,1.344,0.563,1.903,0.988c0.561,0.426,1.026,0.938,1.4,1.531C169.835,72.707,170.087,73.375,170.218,74.117z
			 M163.834,71.289c-1.213,0-2.193,0.378-2.94,1.134c-0.747,0.756-1.12,1.75-1.12,2.981c0,0.616,0.099,1.177,0.294,1.681
			c0.196,0.504,0.472,0.934,0.826,1.288s0.784,0.63,1.288,0.826c0.504,0.195,1.054,0.294,1.652,0.294
			c0.616,0,1.171-0.099,1.666-0.294c0.495-0.196,0.924-0.472,1.288-0.826c0.363-0.354,0.644-0.784,0.84-1.288
			s0.294-1.064,0.294-1.681c0-1.231-0.374-2.226-1.12-2.981C166.055,71.667,165.066,71.289,163.834,71.289z M177.47,93.885h-16.016
			V83.413h2.38v3.052h11.256v-3.192h2.38V93.885z M175.09,91.785v-3.332h-11.256v3.332H175.09z"/>
		<path fill="#FFFFFF" d="M191.19,79.717c0.804,1.232,1.736,2.436,2.801,3.612c1.063,1.176,2.221,2.212,3.472,3.107l-1.792,1.736
			c-1.12-0.858-2.151-1.829-3.094-2.912c-0.943-1.082-1.825-2.24-2.646-3.472c-1.027,1.512-2.184,2.884-3.472,4.115
			c-1.288,1.232-2.66,2.269-4.116,3.108l-1.708-1.624c1.493-0.803,2.846-1.801,4.06-2.996c1.214-1.194,2.264-2.454,3.15-3.78
			c0.886-1.325,1.596-2.659,2.128-4.004c0.532-1.344,0.854-2.575,0.966-3.695c-1.063,0.037-2.104,0.061-3.122,0.069
			c-1.018,0.01-2.049,0.015-3.094,0.015h-2.632v-2.044h4.228c1.194,0,2.408,0,3.641,0c1.231,0,2.51-0.019,3.836-0.057
			c-0.057,1.513-0.309,3.01-0.756,4.494C192.59,76.875,191.974,78.316,191.19,79.717z M205.498,80.696h-4.396v13.58h-2.408V68.713
			h2.408v9.828h4.396V80.696z"/>
	</g>
</g>
<g>
	<g id="Rounded_Rectangle_9_1_">
		<g>
			<path fill="#F7966D" d="M236.666,294.742h-187.1c-4.133,0-7.482,3.352-7.482,7.484v35.547c0,4.133,3.352,7.483,7.482,7.483h187.1
				c4.133,0,7.479-3.353,7.479-7.483v-35.547C244.145,298.094,240.799,294.742,236.666,294.742z"/>
		</g>
	</g>
	<g enable-background="new    ">
		<path fill="#FFFFFF" d="M82.998,307.702h4.088c1.306,0,2.613,0,3.92,0c1.306,0,2.623-0.019,3.948-0.057
			c-0.112,1.494-0.458,2.917-1.036,4.271c-0.579,1.354-1.377,2.604-2.395,3.752c-1.018,1.147-2.245,2.17-3.682,3.065
			c-1.438,0.896-3.052,1.624-4.844,2.185l-1.4-1.904c2.931-0.877,5.301-2.086,7.112-3.626c1.81-1.54,2.939-3.439,3.388-5.698
			c-1.12,0.038-2.229,0.062-3.332,0.07c-1.102,0.01-2.212,0.014-3.332,0.014h-2.436V307.702z M101.338,331.754h-15.68v-9.576h15.68
			V331.754z M98.93,324.334H88.066v5.32H98.93V324.334z M105.37,314.618h-4.032v6.104H98.93v-14.141h2.408v5.88h4.032V314.618z"/>
		<path fill="#FFFFFF" d="M116.85,324.614v-3.08h-10.892v-2.072h24.332v2.072h-10.977v3.08h7.057v7.614h-2.408v-5.543h-14.477
			v-2.072L116.85,324.614L116.85,324.614z M109.794,309.773h7.784c1.176,0,2.347,0,3.514,0s2.394-0.018,3.682-0.056
			c0.205,0.019,0.351,0.117,0.435,0.294c0.084,0.178,0.079,0.341-0.015,0.49c-0.374,0.71-0.934,1.4-1.68,2.072
			c-0.746,0.672-1.624,1.297-2.632,1.876c1.101,0.41,2.268,0.774,3.5,1.092c1.231,0.318,2.52,0.579,3.864,0.784l-1.148,1.848
			c-1.438-0.242-2.87-0.588-4.298-1.036c-1.428-0.448-2.786-0.97-4.074-1.567c-1.512,0.709-3.118,1.302-4.815,1.777
			c-1.699,0.477-3.305,0.78-4.816,0.91l-1.008-1.82c1.399-0.13,2.767-0.354,4.102-0.672c1.334-0.317,2.59-0.69,3.767-1.12
			c1.176-0.429,2.239-0.9,3.191-1.414c0.952-0.513,1.754-1.04,2.408-1.582c-1.045,0.038-2.082,0.066-3.108,0.084
			c-1.026,0.02-2.054,0.028-3.079,0.028h-5.572V309.773L109.794,309.773z M113.098,306.246h9.072v2.044h-9.072V306.246z"/>
		<path fill="#FFFFFF" d="M132.026,326.546l-1.735-1.54c1.138-0.82,2.192-1.764,3.164-2.828c0.97-1.063,1.792-2.282,2.464-3.654
			c0.672-1.371,1.171-2.916,1.498-4.634c0.326-1.717,0.415-3.63,0.266-5.74h2.548c0.037,1.232,0,2.399-0.111,3.5
			c-0.112,1.103-0.271,2.156-0.477,3.164c0.672,1.923,1.624,3.683,2.856,5.278c1.231,1.596,2.696,2.965,4.396,4.104l-1.567,1.791
			c-1.4-0.988-2.656-2.16-3.767-3.514s-2.058-2.88-2.842-4.579c-0.709,1.83-1.628,3.458-2.758,4.887
			C134.83,324.208,133.519,325.464,132.026,326.546z M155.546,318.79h-4.396v13.354h-2.407v-25.591h2.407v10.08h4.396V318.79z"/>
		<path fill="#FFFFFF" d="M170.218,311.986h4.844v-5.404h2.408v13.104h-2.408v-5.544h-4.788c-0.111,0.803-0.346,1.526-0.699,2.17
			c-0.355,0.645-0.813,1.195-1.372,1.652c-0.561,0.458-1.209,0.812-1.946,1.064c-0.737,0.252-1.536,0.378-2.395,0.378
			c-0.934,0-1.796-0.149-2.59-0.448s-1.479-0.714-2.058-1.246c-0.579-0.532-1.031-1.176-1.358-1.932
			c-0.327-0.757-0.489-1.601-0.489-2.534c0-0.915,0.162-1.75,0.489-2.506c0.327-0.757,0.779-1.4,1.358-1.933
			c0.579-0.533,1.265-0.947,2.058-1.246c0.793-0.298,1.656-0.447,2.59-0.447c0.821,0,1.587,0.116,2.297,0.348
			c0.709,0.232,1.344,0.562,1.903,0.988c0.561,0.426,1.026,0.938,1.4,1.531C169.835,310.576,170.087,311.244,170.218,311.986z
			 M163.834,309.158c-1.213,0-2.193,0.378-2.94,1.134s-1.12,1.75-1.12,2.981c0,0.616,0.099,1.177,0.294,1.681
			c0.196,0.504,0.472,0.934,0.826,1.288s0.784,0.63,1.288,0.826c0.504,0.195,1.054,0.294,1.652,0.294
			c0.616,0,1.171-0.099,1.666-0.294c0.495-0.196,0.924-0.472,1.288-0.826c0.363-0.354,0.644-0.784,0.84-1.288
			s0.294-1.064,0.294-1.681c0-1.231-0.374-2.226-1.12-2.981C166.055,309.536,165.066,309.158,163.834,309.158z M177.47,331.754
			h-16.016v-10.472h2.38v3.052h11.256v-3.191h2.38V331.754z M175.09,329.654v-3.332h-11.256v3.332H175.09z"/>
		<path fill="#FFFFFF" d="M191.19,317.586c0.804,1.232,1.736,2.436,2.801,3.612c1.063,1.176,2.221,2.212,3.472,3.106l-1.792,1.736
			c-1.12-0.857-2.151-1.829-3.094-2.912c-0.943-1.082-1.825-2.24-2.646-3.472c-1.027,1.512-2.184,2.884-3.472,4.114
			c-1.288,1.232-2.66,2.27-4.116,3.108l-1.708-1.624c1.493-0.803,2.846-1.801,4.06-2.996c1.214-1.193,2.264-2.454,3.15-3.78
			c0.886-1.325,1.596-2.659,2.128-4.004c0.532-1.344,0.854-2.575,0.966-3.695c-1.063,0.037-2.104,0.061-3.122,0.069
			c-1.018,0.01-2.049,0.015-3.094,0.015h-2.632v-2.044h4.228c1.194,0,2.408,0,3.641,0c1.231,0,2.51-0.019,3.836-0.057
			c-0.057,1.513-0.309,3.01-0.756,4.494C192.59,314.744,191.974,316.186,191.19,317.586z M205.498,318.565h-4.396v13.58h-2.408
			v-25.563h2.408v9.828h4.396V318.565z"/>
	</g>
</g>
<g>
	<g id="Rounded_Rectangle_9_copy_2_">
		<g>
			<path fill="#019EBF" d="M236.666,122.357h-187.1c-4.133,0-7.482,3.352-7.482,7.486v35.545c0,4.135,3.352,7.484,7.482,7.484h187.1
				c4.133,0,7.479-3.35,7.479-7.484v-35.545C244.145,125.709,240.799,122.357,236.666,122.357z"/>
		</g>
	</g>
	<g enable-background="new    ">
		<path fill="#FFFFFF" d="M71.239,143.824c0-0.914,0.169-1.759,0.505-2.534c0.336-0.774,0.802-1.446,1.399-2.016
			c0.598-0.569,1.297-1.013,2.101-1.33c0.802-0.317,1.68-0.477,2.632-0.477c0.933,0,1.801,0.159,2.604,0.477
			c0.802,0.317,1.498,0.761,2.086,1.33s1.051,1.241,1.387,2.016s0.504,1.62,0.504,2.534c0,0.784-0.126,1.521-0.378,2.212
			c-0.252,0.691-0.612,1.302-1.078,1.834c-0.467,0.532-1.019,0.98-1.652,1.344c-0.635,0.364-1.326,0.612-2.072,0.742v4.256
			c1.381-0.056,2.744-0.13,4.088-0.224c1.345-0.094,2.559-0.215,3.641-0.364v1.988c-0.896,0.131-1.881,0.243-2.954,0.336
			c-1.073,0.094-2.175,0.173-3.305,0.238c-1.131,0.065-2.261,0.116-3.389,0.153c-1.128,0.038-2.188,0.057-3.176,0.057h-4.984v-2.072
			h4.956c0.411,0,0.835,0,1.274,0s0.9-0.009,1.386-0.028v-4.256c-0.816-0.112-1.564-0.345-2.243-0.7
			c-0.678-0.354-1.263-0.802-1.755-1.344c-0.492-0.541-0.877-1.166-1.155-1.876C71.378,145.411,71.239,144.646,71.239,143.824z
			 M73.703,143.824c0,0.616,0.102,1.181,0.308,1.694c0.205,0.514,0.494,0.951,0.868,1.315s0.812,0.649,1.315,0.854
			c0.505,0.205,1.064,0.308,1.681,0.308c0.597,0,1.147-0.103,1.651-0.308s0.938-0.49,1.303-0.854
			c0.363-0.364,0.647-0.802,0.854-1.315c0.205-0.514,0.309-1.078,0.309-1.694c0-0.635-0.104-1.213-0.309-1.736
			c-0.206-0.522-0.49-0.975-0.854-1.357c-0.364-0.383-0.799-0.677-1.303-0.882c-0.504-0.206-1.055-0.309-1.651-0.309
			c-0.599,0-1.153,0.103-1.666,0.309c-0.515,0.205-0.957,0.499-1.33,0.882c-0.373,0.383-0.663,0.835-0.868,1.357
			C73.805,142.611,73.703,143.189,73.703,143.824z M90.727,161.632h-2.408v-25.563h2.408V161.632z"/>
		<path fill="#FFFFFF" d="M93.751,152.952v-2.072h23.8v2.072h-10.416v8.54h-2.464v-8.54H93.751z M113.995,147.8H97.643v-11.144
			h2.408v3.668h11.536v-3.668h2.408V147.8z M111.643,145.784v-3.472H99.995v3.472H111.643z"/>
		<path fill="#FFFFFF" d="M120.939,137.188h4.088c1.307,0,2.604,0,3.893,0s2.595-0.019,3.92-0.057
			c-0.112,1.494-0.458,2.917-1.036,4.271c-0.579,1.354-1.372,2.604-2.38,3.752c-1.008,1.147-2.227,2.17-3.654,3.065
			c-1.428,0.896-3.038,1.624-4.83,2.185l-1.399-1.904c2.931-0.877,5.292-2.086,7.084-3.626s2.912-3.439,3.359-5.698
			c-1.12,0.038-2.222,0.062-3.304,0.07c-1.083,0.01-2.184,0.014-3.304,0.014h-2.437V137.188z M140.007,161.24h-15.96v-9.38h15.96
			V161.24z M137.599,153.96h-11.144v5.208h11.144V153.96z M132.447,145.336v-2.1h5.152v-7.168h2.408v14.336h-2.408v-5.068H132.447z"
			/>
		<path fill="#FFFFFF" d="M167.782,148.024v2.072h-24.36v-2.072H167.782z M158.543,141.78c1.138,0.598,2.36,1.115,3.668,1.554
			c1.306,0.439,2.632,0.789,3.976,1.05l-1.231,1.904c-0.672-0.149-1.372-0.336-2.101-0.56c-0.728-0.225-1.456-0.485-2.184-0.784
			c-0.729-0.299-1.442-0.616-2.143-0.952c-0.699-0.336-1.34-0.69-1.918-1.064c-1.567,0.841-3.238,1.545-5.012,2.114
			c-1.772,0.57-3.538,0.976-5.292,1.218l-1.147-1.848c1.567-0.224,3.057-0.532,4.466-0.924c1.409-0.392,2.707-0.84,3.892-1.344
			c1.186-0.504,2.235-1.051,3.15-1.639s1.67-1.18,2.268-1.777c-1.998,0.056-3.984,0.084-5.964,0.084h-5.656v-1.988h7.813
			c1.193,0,2.394,0,3.598,0s2.459-0.019,3.767-0.056c0.224-0.019,0.372,0.052,0.447,0.21c0.074,0.158,0.065,0.321-0.027,0.489
			c-0.468,0.804-1.074,1.564-1.82,2.282C160.344,140.469,159.494,141.146,158.543,141.78z M164.478,156.984
			c0,0.69-0.182,1.334-0.546,1.932s-0.91,1.11-1.638,1.54c-0.729,0.43-1.634,0.771-2.716,1.022s-2.333,0.378-3.752,0.378
			c-1.438,0-2.698-0.126-3.78-0.378c-1.083-0.252-1.988-0.593-2.716-1.022c-0.729-0.429-1.279-0.942-1.652-1.54
			c-0.374-0.598-0.56-1.241-0.56-1.932c0-1.4,0.731-2.543,2.197-3.43c1.465-0.887,3.636-1.33,6.511-1.33s5.034,0.443,6.481,1.33
			C163.755,154.441,164.478,155.584,164.478,156.984z M161.874,157.012c0-0.354-0.099-0.699-0.294-1.035
			c-0.196-0.336-0.532-0.64-1.009-0.91c-0.476-0.27-1.102-0.49-1.876-0.658s-1.73-0.252-2.869-0.252
			c-1.158,0-2.124,0.084-2.898,0.252c-0.775,0.168-1.4,0.388-1.876,0.658s-0.813,0.574-1.008,0.91
			c-0.196,0.336-0.294,0.682-0.294,1.035c0,0.337,0.098,0.678,0.294,1.022c0.195,0.345,0.532,0.648,1.008,0.91
			c0.476,0.261,1.101,0.476,1.876,0.644c0.774,0.168,1.74,0.252,2.898,0.252c1.139,0,2.095-0.084,2.869-0.252s1.4-0.383,1.876-0.644
			c0.477-0.262,0.813-0.565,1.009-0.91C161.777,157.689,161.874,157.349,161.874,157.012z"/>
		<path fill="#FFFFFF" d="M169.127,154.38c1.642-0.821,3.094-1.754,4.354-2.8c1.261-1.045,2.328-2.174,3.206-3.388
			c0.877-1.213,1.582-2.487,2.114-3.822c0.532-1.334,0.891-2.702,1.078-4.102c-1.14,0.037-2.269,0.061-3.388,0.069
			c-1.12,0.01-2.24,0.015-3.36,0.015h-2.968v-2.072h4.479c1.308,0,2.613,0,3.92,0s2.622-0.019,3.948-0.056
			c-0.262,3.846-1.339,7.284-3.234,10.317c-1.895,3.034-4.736,5.567-8.525,7.603L169.127,154.38z M187.551,136.068h2.408v25.563
			h-2.408V136.068z"/>
		<path fill="#FFFFFF" d="M201.579,143.404v5.572c1.549-0.054,3.107-0.13,4.676-0.228c1.567-0.099,2.968-0.228,4.2-0.389v1.988
			c-0.896,0.131-1.881,0.242-2.954,0.336c-1.074,0.093-2.175,0.173-3.305,0.237c-1.129,0.066-2.259,0.117-3.388,0.154
			c-1.13,0.038-2.188,0.056-3.178,0.056h-4.145v-2.071h5.629v-5.656L201.579,143.404L201.579,143.404z M208.187,137.384
			c-0.019,0.729-0.052,1.503-0.098,2.324c-0.047,0.822-0.107,1.647-0.183,2.479c-0.074,0.83-0.168,1.643-0.279,2.436
			c-0.112,0.794-0.234,1.517-0.364,2.17h-2.352c0.241-1.176,0.438-2.394,0.588-3.653c0.148-1.261,0.242-2.497,0.279-3.711h-10.248
			v-2.044L208.187,137.384L208.187,137.384z M214.487,161.128h-16.688v-7.195h2.464v5.096h14.224V161.128z M211.658,155.641v-19.572
			h2.407v8.708h3.696v2.156h-3.696v8.708H211.658z"/>
	</g>
</g>
<g enable-background="new    ">
	<path fill="#4C4C4C" d="M265.604,67.962h4.088c1.307,0,2.613,0,3.92,0s2.623-0.019,3.948-0.057
		c-0.111,1.494-0.458,2.917-1.036,4.271c-0.579,1.354-1.377,2.604-2.394,3.752c-1.019,1.147-2.245,2.17-3.683,3.065
		c-1.438,0.896-3.052,1.624-4.844,2.185l-1.399-1.904c2.931-0.877,5.301-2.086,7.111-3.626s2.94-3.439,3.389-5.698
		c-1.12,0.038-2.23,0.062-3.332,0.07c-1.103,0.01-2.212,0.014-3.332,0.014h-2.437V67.962z M283.944,92.014h-15.68v-9.576h15.68
		V92.014z M281.535,84.594h-10.864v5.32h10.864V84.594z M287.975,74.878h-4.032v6.104h-2.407v-14.14h2.407v5.88h4.032V74.878z"/>
	<path fill="#4C4C4C" d="M299.455,84.874v-3.08h-10.892v-2.072h24.332v2.072H301.92v3.08h7.056v7.615h-2.408v-5.544h-14.476v-2.071
		H299.455z M292.4,70.033h7.784c1.176,0,2.347,0,3.514,0s2.395-0.018,3.683-0.056c0.205,0.019,0.35,0.117,0.434,0.294
		c0.084,0.178,0.079,0.341-0.014,0.49c-0.374,0.71-0.935,1.4-1.681,2.072s-1.624,1.297-2.632,1.876
		c1.102,0.41,2.269,0.774,3.5,1.092c1.232,0.318,2.521,0.579,3.864,0.784l-1.148,1.848c-1.438-0.242-2.869-0.588-4.298-1.036
		c-1.428-0.448-2.786-0.97-4.074-1.567c-1.512,0.709-3.117,1.302-4.815,1.777c-1.699,0.477-3.304,0.78-4.815,0.91l-1.009-1.82
		c1.4-0.13,2.768-0.354,4.103-0.672c1.334-0.317,2.59-0.69,3.766-1.12c1.176-0.429,2.24-0.9,3.192-1.414
		c0.951-0.513,1.754-1.04,2.407-1.582c-1.045,0.038-2.082,0.066-3.107,0.084c-1.027,0.02-2.055,0.028-3.08,0.028H292.4V70.033z
		 M295.704,66.506h9.071v2.044h-9.071V66.506z"/>
	<path fill="#4C4C4C" d="M317.404,78.798h2.94c2.184,0,4.079-0.103,5.684-0.309c1.605-0.205,2.996-0.447,4.172-0.729v2.016
		c-1.362,0.336-2.906,0.598-4.634,0.784c-1.727,0.186-3.579,0.28-5.558,0.28h-5.068V73.28h8.792v-3.5h-8.848v-2.016h11.256v7.476
		h-8.736V78.798z M334.176,87.842c0,0.69-0.173,1.325-0.519,1.904c-0.345,0.578-0.867,1.082-1.564,1.512
		c-0.698,0.429-1.565,0.765-2.601,1.008c-1.033,0.242-2.23,0.364-3.592,0.364c-1.379,0-2.581-0.122-3.605-0.364
		c-1.024-0.243-1.887-0.579-2.585-1.008c-0.699-0.43-1.222-0.934-1.565-1.512c-0.345-0.579-0.517-1.214-0.517-1.904
		c0-0.69,0.172-1.325,0.517-1.904c0.345-0.578,0.866-1.078,1.565-1.498c0.698-0.42,1.561-0.746,2.585-0.979s2.228-0.351,3.605-0.351
		c1.36,0,2.559,0.117,3.592,0.351c1.034,0.234,1.901,0.56,2.601,0.979c0.698,0.419,1.221,0.92,1.564,1.498
		C334.003,86.517,334.176,87.151,334.176,87.842z M331.656,87.897c0-0.765-0.462-1.423-1.386-1.974
		c-0.924-0.551-2.385-0.826-4.383-0.826c-1.979,0-3.439,0.271-4.381,0.812c-0.943,0.542-1.415,1.204-1.415,1.988
		c0,0.784,0.471,1.442,1.415,1.975c0.94,0.531,2.401,0.798,4.381,0.798c1.998,0,3.459-0.271,4.383-0.813
		S331.656,88.663,331.656,87.897z M333.896,70.006h3.92v2.072h-3.948v3.836h3.948v2.071h-3.92v4.929h-2.408V66.842h2.408V70.006z"/>
	<path fill="#4C4C4C" d="M354.671,67.485c0.019,0.84-0.02,1.647-0.11,2.422c-0.093,0.775-0.231,1.518-0.416,2.227
		c0.78,1.475,1.717,2.749,2.809,3.822c1.093,1.073,2.423,2.002,3.99,2.785l-1.483,1.708c-1.345-0.69-2.539-1.53-3.582-2.52
		c-1.044-0.989-1.927-2.091-2.646-3.304c-0.664,1.419-1.533,2.674-2.604,3.766c-1.074,1.092-2.312,2.03-3.711,2.814l-1.65-1.597
		c2.407-1.362,4.203-3.023,5.389-4.983c1.185-1.96,1.702-4.341,1.556-7.141L354.671,67.485L354.671,67.485z M366.571,87.674
		c0,0.709-0.176,1.367-0.529,1.974c-0.354,0.607-0.887,1.129-1.595,1.568c-0.708,0.438-1.593,0.784-2.654,1.036
		c-1.063,0.252-2.294,0.378-3.689,0.378c-1.398,0-2.624-0.126-3.676-0.378c-1.054-0.252-1.936-0.603-2.644-1.051
		c-0.708-0.447-1.238-0.976-1.594-1.581c-0.354-0.607-0.53-1.265-0.53-1.975c0-0.709,0.178-1.367,0.53-1.974
		c0.354-0.606,0.886-1.134,1.594-1.582c0.708-0.448,1.589-0.798,2.644-1.05c1.052-0.252,2.276-0.378,3.676-0.378
		c1.396,0,2.627,0.126,3.689,0.378c1.062,0.252,1.946,0.602,2.654,1.05c0.708,0.448,1.239,0.979,1.595,1.596
		C366.396,86.302,366.571,86.965,366.571,87.674z M364.051,87.674c0-0.393-0.117-0.766-0.351-1.12s-0.598-0.672-1.092-0.952
		c-0.495-0.28-1.121-0.504-1.877-0.672s-1.646-0.252-2.674-0.252c-1.008,0-1.885,0.084-2.631,0.252
		c-0.748,0.168-1.368,0.392-1.863,0.672c-0.494,0.28-0.858,0.598-1.092,0.952c-0.234,0.354-0.351,0.728-0.351,1.12
		c0,0.373,0.116,0.737,0.351,1.092c0.233,0.355,0.598,0.667,1.092,0.938c0.495,0.27,1.115,0.484,1.863,0.644
		c0.746,0.158,1.623,0.238,2.631,0.238c1.026,0,1.918-0.08,2.674-0.238c0.756-0.159,1.382-0.374,1.877-0.644
		c0.494-0.271,0.857-0.584,1.092-0.938C363.934,88.411,364.051,88.047,364.051,87.674z M358.759,74.43v-2.156h5.181v-5.46h2.408
		v15.344h-2.408V74.43H358.759z"/>
	<path fill="#4C4C4C" d="M375.028,86.693h-5.264v-2.071h5.879V76.25h2.353v8.344c1.362-0.037,2.764-0.094,4.2-0.168
		c1.438-0.074,2.949-0.215,4.535-0.42v1.932c-0.896,0.131-1.848,0.243-2.854,0.336c-1.009,0.094-2.025,0.173-3.053,0.238
		c-1.026,0.065-2.035,0.112-3.023,0.14C376.81,86.68,375.885,86.693,375.028,86.693z M383.147,81.821h-2.379
		c0.447-1.698,0.736-3.462,0.867-5.292c0.131-1.829,0.215-3.584,0.252-5.264h-10.443v-2.072h12.853
		c-0.02,0.934-0.048,1.96-0.084,3.08c-0.037,1.12-0.099,2.25-0.183,3.389c-0.084,1.139-0.195,2.239-0.336,3.304
		C383.553,80.029,383.37,80.981,383.147,81.821z M394.375,79.021h-4.062v13.384h-2.323V66.842h2.323v10.107h4.062V79.021z"/>
	<path fill="#4C4C4C" d="M398.742,81.346V68.27h2.464v4.368h11.452V68.27h2.464v13.076h-6.942v5.208h10.64v2.044h-23.8v-2.044h10.64
		v-5.208H398.742z M412.715,74.682h-11.563v4.676h11.563V74.682z"/>
	<path fill="#4C4C4C" d="M443.823,88.598h-23.828v-2.044h9.128v-9.156h2.466v9.156h12.234V88.598L443.823,88.598z M438.504,83.334
		h-2.354c0.485-1.829,0.858-3.794,1.12-5.895c0.261-2.1,0.42-4.176,0.476-6.229h-14.111v-2.156h16.492
		c-0.02,1.135-0.07,2.329-0.154,3.581c-0.084,1.253-0.195,2.5-0.336,3.741s-0.309,2.459-0.504,3.653
		C438.938,81.225,438.727,82.325,438.504,83.334z"/>
	<path fill="#4C4C4C" d="M446.063,86.806l-1.736-1.54c1.14-0.821,2.193-1.764,3.164-2.828c0.972-1.063,1.793-2.282,2.465-3.654
		c0.673-1.371,1.172-2.916,1.498-4.634c0.326-1.717,0.415-3.63,0.267-5.74h2.548c0.038,1.232,0,2.399-0.112,3.5
		c-0.11,1.103-0.271,2.156-0.476,3.164c0.672,1.923,1.624,3.683,2.855,5.278c1.231,1.596,2.697,2.964,4.396,4.103l-1.567,1.792
		c-1.399-0.989-2.656-2.161-3.767-3.515c-1.11-1.353-2.059-2.879-2.842-4.578c-0.71,1.83-1.629,3.458-2.76,4.887
		C448.866,84.468,447.557,85.724,446.063,86.806z M458.131,77.706v-2.101h5.712v-8.764h2.408v25.563h-2.408V77.706H458.131z"/>
	<path fill="#4C4C4C" d="M487.139,74.317c0.709,0.896,1.572,1.728,2.59,2.492c1.018,0.766,1.992,1.4,2.926,1.904l-1.566,1.764
		c-0.952-0.56-1.887-1.223-2.801-1.988c-0.915-0.765-1.755-1.604-2.52-2.521c-0.617,0.672-1.279,1.302-1.988,1.89
		c-0.71,0.588-1.42,1.116-2.129,1.582c-0.709,0.467-1.414,0.882-2.113,1.246s-1.357,0.658-1.975,0.882l-1.568-1.764
		c1.251-0.448,2.455-1.026,3.613-1.736c1.156-0.709,2.211-1.493,3.164-2.352c0.951-0.858,1.768-1.773,2.449-2.744
		c0.681-0.971,1.152-1.96,1.414-2.968c-1.045,0.037-2.076,0.061-3.094,0.069c-1.019,0.01-2.039,0.015-3.066,0.015h-2.939v-2.072
		h4.647c1.194,0,2.403,0,3.626,0s2.487-0.019,3.795-0.056c-0.094,1.176-0.36,2.291-0.799,3.346
		C488.365,72.362,487.811,73.365,487.139,74.317z M493.887,92.489v-7.14h-13.832v-2.072h16.24v9.212H493.887z M500.325,75.214h-4.03
		v6.607h-2.408V66.813h2.408v6.244h4.03V75.214z"/>
	<path fill="#4C4C4C" d="M510.799,67.485c0.019,0.84-0.019,1.647-0.11,2.422c-0.093,0.775-0.231,1.518-0.415,2.227
		c0.779,1.475,1.715,2.749,2.809,3.822c1.092,1.073,2.422,2.002,3.988,2.785l-1.482,1.708c-1.345-0.69-2.538-1.53-3.582-2.52
		c-1.044-0.99-1.928-2.091-2.646-3.304c-0.665,1.419-1.533,2.674-2.606,3.766c-1.072,1.092-2.31,2.03-3.709,2.814l-1.652-1.597
		c2.408-1.362,4.204-3.023,5.389-4.983c1.186-1.96,1.703-4.341,1.557-7.141L510.799,67.485L510.799,67.485z M522.698,87.674
		c0,0.709-0.178,1.367-0.53,1.974c-0.354,0.606-0.887,1.129-1.595,1.568c-0.708,0.438-1.594,0.784-2.655,1.036
		c-1.063,0.252-2.291,0.378-3.689,0.378c-1.397,0-2.623-0.126-3.676-0.378c-1.054-0.252-1.935-0.603-2.642-1.051
		c-0.709-0.447-1.239-0.976-1.594-1.581c-0.354-0.607-0.531-1.265-0.531-1.975c0-0.709,0.178-1.367,0.531-1.974
		c0.354-0.606,0.885-1.134,1.594-1.582c0.707-0.448,1.589-0.798,2.642-1.05s2.277-0.378,3.676-0.378s2.628,0.126,3.689,0.378
		c1.063,0.252,1.947,0.602,2.655,1.05c0.708,0.448,1.239,0.979,1.595,1.596C522.522,86.302,522.698,86.965,522.698,87.674z
		 M520.179,87.674c0-0.393-0.116-0.766-0.351-1.12c-0.233-0.354-0.598-0.672-1.093-0.952c-0.494-0.28-1.119-0.504-1.875-0.672
		s-1.647-0.252-2.674-0.252c-1.009,0-1.887,0.084-2.633,0.252s-1.367,0.392-1.861,0.672c-0.495,0.28-0.858,0.598-1.092,0.952
		c-0.234,0.354-0.351,0.728-0.351,1.12c0,0.373,0.115,0.737,0.351,1.092c0.231,0.354,0.597,0.667,1.092,0.938
		c0.494,0.27,1.115,0.484,1.861,0.644c0.746,0.158,1.624,0.238,2.633,0.238c1.025,0,1.918-0.08,2.674-0.238
		c0.756-0.159,1.381-0.374,1.875-0.644c0.495-0.271,0.859-0.584,1.093-0.938C520.063,88.412,520.179,88.047,520.179,87.674z
		 M514.887,74.43v-2.156h5.18v-5.46h2.408v15.344h-2.408V74.43H514.887z"/>
</g>
<g enable-background="new    ">
	<path fill="#4C4C4C" d="M265.604,135.317h4.088c1.307,0,2.613,0,3.92,0s2.623-0.019,3.948-0.057
		c-0.111,1.494-0.458,2.917-1.036,4.271c-0.579,1.354-1.377,2.604-2.394,3.752c-1.019,1.147-2.245,2.17-3.683,3.065
		c-1.438,0.896-3.052,1.624-4.844,2.185l-1.399-1.904c2.931-0.877,5.301-2.086,7.111-3.626s2.94-3.439,3.389-5.698
		c-1.12,0.038-2.23,0.062-3.332,0.07c-1.103,0.01-2.212,0.014-3.332,0.014h-2.437V135.317z M283.944,159.369h-15.68v-9.576h15.68
		V159.369z M281.535,151.949h-10.864v5.32h10.864V151.949z M287.975,142.233h-4.032v6.104h-2.407v-14.14h2.407v5.88h4.032V142.233z"
		/>
	<path fill="#4C4C4C" d="M299.455,152.229v-3.08h-10.892v-2.072h24.332v2.072H301.92v3.08h7.056v7.615h-2.408V154.3h-14.476v-2.071
		H299.455z M292.4,137.389h7.784c1.176,0,2.347,0,3.514,0s2.395-0.018,3.683-0.056c0.205,0.019,0.35,0.117,0.434,0.294
		c0.084,0.178,0.079,0.341-0.014,0.49c-0.374,0.71-0.935,1.4-1.681,2.072s-1.624,1.297-2.632,1.876
		c1.102,0.41,2.269,0.774,3.5,1.092c1.232,0.318,2.521,0.579,3.864,0.784l-1.148,1.848c-1.438-0.242-2.869-0.588-4.298-1.036
		c-1.428-0.448-2.786-0.97-4.074-1.567c-1.512,0.709-3.117,1.302-4.815,1.777c-1.699,0.477-3.304,0.78-4.815,0.91l-1.009-1.82
		c1.4-0.13,2.768-0.354,4.103-0.672c1.334-0.317,2.59-0.69,3.766-1.12c1.176-0.429,2.24-0.9,3.192-1.414
		c0.951-0.513,1.754-1.04,2.407-1.582c-1.045,0.038-2.082,0.066-3.107,0.084c-1.027,0.02-2.055,0.028-3.08,0.028H292.4V137.389z
		 M295.704,133.861h9.071v2.044h-9.071V133.861z"/>
	<path fill="#4C4C4C" d="M317.404,146.153h2.94c2.184,0,4.079-0.103,5.684-0.309c1.605-0.205,2.996-0.447,4.172-0.728v2.016
		c-1.362,0.336-2.906,0.598-4.634,0.784c-1.727,0.186-3.579,0.28-5.558,0.28h-5.068v-7.561h8.792v-3.5h-8.848v-2.016h11.256v7.476
		h-8.736V146.153z M334.176,155.197c0,0.69-0.173,1.325-0.519,1.904c-0.345,0.578-0.867,1.082-1.564,1.512
		c-0.698,0.429-1.565,0.765-2.601,1.008c-1.033,0.242-2.23,0.364-3.592,0.364c-1.379,0-2.581-0.122-3.605-0.364
		c-1.024-0.243-1.887-0.579-2.585-1.008c-0.699-0.43-1.222-0.934-1.565-1.512c-0.345-0.579-0.517-1.214-0.517-1.904
		c0-0.69,0.172-1.325,0.517-1.904c0.345-0.578,0.866-1.078,1.565-1.498c0.698-0.42,1.561-0.746,2.585-0.979s2.228-0.351,3.605-0.351
		c1.36,0,2.559,0.117,3.592,0.351c1.034,0.234,1.901,0.56,2.601,0.979c0.698,0.419,1.221,0.92,1.564,1.498
		C334.003,153.872,334.176,154.507,334.176,155.197z M331.656,155.253c0-0.765-0.462-1.423-1.386-1.974
		c-0.924-0.551-2.385-0.826-4.383-0.826c-1.979,0-3.439,0.271-4.381,0.812c-0.943,0.542-1.415,1.204-1.415,1.988
		s0.471,1.442,1.415,1.975c0.94,0.531,2.401,0.798,4.381,0.798c1.998,0,3.459-0.271,4.383-0.813S331.656,156.019,331.656,155.253z
		 M333.896,137.361h3.92v2.072h-3.948v3.836h3.948v2.071h-3.92v4.929h-2.408v-16.072h2.408V137.361z"/>
	<path fill="#4C4C4C" d="M354.671,134.841c0.019,0.84-0.02,1.647-0.11,2.422c-0.093,0.775-0.231,1.518-0.416,2.227
		c0.78,1.475,1.717,2.749,2.809,3.822c1.093,1.073,2.423,2.002,3.99,2.785l-1.483,1.708c-1.345-0.69-2.539-1.53-3.582-2.52
		c-1.044-0.989-1.927-2.091-2.646-3.304c-0.664,1.419-1.533,2.674-2.604,3.766c-1.074,1.092-2.312,2.03-3.711,2.814l-1.65-1.597
		c2.407-1.362,4.203-3.023,5.389-4.983c1.185-1.96,1.702-4.341,1.556-7.141L354.671,134.841L354.671,134.841z M366.571,155.029
		c0,0.709-0.176,1.367-0.529,1.974c-0.354,0.607-0.887,1.129-1.595,1.568c-0.708,0.438-1.593,0.784-2.654,1.036
		c-1.063,0.252-2.294,0.378-3.689,0.378c-1.398,0-2.624-0.126-3.676-0.378c-1.054-0.252-1.936-0.603-2.644-1.051
		c-0.708-0.447-1.238-0.976-1.594-1.581c-0.354-0.607-0.53-1.265-0.53-1.975c0-0.709,0.178-1.367,0.53-1.974
		c0.354-0.606,0.886-1.134,1.594-1.582c0.708-0.448,1.589-0.798,2.644-1.05c1.052-0.252,2.276-0.378,3.676-0.378
		c1.396,0,2.627,0.126,3.689,0.378c1.062,0.252,1.946,0.602,2.654,1.05c0.708,0.448,1.239,0.979,1.595,1.596
		C366.396,153.657,366.571,154.32,366.571,155.029z M364.051,155.029c0-0.393-0.117-0.766-0.351-1.12s-0.598-0.672-1.092-0.952
		c-0.495-0.28-1.121-0.504-1.877-0.672s-1.646-0.252-2.674-0.252c-1.008,0-1.885,0.084-2.631,0.252
		c-0.748,0.168-1.368,0.392-1.863,0.672c-0.494,0.28-0.858,0.598-1.092,0.952c-0.234,0.354-0.351,0.728-0.351,1.12
		c0,0.373,0.116,0.737,0.351,1.092c0.233,0.355,0.598,0.667,1.092,0.938c0.495,0.27,1.115,0.484,1.863,0.644
		c0.746,0.158,1.623,0.238,2.631,0.238c1.026,0,1.918-0.08,2.674-0.238c0.756-0.159,1.382-0.374,1.877-0.644
		c0.494-0.271,0.857-0.584,1.092-0.938C363.934,155.767,364.051,155.402,364.051,155.029z M358.759,141.785v-2.156h5.181v-5.46
		h2.408v15.344h-2.408v-7.728H358.759L358.759,141.785z"/>
	<path fill="#4C4C4C" d="M375.028,154.049h-5.264v-2.071h5.879v-8.372h2.353v8.344c1.362-0.037,2.764-0.094,4.2-0.168
		c1.438-0.074,2.949-0.215,4.535-0.42v1.932c-0.896,0.131-1.848,0.243-2.854,0.336c-1.009,0.094-2.025,0.173-3.053,0.238
		c-1.026,0.065-2.035,0.112-3.023,0.14C376.81,154.035,375.885,154.049,375.028,154.049z M383.147,149.177h-2.379
		c0.447-1.698,0.736-3.462,0.867-5.292c0.131-1.829,0.215-3.584,0.252-5.264h-10.443v-2.072h12.853
		c-0.02,0.934-0.048,1.96-0.084,3.08c-0.037,1.12-0.099,2.25-0.183,3.389s-0.195,2.239-0.336,3.304
		C383.553,147.385,383.37,148.337,383.147,149.177z M394.375,146.377h-4.062v13.384h-2.323v-25.563h2.323v10.107h4.062V146.377z"/>
	<path fill="#4C4C4C" d="M398.742,148.701v-13.076h2.464v4.368h11.452v-4.368h2.464v13.076h-6.942v5.208h10.64v2.044h-23.8v-2.044
		h10.64v-5.208H398.742z M412.715,142.037h-11.563v4.676h11.563V142.037z"/>
	<path fill="#4C4C4C" d="M443.823,155.953h-23.828v-2.044h9.128v-9.156h2.466v9.156h12.234V155.953L443.823,155.953z
		 M438.504,150.689h-2.354c0.485-1.829,0.858-3.794,1.12-5.895c0.261-2.1,0.42-4.176,0.476-6.229h-14.111v-2.156h16.492
		c-0.02,1.135-0.07,2.329-0.154,3.581c-0.084,1.253-0.195,2.5-0.336,3.741c-0.141,1.241-0.309,2.459-0.504,3.653
		C438.938,148.58,438.727,149.681,438.504,150.689z"/>
	<path fill="#4C4C4C" d="M446.063,154.161l-1.736-1.54c1.14-0.821,2.193-1.764,3.164-2.828c0.972-1.063,1.793-2.282,2.465-3.654
		c0.673-1.371,1.172-2.916,1.498-4.634c0.326-1.717,0.415-3.63,0.267-5.74h2.548c0.038,1.232,0,2.399-0.112,3.5
		c-0.11,1.103-0.271,2.156-0.476,3.164c0.672,1.923,1.624,3.683,2.855,5.278c1.231,1.596,2.697,2.964,4.396,4.103l-1.567,1.792
		c-1.399-0.989-2.656-2.161-3.767-3.515c-1.11-1.353-2.059-2.879-2.842-4.578c-0.71,1.83-1.629,3.458-2.76,4.887
		C448.866,151.823,447.557,153.079,446.063,154.161z M458.131,145.062v-2.101h5.712v-8.764h2.408v25.563h-2.408v-14.699
		L458.131,145.062L458.131,145.062z"/>
	<path fill="#4C4C4C" d="M478.431,135.317h4.089c1.306,0,2.604,0,3.891,0c1.289,0,2.597-0.019,3.921-0.057
		c-0.111,1.494-0.458,2.917-1.035,4.271c-0.579,1.354-1.372,2.604-2.381,3.752c-1.009,1.147-2.226,2.17-3.653,3.065
		c-1.429,0.896-3.038,1.624-4.83,2.185l-1.399-1.904c2.931-0.877,5.291-2.086,7.084-3.626c1.791-1.54,2.912-3.439,3.359-5.698
		c-1.119,0.038-2.221,0.062-3.304,0.07c-1.083,0.01-2.186,0.014-3.305,0.014h-2.437V135.317L478.431,135.317z M497.498,159.369
		h-15.96v-9.38h15.96V159.369z M495.091,152.089h-11.145v5.208h11.145V152.089z M489.94,143.465v-2.1h5.151v-7.168h2.407v14.336
		h-2.407v-5.068H489.94z"/>
	<path fill="#4C4C4C" d="M525.276,146.153v2.072h-24.359v-2.072H525.276z M516.034,139.909c1.14,0.598,2.361,1.115,3.668,1.554
		c1.308,0.439,2.633,0.789,3.977,1.05l-1.231,1.904c-0.672-0.149-1.373-0.336-2.1-0.56c-0.729-0.225-1.457-0.485-2.186-0.784
		c-0.728-0.299-1.441-0.616-2.142-0.952c-0.701-0.336-1.34-0.69-1.918-1.064c-1.568,0.841-3.239,1.545-5.013,2.114
		c-1.773,0.57-3.538,0.976-5.292,1.218l-1.148-1.848c1.568-0.224,3.057-0.532,4.467-0.924c1.408-0.392,2.706-0.84,3.893-1.344
		c1.186-0.504,2.234-1.051,3.148-1.639c0.915-0.588,1.671-1.18,2.27-1.777c-1.997,0.056-3.985,0.084-5.964,0.084h-5.656v-1.988
		h7.813c1.194,0,2.395,0,3.599,0s2.459-0.019,3.766-0.056c0.225-0.019,0.373,0.052,0.449,0.21c0.074,0.158,0.063,0.321-0.029,0.489
		c-0.467,0.804-1.073,1.564-1.819,2.282C517.836,138.598,516.987,139.274,516.034,139.909z M521.971,155.113
		c0,0.689-0.183,1.334-0.546,1.932c-0.364,0.598-0.909,1.11-1.639,1.54c-0.729,0.43-1.634,0.771-2.717,1.022
		c-1.082,0.252-2.333,0.378-3.752,0.378c-1.438,0-2.697-0.126-3.779-0.378c-1.083-0.252-1.987-0.593-2.717-1.022
		c-0.728-0.43-1.278-0.942-1.65-1.54c-0.374-0.598-0.561-1.241-0.561-1.932c0-1.4,0.732-2.543,2.197-3.43
		c1.465-0.887,3.636-1.33,6.51-1.33c2.875,0,5.035,0.443,6.482,1.33C521.246,152.57,521.971,153.713,521.971,155.113z
		 M519.366,155.141c0-0.354-0.098-0.699-0.295-1.035c-0.194-0.336-0.53-0.64-1.008-0.91c-0.476-0.271-1.102-0.49-1.875-0.658
		c-0.775-0.168-1.731-0.252-2.871-0.252c-1.157,0-2.123,0.084-2.896,0.252c-0.774,0.168-1.399,0.388-1.876,0.658
		c-0.478,0.27-0.813,0.574-1.009,0.91s-0.294,0.682-0.294,1.035c0,0.337,0.099,0.678,0.294,1.022
		c0.195,0.345,0.531,0.648,1.009,0.91c0.477,0.261,1.102,0.476,1.876,0.644c0.773,0.168,1.739,0.252,2.896,0.252
		c1.14,0,2.097-0.084,2.871-0.252c0.773-0.168,1.399-0.383,1.875-0.644c0.478-0.262,0.813-0.565,1.008-0.91
		C519.27,155.818,519.366,155.478,519.366,155.141z"/>
</g>
<g enable-background="new    ">
	<path fill="#4C4C4C" d="M264.763,312.686c0-0.934,0.167-1.802,0.503-2.604c0.335-0.803,0.801-1.493,1.397-2.072
		c0.596-0.578,1.294-1.031,2.095-1.357c0.801-0.326,1.676-0.49,2.626-0.49s1.834,0.164,2.654,0.49
		c0.818,0.326,1.526,0.779,2.124,1.357c0.596,0.579,1.062,1.27,1.396,2.072c0.335,0.803,0.503,1.671,0.503,2.604
		c0,0.914-0.168,1.764-0.503,2.548c-0.335,0.784-0.801,1.461-1.396,2.029c-0.597,0.57-1.305,1.019-2.124,1.345
		c-0.82,0.326-1.705,0.49-2.654,0.49c-0.95,0-1.826-0.164-2.626-0.49c-0.8-0.326-1.5-0.774-2.095-1.345
		c-0.598-0.568-1.063-1.245-1.397-2.029C264.931,314.449,264.763,313.6,264.763,312.686z M267.34,312.671
		c0,0.614,0.098,1.187,0.294,1.717c0.196,0.53,0.476,0.981,0.84,1.354c0.364,0.372,0.798,0.665,1.302,0.879s1.064,0.321,1.681,0.321
		c0.615,0,1.176-0.107,1.68-0.321s0.938-0.507,1.302-0.879s0.648-0.823,0.854-1.354c0.205-0.53,0.308-1.103,0.308-1.717
		c0-0.651-0.103-1.246-0.308-1.786c-0.206-0.539-0.49-1.005-0.854-1.396c-0.364-0.391-0.798-0.693-1.302-0.907
		s-1.064-0.321-1.68-0.321c-0.616,0-1.177,0.107-1.681,0.321s-0.938,0.517-1.302,0.907c-0.364,0.391-0.644,0.856-0.84,1.396
		S267.34,312.02,267.34,312.671z M285.708,330.129H269.16v-7.924h2.464v5.824h14.084V330.129z M285.119,323.549h-2.381V305.07h2.381
		V323.549z"/>
	<path fill="#4C4C4C" d="M312.924,317.025v2.072h-24.36v-2.072H312.924z M303.684,310.781c1.138,0.598,2.361,1.115,3.668,1.554
		c1.306,0.439,2.632,0.789,3.976,1.05l-1.231,1.904c-0.672-0.149-1.372-0.336-2.101-0.56c-0.728-0.225-1.456-0.485-2.184-0.784
		c-0.728-0.299-1.442-0.616-2.142-0.952c-0.7-0.336-1.341-0.69-1.918-1.064c-1.568,0.841-3.239,1.545-5.012,2.114
		c-1.773,0.57-3.538,0.976-5.292,1.218l-1.148-1.848c1.568-0.224,3.057-0.532,4.466-0.924c1.409-0.392,2.707-0.84,3.892-1.344
		c1.186-0.504,2.235-1.051,3.15-1.639s1.67-1.18,2.268-1.777c-1.998,0.056-3.984,0.084-5.964,0.084h-5.655v-1.988h7.812
		c1.194,0,2.394,0,3.598,0s2.459-0.019,3.767-0.056c0.224-0.019,0.373,0.052,0.447,0.21c0.074,0.158,0.065,0.321-0.027,0.489
		c-0.467,0.804-1.074,1.564-1.82,2.282C305.485,309.47,304.635,310.146,303.684,310.781z M309.618,325.984
		c0,0.69-0.182,1.334-0.546,1.933c-0.363,0.599-0.91,1.11-1.638,1.54c-0.729,0.43-1.634,0.771-2.716,1.021
		c-1.082,0.252-2.333,0.379-3.752,0.379c-1.438,0-2.698-0.127-3.78-0.379c-1.083-0.252-1.988-0.592-2.716-1.021
		s-1.279-0.941-1.652-1.54c-0.374-0.599-0.56-1.241-0.56-1.933c0-1.399,0.731-2.543,2.198-3.43c1.465-0.887,3.635-1.33,6.51-1.33
		s5.035,0.443,6.481,1.33C308.896,323.441,309.618,324.585,309.618,325.984z M307.015,326.014c0-0.354-0.098-0.699-0.294-1.035
		s-0.532-0.641-1.008-0.91c-0.477-0.271-1.103-0.49-1.876-0.658c-0.775-0.168-1.731-0.252-2.87-0.252
		c-1.158,0-2.124,0.084-2.898,0.252s-1.399,0.388-1.876,0.658c-0.476,0.27-0.812,0.574-1.008,0.91s-0.294,0.682-0.294,1.035
		c0,0.336,0.098,0.678,0.294,1.021c0.196,0.345,0.532,0.648,1.008,0.91c0.477,0.261,1.102,0.476,1.876,0.644s1.74,0.252,2.898,0.252
		c1.139,0,2.095-0.084,2.87-0.252c0.773-0.168,1.399-0.383,1.876-0.644c0.476-0.262,0.812-0.565,1.008-0.91
		C306.918,326.689,307.015,326.35,307.015,326.014z"/>
	<path fill="#4C4C4C" d="M315.387,320.161l-1.792-1.54c1.288-0.784,2.338-1.628,3.149-2.534c0.813-0.905,1.442-1.871,1.891-2.897
		c0.447-1.026,0.731-2.133,0.854-3.318s0.126-2.45,0.015-3.794h2.379c0.037,1.811-0.084,3.435-0.363,4.872
		c0.561,1.438,1.297,2.729,2.212,3.878s2.044,2.198,3.388,3.15l-1.764,1.567c-0.952-0.672-1.824-1.493-2.618-2.464
		c-0.794-0.971-1.479-2.053-2.058-3.248c-0.504,1.232-1.187,2.366-2.044,3.402C317.777,318.271,316.694,319.247,315.387,320.161z
		 M336.163,330.129h-16.521v-7.783h2.464v5.684h14.057V330.129z M324.348,310.921h4.031v-5.571h2.297v18.171h-2.297V312.91h-4.031
		V310.921z M335.743,324.081h-2.323v-19.012h2.323V324.081z"/>
	<path fill="#4C4C4C" d="M345.879,324.221h-5.656v-17.079h11.116v2.044h-8.708v5.403h8.092v2.044h-8.092v5.544h3.611
		c1.587,0,3.122-0.088,4.606-0.266c1.482-0.177,2.916-0.425,4.297-0.742v1.988c-1.381,0.354-2.865,0.62-4.451,0.798
		S347.503,324.221,345.879,324.221z M353.158,316.102v-2.101h4.508v-8.932h2.408v25.563h-2.408v-14.531L353.158,316.102
		L353.158,316.102z"/>
	<path fill="#4C4C4C" d="M392.108,325.063c0,0.652-0.022,1.246-0.07,1.776c-0.047,0.532-0.173,0.999-0.378,1.4
		c-0.206,0.401-0.514,0.728-0.925,0.979c-0.41,0.253-0.971,0.406-1.68,0.464c-0.783,0.055-1.521,0.008-2.211-0.142l-0.785-2.353
		c0.467,0.094,0.9,0.178,1.303,0.252c0.4,0.074,0.788,0.111,1.162,0.111c0.429,0,0.746-0.074,0.951-0.224s0.351-0.347,0.435-0.588
		c0.084-0.242,0.126-0.522,0.126-0.841c0-0.317,0-0.635,0-0.951v-14.924h-16.239v19.711h-2.044v-21.419h8.513l0.896-3.584l2.27,0.84
		l-0.953,2.744h9.633v16.748H392.108z M384.91,324.585v-1.204h-6.188v1.904h-2.101v-11.284h10.416v10.584H384.91L384.91,324.585z
		 M384.91,315.682h-6.188v5.964h6.188V315.682z"/>
	<path fill="#4C4C4C" d="M403.028,306.189h4.088c1.308,0,2.613,0,3.92,0c1.308,0,2.623-0.019,3.947-0.057
		c-0.111,1.494-0.457,2.917-1.035,4.271c-0.579,1.354-1.377,2.604-2.395,3.752c-1.019,1.147-2.244,2.17-3.683,3.065
		c-1.438,0.896-3.052,1.624-4.844,2.185l-1.399-1.904c2.931-0.877,5.301-2.086,7.111-3.626s2.94-3.439,3.389-5.698
		c-1.119,0.038-2.23,0.063-3.332,0.07c-1.103,0.01-2.212,0.014-3.332,0.014h-2.437L403.028,306.189L403.028,306.189z
		 M421.366,330.241h-15.68v-9.576h15.68V330.241z M418.959,322.82h-10.863v5.32h10.863V322.82z M425.399,313.105h-4.031v6.104
		h-2.407v-14.14h2.407v5.88h4.031V313.105z"/>
	<path fill="#4C4C4C" d="M436.879,323.102v-3.08h-10.894v-2.072h24.332v2.072h-10.976v3.08h7.056v7.615h-2.408v-5.544h-14.476
		v-2.071H436.879L436.879,323.102z M429.823,308.261h7.785c1.176,0,2.347,0,3.514,0c1.166,0,2.395-0.018,3.683-0.056
		c0.205,0.019,0.35,0.117,0.434,0.294c0.084,0.178,0.08,0.341-0.014,0.49c-0.373,0.71-0.935,1.4-1.68,2.072
		c-0.747,0.672-1.624,1.297-2.634,1.876c1.103,0.41,2.27,0.774,3.5,1.092c1.232,0.317,2.521,0.579,3.865,0.784l-1.147,1.848
		c-1.438-0.242-2.87-0.588-4.3-1.036c-1.428-0.448-2.784-0.97-4.072-1.567c-1.514,0.709-3.118,1.302-4.816,1.777
		c-1.698,0.477-3.304,0.78-4.815,0.91l-1.008-1.82c1.399-0.13,2.768-0.354,4.103-0.672c1.334-0.317,2.59-0.69,3.766-1.12
		c1.176-0.429,2.24-0.9,3.192-1.414c0.952-0.513,1.755-1.04,2.406-1.582c-1.045,0.038-2.08,0.066-3.106,0.084
		c-1.027,0.02-2.054,0.028-3.08,0.028h-5.572v-1.988H429.823z M433.127,304.733h9.071v2.044h-9.071V304.733z"/>
	<path fill="#4C4C4C" d="M454.825,317.025h2.94c2.185,0,4.079-0.103,5.685-0.309c1.605-0.205,2.996-0.447,4.172-0.728v2.016
		c-1.362,0.336-2.907,0.598-4.635,0.784c-1.727,0.186-3.579,0.28-5.558,0.28h-5.067v-7.561h8.791v-3.5h-8.848v-2.016h11.256v7.476
		h-8.736V317.025L454.825,317.025z M471.599,326.068c0,0.69-0.173,1.326-0.518,1.904c-0.346,0.578-0.866,1.082-1.565,1.512
		c-0.698,0.43-1.564,0.766-2.601,1.009c-1.032,0.241-2.229,0.364-3.592,0.364c-1.379,0-2.58-0.123-3.604-0.364
		c-1.025-0.243-1.888-0.579-2.586-1.009c-0.699-0.43-1.222-0.934-1.564-1.512c-0.346-0.578-0.518-1.214-0.518-1.904
		c0-0.689,0.172-1.324,0.518-1.903c0.344-0.578,0.865-1.078,1.564-1.498c0.698-0.42,1.561-0.746,2.586-0.979
		c1.024-0.232,2.227-0.351,3.604-0.351c1.361,0,2.56,0.117,3.592,0.351c1.035,0.233,1.901,0.561,2.601,0.979
		c0.699,0.42,1.221,0.92,1.565,1.498C471.426,324.744,471.599,325.379,471.599,326.068z M469.077,326.125
		c0-0.766-0.461-1.423-1.385-1.975c-0.925-0.551-2.385-0.825-4.383-0.825c-1.979,0-3.439,0.271-4.382,0.812
		c-0.942,0.543-1.414,1.204-1.414,1.988s0.472,1.441,1.414,1.975c0.941,0.531,2.402,0.799,4.382,0.799
		c1.998,0,3.458-0.271,4.383-0.813C468.616,327.544,469.077,326.891,469.077,326.125z M471.319,308.233h3.92v2.072h-3.946v3.836
		h3.946v2.071h-3.92v4.929h-2.408v-16.072h2.408V308.233z"/>
	<path fill="#4C4C4C" d="M483.387,312.686c0-0.934,0.168-1.802,0.503-2.604c0.335-0.802,0.801-1.493,1.396-2.072
		c0.597-0.578,1.295-1.031,2.097-1.357c0.801-0.326,1.676-0.49,2.626-0.49s1.835,0.164,2.653,0.49
		c0.819,0.326,1.527,0.779,2.124,1.357c0.597,0.579,1.063,1.27,1.396,2.072c0.336,0.803,0.504,1.671,0.504,2.604
		c0,0.914-0.168,1.764-0.504,2.548c-0.335,0.784-0.801,1.461-1.396,2.029c-0.597,0.57-1.305,1.019-2.124,1.345
		c-0.818,0.326-1.703,0.49-2.653,0.49s-1.825-0.164-2.626-0.49c-0.802-0.326-1.5-0.774-2.097-1.345
		c-0.597-0.568-1.063-1.245-1.396-2.029C483.556,314.45,483.387,313.6,483.387,312.686z M485.963,312.671
		c0,0.614,0.098,1.187,0.294,1.717c0.195,0.53,0.476,0.981,0.84,1.354s0.798,0.665,1.302,0.879s1.064,0.321,1.68,0.321
		c0.617,0,1.178-0.107,1.682-0.321s0.938-0.507,1.302-0.879s0.648-0.823,0.854-1.354c0.204-0.53,0.308-1.103,0.308-1.717
		c0-0.651-0.104-1.246-0.308-1.786c-0.206-0.539-0.49-1.005-0.854-1.396c-0.363-0.391-0.798-0.693-1.302-0.907
		s-1.063-0.321-1.682-0.321c-0.614,0-1.176,0.107-1.68,0.321s-0.938,0.517-1.302,0.907c-0.364,0.39-0.645,0.856-0.84,1.396
		C486.061,311.425,485.963,312.02,485.963,312.671z M504.33,330.129h-16.548v-7.924h2.464v5.824h14.084V330.129z M503.741,323.549
		h-2.379V305.07h2.379V323.549z"/>
	<path fill="#4C4C4C" d="M531.547,317.025v2.072h-24.359v-2.072H531.547z M522.307,310.781c1.139,0.598,2.361,1.115,3.668,1.554
		s2.633,0.789,3.977,1.05l-1.231,1.904c-0.672-0.149-1.372-0.336-2.101-0.56c-0.729-0.225-1.455-0.485-2.184-0.784
		c-0.729-0.299-1.443-0.616-2.143-0.952c-0.7-0.336-1.341-0.69-1.918-1.064c-1.568,0.841-3.238,1.545-5.013,2.114
		c-1.772,0.57-3.538,0.976-5.293,1.218l-1.146-1.848c1.566-0.224,3.057-0.532,4.466-0.924c1.409-0.392,2.707-0.84,3.893-1.344
		c1.187-0.504,2.234-1.051,3.149-1.639s1.671-1.18,2.269-1.777c-1.998,0.056-3.985,0.084-5.965,0.084h-5.655v-1.988h7.813
		c1.194,0,2.395,0,3.598,0c1.205,0,2.46-0.019,3.768-0.056c0.224-0.019,0.373,0.052,0.447,0.21c0.074,0.158,0.064,0.321-0.027,0.489
		c-0.468,0.804-1.073,1.564-1.819,2.282C524.108,309.47,523.259,310.146,522.307,310.781z M528.241,325.984
		c0,0.69-0.182,1.334-0.545,1.933c-0.364,0.599-0.91,1.11-1.639,1.54s-1.633,0.771-2.716,1.021
		c-1.083,0.252-2.333,0.379-3.752,0.379c-1.438,0-2.698-0.127-3.78-0.379s-1.988-0.592-2.716-1.021
		c-0.729-0.43-1.278-0.941-1.651-1.54c-0.374-0.599-0.561-1.241-0.561-1.933c0-1.399,0.731-2.543,2.197-3.43s3.637-1.33,6.511-1.33
		s5.035,0.443,6.48,1.33C527.52,323.441,528.241,324.585,528.241,325.984z M525.639,326.014c0-0.354-0.099-0.699-0.294-1.035
		c-0.196-0.336-0.532-0.641-1.008-0.91c-0.477-0.271-1.103-0.49-1.876-0.658c-0.775-0.168-1.731-0.252-2.87-0.252
		c-1.157,0-2.124,0.084-2.897,0.252c-0.774,0.168-1.399,0.388-1.877,0.658c-0.476,0.271-0.812,0.574-1.008,0.91
		c-0.195,0.336-0.293,0.682-0.293,1.035c0,0.336,0.098,0.678,0.293,1.021c0.196,0.345,0.532,0.648,1.008,0.91
		c0.478,0.261,1.103,0.476,1.877,0.644c0.773,0.168,1.74,0.252,2.897,0.252c1.139,0,2.095-0.084,2.87-0.252
		c0.773-0.168,1.399-0.383,1.876-0.644c0.476-0.262,0.812-0.565,1.008-0.91C525.54,326.689,525.639,326.35,525.639,326.014z"/>
	<path fill="#4C4C4C" d="M534.122,319.965l-1.709-1.567c5.021-2.875,7.384-7.112,7.084-12.712h2.521
		c0.019,1.698-0.168,3.304-0.56,4.815c0.856,1.643,1.848,3.006,2.967,4.088c1.121,1.083,2.465,2.044,4.033,2.885l-1.541,1.735
		c-1.362-0.746-2.586-1.638-3.669-2.674c-1.081-1.036-1.986-2.179-2.715-3.43c-0.69,1.475-1.578,2.786-2.66,3.934
		C536.791,318.188,535.541,319.163,534.122,319.965z M554.282,330.129h-16.269v-7.84h2.464v5.74h13.805V330.129z M551.315,305.069
		h2.408v18.479h-2.408V305.069z"/>
	<path fill="#4C4C4C" d="M568.311,314.617c0.821,0.616,1.717,1.194,2.688,1.736c0.972,0.541,2.009,1.036,3.109,1.483l-1.541,1.792
		c-1.008-0.429-2.012-0.956-3.01-1.582c-0.999-0.625-1.928-1.302-2.786-2.029c-1.083,0.914-2.249,1.722-3.5,2.422
		s-2.483,1.265-3.696,1.693l-1.567-1.68c1.307-0.41,2.516-0.91,3.627-1.498c1.109-0.588,2.104-1.223,2.981-1.904
		c0.877-0.681,1.628-1.386,2.254-2.113c0.625-0.729,1.105-1.438,1.441-2.128c-0.99,0.037-1.983,0.061-2.982,0.069
		c-0.998,0.01-2.021,0.015-3.064,0.015h-2.884v-1.933h4.676c1.176,0,2.38,0,3.611,0s2.521-0.019,3.864-0.056
		c-0.168,1.026-0.537,2.021-1.106,2.981C569.856,312.849,569.151,313.759,568.311,314.617z M561.815,305.153h7.588v1.96h-7.588
		V305.153z M578.922,325.9c0,0.709-0.177,1.367-0.531,1.975c-0.354,0.605-0.885,1.129-1.592,1.568
		c-0.709,0.438-1.595,0.783-2.656,1.035c-1.063,0.252-2.293,0.379-3.689,0.379c-1.397,0-2.624-0.127-3.676-0.379
		c-1.054-0.252-1.935-0.603-2.643-1.051c-0.708-0.447-1.239-0.976-1.595-1.58c-0.354-0.607-0.529-1.266-0.529-1.976
		c0-0.709,0.177-1.367,0.529-1.974c0.354-0.606,0.887-1.135,1.595-1.582c0.708-0.448,1.589-0.799,2.643-1.051
		c1.052-0.252,2.277-0.377,3.676-0.377c1.396,0,2.627,0.125,3.689,0.377c1.062,0.252,1.947,0.603,2.656,1.051
		c0.707,0.447,1.237,0.979,1.592,1.596S578.922,325.191,578.922,325.9z M576.403,325.9c0-0.393-0.117-0.766-0.35-1.119
		c-0.234-0.354-0.599-0.672-1.092-0.952c-0.496-0.28-1.121-0.504-1.877-0.672c-0.757-0.168-1.646-0.253-2.675-0.253
		c-1.008,0-1.885,0.085-2.631,0.253c-0.748,0.168-1.368,0.392-1.862,0.672s-0.858,0.598-1.093,0.952
		c-0.233,0.354-0.35,0.728-0.35,1.119c0,0.373,0.116,0.738,0.35,1.093c0.234,0.354,0.599,0.667,1.093,0.938
		c0.494,0.27,1.114,0.483,1.862,0.644c0.746,0.157,1.623,0.237,2.631,0.237c1.027,0,1.918-0.08,2.675-0.237
		c0.756-0.159,1.381-0.374,1.877-0.644c0.494-0.271,0.856-0.584,1.092-0.938C576.284,326.639,576.403,326.273,576.403,325.9z
		 M572.174,314.589v-2.155h4.117v-7.393h2.407v15.904h-2.407v-6.356H572.174z"/>
</g>
<g id="Rounded_Rectangle_9_copy_3_3_">
	<g>
		<path fill="#09B39C" d="M235.309,456.981H50.917c-4.073,0-7.374,3.053-7.374,6.814v32.371c0,3.765,3.302,6.813,7.374,6.813
			h184.392c4.075,0,7.376-3.051,7.376-6.813v-32.371C242.685,460.033,239.384,456.981,235.309,456.981z"/>
	</g>
</g>
<g enable-background="new    ">
	<path fill="#FFFFFF" d="M94.646,473.528c0-0.935,0.167-1.803,0.503-2.604c0.335-0.803,0.802-1.493,1.397-2.072
		c0.596-0.577,1.294-1.03,2.095-1.356s1.676-0.49,2.626-0.49s1.834,0.164,2.654,0.49c0.819,0.326,1.527,0.779,2.124,1.356
		c0.596,0.579,1.062,1.271,1.396,2.072c0.335,0.803,0.503,1.671,0.503,2.604c0,0.914-0.168,1.764-0.503,2.548
		s-0.801,1.461-1.396,2.029c-0.596,0.569-1.304,1.019-2.124,1.345s-1.705,0.49-2.654,0.49c-0.95,0-1.826-0.164-2.626-0.49
		s-1.5-0.774-2.095-1.345c-0.597-0.568-1.063-1.245-1.397-2.029C94.814,475.292,94.646,474.442,94.646,473.528z M97.222,473.514
		c0,0.614,0.098,1.188,0.294,1.718c0.196,0.529,0.477,0.98,0.84,1.354c0.364,0.372,0.798,0.665,1.303,0.879
		c0.504,0.214,1.063,0.321,1.68,0.321s1.176-0.107,1.68-0.321s0.938-0.507,1.302-0.879c0.364-0.372,0.648-0.823,0.854-1.354
		c0.205-0.53,0.308-1.104,0.308-1.718c0-0.65-0.103-1.246-0.308-1.786c-0.206-0.538-0.49-1.005-0.854-1.396
		c-0.363-0.391-0.798-0.693-1.302-0.907s-1.063-0.321-1.68-0.321s-1.176,0.107-1.68,0.321c-0.505,0.214-0.938,0.518-1.303,0.907
		c-0.363,0.391-0.644,0.855-0.84,1.396C97.321,472.268,97.222,472.862,97.222,473.514z M115.591,490.972H99.042v-7.924h2.464v5.824
		h14.084L115.591,490.972L115.591,490.972z M115.002,484.392h-2.38v-18.479h2.38V484.392z"/>
	<path fill="#FFFFFF" d="M142.806,477.868v2.072h-24.36v-2.072H142.806z M133.567,471.624c1.139,0.598,2.361,1.115,3.668,1.554
		c1.307,0.439,2.633,0.789,3.977,1.05l-1.232,1.904c-0.672-0.148-1.372-0.336-2.1-0.56c-0.729-0.226-1.456-0.485-2.185-0.784
		c-0.728-0.299-1.441-0.616-2.142-0.952s-1.34-0.69-1.918-1.064c-1.568,0.842-3.239,1.546-5.012,2.114
		c-1.773,0.57-3.538,0.977-5.292,1.218l-1.148-1.848c1.568-0.224,3.057-0.532,4.466-0.924s2.707-0.84,3.893-1.344
		c1.185-0.504,2.234-1.052,3.149-1.64s1.67-1.18,2.269-1.776c-1.998,0.056-3.985,0.084-5.964,0.084h-5.656v-1.988h7.812
		c1.194,0,2.395,0,3.599,0s2.459-0.019,3.766-0.056c0.224-0.02,0.373,0.052,0.448,0.21c0.074,0.157,0.064,0.32-0.028,0.488
		c-0.467,0.805-1.074,1.564-1.819,2.282C135.367,470.313,134.518,470.989,133.567,471.624z M139.502,486.828
		c0,0.689-0.183,1.334-0.546,1.932c-0.364,0.599-0.91,1.11-1.639,1.54c-0.728,0.431-1.634,0.771-2.716,1.022
		s-2.333,0.378-3.752,0.378c-1.438,0-2.698-0.126-3.78-0.378c-1.083-0.252-1.987-0.593-2.716-1.022
		c-0.728-0.429-1.278-0.941-1.651-1.54c-0.374-0.598-0.561-1.241-0.561-1.932c0-1.4,0.732-2.543,2.198-3.43
		c1.465-0.888,3.635-1.33,6.51-1.33s5.035,0.442,6.482,1.33C138.779,484.285,139.502,485.428,139.502,486.828z M136.898,486.855
		c0-0.354-0.098-0.699-0.294-1.035c-0.195-0.336-0.532-0.641-1.008-0.91c-0.476-0.271-1.102-0.49-1.876-0.658
		c-0.775-0.168-1.731-0.252-2.87-0.252c-1.158,0-2.124,0.084-2.897,0.252c-0.775,0.168-1.4,0.388-1.876,0.658
		c-0.477,0.27-0.813,0.574-1.009,0.91c-0.195,0.336-0.294,0.682-0.294,1.035c0,0.337,0.099,0.678,0.294,1.021
		c0.196,0.345,0.532,0.648,1.009,0.91c0.476,0.261,1.101,0.476,1.876,0.644c0.773,0.168,1.739,0.252,2.897,0.252
		c1.139,0,2.095-0.084,2.87-0.252c0.774-0.168,1.4-0.383,1.876-0.644c0.476-0.262,0.813-0.565,1.008-0.91
		C136.801,487.533,136.898,487.192,136.898,486.855z"/>
	<path fill="#FFFFFF" d="M145.27,481.004l-1.792-1.54c1.288-0.784,2.338-1.628,3.15-2.534c0.812-0.904,1.441-1.871,1.89-2.896
		c0.448-1.026,0.732-2.133,0.854-3.318c0.122-1.185,0.126-2.45,0.014-3.794h2.38c0.037,1.812-0.084,3.436-0.364,4.872
		c0.561,1.438,1.298,2.729,2.212,3.878c0.915,1.148,2.045,2.198,3.389,3.15l-1.765,1.566c-0.951-0.672-1.824-1.493-2.617-2.464
		s-1.479-2.053-2.059-3.248c-0.504,1.232-1.186,2.366-2.044,3.402C147.66,479.114,146.577,480.09,145.27,481.004z M166.047,490.972
		h-16.521v-7.784h2.465v5.686h14.056V490.972z M154.231,471.764h4.032v-5.57h2.296v18.172h-2.296v-10.612h-4.032V471.764z
		 M165.627,484.924h-2.324v-19.012h2.324V484.924z"/>
	<path fill="#FFFFFF" d="M175.762,485.063h-5.656v-17.078h11.116v2.044h-8.708v5.402h8.092v2.044h-8.092v5.544h3.612
		c1.586,0,3.122-0.088,4.605-0.266c1.484-0.177,2.917-0.425,4.298-0.742V484c-1.381,0.354-2.865,0.621-4.451,0.798
		C178.991,484.976,177.386,485.063,175.762,485.063z M183.042,476.944v-2.102h4.508v-8.932h2.408v25.563h-2.408v-14.53
		L183.042,476.944L183.042,476.944z"/>
</g>
<g enable-background="new    ">
	<path fill="#4C4C4C" d="M49.546,544.964c0-0.934,0.167-1.802,0.503-2.604c0.335-0.803,0.801-1.493,1.397-2.072
		c0.596-0.578,1.294-1.031,2.095-1.357s1.676-0.49,2.626-0.49c0.95,0,1.834,0.164,2.654,0.49c0.819,0.326,1.527,0.779,2.124,1.357
		c0.596,0.579,1.062,1.27,1.397,2.072c0.335,0.803,0.503,1.671,0.503,2.604c0,0.914-0.168,1.764-0.503,2.548
		c-0.335,0.784-0.801,1.461-1.397,2.029c-0.596,0.57-1.304,1.019-2.124,1.345c-0.82,0.326-1.705,0.49-2.654,0.49
		c-0.95,0-1.826-0.164-2.626-0.49s-1.5-0.774-2.095-1.345c-0.597-0.568-1.063-1.245-1.397-2.029
		C49.713,546.728,49.546,545.878,49.546,544.964z M52.122,544.949c0,0.614,0.098,1.187,0.294,1.717s0.476,0.981,0.84,1.354
		c0.364,0.372,0.798,0.665,1.302,0.879s1.064,0.321,1.68,0.321c0.616,0,1.176-0.107,1.68-0.321s0.938-0.507,1.302-0.879
		c0.364-0.372,0.648-0.823,0.854-1.354c0.205-0.53,0.308-1.103,0.308-1.717c0-0.651-0.103-1.246-0.308-1.786
		c-0.206-0.539-0.49-1.005-0.854-1.396c-0.364-0.391-0.798-0.693-1.302-0.907s-1.064-0.321-1.68-0.321
		c-0.616,0-1.176,0.107-1.68,0.321s-0.938,0.517-1.302,0.907c-0.364,0.391-0.644,0.856-0.84,1.396
		C52.22,543.703,52.122,544.298,52.122,544.949z M70.49,562.407H53.942v-7.924h2.464v5.824H70.49V562.407z M69.902,555.827h-2.38
		v-18.479h2.38V555.827z"/>
	<path fill="#4C4C4C" d="M97.706,549.304v2.072h-24.36v-2.072H97.706z M88.466,543.06c1.138,0.598,2.361,1.115,3.668,1.554
		c1.306,0.439,2.632,0.789,3.976,1.05l-1.232,1.904c-0.672-0.149-1.372-0.336-2.1-0.56c-0.728-0.225-1.456-0.485-2.184-0.784
		s-1.442-0.616-2.142-0.952c-0.7-0.336-1.34-0.69-1.918-1.064c-1.568,0.841-3.239,1.545-5.012,2.114
		c-1.773,0.57-3.538,0.976-5.292,1.218l-1.148-1.848c1.568-0.224,3.057-0.532,4.466-0.924s2.707-0.84,3.892-1.344
		s2.235-1.051,3.15-1.639s1.67-1.18,2.268-1.777c-1.998,0.056-3.985,0.084-5.964,0.084h-5.656v-1.988h7.812c1.194,0,2.394,0,3.598,0
		s2.459-0.019,3.766-0.056c0.224-0.019,0.373,0.052,0.448,0.21c0.074,0.158,0.065,0.321-0.028,0.489
		c-0.467,0.804-1.074,1.564-1.82,2.282C90.267,541.748,89.418,542.425,88.466,543.06z M94.402,558.264
		c0,0.69-0.182,1.334-0.546,1.932c-0.364,0.598-0.91,1.11-1.638,1.54s-1.634,0.771-2.716,1.022s-2.333,0.378-3.752,0.378
		c-1.438,0-2.698-0.126-3.78-0.378c-1.083-0.252-1.988-0.593-2.716-1.022s-1.279-0.942-1.652-1.54
		c-0.374-0.598-0.56-1.241-0.56-1.932c0-1.4,0.732-2.543,2.198-3.43c1.465-0.887,3.635-1.33,6.51-1.33s5.035,0.443,6.482,1.33
		C93.678,555.721,94.402,556.863,94.402,558.264z M91.798,558.291c0-0.354-0.098-0.699-0.294-1.035
		c-0.196-0.336-0.532-0.64-1.008-0.91s-1.102-0.49-1.876-0.658c-0.775-0.168-1.731-0.252-2.87-0.252
		c-1.158,0-2.124,0.084-2.898,0.252c-0.775,0.168-1.4,0.388-1.876,0.658s-0.812,0.574-1.008,0.91
		c-0.196,0.336-0.294,0.682-0.294,1.035c0,0.337,0.098,0.678,0.294,1.022c0.196,0.345,0.532,0.648,1.008,0.91
		c0.476,0.261,1.101,0.476,1.876,0.644c0.774,0.168,1.74,0.252,2.898,0.252c1.139,0,2.095-0.084,2.87-0.252
		c0.774-0.168,1.4-0.383,1.876-0.644c0.476-0.262,0.812-0.565,1.008-0.91C91.7,558.969,91.798,558.628,91.798,558.291z"/>
	<path fill="#4C4C4C" d="M109.018,562.352h-2.464v-8.316c-0.448,0.02-0.887,0.028-1.316,0.028c-0.43,0-0.85,0-1.26,0h-4.956v-2.1
		h4.928c0.933,0,1.96-0.015,3.08-0.042c1.12-0.028,2.254-0.07,3.402-0.126c1.148-0.057,2.268-0.131,3.36-0.225
		c1.092-0.093,2.086-0.195,2.982-0.308v2.016c-1.102,0.149-2.319,0.28-3.654,0.393c-1.335,0.111-2.702,0.205-4.102,0.279V562.352z
		 M113.918,543.983c0,0.784-0.154,1.512-0.462,2.185c-0.308,0.672-0.742,1.25-1.302,1.735s-1.242,0.868-2.044,1.148
		c-0.803,0.279-1.708,0.42-2.716,0.42c-1.008,0-1.914-0.141-2.716-0.42c-0.803-0.28-1.484-0.663-2.044-1.148
		s-0.994-1.063-1.302-1.735c-0.308-0.673-0.462-1.4-0.462-2.185s0.154-1.512,0.462-2.184s0.742-1.251,1.302-1.736
		s1.241-0.868,2.044-1.148c0.802-0.279,1.708-0.42,2.716-0.42c1.008,0,1.913,0.141,2.716,0.42c0.802,0.28,1.484,0.663,2.044,1.148
		s0.994,1.064,1.302,1.736S113.918,543.199,113.918,543.983z M111.538,543.983c0-1.008-0.369-1.834-1.106-2.478
		c-0.738-0.645-1.75-0.967-3.038-0.967s-2.301,0.322-3.038,0.967c-0.737,0.644-1.106,1.47-1.106,2.478
		c0,1.027,0.369,1.857,1.106,2.492s1.75,0.952,3.038,0.952s2.3-0.317,3.038-0.952C111.169,545.841,111.538,545.011,111.538,543.983z
		 M120.554,562.911h-2.408v-25.563h2.408V562.911z"/>
	<path fill="#4C4C4C" d="M124.165,549.359h4.62c0.933,0,1.963-0.014,3.09-0.042c1.126-0.028,2.265-0.07,3.416-0.126
		c1.15-0.056,2.272-0.13,3.364-0.224s2.086-0.196,2.982-0.309v1.96c-1.064,0.15-2.226,0.276-3.486,0.378
		c-1.26,0.104-2.553,0.192-3.878,0.267v5.684h-2.464v-5.6c-0.522,0.037-1.031,0.056-1.526,0.056s-0.985,0-1.47,0h-4.648V549.359z
		 M139.426,542.695c0,0.729-0.154,1.4-0.46,2.017c-0.307,0.615-0.739,1.147-1.296,1.596c-0.557,0.448-1.236,0.798-2.035,1.05
		s-1.7,0.378-2.704,0.378c-1.003,0-1.905-0.126-2.705-0.378s-1.478-0.602-2.035-1.05c-0.558-0.448-0.99-0.98-1.296-1.596
		c-0.307-0.616-0.46-1.288-0.46-2.017c0-0.728,0.153-1.399,0.46-2.016s0.739-1.148,1.296-1.596c0.557-0.448,1.236-0.799,2.035-1.051
		s1.701-0.378,2.705-0.378c1.004,0,1.905,0.126,2.704,0.378s1.478,0.603,2.035,1.051c0.558,0.447,0.99,0.979,1.296,1.596
		S139.426,541.968,139.426,542.695z M145.949,562.407h-17.78v-6.58h2.38v4.509h15.4V562.407z M136.962,542.668
		c0-0.337-0.07-0.687-0.21-1.051c-0.14-0.363-0.369-0.695-0.686-0.994c-0.318-0.298-0.733-0.541-1.246-0.728
		c-0.514-0.187-1.144-0.28-1.89-0.28s-1.377,0.094-1.89,0.28c-0.514,0.187-0.929,0.43-1.246,0.728
		c-0.318,0.299-0.546,0.631-0.686,0.994c-0.14,0.364-0.21,0.714-0.21,1.051c0,0.336,0.07,0.686,0.21,1.05
		c0.14,0.363,0.368,0.69,0.686,0.979c0.317,0.29,0.732,0.532,1.246,0.729c0.513,0.195,1.144,0.294,1.89,0.294
		s1.376-0.099,1.89-0.294c0.513-0.196,0.928-0.438,1.246-0.729c0.317-0.289,0.546-0.616,0.686-0.979
		C136.891,543.354,136.962,543.004,136.962,542.668z M143.121,557.928v-3.108h-5.852v-2.044h5.852v-15.428h2.408v20.58H143.121z"/>
	<path fill="#4C4C4C" d="M164.01,549.275c0,1.139-0.413,2.114-1.239,2.926c-0.826,0.813-2.056,1.312-3.689,1.498v2.688
		c1.381-0.057,2.744-0.131,4.088-0.225c1.344-0.093,2.557-0.214,3.64-0.363v1.987c-0.896,0.131-1.881,0.243-2.954,0.336
		c-1.074,0.094-2.175,0.173-3.306,0.238s-2.259,0.117-3.388,0.154c-1.129,0.037-2.188,0.056-3.177,0.056h-5.012v-2.072h4.984
		c0.41,0,0.835,0,1.274,0c0.438,0,0.9-0.009,1.386-0.027v-2.772c-1.699-0.168-2.968-0.658-3.808-1.47
		c-0.84-0.812-1.26-1.796-1.26-2.954c0-0.634,0.13-1.223,0.392-1.764c0.261-0.541,0.653-1.013,1.176-1.414s1.171-0.714,1.946-0.938
		c0.774-0.224,1.684-0.336,2.73-0.336c1.026,0,1.927,0.112,2.702,0.336c0.774,0.225,1.423,0.537,1.946,0.938
		c0.522,0.401,0.914,0.873,1.176,1.414C163.879,548.053,164.01,548.642,164.01,549.275z M149.898,543.647v-1.988h15.568v1.988
		H149.898z M153.314,540.119v-2.044h8.652v2.044H153.314z M161.546,549.275c0-0.336-0.07-0.662-0.209-0.979
		c-0.139-0.317-0.361-0.598-0.667-0.841c-0.306-0.242-0.695-0.438-1.167-0.588c-0.472-0.148-1.042-0.224-1.709-0.224
		c-0.667,0-1.242,0.075-1.724,0.224c-0.482,0.15-0.875,0.346-1.181,0.588c-0.306,0.243-0.528,0.523-0.667,0.841
		s-0.208,0.644-0.208,0.979s0.069,0.663,0.208,0.98s0.361,0.598,0.667,0.84s0.699,0.438,1.181,0.588s1.056,0.224,1.724,0.224
		c0.667,0,1.237-0.074,1.709-0.224c0.473-0.149,0.862-0.346,1.167-0.588c0.305-0.242,0.528-0.522,0.667-0.84
		C161.476,549.938,161.546,549.611,161.546,549.275z M170.506,562.911h-2.408v-25.563h2.408V562.911z"/>
	<path fill="#4C4C4C" d="M189.406,537.964c0.037,0.803,0.009,1.572-0.084,2.31c-0.094,0.737-0.233,1.442-0.42,2.114
		c0.747,1.362,1.68,2.571,2.8,3.626c1.12,1.055,2.492,1.974,4.116,2.758l-1.512,1.708c-1.381-0.672-2.6-1.488-3.654-2.45
		c-1.055-0.961-1.946-2.03-2.674-3.206c-0.71,1.4-1.62,2.623-2.73,3.668c-1.111,1.046-2.366,1.951-3.766,2.716l-1.68-1.596
		c1.194-0.653,2.254-1.367,3.178-2.142c0.924-0.774,1.689-1.639,2.296-2.59c0.606-0.952,1.045-1.998,1.316-3.137
		c0.271-1.138,0.369-2.398,0.294-3.779H189.406z M201.082,562.52h-15.96v-8.96h15.96V562.52z M198.674,555.716H187.53v4.704h11.144
		V555.716z M198.674,537.348h2.408v14.756h-2.408V537.348z"/>
	<path fill="#4C4C4C" d="M205.142,555.436h5.124c0.933,0,1.96-0.014,3.08-0.042c1.12-0.028,2.254-0.07,3.402-0.126
		s2.268-0.131,3.36-0.224c1.092-0.094,2.086-0.196,2.982-0.309v2.017c-0.896,0.13-1.881,0.242-2.954,0.336
		c-1.073,0.093-2.175,0.173-3.304,0.237c-1.13,0.066-2.254,0.117-3.374,0.154c-1.12,0.038-2.175,0.056-3.164,0.056h-5.152V555.436z
		 M220.01,545.355c0,0.915-0.153,1.769-0.46,2.563c-0.307,0.793-0.744,1.479-1.311,2.058c-0.567,0.579-1.259,1.031-2.077,1.358
		c-0.818,0.326-1.729,0.489-2.732,0.489c-1.004,0-1.915-0.163-2.732-0.489c-0.818-0.327-1.51-0.779-2.077-1.358
		c-0.567-0.578-1.004-1.265-1.311-2.058c-0.307-0.794-0.459-1.647-0.459-2.563c0-0.914,0.153-1.769,0.459-2.562
		c0.307-0.794,0.744-1.479,1.311-2.059c0.567-0.578,1.259-1.031,2.077-1.357c0.818-0.327,1.729-0.49,2.732-0.49
		c1.003,0,1.914,0.163,2.732,0.49c0.818,0.326,1.51,0.779,2.077,1.357c0.567,0.579,1.004,1.265,1.311,2.059
		C219.856,543.587,220.01,544.441,220.01,545.355z M217.546,545.355c0-1.344-0.369-2.408-1.106-3.192
		c-0.738-0.783-1.741-1.176-3.01-1.176c-1.27,0-2.273,0.393-3.01,1.176c-0.738,0.784-1.106,1.849-1.106,3.192
		s0.368,2.408,1.106,3.192c0.737,0.783,1.74,1.176,3.01,1.176c1.269,0,2.272-0.393,3.01-1.176
		C217.177,547.764,217.546,546.699,217.546,545.355z M226.73,562.911h-2.324v-25.563h2.324V562.911z"/>
	<path fill="#4C4C4C" d="M236.025,555.771v-1.988h23.8v1.988h-10.416v7h-2.464v-7H236.025z M257.305,541.071v1.988h-18.788v-1.988
		H257.305z M255.233,548.239c0,0.504-0.149,0.994-0.448,1.471c-0.299,0.476-0.747,0.892-1.344,1.245
		c-0.598,0.355-1.358,0.64-2.282,0.854c-0.924,0.215-2.002,0.322-3.234,0.322c-1.25,0-2.333-0.107-3.248-0.322
		c-0.915-0.215-1.671-0.499-2.268-0.854c-0.598-0.354-1.041-0.77-1.33-1.245c-0.29-0.477-0.434-0.967-0.434-1.471
		c0-0.522,0.145-1.021,0.434-1.498c0.289-0.476,0.732-0.891,1.33-1.246c0.597-0.354,1.353-0.634,2.268-0.84
		c0.914-0.205,1.997-0.308,3.248-0.308s2.333,0.103,3.248,0.308c0.915,0.206,1.67,0.486,2.268,0.84
		c0.597,0.355,1.045,0.771,1.344,1.246C255.084,547.218,255.233,547.717,255.233,548.239z M252.741,537.516v2.016h-9.632v-2.016
		H252.741z M252.769,548.296c0-0.225-0.084-0.458-0.251-0.7s-0.442-0.462-0.824-0.658c-0.381-0.196-0.879-0.359-1.493-0.49
		c-0.614-0.13-1.378-0.195-2.29-0.195c-0.894,0-1.647,0.065-2.262,0.195c-0.614,0.131-1.107,0.294-1.479,0.49
		s-0.642,0.416-0.81,0.658c-0.168,0.242-0.251,0.476-0.251,0.7c0,0.187,0.083,0.392,0.251,0.615c0.167,0.225,0.438,0.435,0.81,0.63
		c0.372,0.196,0.865,0.36,1.479,0.49c0.614,0.131,1.368,0.196,2.262,0.196c0.912,0,1.675-0.065,2.29-0.196
		c0.614-0.13,1.112-0.294,1.493-0.49c0.382-0.195,0.656-0.405,0.824-0.63C252.685,548.688,252.769,548.482,252.769,548.296z"/>
	<path fill="#4C4C4C" d="M262.205,558.376c0-0.505,0.177-0.925,0.532-1.261c0.354-0.336,0.83-0.504,1.428-0.504
		c0.597,0,1.087,0.225,1.47,0.672c0.382,0.448,0.574,0.999,0.574,1.652c0,0.597-0.098,1.152-0.294,1.666
		c-0.196,0.513-0.458,0.984-0.784,1.414c-0.327,0.429-0.709,0.803-1.148,1.12s-0.91,0.56-1.414,0.728l-0.504-1.063
		c0.542-0.206,0.999-0.5,1.372-0.882c0.373-0.383,0.634-0.817,0.784-1.303c0.056-0.224,0.065-0.383,0.028-0.476
		c-0.038-0.094-0.159-0.141-0.364-0.141c-0.43,0-0.817-0.163-1.162-0.489C262.378,559.184,262.205,558.805,262.205,558.376z"/>
	<path fill="#4C4C4C" d="M299.669,549.191v2.072h-24.36v-2.072H299.669z M288.553,540.287c0.392,0.579,0.929,1.125,1.61,1.639
		c0.681,0.514,1.437,0.971,2.268,1.372c0.83,0.401,1.703,0.746,2.618,1.036c0.915,0.289,1.801,0.499,2.66,0.63l-1.288,1.932
		c-1.848-0.354-3.561-0.961-5.138-1.82c-1.578-0.858-2.898-1.838-3.962-2.939c-0.542,0.616-1.157,1.194-1.848,1.735
		c-0.691,0.542-1.424,1.027-2.198,1.456c-0.775,0.43-1.573,0.799-2.394,1.106s-1.633,0.527-2.436,0.658l-1.26-1.849
		c1.325-0.242,2.566-0.62,3.724-1.134c1.157-0.513,2.165-1.115,3.024-1.806c0.858-0.69,1.53-1.461,2.016-2.311
		c0.485-0.849,0.718-1.73,0.7-2.646h2.576c0.037,0.504-0.005,1.004-0.126,1.498C288.978,539.34,288.796,539.821,288.553,540.287z
		 M296.141,558.18c0,0.709-0.182,1.367-0.546,1.974c-0.364,0.606-0.91,1.129-1.638,1.568c-0.728,0.438-1.634,0.784-2.716,1.036
		c-1.083,0.252-2.334,0.378-3.752,0.378c-1.438,0-2.697-0.126-3.78-0.378c-1.083-0.252-1.988-0.598-2.716-1.036
		c-0.728-0.439-1.279-0.962-1.652-1.568s-0.56-1.265-0.56-1.974c0-1.419,0.732-2.576,2.198-3.473
		c1.465-0.896,3.635-1.344,6.51-1.344c2.856,0,5.012,0.448,6.468,1.344C295.413,555.604,296.141,556.761,296.141,558.18z
		 M293.537,558.18c0-0.354-0.098-0.704-0.294-1.05c-0.196-0.346-0.532-0.658-1.008-0.938s-1.102-0.504-1.876-0.672
		c-0.775-0.168-1.731-0.252-2.87-0.252c-1.157,0-2.124,0.084-2.898,0.252s-1.4,0.392-1.876,0.672s-0.812,0.593-1.008,0.938
		c-0.196,0.346-0.294,0.695-0.294,1.05s0.098,0.709,0.294,1.063c0.196,0.354,0.532,0.672,1.008,0.952s1.102,0.504,1.876,0.672
		s1.741,0.252,2.898,0.252c1.139,0,2.095-0.084,2.87-0.252c0.774-0.168,1.4-0.392,1.876-0.672s0.812-0.598,1.008-0.952
		C293.439,558.889,293.537,558.534,293.537,558.18z"/>
	<path fill="#4C4C4C" d="M301.461,544.964c0-0.934,0.167-1.802,0.503-2.604c0.335-0.803,0.801-1.493,1.397-2.072
		c0.596-0.578,1.294-1.031,2.095-1.357s1.676-0.49,2.626-0.49c0.95,0,1.834,0.164,2.654,0.49c0.819,0.326,1.527,0.779,2.124,1.357
		c0.596,0.579,1.062,1.27,1.397,2.072c0.335,0.803,0.503,1.671,0.503,2.604c0,0.914-0.168,1.764-0.503,2.548
		c-0.335,0.784-0.801,1.461-1.397,2.029c-0.596,0.57-1.304,1.019-2.124,1.345c-0.82,0.326-1.705,0.49-2.654,0.49
		c-0.95,0-1.826-0.164-2.626-0.49s-1.5-0.774-2.095-1.345c-0.597-0.568-1.063-1.245-1.397-2.029
		C301.629,546.728,301.461,545.878,301.461,544.964z M304.037,544.949c0,0.614,0.098,1.187,0.294,1.717s0.476,0.981,0.84,1.354
		c0.364,0.372,0.798,0.665,1.302,0.879s1.064,0.321,1.68,0.321c0.616,0,1.176-0.107,1.68-0.321s0.938-0.507,1.302-0.879
		c0.364-0.372,0.648-0.823,0.854-1.354c0.205-0.53,0.308-1.103,0.308-1.717c0-0.651-0.103-1.246-0.308-1.786
		c-0.206-0.539-0.49-1.005-0.854-1.396c-0.364-0.391-0.798-0.693-1.302-0.907s-1.064-0.321-1.68-0.321
		c-0.616,0-1.176,0.107-1.68,0.321s-0.938,0.517-1.302,0.907c-0.364,0.391-0.644,0.856-0.84,1.396
		C304.135,543.703,304.037,544.298,304.037,544.949z M322.406,562.407h-16.548v-7.924h2.464v5.824h14.084V562.407z M321.817,555.827
		h-2.379v-18.479h2.379V555.827z"/>
	<path fill="#4C4C4C" d="M332.989,557.312l-1.736-1.54c1.139-0.821,2.193-1.764,3.164-2.828c0.971-1.063,1.793-2.282,2.465-3.654
		c0.672-1.371,1.171-2.916,1.498-4.634c0.326-1.717,0.415-3.63,0.266-5.74h2.548c0.038,1.232,0,2.399-0.112,3.5
		c-0.111,1.103-0.271,2.156-0.476,3.164c0.672,1.923,1.624,3.683,2.856,5.278c1.231,1.596,2.697,2.964,4.396,4.103l-1.567,1.792
		c-1.4-0.989-2.656-2.161-3.767-3.515c-1.11-1.353-2.058-2.879-2.842-4.578c-0.71,1.83-1.629,3.458-2.758,4.887
		C335.793,554.974,334.483,556.229,332.989,557.312z M350.685,537.348h2.408v25.563h-2.408V537.348z"/>
	<path fill="#4C4C4C" d="M371.461,547.623l8.512,12.572h-3.024l-7.14-11.004h-0.028l-2.464,2.604v8.399h-2.464v-21.196h2.464v9.856
		h0.057l9.016-9.856h2.968L371.461,547.623z"/>
	<path fill="#4C4C4C" d="M395.738,555.688c0.242-0.187,0.364-0.149,0.364,0.112v2.464c-0.878,0.747-1.867,1.297-2.969,1.651
		s-2.314,0.532-3.64,0.532c-1.512,0-2.86-0.262-4.046-0.784c-1.186-0.521-2.193-1.26-3.024-2.212c-0.83-0.952-1.461-2.09-1.89-3.416
		c-0.43-1.325-0.644-2.8-0.644-4.424c0-1.68,0.247-3.191,0.741-4.536c0.495-1.344,1.186-2.487,2.072-3.43s1.937-1.661,3.15-2.156
		c1.213-0.494,2.538-0.742,3.976-0.742c1.232,0,2.343,0.136,3.332,0.406s1.913,0.742,2.772,1.414v2.576
		c0,0.131-0.038,0.206-0.112,0.224c-0.075,0.02-0.159-0.018-0.252-0.111c-1.456-1.605-3.313-2.408-5.572-2.408
		c-1.046,0-2.025,0.187-2.939,0.56c-0.915,0.374-1.708,0.924-2.381,1.652c-0.672,0.728-1.203,1.629-1.596,2.702
		c-0.392,1.073-0.588,2.31-0.588,3.71c0,2.912,0.64,5.109,1.918,6.594s3.112,2.226,5.502,2.226
		C392.154,558.291,394.095,557.424,395.738,555.688z"/>
	<path fill="#4C4C4C" d="M408.057,551.151l5.236,9.044h-3.136l-4.396-8.596h-4.116v8.596h-2.464l-0.028-21.196h6.033
		c2.413,0,4.246,0.547,5.499,1.639s1.88,2.553,1.88,4.382c0,1.699-0.388,3.043-1.162,4.032S409.513,550.741,408.057,551.151z
		 M410.045,545.075c0-0.709-0.122-1.315-0.364-1.819c-0.243-0.504-0.574-0.92-0.994-1.246s-0.905-0.564-1.456-0.714
		s-1.144-0.225-1.777-0.225h-3.836v8.568h2.939c0.914,0,1.713-0.074,2.395-0.225c0.681-0.148,1.25-0.396,1.708-0.741
		c0.457-0.346,0.802-0.813,1.035-1.4S410.045,545.953,410.045,545.075z"/>
	<path fill="#4C4C4C" d="M421.777,549.247v-11.144h2.464v3.724h6.888v-3.724h2.408v11.144H421.777z M431.128,543.844h-6.888v3.332
		h6.888V543.844z M441.376,562.632h-16.436v-6.637h13.496v-2.323h-13.496v-2.044h15.876v6.355h-13.496v2.604h14.056V562.632z
		 M444.849,544.823h-4.032v5.349h-2.408v-12.853h2.408v5.349h4.032V544.823z"/>
	<path fill="#4C4C4C" d="M449.104,538.188h16.688c-0.038,1.718-0.123,3.351-0.255,4.9c-0.133,1.549-0.283,2.884-0.453,4.004h4.74
		v2.071h-24.389v-2.071h17.248c0.168-1.139,0.309-2.272,0.42-3.402c0.112-1.129,0.187-2.263,0.225-3.402h-14.225V538.188z
		 M449.384,562.52v-10.612h2.408v3.137h11.647v-3.137h2.408v10.612H449.384z M463.468,557.06h-11.704v3.416h11.704V557.06z"/>
</g>
</svg>
