<?xml version="1.0" encoding="utf-8"?>
<!-- Generator: Adobe Illustrator 16.0.3, SVG Export Plug-In . SVG Version: 6.00 Build 0)  -->
<!DOCTYPE svg PUBLIC "-//W3C//DTD SVG 1.1//EN" "http://www.w3.org/Graphics/SVG/1.1/DTD/svg11.dtd">
<svg version="1.1" id="Layer_1" xmlns="http://www.w3.org/2000/svg" xmlns:xlink="http://www.w3.org/1999/xlink" x="0px" y="0px"
	 width="586px" height="605.5px" viewBox="0 0 586 605.5" enable-background="new 0 0 586 605.5" xml:space="preserve">
<g id="Rectangle_19">
	<g>
		<path fill="#019EBF" d="M119.257,43.999C76.589,43.999,42,78.64,42,121.37s34.589,77.371,77.257,77.371h77.257V121.37
			C196.514,78.64,161.925,43.999,119.257,43.999z"/>
	</g>
</g>
<g id="Rectangle_19_copy">
	<g>
		<path fill="#FFFFFF" d="M480.74,43.999c-42.668,0-77.257,34.641-77.257,77.371v77.371h77.257c42.668,0,77.26-34.641,77.26-77.371
			S523.408,43.999,480.74,43.999z"/>
	</g>
	<g>
		<path fill="none" stroke="#019EBF" stroke-miterlimit="10" d="M480.74,43.999c-42.668,0-77.257,34.641-77.257,77.371v77.371
			h77.257c42.668,0,77.26-34.641,77.26-77.371S523.408,43.999,480.74,43.999z"/>
	</g>
</g>
<g id="Rectangle_19_copy_2">
	<g>
		<path fill="#FFFFFF" d="M119.257,422.257C76.589,422.257,42,456.897,42,499.628c0,42.731,34.589,77.371,77.257,77.371
			s77.257-34.64,77.257-77.371v-77.371H119.257L119.257,422.257z"/>
	</g>
	<g>
		<path fill="none" stroke="#019EBF" stroke-miterlimit="10" d="M119.257,422.257C76.589,422.257,42,456.897,42,499.628
			c0,42.731,34.589,77.371,77.257,77.371s77.257-34.64,77.257-77.371v-77.371H119.257L119.257,422.257z"/>
	</g>
</g>
<g id="Rectangle_19_copy_2_1_">
	<g>
		<path fill="#019EBF" d="M480.74,422.257h-77.257v77.371c0,42.731,34.589,77.371,77.257,77.371S558,542.359,558,499.628
			C558,456.897,523.408,422.257,480.74,422.257z"/>
	</g>
</g>
<g id="Ellipse_3_copy">
	<g>
		<ellipse fill="#E9EDEE" cx="300.274" cy="311.51" rx="125.422" ry="125.608"/>
	</g>
</g>
<g id="Ellipse_3_xA0_Image_1_">
	
		<image overflow="visible" enable-background="new    " width="183" height="184" id="Ellipse_3_xA0_Image" xlink:href="5C9DE198.png"  transform="matrix(1 0 0 1 208.7732 219.5098)">
	</image>
</g>
<g id="실제성">
	<g enable-background="new    ">
		<path fill="#FFFFFF" d="M98.797,113c0.028,0.546,0.011,1.071-0.052,1.576s-0.149,0.981-0.259,1.429
			c0.487,0.882,1.154,1.72,2,2.511s1.892,1.454,3.137,1.986l-1.133,1.282c-1.049-0.462-1.955-1.03-2.716-1.702
			s-1.426-1.429-1.993-2.27c-0.525,0.995-1.211,1.86-2.058,2.595c-0.846,0.736-1.794,1.376-2.843,1.923l-1.259-1.219
			c0.867-0.462,1.644-0.956,2.329-1.481s1.262-1.114,1.731-1.765c0.468-0.651,0.811-1.376,1.027-2.175
			c0.216-0.798,0.297-1.695,0.242-2.689H98.797z M107.987,131.598H95.523v-4.875h10.261v-1.744H95.523v-1.555h12.044v4.833H97.307
			v1.786h10.68V131.598z M105.763,112.622h1.805v9.708h-1.805V112.622z"/>
		<path fill="#FFFFFF" d="M116.171,115.774c-0.56,0.042-1.158,0.066-1.794,0.073c-0.637,0.007-1.27,0.011-1.899,0.011h-1.259v-1.534
			h2.35c0.741,0,1.479,0,2.214,0s1.521-0.014,2.36-0.042c-0.168,2.214-0.665,4.315-1.49,6.304c0.448,0.939,0.993,1.828,1.637,2.669
			c0.643,0.84,1.343,1.576,2.098,2.207l-1.427,1.219c-0.629-0.588-1.213-1.247-1.752-1.976c-0.539-0.728-1.011-1.506-1.417-2.333
			c-0.532,0.967-1.14,1.871-1.825,2.711c-0.686,0.841-1.455,1.618-2.308,2.333l-1.448-1.072c1.804-1.443,3.189-3.026,4.154-4.749
			S115.932,117.931,116.171,115.774z M120.997,112.832h1.741v18.493h-1.741v-10.402h-2.56v-1.534h2.56V112.832z M126.599,131.808
			h-1.804v-19.186h1.804V131.808z"/>
		<path fill="#FFFFFF" d="M136.251,113.105c0.014,0.63-0.014,1.236-0.083,1.818c-0.069,0.581-0.173,1.138-0.311,1.67
			c0.584,1.107,1.286,2.063,2.104,2.869s1.815,1.502,2.99,2.091l-1.112,1.282c-1.007-0.518-1.902-1.148-2.684-1.891
			s-1.443-1.569-1.983-2.48c-0.498,1.065-1.149,2.007-1.953,2.827c-0.804,0.819-1.731,1.523-2.78,2.112l-1.238-1.198
			c1.805-1.022,3.15-2.27,4.038-3.741c0.888-1.471,1.276-3.257,1.166-5.358H136.251z M145.168,128.256
			c0,0.532-0.132,1.026-0.398,1.481c-0.266,0.455-0.664,0.847-1.194,1.177c-0.531,0.329-1.194,0.588-1.99,0.777
			c-0.796,0.189-1.718,0.284-2.765,0.284s-1.966-0.094-2.754-0.284c-0.789-0.189-1.449-0.452-1.979-0.788
			c-0.531-0.336-0.929-0.732-1.194-1.187c-0.266-0.456-0.398-0.949-0.398-1.481s0.132-1.026,0.398-1.482
			c0.265-0.455,0.663-0.851,1.194-1.187c0.53-0.336,1.19-0.599,1.979-0.788c0.789-0.189,1.707-0.284,2.754-0.284
			s1.969,0.095,2.765,0.284c0.796,0.189,1.459,0.452,1.99,0.788c0.53,0.336,0.928,0.735,1.194,1.198
			S145.168,127.724,145.168,128.256z M143.28,128.256c0-0.294-0.087-0.574-0.262-0.841c-0.175-0.266-0.448-0.504-0.818-0.714
			c-0.371-0.21-0.839-0.378-1.406-0.504c-0.567-0.126-1.235-0.189-2.004-0.189c-0.755,0-1.413,0.063-1.973,0.189
			s-1.025,0.294-1.395,0.504c-0.371,0.21-0.644,0.448-0.818,0.714c-0.175,0.267-0.262,0.546-0.262,0.841
			c0,0.28,0.087,0.553,0.262,0.819c0.175,0.266,0.447,0.501,0.818,0.704c0.37,0.203,0.835,0.364,1.395,0.483
			c0.56,0.119,1.217,0.179,1.973,0.179c0.769,0,1.437-0.06,2.004-0.179c0.566-0.119,1.035-0.281,1.406-0.483
			c0.371-0.203,0.643-0.438,0.818-0.704C143.193,128.81,143.28,128.537,143.28,128.256z M139.314,118.316v-1.618h3.882v-4.098h1.805
			v11.516h-1.805v-5.8H139.314z"/>
	</g>
</g>
<g id="추가성">
	<g enable-background="new    ">
		<path fill="#019EBF" d="M471.898,125.356h-7.827v6.346h-1.783v-6.346h-8.226v-1.534h17.836V125.356z M465.183,119.262
			c0.839,0.308,1.738,0.585,2.696,0.83s1.955,0.445,2.99,0.599l-0.86,1.45c-1.105-0.196-2.214-0.466-3.326-0.809
			s-2.172-0.739-3.179-1.188c-1.189,0.561-2.441,1.023-3.756,1.387c-1.315,0.364-2.567,0.638-3.756,0.819l-0.881-1.45
			c1.091-0.14,2.161-0.336,3.21-0.588c1.049-0.252,2.028-0.543,2.938-0.872s1.734-0.694,2.476-1.093
			c0.742-0.399,1.357-0.816,1.847-1.25c-0.797,0.042-1.588,0.066-2.371,0.073c-0.783,0.007-1.566,0.011-2.35,0.011h-4.134v-1.513
			h5.729c0.909,0,1.821,0,2.738,0c0.916,0,1.87-0.014,2.864-0.042c0.168,0.014,0.283,0.084,0.346,0.21
			c0.063,0.126,0.06,0.245-0.011,0.357c-0.321,0.588-0.759,1.139-1.311,1.65C466.529,118.355,465.897,118.828,465.183,119.262z
			 M459.202,114.282v-1.576h6.757v1.576H459.202z"/>
		<path fill="#019EBF" d="M472.842,126.365c1.23-0.616,2.314-1.316,3.252-2.101s1.731-1.632,2.382-2.543s1.171-1.867,1.563-2.869
			c0.392-1.001,0.658-2.028,0.798-3.078c-0.854,0.028-1.699,0.045-2.539,0.052c-0.839,0.007-1.679,0.011-2.518,0.011h-2.161v-1.555
			h3.294c0.979,0,1.958,0,2.938,0s1.965-0.014,2.959-0.042c-0.196,2.886-0.994,5.467-2.393,7.744
			c-1.398,2.277-3.518,4.179-6.357,5.706L472.842,126.365z M491.013,121.637h-3.294v10.171h-1.805v-19.186h1.805v7.397h3.294
			V121.637z"/>
		<path fill="#019EBF" d="M498.693,113.105c0.014,0.63-0.014,1.236-0.083,1.818c-0.069,0.581-0.173,1.138-0.312,1.67
			c0.585,1.107,1.286,2.063,2.104,2.869s1.815,1.502,2.99,2.091l-1.112,1.282c-1.007-0.518-1.902-1.148-2.685-1.891
			s-1.443-1.569-1.982-2.48c-0.498,1.065-1.149,2.007-1.953,2.827c-0.805,0.819-1.73,1.523-2.78,2.112l-1.237-1.198
			c1.804-1.022,3.15-2.27,4.038-3.741c0.888-1.471,1.275-3.257,1.165-5.358H498.693z M507.611,128.256
			c0,0.532-0.133,1.026-0.398,1.481c-0.266,0.455-0.663,0.847-1.194,1.177c-0.53,0.329-1.193,0.588-1.989,0.777
			c-0.797,0.189-1.719,0.284-2.766,0.284c-1.048,0-1.966-0.094-2.755-0.284c-0.789-0.189-1.449-0.452-1.979-0.788
			c-0.53-0.336-0.929-0.732-1.193-1.187c-0.266-0.456-0.398-0.949-0.398-1.481s0.133-1.026,0.398-1.482
			c0.265-0.455,0.663-0.851,1.193-1.187c0.53-0.336,1.19-0.599,1.979-0.788s1.707-0.284,2.755-0.284
			c1.047,0,1.969,0.095,2.766,0.284c0.796,0.189,1.459,0.452,1.989,0.788c0.531,0.336,0.929,0.735,1.194,1.198
			S507.611,127.724,507.611,128.256z M505.722,128.256c0-0.294-0.088-0.574-0.263-0.841c-0.175-0.266-0.447-0.504-0.818-0.714
			c-0.37-0.21-0.839-0.378-1.405-0.504s-1.235-0.189-2.004-0.189c-0.756,0-1.413,0.063-1.973,0.189s-1.024,0.294-1.396,0.504
			c-0.37,0.21-0.644,0.448-0.818,0.714c-0.175,0.267-0.262,0.546-0.262,0.841c0,0.28,0.087,0.553,0.262,0.819
			s0.448,0.501,0.818,0.704c0.371,0.203,0.836,0.364,1.396,0.483c0.56,0.119,1.217,0.179,1.973,0.179
			c0.769,0,1.438-0.06,2.004-0.179c0.566-0.119,1.035-0.281,1.405-0.483c0.371-0.203,0.644-0.438,0.818-0.704
			S505.722,128.537,505.722,128.256z M501.756,118.316v-1.618h3.882v-4.098h1.805v11.516h-1.805v-5.8H501.756z"/>
	</g>
</g>
<g id="지속성">
	<g enable-background="new    ">
		<path fill="#019EBF" d="M99.615,501.111c0.587,0.925,1.28,1.817,2.077,2.679c0.797,0.862,1.658,1.629,2.581,2.302l-1.343,1.303
			c-0.839-0.645-1.612-1.373-2.319-2.186s-1.36-1.682-1.962-2.605c-0.812,1.135-1.713,2.164-2.707,3.089
			c-0.994,0.925-2.036,1.702-3.126,2.332l-1.217-1.219c1.119-0.602,2.151-1.352,3.095-2.248s1.77-1.842,2.476-2.837
			c0.706-0.995,1.276-1.996,1.71-3.005s0.692-1.934,0.776-2.774c-0.797,0.028-1.577,0.046-2.339,0.053
			c-0.763,0.007-1.536,0.011-2.319,0.011h-2.266v-1.534h3.378c0.895,0,1.804,0,2.728,0s1.881-0.014,2.875-0.042
			c-0.042,1.135-0.245,2.27-0.608,3.404S100.244,500.061,99.615,501.111z M105.763,492.789h1.805v19.187h-1.805V492.789z"/>
		<path fill="#019EBF" d="M120.199,499.367v2.837h8.162v1.555h-18.234v-1.555h8.225v-2.837H120.199z M119.99,495.144
			c0.294,0.462,0.696,0.899,1.207,1.313c0.51,0.414,1.077,0.788,1.7,1.125c0.622,0.336,1.276,0.623,1.962,0.861
			c0.685,0.238,1.35,0.406,1.993,0.504l-0.986,1.472c-0.686-0.141-1.353-0.337-2.004-0.589c-0.65-0.252-1.266-0.546-1.846-0.883
			c-0.581-0.336-1.123-0.703-1.626-1.103c-0.503-0.399-0.951-0.816-1.343-1.251c-0.406,0.505-0.864,0.975-1.375,1.408
			c-0.511,0.435-1.056,0.827-1.636,1.177c-0.581,0.351-1.179,0.645-1.794,0.883s-1.217,0.413-1.804,0.525l-0.965-1.408
			c0.993-0.196,1.923-0.501,2.791-0.914s1.623-0.903,2.266-1.471s1.147-1.194,1.511-1.881s0.539-1.394,0.525-2.123h1.93
			c0.028,0.407-0.003,0.807-0.094,1.198C120.307,494.38,120.171,494.765,119.99,495.144z M123.619,512.039v-4.687h-10.848v-1.556
			h12.653v6.242H123.619z"/>
		<path fill="#019EBF" d="M136.251,493.272c0.014,0.631-0.014,1.237-0.083,1.818s-0.173,1.138-0.311,1.67
			c0.584,1.107,1.286,2.063,2.104,2.869s1.815,1.502,2.99,2.091l-1.112,1.282c-1.007-0.519-1.902-1.149-2.684-1.892
			s-1.443-1.569-1.983-2.479c-0.498,1.064-1.149,2.007-1.953,2.826s-1.731,1.523-2.78,2.112l-1.238-1.198
			c1.805-1.022,3.15-2.27,4.038-3.74c0.888-1.472,1.276-3.258,1.166-5.359H136.251z M145.168,508.424
			c0,0.533-0.132,1.026-0.398,1.481s-0.664,0.848-1.194,1.177c-0.531,0.329-1.194,0.589-1.99,0.778
			c-0.796,0.188-1.718,0.283-2.765,0.283s-1.966-0.095-2.754-0.283c-0.789-0.189-1.449-0.452-1.979-0.788
			c-0.531-0.337-0.929-0.732-1.194-1.188c-0.266-0.455-0.398-0.949-0.398-1.481s0.132-1.026,0.398-1.481
			c0.265-0.455,0.663-0.852,1.194-1.188c0.53-0.336,1.19-0.599,1.979-0.788c0.789-0.189,1.707-0.284,2.754-0.284
			s1.969,0.095,2.765,0.284c0.796,0.189,1.459,0.452,1.99,0.788c0.53,0.336,0.928,0.735,1.194,1.198
			C145.036,507.395,145.168,507.892,145.168,508.424z M143.28,508.424c0-0.294-0.087-0.574-0.262-0.84
			c-0.175-0.267-0.448-0.505-0.818-0.715c-0.371-0.21-0.839-0.378-1.406-0.504c-0.567-0.127-1.235-0.189-2.004-0.189
			c-0.755,0-1.413,0.063-1.973,0.189c-0.56,0.126-1.025,0.294-1.395,0.504c-0.371,0.21-0.644,0.448-0.818,0.715
			c-0.175,0.266-0.262,0.546-0.262,0.84c0,0.28,0.087,0.554,0.262,0.82c0.175,0.266,0.447,0.5,0.818,0.703
			c0.37,0.203,0.835,0.364,1.395,0.483s1.217,0.179,1.973,0.179c0.769,0,1.437-0.06,2.004-0.179c0.566-0.119,1.035-0.28,1.406-0.483
			c0.371-0.203,0.643-0.438,0.818-0.703C143.193,508.978,143.28,508.704,143.28,508.424z M139.314,498.484v-1.618h3.882v-4.098
			h1.805v11.516h-1.805v-5.8H139.314z"/>
	</g>
</g>
<g id="검증_가능성">
	<g enable-background="new    ">
		<path fill="#FFFFFF" d="M434.654,493.63h3.063c0.979,0,1.951,0,2.916,0c0.966,0,1.944-0.014,2.938-0.042
			c-0.084,1.121-0.343,2.189-0.776,3.205s-1.027,1.954-1.783,2.815c-0.756,0.862-1.668,1.629-2.738,2.302
			c-1.07,0.672-2.276,1.219-3.619,1.639l-1.05-1.429c2.196-0.658,3.966-1.565,5.309-2.722c1.343-1.155,2.183-2.581,2.519-4.276
			c-0.84,0.028-1.665,0.046-2.477,0.053s-1.637,0.011-2.476,0.011h-1.825V493.63z M448.943,511.682h-11.96v-7.04h11.96V511.682z
			 M447.138,506.218h-8.352v3.908h8.352V506.218z M443.278,499.745v-1.576h3.86v-5.38h1.805v10.76h-1.805v-3.804H443.278z"/>
		<path fill="#FFFFFF" d="M469.757,501.763v1.555h-18.255v-1.555H469.757z M462.833,497.076c0.854,0.449,1.77,0.838,2.749,1.167
			c0.979,0.329,1.972,0.592,2.979,0.787l-0.924,1.43c-0.503-0.112-1.027-0.252-1.573-0.421c-0.546-0.168-1.091-0.363-1.637-0.588
			c-0.546-0.224-1.081-0.463-1.605-0.715s-1.004-0.518-1.438-0.798c-1.175,0.63-2.427,1.159-3.756,1.586
			c-1.329,0.428-2.65,0.732-3.966,0.914l-0.859-1.387c1.175-0.168,2.29-0.399,3.347-0.693c1.056-0.294,2.027-0.631,2.916-1.009
			s1.675-0.788,2.36-1.229s1.252-0.886,1.7-1.334c-1.497,0.042-2.987,0.063-4.47,0.063h-4.238v-1.492h5.854c0.895,0,1.794,0,2.696,0
			s1.843-0.014,2.822-0.042c0.167-0.014,0.279,0.039,0.335,0.158s0.049,0.241-0.021,0.367c-0.35,0.603-0.805,1.174-1.364,1.713
			C464.183,496.093,463.547,496.601,462.833,497.076z M467.281,508.487c0,0.519-0.137,1.001-0.409,1.45
			c-0.272,0.448-0.682,0.833-1.228,1.155c-0.545,0.322-1.224,0.578-2.035,0.768c-0.812,0.188-1.749,0.283-2.812,0.283
			c-1.077,0-2.021-0.095-2.833-0.283c-0.812-0.189-1.489-0.445-2.035-0.768s-0.958-0.707-1.238-1.155
			c-0.279-0.449-0.419-0.932-0.419-1.45c0-1.051,0.549-1.909,1.646-2.574c1.099-0.665,2.725-0.998,4.879-0.998
			s3.773,0.333,4.857,0.998S467.281,507.437,467.281,508.487z M465.33,508.508c0-0.266-0.073-0.525-0.221-0.777
			c-0.146-0.252-0.398-0.479-0.755-0.683c-0.357-0.203-0.826-0.368-1.406-0.494s-1.298-0.188-2.15-0.188
			c-0.868,0-1.592,0.063-2.172,0.188c-0.581,0.126-1.049,0.291-1.406,0.494c-0.356,0.203-0.608,0.431-0.755,0.683
			c-0.147,0.252-0.221,0.512-0.221,0.777c0,0.253,0.073,0.509,0.221,0.768c0.146,0.259,0.398,0.486,0.755,0.683
			c0.357,0.196,0.825,0.357,1.406,0.483c0.58,0.126,1.304,0.189,2.172,0.189c0.853,0,1.57-0.063,2.15-0.189s1.049-0.287,1.406-0.483
			c0.356-0.196,0.608-0.424,0.755-0.683C465.257,509.017,465.33,508.761,465.33,508.508z"/>
		<path fill="#FFFFFF" d="M475.193,506.533c1.23-0.616,2.314-1.317,3.252-2.102s1.731-1.632,2.382-2.543
			c0.65-0.91,1.171-1.866,1.563-2.868s0.658-2.028,0.798-3.079c-0.854,0.028-1.699,0.046-2.539,0.053
			c-0.839,0.007-1.679,0.011-2.518,0.011h-2.161v-1.556h3.294c0.979,0,1.958,0,2.938,0s1.965-0.014,2.959-0.042
			c-0.196,2.887-0.994,5.468-2.393,7.744s-3.518,4.179-6.357,5.705L475.193,506.533z M493.364,501.805h-3.294v10.171h-1.805v-19.187
			h1.805v7.397h3.294V501.805z"/>
		<path fill="#FFFFFF" d="M511.89,501.405v1.555h-18.255v-1.555H511.89z M509.246,508.34c0,0.533-0.136,1.03-0.409,1.492
			c-0.272,0.462-0.682,0.865-1.228,1.208c-0.545,0.344-1.224,0.613-2.035,0.81s-1.749,0.294-2.812,0.294
			c-1.077,0-2.021-0.098-2.833-0.294s-1.489-0.466-2.035-0.81c-0.546-0.343-0.958-0.746-1.238-1.208
			c-0.279-0.462-0.419-0.959-0.419-1.492c0-0.546,0.14-1.043,0.419-1.492c0.28-0.448,0.692-0.837,1.238-1.166
			s1.224-0.585,2.035-0.767c0.812-0.183,1.756-0.273,2.833-0.273c1.063,0,2,0.091,2.812,0.273c0.812,0.182,1.49,0.438,2.035,0.767
			c0.546,0.329,0.955,0.718,1.228,1.166C509.111,507.297,509.246,507.794,509.246,508.34z M496.678,492.853h1.847v4.623h10.659
			v1.534h-12.506V492.853z M507.295,508.361c0-0.294-0.073-0.578-0.221-0.852c-0.146-0.272-0.398-0.515-0.755-0.725
			s-0.825-0.382-1.406-0.515c-0.58-0.134-1.298-0.2-2.15-0.2c-0.867,0-1.592,0.066-2.172,0.2c-0.58,0.133-1.049,0.305-1.406,0.515
			c-0.356,0.21-0.608,0.452-0.755,0.725c-0.146,0.273-0.221,0.558-0.221,0.852c0,0.28,0.074,0.557,0.221,0.83
			s0.398,0.515,0.755,0.725c0.357,0.21,0.826,0.382,1.406,0.515c0.58,0.134,1.305,0.2,2.172,0.2c0.853,0,1.57-0.066,2.15-0.2
			c0.581-0.133,1.05-0.305,1.406-0.515s0.608-0.451,0.755-0.725C507.222,508.918,507.295,508.642,507.295,508.361z"/>
		<path fill="#FFFFFF" d="M519.759,493.272c0.014,0.631-0.014,1.237-0.083,1.818s-0.173,1.138-0.312,1.67
			c0.585,1.107,1.286,2.063,2.104,2.869s1.815,1.502,2.99,2.091l-1.112,1.282c-1.007-0.519-1.902-1.149-2.685-1.892
			s-1.443-1.569-1.982-2.479c-0.498,1.064-1.149,2.007-1.953,2.826c-0.805,0.819-1.73,1.523-2.78,2.112l-1.237-1.198
			c1.804-1.022,3.15-2.27,4.038-3.74c0.888-1.472,1.275-3.258,1.165-5.359H519.759z M528.677,508.424
			c0,0.533-0.133,1.026-0.398,1.481s-0.663,0.848-1.194,1.177c-0.53,0.329-1.193,0.589-1.989,0.778
			c-0.797,0.188-1.719,0.283-2.766,0.283c-1.048,0-1.966-0.095-2.755-0.283c-0.789-0.189-1.449-0.452-1.979-0.788
			c-0.53-0.337-0.929-0.732-1.193-1.188c-0.266-0.455-0.398-0.949-0.398-1.481s0.133-1.026,0.398-1.481
			c0.265-0.455,0.663-0.852,1.193-1.188s1.19-0.599,1.979-0.788s1.707-0.284,2.755-0.284c1.047,0,1.969,0.095,2.766,0.284
			c0.796,0.189,1.459,0.452,1.989,0.788c0.531,0.336,0.929,0.735,1.194,1.198C528.544,507.395,528.677,507.892,528.677,508.424z
			 M526.788,508.424c0-0.294-0.088-0.574-0.263-0.84c-0.175-0.267-0.447-0.505-0.818-0.715c-0.37-0.21-0.839-0.378-1.405-0.504
			c-0.566-0.127-1.235-0.189-2.004-0.189c-0.756,0-1.413,0.063-1.973,0.189c-0.56,0.126-1.024,0.294-1.396,0.504
			c-0.37,0.21-0.644,0.448-0.818,0.715c-0.175,0.266-0.262,0.546-0.262,0.84c0,0.28,0.087,0.554,0.262,0.82
			c0.175,0.266,0.448,0.5,0.818,0.703c0.371,0.203,0.836,0.364,1.396,0.483s1.217,0.179,1.973,0.179c0.769,0,1.438-0.06,2.004-0.179
			s1.035-0.28,1.405-0.483c0.371-0.203,0.644-0.438,0.818-0.703C526.7,508.978,526.788,508.704,526.788,508.424z M522.823,498.484
			v-1.618h3.882v-4.098h1.805v11.516h-1.805v-5.8H522.823z"/>
	</g>
</g>
<g>
	<path fill="#019EBF" d="M279.298,323.417l-10.159-12.44v12.44h-5.601v-27.92h5.601v12.521l10.159-12.521h6.761l-11.521,13.84
		l11.84,14.08H279.298z"/>
	<path fill="#019EBF" d="M290.558,302.037c1.24-2.173,2.934-3.866,5.08-5.08c2.146-1.213,4.554-1.82,7.22-1.82
		c3.12,0,5.854,0.8,8.2,2.4s3.986,3.813,4.92,6.64h-6.439c-0.641-1.333-1.54-2.333-2.7-3c-1.16-0.666-2.5-1-4.021-1
		c-1.626,0-3.073,0.38-4.34,1.14c-1.267,0.76-2.254,1.834-2.96,3.22c-0.707,1.387-1.06,3.014-1.06,4.88c0,1.84,0.353,3.46,1.06,4.86
		c0.706,1.399,1.693,2.479,2.96,3.24c1.267,0.76,2.714,1.14,4.34,1.14c1.521,0,2.86-0.341,4.021-1.021s2.06-1.686,2.7-3.02h6.439
		c-0.934,2.854-2.566,5.074-4.899,6.66c-2.334,1.586-5.074,2.38-8.221,2.38c-2.666,0-5.073-0.606-7.22-1.82
		c-2.146-1.213-3.84-2.899-5.08-5.06s-1.859-4.613-1.859-7.36C288.698,306.671,289.318,304.211,290.558,302.037z"/>
	<path fill="#019EBF" d="M325.157,322.697c-1.56-0.666-2.793-1.627-3.699-2.881c-0.907-1.252-1.374-2.732-1.4-4.439h6
		c0.08,1.146,0.486,2.054,1.22,2.721c0.733,0.666,1.74,1,3.021,1c1.306,0,2.333-0.314,3.08-0.94c0.746-0.626,1.12-1.446,1.12-2.46
		c0-0.826-0.254-1.506-0.761-2.04c-0.507-0.533-1.14-0.953-1.899-1.261c-0.761-0.306-1.808-0.646-3.141-1.02
		c-1.813-0.533-3.286-1.061-4.42-1.58s-2.106-1.307-2.92-2.359c-0.813-1.054-1.22-2.461-1.22-4.221c0-1.653,0.413-3.093,1.24-4.32
		c0.826-1.226,1.986-2.166,3.479-2.82c1.493-0.653,3.2-0.98,5.12-0.98c2.88,0,5.22,0.7,7.021,2.1c1.8,1.4,2.793,3.354,2.979,5.86
		h-6.16c-0.054-0.96-0.46-1.753-1.22-2.38c-0.76-0.626-1.767-0.94-3.021-0.94c-1.094,0-1.967,0.28-2.619,0.84
		c-0.654,0.56-0.98,1.374-0.98,2.44c0,0.747,0.246,1.367,0.74,1.86c0.493,0.494,1.106,0.894,1.84,1.2s1.767,0.659,3.1,1.06
		c1.813,0.534,3.294,1.067,4.44,1.6c1.146,0.534,2.133,1.334,2.96,2.4c0.826,1.067,1.24,2.467,1.24,4.2
		c0,1.493-0.387,2.88-1.16,4.16s-1.907,2.3-3.4,3.06s-3.267,1.141-5.319,1.141C328.471,323.697,326.718,323.363,325.157,322.697z"/>
</g>
</svg>
