<?xml version="1.0" encoding="utf-8"?>
<!-- Generator: Adobe Illustrator 16.0.0, SVG Export Plug-In . SVG Version: 6.00 Build 0)  -->
<!DOCTYPE svg PUBLIC "-//W3C//DTD SVG 1.1//EN" "http://www.w3.org/Graphics/SVG/1.1/DTD/svg11.dtd">
<svg version="1.1" id="조직도_1_" xmlns="http://www.w3.org/2000/svg" xmlns:xlink="http://www.w3.org/1999/xlink" x="0px"
	 y="0px" width="790.5px" height="400px" viewBox="0 0 790.5 400" enable-background="new 0 0 790.5 400" xml:space="preserve">
<g id="Ellipse_4_5_">
	<g>
		<path fill="#FFFFFF" stroke="#48B5A9" stroke-width="2" stroke-miterlimit="10" d="M396.164,359.5h246.002c12.148,0,22-9.85,22-22
			c0-12.148-9.852-22-22-22H538.946c-2.885-8.15-10.639-14-19.779-14c-9.139,0-16.893,5.85-19.775,14H396.164
			c-12.146,0-22,9.852-22,22C374.164,349.65,384.018,359.5,396.164,359.5z"/>
	</g>
</g>
<g id="Shape_4_1_">
	<g>
		<rect x="472.835" y="130.725" fill="#D0D5D6" width="80.165" height="2"/>
	</g>
</g>
<g id="Shape_4_2_">
	<g>
		<rect x="345.331" y="204.167" fill="#D0D5D6" width="188.229" height="2"/>
	</g>
</g>
<g id="Shape_4">
	<g>
		<rect x="345.331" y="63.999" fill="#D0D5D6" width="2" height="194"/>
	</g>
</g>
<g id="Ellipse_4">
	<g>
		<path fill="#019EBF" d="M465.311,9.168H225.215c-13.834,0-25.049,11.215-25.049,25.049s11.215,25.049,25.049,25.049h97.528
			c3.286,9.281,12.114,15.941,22.519,15.941c10.407,0,19.237-6.66,22.52-15.941h97.529c13.833,0,25.05-11.215,25.05-25.049
			S479.147,9.168,465.311,9.168z"/>
	</g>
</g>
<g id="Ellipse_4_2_">
	<g>
		<path fill="#48B5A9" d="M466.449,105.065H226.354c-13.834,0-25.049,11.216-25.049,25.049c0,13.833,11.215,25.049,25.049,25.049
			h97.528c3.286,9.281,12.115,15.94,22.519,15.94c10.407,0,19.237-6.66,22.52-15.94h97.529c13.833,0,25.049-11.217,25.049-25.049
			C491.498,116.282,480.285,105.065,466.449,105.065z"/>
	</g>
</g>
<polyline fill="none" stroke="#D0D5D6" stroke-width="2" stroke-miterlimit="10" points="171.333,294 171.333,257.999 
	519.331,257.999 519.331,294 "/>
<g id="Ellipse_4_1_">
	<g>
		<path fill="#FFFFFF" stroke="#48B5A9" stroke-width="2" stroke-miterlimit="10" d="M47.833,359.5h246
			c12.148,0,21.998-9.85,21.998-22c0-12.148-9.85-22-21.998-22H190.613c-2.886-8.15-10.64-14-19.777-14
			c-9.141,0-16.896,5.85-19.778,14H47.833c-12.149,0-22,9.852-22,22C25.833,349.65,35.684,359.5,47.833,359.5z"/>
	</g>
</g>
<g>
	<path fill="#FFFFFF" d="M282.899,27.999l-4.304-4.976v4.976h-1.824v-11.12h1.824v5.072l4.32-5.072h2.288l-4.832,5.568l4.912,5.552
		H282.899z"/>
	<path fill="#FFFFFF" d="M288.467,27.575c-0.672-0.379-1.2-0.912-1.584-1.6c-0.384-0.688-0.576-1.485-0.576-2.392
		c0-0.896,0.197-1.69,0.592-2.384c0.395-0.693,0.933-1.227,1.616-1.6s1.445-0.56,2.288-0.56c0.842,0,1.605,0.187,2.288,0.56
		s1.221,0.907,1.616,1.6s0.592,1.488,0.592,2.384s-0.203,1.691-0.608,2.384c-0.406,0.694-0.958,1.229-1.656,1.608
		c-0.699,0.378-1.469,0.568-2.312,0.568C289.89,28.143,289.138,27.954,288.467,27.575z M292.043,26.223
		c0.41-0.224,0.744-0.56,1-1.008c0.256-0.448,0.384-0.992,0.384-1.632s-0.123-1.181-0.368-1.624c-0.246-0.442-0.571-0.776-0.976-1
		s-0.843-0.336-1.312-0.336s-0.904,0.112-1.304,0.336s-0.718,0.558-0.952,1c-0.235,0.443-0.352,0.984-0.352,1.624
		c0,0.95,0.243,1.683,0.728,2.2c0.485,0.517,1.096,0.776,1.832,0.776C291.192,26.559,291.632,26.447,292.043,26.223z"/>
	<path fill="#FFFFFF" d="M299.994,19.415c0.442-0.25,0.968-0.376,1.576-0.376v1.888h-0.464c-0.715,0-1.256,0.181-1.624,0.544
		c-0.368,0.363-0.552,0.992-0.552,1.888v4.64h-1.824v-8.816h1.824v1.28C299.197,20.015,299.552,19.666,299.994,19.415z"/>
	<path fill="#FFFFFF" d="M311.266,24.271h-6.736c0.053,0.704,0.314,1.27,0.784,1.696c0.469,0.427,1.045,0.64,1.728,0.64
		c0.981,0,1.674-0.411,2.08-1.232h1.968c-0.267,0.811-0.75,1.475-1.448,1.992s-1.565,0.776-2.6,0.776
		c-0.843,0-1.598-0.189-2.264-0.568c-0.667-0.379-1.189-0.912-1.568-1.6c-0.379-0.688-0.568-1.485-0.568-2.392
		c0-0.906,0.184-1.704,0.552-2.392s0.885-1.218,1.552-1.592s1.432-0.56,2.296-0.56c0.832,0,1.573,0.182,2.224,0.544
		c0.651,0.363,1.157,0.872,1.52,1.528c0.363,0.656,0.544,1.411,0.544,2.264C311.33,23.706,311.308,24.004,311.266,24.271z
		 M309.426,22.799c-0.011-0.672-0.25-1.21-0.72-1.616c-0.469-0.405-1.05-0.608-1.744-0.608c-0.629,0-1.168,0.2-1.616,0.6
		c-0.448,0.4-0.715,0.942-0.8,1.624H309.426z"/>
	<path fill="#FFFFFF" d="M313.066,21.199c0.368-0.683,0.869-1.213,1.504-1.592c0.635-0.378,1.336-0.568,2.104-0.568
		c0.693,0,1.298,0.136,1.816,0.408c0.518,0.272,0.931,0.61,1.24,1.016v-1.28h1.84v8.816h-1.84v-1.312
		c-0.31,0.416-0.731,0.763-1.264,1.04s-1.142,0.416-1.824,0.416c-0.758,0-1.451-0.194-2.08-0.584
		c-0.629-0.389-1.128-0.933-1.496-1.632s-0.552-1.491-0.552-2.376C312.514,22.666,312.698,21.882,313.066,21.199z M319.354,21.999
		c-0.251-0.448-0.579-0.789-0.984-1.024c-0.406-0.234-0.843-0.352-1.312-0.352c-0.47,0-0.907,0.115-1.312,0.344
		c-0.406,0.229-0.734,0.566-0.984,1.008c-0.25,0.443-0.376,0.968-0.376,1.576c0,0.608,0.125,1.142,0.376,1.6
		c0.25,0.459,0.582,0.808,0.992,1.048c0.411,0.24,0.845,0.36,1.304,0.36c0.469,0,0.906-0.117,1.312-0.352
		c0.405-0.234,0.733-0.579,0.984-1.032c0.25-0.453,0.376-0.984,0.376-1.592S319.605,22.447,319.354,21.999z"/>
	<path fill="#FFFFFF" d="M328.282,19.487c0.506-0.864,1.194-1.538,2.064-2.024c0.869-0.485,1.821-0.728,2.856-0.728
		c1.184,0,2.237,0.291,3.16,0.872c0.922,0.582,1.592,1.406,2.008,2.472h-2.192c-0.288-0.586-0.688-1.024-1.2-1.312
		c-0.512-0.288-1.104-0.432-1.776-0.432c-0.736,0-1.392,0.166-1.968,0.496c-0.576,0.331-1.027,0.806-1.352,1.424
		c-0.326,0.619-0.488,1.339-0.488,2.16s0.163,1.542,0.488,2.16c0.325,0.619,0.776,1.096,1.352,1.432
		c0.576,0.336,1.232,0.504,1.968,0.504c0.672,0,1.264-0.144,1.776-0.432c0.512-0.288,0.912-0.725,1.2-1.312h2.192
		c-0.416,1.067-1.085,1.888-2.008,2.464c-0.923,0.576-1.976,0.864-3.16,0.864c-1.045,0-2-0.243-2.864-0.728
		c-0.864-0.485-1.55-1.16-2.056-2.024c-0.507-0.864-0.76-1.84-0.76-2.928S327.775,20.351,328.282,19.487z"/>
	<path fill="#FFFFFF" d="M346.858,19.471c0.528,0.288,0.944,0.714,1.248,1.28c0.304,0.565,0.456,1.248,0.456,2.048v5.2h-1.808
		v-4.928c0-0.789-0.198-1.394-0.592-1.816c-0.395-0.421-0.933-0.632-1.616-0.632s-1.224,0.211-1.624,0.632
		c-0.4,0.422-0.6,1.027-0.6,1.816v4.928h-1.824v-11.84h1.824v4.048c0.309-0.373,0.701-0.661,1.176-0.864
		c0.474-0.203,0.994-0.304,1.56-0.304C345.73,19.039,346.33,19.183,346.858,19.471z"/>
	<path fill="#FFFFFF" d="M350.825,21.199c0.368-0.683,0.869-1.213,1.504-1.592c0.635-0.378,1.336-0.568,2.104-0.568
		c0.693,0,1.298,0.136,1.816,0.408c0.518,0.272,0.931,0.61,1.24,1.016v-1.28h1.84v8.816h-1.84v-1.312
		c-0.31,0.416-0.731,0.763-1.264,1.04s-1.142,0.416-1.824,0.416c-0.758,0-1.451-0.194-2.08-0.584
		c-0.629-0.389-1.128-0.933-1.496-1.632s-0.552-1.491-0.552-2.376C350.273,22.666,350.457,21.882,350.825,21.199z M357.114,21.999
		c-0.251-0.448-0.579-0.789-0.984-1.024c-0.406-0.234-0.843-0.352-1.312-0.352c-0.47,0-0.907,0.115-1.312,0.344
		c-0.406,0.229-0.734,0.566-0.984,1.008c-0.25,0.443-0.376,0.968-0.376,1.576c0,0.608,0.125,1.142,0.376,1.6
		c0.25,0.459,0.582,0.808,0.992,1.048c0.411,0.24,0.845,0.36,1.304,0.36c0.469,0,0.906-0.117,1.312-0.352
		c0.405-0.234,0.733-0.579,0.984-1.032c0.25-0.453,0.376-0.984,0.376-1.592S357.364,22.447,357.114,21.999z"/>
	<path fill="#FFFFFF" d="M374.265,19.471c0.549,0.288,0.981,0.714,1.296,1.28c0.314,0.565,0.472,1.248,0.472,2.048v5.2h-1.808
		v-4.928c0-0.789-0.197-1.394-0.592-1.816c-0.395-0.421-0.934-0.632-1.616-0.632s-1.224,0.211-1.624,0.632
		c-0.4,0.422-0.6,1.027-0.6,1.816v4.928h-1.808v-4.928c0-0.789-0.198-1.394-0.592-1.816c-0.395-0.421-0.933-0.632-1.616-0.632
		s-1.224,0.211-1.624,0.632c-0.4,0.422-0.6,1.027-0.6,1.816v4.928h-1.824v-8.816h1.824v1.008c0.298-0.362,0.677-0.645,1.136-0.848
		c0.458-0.203,0.949-0.304,1.472-0.304c0.704,0,1.333,0.149,1.888,0.448c0.555,0.299,0.981,0.731,1.28,1.296
		c0.267-0.533,0.683-0.958,1.248-1.272c0.565-0.315,1.173-0.472,1.824-0.472C373.095,19.039,373.716,19.183,374.265,19.471z"/>
	<path fill="#FFFFFF" d="M381.449,19.447c0.539-0.272,1.139-0.408,1.8-0.408c0.778,0,1.482,0.187,2.112,0.56
		s1.125,0.904,1.488,1.592s0.544,1.475,0.544,2.36c0,0.886-0.182,1.678-0.544,2.376s-0.861,1.243-1.496,1.632
		c-0.635,0.39-1.336,0.584-2.104,0.584c-0.683,0-1.288-0.133-1.816-0.4c-0.528-0.267-0.947-0.608-1.256-1.024v1.28h-1.824v-11.84
		h1.824v4.336C380.486,20.068,380.91,19.719,381.449,19.447z M385.161,21.975c-0.25-0.442-0.582-0.779-0.992-1.008
		c-0.411-0.229-0.851-0.344-1.32-0.344c-0.458,0-0.893,0.118-1.304,0.352c-0.411,0.235-0.742,0.576-0.992,1.024
		s-0.376,0.976-0.376,1.584s0.125,1.139,0.376,1.592c0.25,0.454,0.582,0.798,0.992,1.032c0.411,0.235,0.845,0.352,1.304,0.352
		c0.469,0,0.91-0.12,1.32-0.36c0.41-0.24,0.741-0.589,0.992-1.048c0.25-0.458,0.376-0.992,0.376-1.6
		C385.537,22.943,385.411,22.418,385.161,21.975z"/>
	<path fill="#FFFFFF" d="M397.217,24.271h-6.736c0.053,0.704,0.314,1.27,0.784,1.696c0.469,0.427,1.045,0.64,1.728,0.64
		c0.981,0,1.674-0.411,2.08-1.232h1.968c-0.267,0.811-0.75,1.475-1.448,1.992c-0.699,0.518-1.565,0.776-2.6,0.776
		c-0.843,0-1.598-0.189-2.264-0.568c-0.667-0.379-1.189-0.912-1.568-1.6c-0.379-0.688-0.568-1.485-0.568-2.392
		c0-0.906,0.184-1.704,0.552-2.392s0.885-1.218,1.552-1.592s1.432-0.56,2.296-0.56c0.832,0,1.573,0.182,2.224,0.544
		c0.65,0.363,1.157,0.872,1.52,1.528c0.363,0.656,0.545,1.411,0.545,2.264C397.281,23.706,397.26,24.004,397.217,24.271z
		 M395.377,22.799c-0.011-0.672-0.25-1.21-0.72-1.616c-0.469-0.405-1.05-0.608-1.744-0.608c-0.629,0-1.168,0.2-1.616,0.6
		c-0.448,0.4-0.715,0.942-0.8,1.624H395.377z"/>
	<path fill="#FFFFFF" d="M401.961,19.415c0.441-0.25,0.968-0.376,1.576-0.376v1.888h-0.465c-0.715,0-1.256,0.181-1.623,0.544
		c-0.369,0.363-0.553,0.992-0.553,1.888v4.64h-1.824v-8.816h1.824v1.28C401.163,20.015,401.518,19.666,401.961,19.415z"/>
	<path fill="#FFFFFF" d="M410.945,27.575c-0.672-0.379-1.2-0.912-1.584-1.6s-0.576-1.485-0.576-2.392
		c0-0.896,0.197-1.69,0.593-2.384c0.395-0.693,0.933-1.227,1.615-1.6s1.445-0.56,2.288-0.56s1.605,0.187,2.288,0.56
		s1.221,0.907,1.615,1.6s0.593,1.488,0.593,2.384s-0.202,1.691-0.608,2.384c-0.405,0.694-0.957,1.229-1.656,1.608
		c-0.698,0.378-1.469,0.568-2.312,0.568C412.368,28.143,411.616,27.954,410.945,27.575z M414.521,26.223
		c0.41-0.224,0.743-0.56,1-1.008c0.256-0.448,0.384-0.992,0.384-1.632s-0.123-1.181-0.368-1.624c-0.245-0.442-0.571-0.776-0.976-1
		c-0.406-0.224-0.844-0.336-1.313-0.336s-0.904,0.112-1.304,0.336s-0.718,0.558-0.952,1c-0.234,0.443-0.352,0.984-0.352,1.624
		c0,0.95,0.242,1.683,0.728,2.2c0.485,0.517,1.097,0.776,1.832,0.776C413.67,26.559,414.11,26.447,414.521,26.223z"/>
	<path fill="#FFFFFF" d="M423.28,20.671h-1.631v7.328h-1.841v-7.328h-1.04v-1.488h1.04v-0.624c0-1.013,0.27-1.752,0.808-2.216
		c0.539-0.464,1.385-0.696,2.537-0.696v1.52c-0.555,0-0.944,0.104-1.168,0.312c-0.225,0.208-0.336,0.568-0.336,1.08v0.624h1.631
		V20.671z"/>
	<path fill="#FFFFFF" d="M252.235,37.487c0.506-0.864,1.194-1.538,2.064-2.024c0.869-0.485,1.821-0.728,2.856-0.728
		c1.184,0,2.237,0.291,3.16,0.872c0.922,0.582,1.592,1.406,2.008,2.472h-2.192c-0.288-0.586-0.688-1.024-1.2-1.312
		c-0.512-0.288-1.104-0.432-1.776-0.432c-0.736,0-1.392,0.166-1.968,0.496c-0.576,0.331-1.027,0.806-1.352,1.424
		c-0.326,0.619-0.488,1.339-0.488,2.16s0.163,1.542,0.488,2.16c0.325,0.619,0.776,1.096,1.352,1.432
		c0.576,0.336,1.232,0.504,1.968,0.504c0.672,0,1.264-0.144,1.776-0.432c0.512-0.288,0.912-0.725,1.2-1.312h2.192
		c-0.416,1.067-1.085,1.888-2.008,2.464c-0.923,0.576-1.976,0.864-3.16,0.864c-1.045,0-2-0.243-2.864-0.728
		c-0.864-0.485-1.55-1.16-2.056-2.024c-0.507-0.864-0.76-1.84-0.76-2.928S251.728,38.351,252.235,37.487z"/>
	<path fill="#FFFFFF" d="M266.018,45.575c-0.672-0.379-1.2-0.912-1.584-1.6c-0.384-0.688-0.576-1.485-0.576-2.392
		c0-0.896,0.197-1.69,0.592-2.384c0.395-0.693,0.933-1.227,1.616-1.6s1.445-0.56,2.288-0.56c0.842,0,1.605,0.187,2.288,0.56
		s1.221,0.907,1.616,1.6s0.592,1.488,0.592,2.384s-0.203,1.691-0.608,2.384c-0.406,0.694-0.958,1.229-1.656,1.608
		c-0.699,0.378-1.469,0.568-2.312,0.568C267.442,46.143,266.69,45.954,266.018,45.575z M269.594,44.223
		c0.41-0.224,0.744-0.56,1-1.008c0.256-0.448,0.384-0.992,0.384-1.632s-0.123-1.181-0.368-1.624c-0.246-0.442-0.571-0.776-0.976-1
		s-0.843-0.336-1.312-0.336s-0.904,0.112-1.304,0.336s-0.718,0.558-0.952,1c-0.235,0.443-0.352,0.984-0.352,1.624
		c0,0.95,0.243,1.683,0.728,2.2c0.485,0.517,1.096,0.776,1.832,0.776C268.743,44.559,269.183,44.447,269.594,44.223z"/>
	<path fill="#FFFFFF" d="M287.194,37.471c0.549,0.288,0.981,0.714,1.296,1.28c0.314,0.565,0.472,1.248,0.472,2.048v5.2h-1.808
		v-4.928c0-0.789-0.197-1.394-0.592-1.816c-0.395-0.421-0.934-0.632-1.616-0.632s-1.224,0.211-1.624,0.632
		c-0.4,0.422-0.6,1.027-0.6,1.816v4.928h-1.808v-4.928c0-0.789-0.198-1.394-0.592-1.816c-0.395-0.421-0.933-0.632-1.616-0.632
		s-1.224,0.211-1.624,0.632c-0.4,0.422-0.6,1.027-0.6,1.816v4.928h-1.824v-8.816h1.824v1.008c0.298-0.362,0.677-0.645,1.136-0.848
		c0.458-0.203,0.949-0.304,1.472-0.304c0.704,0,1.333,0.149,1.888,0.448c0.555,0.299,0.981,0.731,1.28,1.296
		c0.267-0.533,0.683-0.958,1.248-1.272c0.565-0.315,1.173-0.472,1.824-0.472C286.024,37.039,286.645,37.183,287.194,37.471z"/>
	<path fill="#FFFFFF" d="M303.818,37.471c0.549,0.288,0.981,0.714,1.296,1.28c0.314,0.565,0.472,1.248,0.472,2.048v5.2h-1.808
		v-4.928c0-0.789-0.197-1.394-0.592-1.816c-0.395-0.421-0.934-0.632-1.616-0.632s-1.224,0.211-1.624,0.632
		c-0.4,0.422-0.6,1.027-0.6,1.816v4.928h-1.808v-4.928c0-0.789-0.198-1.394-0.592-1.816c-0.395-0.421-0.933-0.632-1.616-0.632
		s-1.224,0.211-1.624,0.632c-0.4,0.422-0.6,1.027-0.6,1.816v4.928h-1.824v-8.816h1.824v1.008c0.298-0.362,0.677-0.645,1.136-0.848
		c0.458-0.203,0.949-0.304,1.472-0.304c0.704,0,1.333,0.149,1.888,0.448c0.555,0.299,0.981,0.731,1.28,1.296
		c0.267-0.533,0.683-0.958,1.248-1.272c0.565-0.315,1.173-0.472,1.824-0.472C302.648,37.039,303.269,37.183,303.818,37.471z"/>
	<path fill="#FFFFFF" d="M315.922,42.271h-6.736c0.053,0.704,0.314,1.27,0.784,1.696c0.469,0.427,1.045,0.64,1.728,0.64
		c0.981,0,1.674-0.411,2.08-1.232h1.968c-0.267,0.811-0.75,1.475-1.448,1.992s-1.565,0.776-2.6,0.776
		c-0.843,0-1.598-0.189-2.264-0.568c-0.667-0.379-1.189-0.912-1.568-1.6c-0.379-0.688-0.568-1.485-0.568-2.392
		c0-0.906,0.184-1.704,0.552-2.392s0.885-1.218,1.552-1.592s1.432-0.56,2.296-0.56c0.832,0,1.573,0.182,2.224,0.544
		c0.651,0.363,1.157,0.872,1.52,1.528c0.363,0.656,0.544,1.411,0.544,2.264C315.986,41.706,315.964,42.004,315.922,42.271z
		 M314.082,40.799c-0.011-0.672-0.25-1.21-0.72-1.616c-0.469-0.405-1.05-0.608-1.744-0.608c-0.629,0-1.168,0.2-1.616,0.6
		c-0.448,0.4-0.715,0.942-0.8,1.624H314.082z"/>
	<path fill="#FFFFFF" d="M320.665,37.415c0.442-0.25,0.968-0.376,1.576-0.376v1.888h-0.464c-0.715,0-1.256,0.181-1.624,0.544
		c-0.368,0.363-0.552,0.992-0.552,1.888v4.64h-1.824v-8.816h1.824v1.28C319.868,38.015,320.222,37.666,320.665,37.415z"/>
	<path fill="#FFFFFF" d="M323.865,39.191c0.368-0.688,0.877-1.218,1.528-1.592s1.397-0.56,2.24-0.56c1.066,0,1.949,0.253,2.648,0.76
		c0.698,0.507,1.17,1.229,1.416,2.168h-1.968c-0.16-0.437-0.416-0.778-0.768-1.024c-0.352-0.245-0.795-0.368-1.328-0.368
		c-0.747,0-1.342,0.264-1.784,0.792c-0.443,0.528-0.664,1.267-0.664,2.216c0,0.95,0.221,1.691,0.664,2.224
		c0.442,0.533,1.037,0.8,1.784,0.8c1.056,0,1.754-0.464,2.096-1.392h1.968c-0.256,0.896-0.736,1.608-1.44,2.136
		s-1.579,0.792-2.624,0.792c-0.843,0-1.59-0.189-2.24-0.568c-0.65-0.379-1.16-0.912-1.528-1.6s-0.552-1.485-0.552-2.392
		C323.313,40.677,323.497,39.879,323.865,39.191z"/>
	<path fill="#FFFFFF" d="M341.537,42.271h-6.736c0.053,0.704,0.314,1.27,0.784,1.696c0.469,0.427,1.045,0.64,1.728,0.64
		c0.981,0,1.674-0.411,2.08-1.232h1.968c-0.267,0.811-0.75,1.475-1.448,1.992s-1.565,0.776-2.6,0.776
		c-0.843,0-1.598-0.189-2.264-0.568c-0.667-0.379-1.189-0.912-1.568-1.6c-0.379-0.688-0.568-1.485-0.568-2.392
		c0-0.906,0.184-1.704,0.552-2.392s0.885-1.218,1.552-1.592s1.432-0.56,2.296-0.56c0.832,0,1.573,0.182,2.224,0.544
		c0.651,0.363,1.157,0.872,1.52,1.528c0.363,0.656,0.544,1.411,0.544,2.264C341.601,41.706,341.58,42.004,341.537,42.271z
		 M339.698,40.799c-0.011-0.672-0.25-1.21-0.72-1.616c-0.469-0.405-1.05-0.608-1.744-0.608c-0.629,0-1.168,0.2-1.616,0.6
		c-0.448,0.4-0.715,0.942-0.8,1.624H339.698z"/>
	<path fill="#FFFFFF" d="M347.497,39.199c0.368-0.683,0.869-1.213,1.504-1.592c0.635-0.378,1.336-0.568,2.104-0.568
		c0.693,0,1.298,0.136,1.816,0.408c0.518,0.272,0.931,0.61,1.24,1.016v-1.28h1.84v8.816h-1.84v-1.312
		c-0.31,0.416-0.731,0.763-1.264,1.04s-1.142,0.416-1.824,0.416c-0.758,0-1.451-0.194-2.08-0.584
		c-0.629-0.389-1.128-0.933-1.496-1.632s-0.552-1.491-0.552-2.376C346.945,40.666,347.129,39.882,347.497,39.199z M353.785,39.999
		c-0.251-0.448-0.579-0.789-0.984-1.024c-0.406-0.234-0.843-0.352-1.312-0.352c-0.47,0-0.907,0.115-1.312,0.344
		c-0.406,0.229-0.734,0.566-0.984,1.008c-0.25,0.443-0.376,0.968-0.376,1.576c0,0.608,0.125,1.142,0.376,1.6
		c0.25,0.459,0.582,0.808,0.992,1.048c0.411,0.24,0.845,0.36,1.304,0.36c0.469,0,0.906-0.117,1.312-0.352
		c0.405-0.234,0.733-0.579,0.984-1.032c0.25-0.453,0.376-0.984,0.376-1.592S354.035,40.447,353.785,39.999z"/>
	<path fill="#FFFFFF" d="M364.713,37.471c0.549,0.288,0.979,0.714,1.288,1.28c0.31,0.565,0.464,1.248,0.464,2.048v5.2h-1.808v-4.928
		c0-0.789-0.198-1.394-0.592-1.816c-0.395-0.421-0.933-0.632-1.616-0.632s-1.224,0.211-1.624,0.632c-0.4,0.422-0.6,1.027-0.6,1.816
		v4.928h-1.824v-8.816h1.824v1.008c0.298-0.362,0.68-0.645,1.144-0.848s0.958-0.304,1.48-0.304
		C363.542,37.039,364.163,37.183,364.713,37.471z"/>
	<path fill="#FFFFFF" d="M368.729,39.199c0.368-0.683,0.869-1.213,1.504-1.592c0.635-0.378,1.341-0.568,2.12-0.568
		c0.576,0,1.144,0.125,1.704,0.376c0.56,0.251,1.005,0.584,1.336,1v-4.256h1.84v11.84h-1.84v-1.328
		c-0.299,0.427-0.712,0.779-1.24,1.056c-0.528,0.277-1.133,0.416-1.816,0.416c-0.768,0-1.469-0.194-2.104-0.584
		c-0.635-0.389-1.136-0.933-1.504-1.632s-0.552-1.491-0.552-2.376C368.177,40.666,368.361,39.882,368.729,39.199z M375.017,39.999
		c-0.251-0.448-0.579-0.789-0.984-1.024c-0.406-0.234-0.843-0.352-1.312-0.352c-0.47,0-0.907,0.115-1.312,0.344
		c-0.406,0.229-0.734,0.566-0.984,1.008c-0.25,0.443-0.376,0.968-0.376,1.576c0,0.608,0.125,1.142,0.376,1.6
		c0.25,0.459,0.582,0.808,0.992,1.048c0.411,0.24,0.845,0.36,1.304,0.36c0.469,0,0.906-0.117,1.312-0.352
		c0.405-0.234,0.733-0.579,0.984-1.032c0.25-0.453,0.376-0.984,0.376-1.592S375.267,40.447,375.017,39.999z"/>
	<path fill="#FFFFFF" d="M385.616,34.879v11.12h-1.824v-11.12H385.616z"/>
	<path fill="#FFFFFF" d="M394.329,37.471c0.549,0.288,0.979,0.714,1.288,1.28c0.31,0.565,0.464,1.248,0.464,2.048v5.2h-1.808v-4.928
		c0-0.789-0.198-1.394-0.592-1.816c-0.395-0.421-0.933-0.632-1.616-0.632s-1.224,0.211-1.624,0.632c-0.4,0.422-0.6,1.027-0.6,1.816
		v4.928h-1.824v-8.816h1.824v1.008c0.298-0.362,0.68-0.645,1.144-0.848s0.958-0.304,1.48-0.304
		C393.158,37.039,393.779,37.183,394.329,37.471z"/>
	<path fill="#FFFFFF" d="M398.344,39.199c0.369-0.683,0.869-1.213,1.504-1.592c0.635-0.378,1.342-0.568,2.121-0.568
		c0.576,0,1.144,0.125,1.703,0.376c0.561,0.251,1.006,0.584,1.336,1v-4.256h1.84v11.84h-1.84v-1.328
		c-0.299,0.427-0.711,0.779-1.24,1.056c-0.527,0.277-1.133,0.416-1.815,0.416c-0.769,0-1.47-0.194-2.104-0.584
		c-0.635-0.389-1.135-0.933-1.504-1.632c-0.367-0.699-0.552-1.491-0.552-2.376C397.792,40.666,397.977,39.882,398.344,39.199z
		 M404.633,39.999c-0.252-0.448-0.58-0.789-0.984-1.024c-0.406-0.234-0.843-0.352-1.313-0.352c-0.469,0-0.906,0.115-1.312,0.344
		c-0.405,0.229-0.733,0.566-0.984,1.008c-0.251,0.443-0.376,0.968-0.376,1.576c0,0.608,0.125,1.142,0.376,1.6
		c0.251,0.459,0.581,0.808,0.992,1.048c0.411,0.24,0.845,0.36,1.304,0.36c0.47,0,0.906-0.117,1.313-0.352
		c0.404-0.234,0.732-0.579,0.984-1.032c0.25-0.453,0.375-0.984,0.375-1.592S404.883,40.447,404.633,39.999z"/>
	<path fill="#FFFFFF" d="M417.233,37.183v8.816h-1.824v-1.04c-0.289,0.363-0.664,0.648-1.129,0.856
		c-0.463,0.208-0.957,0.312-1.479,0.312c-0.693,0-1.315-0.144-1.864-0.432c-0.549-0.288-0.98-0.714-1.296-1.28
		c-0.314-0.565-0.472-1.248-0.472-2.048v-5.184h1.809v4.912c0,0.79,0.197,1.395,0.592,1.816s0.933,0.632,1.615,0.632
		s1.225-0.21,1.624-0.632c0.4-0.421,0.601-1.026,0.601-1.816v-4.912H417.233z"/>
	<path fill="#FFFFFF" d="M420.968,45.767c-0.55-0.25-0.984-0.592-1.304-1.024c-0.32-0.432-0.491-0.915-0.512-1.448h1.887
		c0.033,0.374,0.211,0.686,0.537,0.936c0.324,0.251,0.732,0.376,1.224,0.376c0.512,0,0.909-0.099,1.192-0.296
		c0.281-0.197,0.424-0.451,0.424-0.76c0-0.33-0.158-0.576-0.473-0.736s-0.813-0.336-1.496-0.528
		c-0.661-0.181-1.199-0.357-1.615-0.528c-0.416-0.17-0.776-0.432-1.08-0.784c-0.305-0.352-0.457-0.816-0.457-1.392
		c0-0.469,0.139-0.898,0.416-1.288c0.277-0.389,0.676-0.696,1.193-0.92c0.517-0.224,1.111-0.336,1.783-0.336
		c1.002,0,1.811,0.253,2.424,0.76c0.613,0.507,0.941,1.198,0.984,2.072h-1.824c-0.031-0.395-0.191-0.709-0.48-0.944
		c-0.287-0.235-0.677-0.352-1.168-0.352c-0.479,0-0.848,0.091-1.104,0.272s-0.384,0.421-0.384,0.72c0,0.235,0.085,0.432,0.256,0.592
		c0.171,0.16,0.378,0.285,0.624,0.376c0.245,0.091,0.607,0.206,1.088,0.344c0.641,0.171,1.166,0.344,1.576,0.52
		c0.41,0.176,0.766,0.435,1.064,0.776c0.298,0.342,0.453,0.795,0.463,1.36c0,0.501-0.139,0.949-0.416,1.344
		c-0.277,0.395-0.669,0.704-1.176,0.928c-0.506,0.224-1.102,0.336-1.783,0.336C422.139,46.143,421.518,46.018,420.968,45.767z"/>
	<path fill="#FFFFFF" d="M430.304,38.671v4.88c0,0.331,0.077,0.568,0.231,0.712s0.419,0.216,0.793,0.216h1.119v1.52h-1.439
		c-0.822,0-1.451-0.192-1.889-0.576c-0.438-0.384-0.656-1.008-0.656-1.872v-4.88h-1.039v-1.488h1.039v-2.192h1.841v2.192h2.144
		v1.488H430.304z"/>
	<path fill="#FFFFFF" d="M437.016,37.415c0.442-0.25,0.969-0.376,1.576-0.376v1.888h-0.464c-0.715,0-1.257,0.181-1.624,0.544
		c-0.368,0.363-0.553,0.992-0.553,1.888v4.64h-1.823v-8.816h1.823v1.28C436.219,38.015,436.573,37.666,437.016,37.415z"/>
	<path fill="#FFFFFF" d="M448.207,37.183l-5.408,12.96h-1.888l1.792-4.288l-3.472-8.672h2.032l2.479,6.72l2.576-6.72H448.207z"/>
</g>
<g>
	<path fill="#FFFFFF" d="M277.715,117.163c0.506-0.864,1.194-1.538,2.064-2.024c0.869-0.485,1.821-0.728,2.856-0.728
		c1.184,0,2.237,0.291,3.16,0.872c0.922,0.582,1.592,1.406,2.008,2.472h-2.192c-0.288-0.586-0.688-1.024-1.2-1.312
		c-0.512-0.288-1.104-0.432-1.776-0.432c-0.736,0-1.392,0.166-1.968,0.496c-0.576,0.331-1.027,0.806-1.352,1.424
		c-0.326,0.619-0.488,1.339-0.488,2.16s0.163,1.542,0.488,2.16c0.325,0.619,0.776,1.096,1.352,1.432
		c0.576,0.336,1.232,0.504,1.968,0.504c0.672,0,1.264-0.144,1.776-0.432c0.512-0.288,0.912-0.725,1.2-1.312h2.192
		c-0.416,1.067-1.085,1.888-2.008,2.464c-0.923,0.576-1.976,0.864-3.16,0.864c-1.045,0-2-0.243-2.864-0.728
		c-0.864-0.485-1.55-1.16-2.056-2.024c-0.507-0.864-0.76-1.84-0.76-2.928S277.208,118.027,277.715,117.163z"/>
	<path fill="#FFFFFF" d="M289.875,118.875c0.368-0.683,0.869-1.213,1.504-1.592c0.635-0.378,1.336-0.568,2.104-0.568
		c0.693,0,1.298,0.136,1.816,0.408c0.518,0.272,0.931,0.61,1.24,1.016v-1.28h1.84v8.816h-1.84v-1.312
		c-0.31,0.416-0.731,0.763-1.264,1.04s-1.142,0.416-1.824,0.416c-0.758,0-1.451-0.194-2.08-0.584
		c-0.629-0.389-1.128-0.933-1.496-1.632s-0.552-1.491-0.552-2.376C289.323,120.342,289.507,119.558,289.875,118.875z
		 M296.163,119.675c-0.251-0.448-0.579-0.789-0.984-1.024c-0.406-0.234-0.843-0.352-1.312-0.352c-0.47,0-0.907,0.115-1.312,0.344
		c-0.406,0.229-0.734,0.566-0.984,1.008c-0.25,0.443-0.376,0.968-0.376,1.576c0,0.608,0.125,1.142,0.376,1.6
		c0.25,0.459,0.582,0.808,0.992,1.048c0.411,0.24,0.845,0.36,1.304,0.36c0.469,0,0.906-0.117,1.312-0.352
		c0.405-0.234,0.733-0.579,0.984-1.032c0.25-0.453,0.376-0.984,0.376-1.592S296.413,120.123,296.163,119.675z"/>
	<path fill="#FFFFFF" d="M303.666,117.091c0.442-0.25,0.968-0.376,1.576-0.376v1.888h-0.464c-0.715,0-1.256,0.181-1.624,0.544
		c-0.368,0.363-0.552,0.992-0.552,1.888v4.64h-1.824v-8.816h1.824v1.28C302.869,117.691,303.223,117.342,303.666,117.091z"/>
	<path fill="#FFFFFF" d="M310.018,117.123c0.539-0.272,1.139-0.408,1.8-0.408c0.778,0,1.482,0.187,2.112,0.56
		s1.125,0.904,1.488,1.592s0.544,1.475,0.544,2.36c0,0.886-0.182,1.678-0.544,2.376s-0.861,1.243-1.496,1.632
		c-0.635,0.39-1.336,0.584-2.104,0.584c-0.683,0-1.288-0.133-1.816-0.4c-0.528-0.267-0.947-0.608-1.256-1.024v1.28h-1.824v-11.84
		h1.824v4.336C309.055,117.744,309.479,117.395,310.018,117.123z M313.73,119.651c-0.25-0.442-0.582-0.779-0.992-1.008
		c-0.411-0.229-0.851-0.344-1.32-0.344c-0.458,0-0.893,0.118-1.304,0.352c-0.411,0.235-0.742,0.576-0.992,1.024
		s-0.376,0.976-0.376,1.584s0.125,1.139,0.376,1.592c0.25,0.454,0.582,0.798,0.992,1.032c0.411,0.235,0.845,0.352,1.304,0.352
		c0.469,0,0.91-0.12,1.32-0.36c0.41-0.24,0.741-0.589,0.992-1.048c0.25-0.458,0.376-0.992,0.376-1.6
		C314.106,120.619,313.98,120.094,313.73,119.651z"/>
	<path fill="#FFFFFF" d="M319.338,125.251c-0.672-0.379-1.2-0.912-1.584-1.6c-0.384-0.688-0.576-1.485-0.576-2.392
		c0-0.896,0.197-1.69,0.592-2.384c0.395-0.693,0.933-1.227,1.616-1.6s1.445-0.56,2.288-0.56c0.842,0,1.605,0.187,2.288,0.56
		s1.221,0.907,1.616,1.6s0.592,1.488,0.592,2.384s-0.203,1.691-0.608,2.384c-0.406,0.694-0.958,1.229-1.656,1.608
		c-0.699,0.378-1.469,0.568-2.312,0.568C320.762,125.819,320.01,125.629,319.338,125.251z M322.914,123.899
		c0.41-0.224,0.744-0.56,1-1.008c0.256-0.448,0.384-0.992,0.384-1.632s-0.123-1.181-0.368-1.624c-0.246-0.442-0.571-0.776-0.976-1
		s-0.843-0.336-1.312-0.336s-0.904,0.112-1.304,0.336s-0.718,0.558-0.952,1c-0.235,0.443-0.352,0.984-0.352,1.624
		c0,0.95,0.243,1.683,0.728,2.2c0.485,0.517,1.096,0.776,1.832,0.776C322.063,124.235,322.503,124.123,322.914,123.899z"/>
	<path fill="#FFFFFF" d="M334.29,117.147c0.549,0.288,0.979,0.714,1.288,1.28c0.31,0.565,0.464,1.248,0.464,2.048v5.2h-1.808v-4.928
		c0-0.789-0.198-1.394-0.592-1.816c-0.395-0.421-0.933-0.632-1.616-0.632s-1.224,0.211-1.624,0.632c-0.4,0.422-0.6,1.027-0.6,1.816
		v4.928h-1.824v-8.816h1.824v1.008c0.298-0.362,0.68-0.645,1.144-0.848s0.958-0.304,1.48-0.304
		C333.119,116.715,333.74,116.859,334.29,117.147z"/>
	<path fill="#FFFFFF" d="M348.298,125.675l-2.56-4.448h-1.392v4.448h-1.824v-11.12h3.84c0.853,0,1.576,0.149,2.168,0.448
		s1.035,0.699,1.328,1.2c0.293,0.501,0.44,1.062,0.44,1.68c0,0.726-0.211,1.384-0.632,1.976c-0.422,0.592-1.07,0.995-1.944,1.208
		l2.752,4.608H348.298z M344.345,119.771h2.016c0.683,0,1.197-0.171,1.544-0.512s0.52-0.8,0.52-1.376s-0.171-1.026-0.512-1.352
		c-0.341-0.325-0.858-0.488-1.552-0.488h-2.016V119.771z"/>
	<path fill="#FFFFFF" d="M360.649,121.947h-6.736c0.053,0.704,0.314,1.27,0.784,1.696c0.469,0.427,1.045,0.64,1.728,0.64
		c0.981,0,1.674-0.411,2.08-1.232h1.968c-0.267,0.811-0.75,1.475-1.448,1.992s-1.565,0.776-2.6,0.776
		c-0.843,0-1.598-0.189-2.264-0.568c-0.667-0.379-1.189-0.912-1.568-1.6c-0.379-0.688-0.568-1.485-0.568-2.392
		c0-0.906,0.184-1.704,0.552-2.392s0.885-1.218,1.552-1.592s1.432-0.56,2.296-0.56c0.832,0,1.573,0.182,2.224,0.544
		c0.651,0.363,1.157,0.872,1.52,1.528c0.363,0.656,0.544,1.411,0.544,2.264C360.713,121.381,360.692,121.68,360.649,121.947z
		 M358.809,120.475c-0.011-0.672-0.25-1.21-0.72-1.616c-0.469-0.405-1.05-0.608-1.744-0.608c-0.629,0-1.168,0.2-1.616,0.6
		c-0.448,0.4-0.715,0.942-0.8,1.624H358.809z"/>
	<path fill="#FFFFFF" d="M362.449,118.875c0.368-0.683,0.869-1.213,1.504-1.592c0.635-0.378,1.341-0.568,2.12-0.568
		c0.576,0,1.144,0.125,1.704,0.376c0.56,0.251,1.005,0.584,1.336,1v-4.256h1.84v11.84h-1.84v-1.328
		c-0.299,0.427-0.712,0.779-1.24,1.056c-0.528,0.277-1.133,0.416-1.816,0.416c-0.768,0-1.469-0.194-2.104-0.584
		c-0.635-0.389-1.136-0.933-1.504-1.632s-0.552-1.491-0.552-2.376C361.897,120.342,362.081,119.558,362.449,118.875z
		 M368.737,119.675c-0.251-0.448-0.579-0.789-0.984-1.024c-0.406-0.234-0.843-0.352-1.312-0.352c-0.47,0-0.907,0.115-1.312,0.344
		c-0.406,0.229-0.734,0.566-0.984,1.008c-0.25,0.443-0.376,0.968-0.376,1.576c0,0.608,0.125,1.142,0.376,1.6
		c0.25,0.459,0.582,0.808,0.992,1.048c0.411,0.24,0.845,0.36,1.304,0.36c0.469,0,0.906-0.117,1.312-0.352
		c0.405-0.234,0.733-0.579,0.984-1.032c0.25-0.453,0.376-0.984,0.376-1.592S368.988,120.123,368.737,119.675z"/>
	<path fill="#FFFFFF" d="M381.337,116.859v8.816h-1.824v-1.04c-0.288,0.363-0.664,0.648-1.128,0.856s-0.958,0.312-1.48,0.312
		c-0.693,0-1.315-0.144-1.864-0.432c-0.55-0.288-0.981-0.714-1.296-1.28c-0.314-0.565-0.472-1.248-0.472-2.048v-5.184h1.808v4.912
		c0,0.79,0.197,1.395,0.592,1.816s0.933,0.632,1.616,0.632c0.682,0,1.224-0.21,1.624-0.632c0.4-0.421,0.6-1.026,0.6-1.816v-4.912
		H381.337z"/>
	<path fill="#FFFFFF" d="M383.681,118.867c0.368-0.688,0.877-1.218,1.528-1.592s1.397-0.56,2.24-0.56
		c1.066,0,1.949,0.253,2.648,0.76c0.698,0.507,1.17,1.229,1.416,2.168h-1.968c-0.16-0.437-0.416-0.778-0.768-1.024
		c-0.352-0.245-0.795-0.368-1.328-0.368c-0.747,0-1.342,0.264-1.784,0.792c-0.443,0.528-0.664,1.267-0.664,2.216
		c0,0.95,0.221,1.691,0.664,2.224c0.442,0.533,1.037,0.8,1.784,0.8c1.056,0,1.754-0.464,2.096-1.392h1.968
		c-0.256,0.896-0.736,1.608-1.44,2.136s-1.579,0.792-2.624,0.792c-0.843,0-1.59-0.189-2.24-0.568c-0.65-0.379-1.16-0.912-1.528-1.6
		s-0.552-1.485-0.552-2.392C383.129,120.353,383.313,119.555,383.681,118.867z"/>
	<path fill="#FFFFFF" d="M395.465,118.347v4.88c0,0.331,0.077,0.568,0.232,0.712s0.418,0.216,0.792,0.216h1.121v1.52h-1.44
		c-0.822,0-1.451-0.192-1.888-0.576c-0.438-0.384-0.656-1.008-0.656-1.872v-4.88h-1.04v-1.488h1.04v-2.192h1.84v2.192h2.145v1.488
		H395.465z"/>
	<path fill="#FFFFFF" d="M399.385,115.355c-0.225-0.224-0.336-0.501-0.336-0.832s0.111-0.608,0.336-0.832
		c0.224-0.224,0.501-0.336,0.832-0.336c0.32,0,0.592,0.112,0.815,0.336s0.336,0.501,0.336,0.832s-0.112,0.608-0.336,0.832
		c-0.224,0.224-0.495,0.336-0.815,0.336C399.886,115.691,399.609,115.579,399.385,115.355z M401.113,116.859v8.816h-1.823v-8.816
		H401.113z"/>
	<path fill="#FFFFFF" d="M405.08,125.251c-0.672-0.379-1.199-0.912-1.584-1.6c-0.384-0.688-0.576-1.485-0.576-2.392
		c0-0.896,0.197-1.69,0.593-2.384c0.395-0.693,0.933-1.227,1.616-1.6c0.682-0.374,1.445-0.56,2.287-0.56
		c0.843,0,1.605,0.187,2.289,0.56c0.682,0.374,1.221,0.907,1.615,1.6s0.592,1.488,0.592,2.384s-0.202,1.691-0.607,2.384
		c-0.406,0.694-0.957,1.229-1.656,1.608c-0.699,0.378-1.469,0.568-2.313,0.568C406.504,125.819,405.752,125.629,405.08,125.251z
		 M408.656,123.899c0.41-0.224,0.744-0.56,1-1.008c0.256-0.448,0.385-0.992,0.385-1.632s-0.123-1.181-0.369-1.624
		c-0.245-0.442-0.57-0.776-0.976-1s-0.843-0.336-1.312-0.336c-0.47,0-0.904,0.112-1.305,0.336c-0.399,0.224-0.717,0.558-0.951,1
		c-0.235,0.443-0.353,0.984-0.353,1.624c0,0.95,0.243,1.683,0.728,2.2c0.486,0.517,1.097,0.776,1.832,0.776
		C407.806,124.235,408.246,124.123,408.656,123.899z"/>
	<path fill="#FFFFFF" d="M420.032,117.147c0.549,0.288,0.979,0.714,1.288,1.28c0.309,0.565,0.464,1.248,0.464,2.048v5.2h-1.808
		v-4.928c0-0.789-0.198-1.394-0.593-1.816c-0.395-0.421-0.933-0.632-1.616-0.632c-0.682,0-1.224,0.211-1.623,0.632
		c-0.4,0.422-0.601,1.027-0.601,1.816v4.928h-1.823v-8.816h1.823v1.008c0.298-0.362,0.681-0.645,1.144-0.848
		c0.465-0.203,0.958-0.304,1.48-0.304C418.862,116.715,419.483,116.859,420.032,117.147z"/>
	<path fill="#FFFFFF" d="M271.955,135.163c0.506-0.864,1.194-1.538,2.064-2.024c0.869-0.485,1.821-0.728,2.856-0.728
		c1.184,0,2.237,0.291,3.16,0.872c0.922,0.582,1.592,1.406,2.008,2.472h-2.192c-0.288-0.586-0.688-1.024-1.2-1.312
		c-0.512-0.288-1.104-0.432-1.776-0.432c-0.736,0-1.392,0.166-1.968,0.496c-0.576,0.331-1.027,0.806-1.352,1.424
		c-0.326,0.619-0.488,1.339-0.488,2.16s0.163,1.542,0.488,2.16c0.325,0.619,0.776,1.096,1.352,1.432
		c0.576,0.336,1.232,0.504,1.968,0.504c0.672,0,1.264-0.144,1.776-0.432c0.512-0.288,0.912-0.725,1.2-1.312h2.192
		c-0.416,1.067-1.085,1.888-2.008,2.464c-0.923,0.576-1.976,0.864-3.16,0.864c-1.045,0-2-0.243-2.864-0.728
		c-0.864-0.485-1.55-1.16-2.056-2.024c-0.507-0.864-0.76-1.84-0.76-2.928S271.448,136.027,271.955,135.163z"/>
	<path fill="#FFFFFF" d="M292.187,139.947h-6.736c0.053,0.704,0.314,1.27,0.784,1.696c0.469,0.427,1.045,0.64,1.728,0.64
		c0.981,0,1.674-0.411,2.08-1.232h1.968c-0.267,0.811-0.75,1.475-1.448,1.992s-1.565,0.776-2.6,0.776
		c-0.843,0-1.598-0.189-2.264-0.568c-0.667-0.379-1.189-0.912-1.568-1.6c-0.379-0.688-0.568-1.485-0.568-2.392
		c0-0.906,0.184-1.704,0.552-2.392s0.885-1.218,1.552-1.592s1.432-0.56,2.296-0.56c0.832,0,1.573,0.182,2.224,0.544
		c0.651,0.363,1.157,0.872,1.52,1.528c0.363,0.656,0.544,1.411,0.544,2.264C292.251,139.381,292.229,139.68,292.187,139.947z
		 M290.347,138.475c-0.011-0.672-0.25-1.21-0.72-1.616c-0.469-0.405-1.05-0.608-1.744-0.608c-0.629,0-1.168,0.2-1.616,0.6
		c-0.448,0.4-0.715,0.942-0.8,1.624H290.347z"/>
	<path fill="#FFFFFF" d="M296.93,135.091c0.442-0.25,0.968-0.376,1.576-0.376v1.888h-0.464c-0.715,0-1.256,0.181-1.624,0.544
		c-0.368,0.363-0.552,0.992-0.552,1.888v4.64h-1.824v-8.816h1.824v1.28C296.133,135.691,296.488,135.342,296.93,135.091z"/>
	<path fill="#FFFFFF" d="M302.315,136.347v4.88c0,0.331,0.077,0.568,0.232,0.712c0.154,0.144,0.418,0.216,0.792,0.216h1.12v1.52
		h-1.44c-0.822,0-1.451-0.192-1.888-0.576c-0.438-0.384-0.656-1.008-0.656-1.872v-4.88h-1.04v-1.488h1.04v-2.192h1.84v2.192h2.144
		v1.488H302.315z"/>
	<path fill="#FFFFFF" d="M306.234,133.355c-0.224-0.224-0.336-0.501-0.336-0.832s0.112-0.608,0.336-0.832s0.501-0.336,0.832-0.336
		c0.32,0,0.592,0.112,0.816,0.336c0.224,0.224,0.336,0.501,0.336,0.832s-0.112,0.608-0.336,0.832
		c-0.224,0.224-0.496,0.336-0.816,0.336C306.736,133.691,306.458,133.579,306.234,133.355z M307.962,134.859v8.816h-1.824v-8.816
		H307.962z"/>
	<path fill="#FFFFFF" d="M314.058,136.347h-1.632v7.328h-1.84v-7.328h-1.04v-1.488h1.04v-0.624c0-1.013,0.27-1.752,0.808-2.216
		c0.539-0.464,1.384-0.696,2.536-0.696v1.52c-0.555,0-0.944,0.104-1.168,0.312s-0.336,0.568-0.336,1.08v0.624h1.632V136.347z"/>
	<path fill="#FFFFFF" d="M315.77,133.355c-0.224-0.224-0.336-0.501-0.336-0.832s0.112-0.608,0.336-0.832s0.501-0.336,0.832-0.336
		c0.32,0,0.592,0.112,0.816,0.336c0.224,0.224,0.336,0.501,0.336,0.832s-0.112,0.608-0.336,0.832
		c-0.224,0.224-0.496,0.336-0.816,0.336C316.271,133.691,315.994,133.579,315.77,133.355z M317.498,134.859v8.816h-1.824v-8.816
		H317.498z"/>
	<path fill="#FFFFFF" d="M319.842,136.867c0.368-0.688,0.877-1.218,1.528-1.592s1.397-0.56,2.24-0.56
		c1.066,0,1.949,0.253,2.648,0.76c0.698,0.507,1.17,1.229,1.416,2.168h-1.968c-0.16-0.437-0.416-0.778-0.768-1.024
		c-0.352-0.245-0.795-0.368-1.328-0.368c-0.747,0-1.342,0.264-1.784,0.792c-0.443,0.528-0.664,1.267-0.664,2.216
		c0,0.95,0.221,1.691,0.664,2.224c0.442,0.533,1.037,0.8,1.784,0.8c1.056,0,1.754-0.464,2.096-1.392h1.968
		c-0.256,0.896-0.736,1.608-1.44,2.136s-1.579,0.792-2.624,0.792c-0.843,0-1.59-0.189-2.24-0.568c-0.65-0.379-1.16-0.912-1.528-1.6
		s-0.552-1.485-0.552-2.392C319.289,138.353,319.473,137.555,319.842,136.867z"/>
	<path fill="#FFFFFF" d="M329.442,136.875c0.368-0.683,0.869-1.213,1.504-1.592c0.635-0.378,1.336-0.568,2.104-0.568
		c0.693,0,1.298,0.136,1.816,0.408c0.518,0.272,0.931,0.61,1.24,1.016v-1.28h1.84v8.816h-1.84v-1.312
		c-0.31,0.416-0.731,0.763-1.264,1.04s-1.142,0.416-1.824,0.416c-0.758,0-1.451-0.194-2.08-0.584
		c-0.629-0.389-1.128-0.933-1.496-1.632s-0.552-1.491-0.552-2.376C328.889,138.342,329.073,137.558,329.442,136.875z
		 M335.73,137.675c-0.251-0.448-0.579-0.789-0.984-1.024c-0.406-0.234-0.843-0.352-1.312-0.352c-0.47,0-0.907,0.115-1.312,0.344
		c-0.406,0.229-0.734,0.566-0.984,1.008c-0.25,0.443-0.376,0.968-0.376,1.576c0,0.608,0.125,1.142,0.376,1.6
		c0.25,0.459,0.582,0.808,0.992,1.048c0.411,0.24,0.845,0.36,1.304,0.36c0.469,0,0.906-0.117,1.312-0.352
		c0.405-0.234,0.733-0.579,0.984-1.032c0.25-0.453,0.376-0.984,0.376-1.592S335.98,138.123,335.73,137.675z"/>
	<path fill="#FFFFFF" d="M342.474,136.347v4.88c0,0.331,0.077,0.568,0.232,0.712c0.154,0.144,0.418,0.216,0.792,0.216h1.12v1.52
		h-1.44c-0.822,0-1.451-0.192-1.888-0.576c-0.438-0.384-0.656-1.008-0.656-1.872v-4.88h-1.04v-1.488h1.04v-2.192h1.84v2.192h2.144
		v1.488H342.474z"/>
	<path fill="#FFFFFF" d="M346.393,133.355c-0.224-0.224-0.336-0.501-0.336-0.832s0.112-0.608,0.336-0.832s0.501-0.336,0.832-0.336
		c0.32,0,0.592,0.112,0.816,0.336c0.224,0.224,0.336,0.501,0.336,0.832s-0.112,0.608-0.336,0.832
		c-0.224,0.224-0.496,0.336-0.816,0.336C346.895,133.691,346.617,133.579,346.393,133.355z M348.121,134.859v8.816h-1.824v-8.816
		H348.121z"/>
	<path fill="#FFFFFF" d="M352.09,143.251c-0.672-0.379-1.2-0.912-1.584-1.6c-0.384-0.688-0.576-1.485-0.576-2.392
		c0-0.896,0.197-1.69,0.592-2.384c0.395-0.693,0.933-1.227,1.616-1.6s1.445-0.56,2.288-0.56c0.842,0,1.605,0.187,2.288,0.56
		s1.221,0.907,1.616,1.6s0.592,1.488,0.592,2.384s-0.203,1.691-0.608,2.384c-0.406,0.694-0.958,1.229-1.656,1.608
		c-0.699,0.378-1.469,0.568-2.312,0.568C353.513,143.819,352.761,143.629,352.09,143.251z M355.666,141.899
		c0.41-0.224,0.744-0.56,1-1.008c0.256-0.448,0.384-0.992,0.384-1.632s-0.123-1.181-0.368-1.624c-0.246-0.442-0.571-0.776-0.976-1
		s-0.843-0.336-1.312-0.336s-0.904,0.112-1.304,0.336s-0.718,0.558-0.952,1c-0.235,0.443-0.352,0.984-0.352,1.624
		c0,0.95,0.243,1.683,0.728,2.2c0.485,0.517,1.096,0.776,1.832,0.776C354.815,142.235,355.255,142.123,355.666,141.899z"/>
	<path fill="#FFFFFF" d="M367.041,135.147c0.549,0.288,0.979,0.714,1.288,1.28c0.31,0.565,0.464,1.248,0.464,2.048v5.2h-1.808
		v-4.928c0-0.789-0.198-1.394-0.592-1.816c-0.395-0.421-0.933-0.632-1.616-0.632s-1.224,0.211-1.624,0.632
		c-0.4,0.422-0.6,1.027-0.6,1.816v4.928h-1.824v-8.816h1.824v1.008c0.298-0.362,0.68-0.645,1.144-0.848s0.958-0.304,1.48-0.304
		C365.87,134.715,366.491,134.859,367.041,135.147z"/>
	<path fill="#FFFFFF" d="M375.425,135.163c0.506-0.864,1.194-1.538,2.064-2.024c0.869-0.485,1.821-0.728,2.856-0.728
		c1.184,0,2.237,0.291,3.16,0.872c0.922,0.582,1.592,1.406,2.008,2.472h-2.192c-0.288-0.586-0.688-1.024-1.2-1.312
		c-0.512-0.288-1.104-0.432-1.776-0.432c-0.736,0-1.392,0.166-1.968,0.496c-0.576,0.331-1.027,0.806-1.352,1.424
		c-0.326,0.619-0.488,1.339-0.488,2.16s0.163,1.542,0.488,2.16c0.325,0.619,0.776,1.096,1.352,1.432
		c0.576,0.336,1.232,0.504,1.968,0.504c0.672,0,1.264-0.144,1.776-0.432c0.512-0.288,0.912-0.725,1.2-1.312h2.192
		c-0.416,1.067-1.085,1.888-2.008,2.464c-0.923,0.576-1.976,0.864-3.16,0.864c-1.045,0-2-0.243-2.864-0.728
		c-0.864-0.485-1.55-1.16-2.056-2.024c-0.507-0.864-0.76-1.84-0.76-2.928S374.918,136.027,375.425,135.163z"/>
	<path fill="#FFFFFF" d="M395.656,139.947h-6.736c0.053,0.704,0.314,1.27,0.784,1.696c0.469,0.427,1.045,0.64,1.728,0.64
		c0.981,0,1.674-0.411,2.08-1.232h1.968c-0.267,0.811-0.75,1.475-1.448,1.992s-1.565,0.776-2.6,0.776
		c-0.843,0-1.598-0.189-2.264-0.568c-0.667-0.379-1.189-0.912-1.568-1.6c-0.379-0.688-0.568-1.485-0.568-2.392
		c0-0.906,0.184-1.704,0.552-2.392s0.885-1.218,1.552-1.592s1.432-0.56,2.296-0.56c0.832,0,1.573,0.182,2.224,0.544
		c0.651,0.363,1.157,0.872,1.52,1.528c0.363,0.656,0.544,1.411,0.544,2.264C395.72,139.381,395.699,139.68,395.656,139.947z
		 M393.817,138.475c-0.011-0.672-0.25-1.21-0.72-1.616c-0.469-0.405-1.05-0.608-1.744-0.608c-0.629,0-1.168,0.2-1.616,0.6
		c-0.448,0.4-0.715,0.942-0.8,1.624H393.817z"/>
	<path fill="#FFFFFF" d="M403.824,135.147c0.549,0.288,0.979,0.714,1.288,1.28s0.464,1.248,0.464,2.048v5.2h-1.808v-4.928
		c0-0.789-0.198-1.394-0.593-1.816c-0.395-0.421-0.933-0.632-1.615-0.632s-1.225,0.211-1.624,0.632
		c-0.399,0.422-0.601,1.027-0.601,1.816v4.928h-1.823v-8.816h1.823v1.008c0.299-0.362,0.681-0.645,1.145-0.848
		s0.957-0.304,1.48-0.304C402.655,134.715,403.276,134.859,403.824,135.147z"/>
	<path fill="#FFFFFF" d="M410.025,136.347v4.88c0,0.331,0.077,0.568,0.231,0.712s0.419,0.216,0.793,0.216h1.119v1.52h-1.439
		c-0.822,0-1.451-0.192-1.889-0.576c-0.438-0.384-0.656-1.008-0.656-1.872v-4.88h-1.039v-1.488h1.039v-2.192h1.841v2.192h2.144
		v1.488H410.025z"/>
	<path fill="#FFFFFF" d="M421.864,139.947h-6.735c0.054,0.704,0.314,1.27,0.784,1.696c0.469,0.427,1.045,0.64,1.729,0.64
		c0.98,0,1.674-0.411,2.079-1.232h1.968c-0.266,0.811-0.749,1.475-1.447,1.992c-0.699,0.518-1.566,0.776-2.6,0.776
		c-0.844,0-1.598-0.189-2.265-0.568c-0.667-0.379-1.189-0.912-1.567-1.6c-0.379-0.688-0.568-1.485-0.568-2.392
		c0-0.906,0.184-1.704,0.552-2.392s0.886-1.218,1.552-1.592s1.432-0.56,2.297-0.56c0.832,0,1.572,0.182,2.223,0.544
		c0.651,0.363,1.158,0.872,1.521,1.528c0.362,0.656,0.544,1.411,0.544,2.264C421.928,139.381,421.906,139.68,421.864,139.947z
		 M420.024,138.475c-0.01-0.672-0.25-1.21-0.72-1.616s-1.05-0.608-1.743-0.608c-0.63,0-1.168,0.2-1.617,0.6
		c-0.447,0.4-0.715,0.942-0.799,1.624H420.024z"/>
	<path fill="#FFFFFF" d="M426.608,135.091c0.442-0.25,0.969-0.376,1.576-0.376v1.888h-0.464c-0.715,0-1.257,0.181-1.624,0.544
		c-0.368,0.363-0.553,0.992-0.553,1.888v4.64h-1.823v-8.816h1.823v1.28C425.811,135.691,426.164,135.342,426.608,135.091z"/>
</g>
<g>
	<g id="Ellipse_4_3_">
		<g>
			<path fill="#FFFFFF" stroke="#51C3CE" stroke-width="2" stroke-miterlimit="10" d="M743.03,109.913h-186c-12.15,0-22,9.85-22,22
				s9.85,22,22,22h186c12.15,0,22-9.85,22-22S755.18,109.913,743.03,109.913z"/>
		</g>
	</g>
	<g>
		<path fill="#51C3CE" d="M571.303,135.617c-0.598-0.261-1.067-0.632-1.408-1.112s-0.512-1.04-0.512-1.68h1.952
			c0.042,0.48,0.231,0.875,0.568,1.184c0.336,0.31,0.807,0.464,1.415,0.464c0.63,0,1.12-0.152,1.472-0.456
			c0.353-0.304,0.528-0.696,0.528-1.176c0-0.373-0.109-0.677-0.327-0.912c-0.219-0.235-0.491-0.416-0.816-0.544
			c-0.326-0.128-0.776-0.266-1.352-0.416c-0.727-0.192-1.315-0.386-1.769-0.584c-0.454-0.197-0.841-0.504-1.16-0.92
			s-0.479-0.97-0.479-1.664c0-0.64,0.16-1.2,0.479-1.68s0.769-0.848,1.345-1.104c0.575-0.256,1.242-0.384,2-0.384
			c1.076,0,1.959,0.27,2.647,0.808s1.069,1.277,1.144,2.216h-2.016c-0.032-0.405-0.225-0.752-0.576-1.04
			c-0.352-0.288-0.816-0.432-1.393-0.432c-0.521,0-0.949,0.133-1.279,0.4s-0.496,0.651-0.496,1.152c0,0.342,0.104,0.622,0.313,0.84
			c0.207,0.219,0.472,0.392,0.791,0.52c0.32,0.128,0.758,0.267,1.313,0.416c0.736,0.203,1.336,0.405,1.801,0.608
			c0.463,0.203,0.857,0.515,1.184,0.936c0.324,0.421,0.488,0.984,0.488,1.688c0,0.565-0.152,1.099-0.457,1.6
			c-0.304,0.501-0.746,0.904-1.328,1.208c-0.581,0.304-1.266,0.456-2.056,0.456C572.572,136.009,571.9,135.878,571.303,135.617z"/>
		<path fill="#51C3CE" d="M581.447,128.569v4.88c0,0.331,0.077,0.568,0.232,0.712c0.154,0.144,0.418,0.216,0.791,0.216h1.121v1.52
			h-1.44c-0.821,0-1.451-0.192-1.888-0.576c-0.438-0.384-0.656-1.008-0.656-1.872v-4.88h-1.04v-1.488h1.04v-2.192h1.84v2.192h2.145
			v1.488H581.447z"/>
		<path fill="#51C3CE" d="M593.286,132.169h-6.736c0.054,0.704,0.314,1.27,0.785,1.696c0.469,0.427,1.045,0.64,1.728,0.64
			c0.981,0,1.675-0.411,2.079-1.232h1.969c-0.267,0.811-0.75,1.475-1.448,1.992s-1.565,0.776-2.6,0.776
			c-0.843,0-1.598-0.189-2.265-0.568c-0.666-0.379-1.189-0.912-1.567-1.6c-0.379-0.688-0.568-1.485-0.568-2.392
			c0-0.906,0.185-1.704,0.552-2.392c0.369-0.688,0.886-1.218,1.553-1.592c0.666-0.374,1.432-0.56,2.296-0.56
			c0.832,0,1.573,0.182,2.224,0.544c0.65,0.363,1.157,0.872,1.52,1.528c0.363,0.656,0.545,1.411,0.545,2.264
			C593.351,131.604,593.329,131.902,593.286,132.169z M591.447,130.697c-0.011-0.672-0.25-1.21-0.721-1.616
			c-0.469-0.405-1.05-0.608-1.743-0.608c-0.63,0-1.168,0.2-1.616,0.6c-0.447,0.4-0.715,0.942-0.8,1.624H591.447z"/>
		<path fill="#51C3CE" d="M603.158,132.169h-6.735c0.053,0.704,0.314,1.27,0.783,1.696c0.47,0.427,1.045,0.64,1.729,0.64
			c0.98,0,1.674-0.411,2.08-1.232h1.968c-0.267,0.811-0.749,1.475-1.448,1.992s-1.565,0.776-2.6,0.776
			c-0.843,0-1.598-0.189-2.264-0.568c-0.668-0.379-1.189-0.912-1.568-1.6s-0.568-1.485-0.568-2.392c0-0.906,0.184-1.704,0.553-2.392
			c0.367-0.688,0.885-1.218,1.551-1.592c0.667-0.374,1.433-0.56,2.297-0.56c0.832,0,1.573,0.182,2.224,0.544
			c0.651,0.363,1.157,0.872,1.521,1.528c0.362,0.656,0.543,1.411,0.543,2.264C603.222,131.604,603.2,131.902,603.158,132.169z
			 M601.319,130.697c-0.011-0.672-0.251-1.21-0.72-1.616c-0.47-0.405-1.051-0.608-1.744-0.608c-0.629,0-1.168,0.2-1.616,0.6
			c-0.448,0.4-0.715,0.942-0.8,1.624H601.319z"/>
		<path fill="#51C3CE" d="M607.902,127.313c0.443-0.25,0.969-0.376,1.576-0.376v1.888h-0.463c-0.715,0-1.257,0.181-1.625,0.544
			c-0.367,0.363-0.552,0.992-0.552,1.888v4.64h-1.823v-8.816h1.823v1.28C607.105,127.913,607.459,127.564,607.902,127.313z"/>
		<path fill="#51C3CE" d="M611.254,125.577c-0.224-0.224-0.336-0.501-0.336-0.832s0.112-0.608,0.336-0.832s0.501-0.336,0.832-0.336
			c0.32,0,0.593,0.112,0.815,0.336c0.225,0.224,0.336,0.501,0.336,0.832s-0.111,0.608-0.336,0.832
			c-0.223,0.224-0.495,0.336-0.815,0.336C611.755,125.913,611.478,125.801,611.254,125.577z M612.982,127.081v8.816h-1.823v-8.816
			H612.982z"/>
		<path fill="#51C3CE" d="M621.695,127.369c0.549,0.288,0.979,0.714,1.287,1.28c0.31,0.565,0.465,1.248,0.465,2.048v5.2h-1.809
			v-4.928c0-0.789-0.197-1.394-0.592-1.816c-0.395-0.421-0.934-0.632-1.616-0.632s-1.224,0.211-1.624,0.632
			c-0.4,0.422-0.6,1.027-0.6,1.816v4.928h-1.824v-8.816h1.824v1.008c0.298-0.362,0.68-0.645,1.144-0.848s0.958-0.304,1.479-0.304
			C620.523,126.937,621.144,127.081,621.695,127.369z"/>
		<path fill="#51C3CE" d="M631.134,127.345c0.527,0.272,0.941,0.61,1.24,1.016v-1.28h1.84v8.96c0,0.811-0.172,1.533-0.512,2.168
			c-0.342,0.634-0.836,1.133-1.48,1.496c-0.646,0.362-1.416,0.544-2.313,0.544c-1.194,0-2.187-0.28-2.976-0.84
			c-0.79-0.56-1.237-1.32-1.345-2.28h1.809c0.139,0.458,0.435,0.829,0.889,1.112c0.453,0.282,0.994,0.424,1.623,0.424
			c0.736,0,1.33-0.224,1.784-0.672c0.453-0.448,0.681-1.099,0.681-1.952v-1.472c-0.311,0.416-0.729,0.766-1.257,1.048
			c-0.528,0.282-1.128,0.424-1.8,0.424c-0.768,0-1.469-0.194-2.104-0.584c-0.635-0.389-1.137-0.933-1.504-1.632
			c-0.369-0.699-0.553-1.491-0.553-2.376c0-0.885,0.184-1.669,0.553-2.352c0.367-0.683,0.869-1.213,1.504-1.592
			c0.635-0.378,1.336-0.568,2.104-0.568C630,126.937,630.606,127.073,631.134,127.345z M631.997,129.897
			c-0.25-0.448-0.578-0.789-0.983-1.024c-0.405-0.234-0.843-0.352-1.312-0.352c-0.471,0-0.907,0.115-1.313,0.344
			c-0.406,0.229-0.734,0.566-0.984,1.008c-0.25,0.443-0.376,0.968-0.376,1.576c0,0.608,0.126,1.142,0.376,1.6
			c0.25,0.459,0.582,0.808,0.992,1.048c0.41,0.24,0.846,0.36,1.305,0.36c0.469,0,0.906-0.117,1.312-0.352
			c0.405-0.234,0.733-0.579,0.983-1.032c0.251-0.453,0.377-0.984,0.377-1.592S632.248,130.345,631.997,129.897z"/>
		<path fill="#51C3CE" d="M640.925,127.385c0.507-0.864,1.195-1.538,2.064-2.024c0.869-0.485,1.821-0.728,2.855-0.728
			c1.185,0,2.238,0.291,3.16,0.872c0.923,0.582,1.592,1.406,2.008,2.472h-2.191c-0.288-0.586-0.688-1.024-1.2-1.312
			c-0.512-0.288-1.104-0.432-1.776-0.432c-0.735,0-1.392,0.166-1.967,0.496c-0.576,0.331-1.027,0.806-1.353,1.424
			c-0.325,0.619-0.488,1.339-0.488,2.16s0.163,1.542,0.488,2.16s0.776,1.096,1.353,1.432c0.575,0.336,1.231,0.504,1.967,0.504
			c0.672,0,1.265-0.144,1.776-0.432c0.513-0.288,0.912-0.725,1.2-1.312h2.191c-0.416,1.067-1.085,1.888-2.008,2.464
			c-0.922,0.576-1.976,0.864-3.16,0.864c-1.045,0-2-0.243-2.863-0.728c-0.864-0.485-1.55-1.16-2.057-2.024
			c-0.506-0.864-0.76-1.84-0.76-2.928S640.419,128.249,640.925,127.385z"/>
		<path fill="#51C3CE" d="M654.71,135.473c-0.672-0.379-1.201-0.912-1.584-1.6c-0.385-0.688-0.576-1.485-0.576-2.392
			c0-0.896,0.197-1.69,0.592-2.384s0.934-1.227,1.615-1.6c0.684-0.374,1.445-0.56,2.289-0.56c0.842,0,1.605,0.187,2.287,0.56
			c0.684,0.374,1.222,0.907,1.616,1.6s0.593,1.488,0.593,2.384s-0.203,1.691-0.608,2.384c-0.405,0.694-0.958,1.229-1.656,1.608
			c-0.698,0.378-1.47,0.568-2.312,0.568C656.134,136.041,655.382,135.852,654.71,135.473z M658.286,134.121
			c0.41-0.224,0.743-0.56,1-1.008c0.256-0.448,0.383-0.992,0.383-1.632s-0.122-1.181-0.367-1.624c-0.246-0.442-0.571-0.776-0.977-1
			s-0.843-0.336-1.313-0.336c-0.469,0-0.903,0.112-1.303,0.336c-0.4,0.224-0.719,0.558-0.953,1
			c-0.234,0.443-0.352,0.984-0.352,1.624c0,0.95,0.242,1.683,0.729,2.2c0.484,0.517,1.096,0.776,1.832,0.776
			C657.435,134.457,657.874,134.345,658.286,134.121z"/>
		<path fill="#51C3CE" d="M675.885,127.369c0.55,0.288,0.981,0.714,1.296,1.28s0.473,1.248,0.473,2.048v5.2h-1.809v-4.928
			c0-0.789-0.197-1.394-0.592-1.816c-0.395-0.421-0.934-0.632-1.616-0.632s-1.224,0.211-1.624,0.632c-0.4,0.422-0.6,1.027-0.6,1.816
			v4.928h-1.809v-4.928c0-0.789-0.197-1.394-0.592-1.816c-0.395-0.421-0.934-0.632-1.615-0.632c-0.684,0-1.225,0.211-1.625,0.632
			c-0.399,0.422-0.6,1.027-0.6,1.816v4.928h-1.824v-8.816h1.824v1.008c0.299-0.362,0.678-0.645,1.137-0.848
			c0.458-0.203,0.949-0.304,1.471-0.304c0.705,0,1.334,0.149,1.889,0.448c0.555,0.299,0.981,0.731,1.279,1.296
			c0.268-0.533,0.684-0.958,1.248-1.272c0.566-0.315,1.174-0.472,1.824-0.472C674.714,126.937,675.335,127.081,675.885,127.369z"/>
		<path fill="#51C3CE" d="M692.509,127.369c0.549,0.288,0.98,0.714,1.296,1.28c0.314,0.565,0.472,1.248,0.472,2.048v5.2h-1.809
			v-4.928c0-0.789-0.197-1.394-0.592-1.816c-0.395-0.421-0.934-0.632-1.615-0.632c-0.684,0-1.225,0.211-1.625,0.632
			c-0.399,0.422-0.6,1.027-0.6,1.816v4.928h-1.808v-4.928c0-0.789-0.198-1.394-0.593-1.816c-0.395-0.421-0.933-0.632-1.615-0.632
			s-1.225,0.211-1.624,0.632c-0.399,0.422-0.601,1.027-0.601,1.816v4.928h-1.823v-8.816h1.823v1.008
			c0.299-0.362,0.678-0.645,1.137-0.848s0.949-0.304,1.472-0.304c0.704,0,1.333,0.149,1.888,0.448
			c0.555,0.299,0.982,0.731,1.28,1.296c0.267-0.533,0.683-0.958,1.248-1.272c0.565-0.315,1.173-0.472,1.824-0.472
			C691.338,126.937,691.959,127.081,692.509,127.369z"/>
		<path fill="#51C3CE" d="M696.693,125.577c-0.225-0.224-0.336-0.501-0.336-0.832s0.111-0.608,0.336-0.832s0.502-0.336,0.832-0.336
			c0.32,0,0.592,0.112,0.816,0.336c0.224,0.224,0.336,0.501,0.336,0.832s-0.112,0.608-0.336,0.832
			c-0.225,0.224-0.496,0.336-0.816,0.336C697.195,125.913,696.917,125.801,696.693,125.577z M698.421,127.081v8.816h-1.824v-8.816
			H698.421z"/>
		<path fill="#51C3CE" d="M702.948,128.569v4.88c0,0.331,0.077,0.568,0.232,0.712c0.154,0.144,0.418,0.216,0.791,0.216h1.121v1.52
			h-1.44c-0.821,0-1.451-0.192-1.888-0.576c-0.438-0.384-0.656-1.008-0.656-1.872v-4.88h-1.04v-1.488h1.04v-2.192h1.84v2.192h2.145
			v1.488H702.948z"/>
		<path fill="#51C3CE" d="M708.901,128.569v4.88c0,0.331,0.077,0.568,0.231,0.712s0.419,0.216,0.793,0.216h1.119v1.52h-1.439
			c-0.822,0-1.451-0.192-1.889-0.576c-0.438-0.384-0.656-1.008-0.656-1.872v-4.88h-1.039v-1.488h1.039v-2.192h1.841v2.192h2.144
			v1.488H708.901z"/>
		<path fill="#51C3CE" d="M720.74,132.169h-6.735c0.053,0.704,0.314,1.27,0.783,1.696c0.47,0.427,1.045,0.64,1.729,0.64
			c0.98,0,1.674-0.411,2.08-1.232h1.968c-0.267,0.811-0.749,1.475-1.448,1.992s-1.565,0.776-2.6,0.776
			c-0.843,0-1.598-0.189-2.264-0.568c-0.668-0.379-1.189-0.912-1.568-1.6s-0.568-1.485-0.568-2.392c0-0.906,0.184-1.704,0.553-2.392
			c0.367-0.688,0.885-1.218,1.551-1.592c0.667-0.374,1.433-0.56,2.297-0.56c0.832,0,1.573,0.182,2.224,0.544
			c0.651,0.363,1.157,0.872,1.521,1.528c0.362,0.656,0.543,1.411,0.543,2.264C720.804,131.604,720.782,131.902,720.74,132.169z
			 M718.901,130.697c-0.011-0.672-0.251-1.21-0.72-1.616c-0.47-0.405-1.051-0.608-1.744-0.608c-0.629,0-1.168,0.2-1.616,0.6
			c-0.448,0.4-0.715,0.942-0.8,1.624H718.901z"/>
		<path fill="#51C3CE" d="M730.613,132.169h-6.736c0.053,0.704,0.314,1.27,0.784,1.696c0.47,0.427,1.045,0.64,1.728,0.64
			c0.981,0,1.675-0.411,2.08-1.232h1.969c-0.268,0.811-0.75,1.475-1.449,1.992c-0.698,0.518-1.564,0.776-2.6,0.776
			c-0.842,0-1.598-0.189-2.264-0.568c-0.667-0.379-1.189-0.912-1.568-1.6s-0.568-1.485-0.568-2.392c0-0.906,0.185-1.704,0.553-2.392
			s0.885-1.218,1.552-1.592s1.433-0.56,2.296-0.56c0.832,0,1.574,0.182,2.225,0.544c0.65,0.363,1.156,0.872,1.52,1.528
			c0.363,0.656,0.544,1.411,0.544,2.264C730.676,131.604,730.655,131.902,730.613,132.169z M728.773,130.697
			c-0.012-0.672-0.251-1.21-0.721-1.616c-0.469-0.405-1.051-0.608-1.744-0.608c-0.629,0-1.168,0.2-1.615,0.6
			c-0.448,0.4-0.715,0.942-0.801,1.624H728.773z"/>
	</g>
</g>
<g>
	<path fill="#48B5A9" d="M52.023,341.469c-0.87-0.484-1.558-1.162-2.064-2.031c-0.507-0.869-0.76-1.849-0.76-2.937
		s0.253-2.063,0.76-2.929c0.506-0.863,1.194-1.537,2.064-2.023c0.869-0.485,1.821-0.729,2.856-0.729
		c1.045,0,2.002,0.243,2.872,0.729c0.869,0.486,1.555,1.16,2.056,2.023c0.501,0.865,0.752,1.841,0.752,2.929
		s-0.251,2.067-0.752,2.937c-0.501,0.869-1.187,1.547-2.056,2.031c-0.87,0.486-1.827,0.729-2.872,0.729
		C53.844,342.197,52.892,341.955,52.023,341.469z M56.847,340.109c0.576-0.336,1.026-0.816,1.352-1.44
		c0.326-0.624,0.488-1.347,0.488-2.168s-0.163-1.542-0.488-2.16c-0.325-0.618-0.776-1.093-1.352-1.424
		c-0.576-0.331-1.232-0.496-1.968-0.496s-1.392,0.165-1.968,0.496c-0.576,0.331-1.027,0.806-1.352,1.424
		c-0.326,0.618-0.488,1.339-0.488,2.16s0.163,1.544,0.488,2.168c0.325,0.624,0.776,1.104,1.352,1.44
		c0.576,0.336,1.232,0.504,1.968,0.504S56.271,340.445,56.847,340.109z"/>
	<path fill="#48B5A9" d="M65.439,333.541c0.533-0.277,1.136-0.416,1.808-0.416c0.768,0,1.469,0.189,2.104,0.568
		c0.634,0.379,1.133,0.909,1.496,1.592s0.544,1.467,0.544,2.352c0,0.886-0.182,1.678-0.544,2.377
		c-0.363,0.698-0.861,1.242-1.496,1.631c-0.635,0.391-1.336,0.584-2.104,0.584c-0.672,0-1.27-0.136-1.792-0.408
		c-0.523-0.271-0.95-0.609-1.28-1.016v5.473h-1.824V333.27h1.824v1.295C64.484,334.16,64.906,333.818,65.439,333.541z
		 M69.159,336.061c-0.25-0.441-0.582-0.778-0.992-1.008c-0.411-0.229-0.851-0.344-1.32-0.344c-0.458,0-0.893,0.117-1.304,0.352
		c-0.411,0.235-0.742,0.576-0.992,1.024s-0.376,0.976-0.376,1.584s0.125,1.139,0.376,1.592c0.25,0.454,0.582,0.798,0.992,1.032
		s0.845,0.352,1.304,0.352c0.469,0,0.91-0.119,1.32-0.359c0.41-0.24,0.741-0.59,0.992-1.049c0.25-0.458,0.376-0.991,0.376-1.6
		C69.535,337.029,69.409,336.504,69.159,336.061z"/>
	<path fill="#48B5A9" d="M81.215,338.357h-6.736c0.053,0.703,0.314,1.27,0.784,1.695c0.469,0.427,1.045,0.641,1.728,0.641
		c0.981,0,1.674-0.411,2.08-1.232h1.968c-0.267,0.811-0.75,1.475-1.448,1.992s-1.565,0.775-2.6,0.775
		c-0.843,0-1.598-0.189-2.264-0.567c-0.667-0.379-1.189-0.912-1.568-1.601c-0.379-0.688-0.568-1.484-0.568-2.392
		c0-0.906,0.184-1.704,0.552-2.392c0.368-0.688,0.885-1.219,1.552-1.592c0.667-0.374,1.432-0.561,2.296-0.561
		c0.832,0,1.573,0.182,2.224,0.544c0.651,0.362,1.157,0.872,1.52,1.528s0.544,1.41,0.544,2.264
		C81.279,337.791,81.258,338.09,81.215,338.357z M79.375,336.885c-0.011-0.672-0.25-1.211-0.72-1.615
		c-0.469-0.406-1.05-0.608-1.744-0.608c-0.629,0-1.168,0.2-1.616,0.6c-0.448,0.4-0.715,0.942-0.8,1.624H79.375z"/>
	<path fill="#48B5A9" d="M85.959,333.501c0.442-0.251,0.968-0.376,1.576-0.376v1.889h-0.464c-0.715,0-1.256,0.181-1.624,0.543
		c-0.368,0.363-0.552,0.992-0.552,1.889v4.64h-1.824v-8.815h1.824v1.279C85.161,334.102,85.516,333.752,85.959,333.501z"/>
	<path fill="#48B5A9" d="M89.159,335.285c0.368-0.683,0.869-1.213,1.504-1.592s1.336-0.568,2.104-0.568
		c0.693,0,1.298,0.136,1.816,0.408c0.518,0.271,0.931,0.61,1.24,1.016v-1.279h1.84v8.815h-1.84v-1.312
		c-0.31,0.416-0.731,0.762-1.264,1.039s-1.142,0.416-1.824,0.416c-0.758,0-1.451-0.193-2.08-0.584
		c-0.629-0.389-1.128-0.933-1.496-1.631c-0.368-0.699-0.552-1.491-0.552-2.377C88.607,336.752,88.791,335.968,89.159,335.285z
		 M95.447,336.085c-0.251-0.448-0.579-0.789-0.984-1.024c-0.406-0.234-0.843-0.352-1.312-0.352c-0.47,0-0.907,0.115-1.312,0.344
		c-0.406,0.229-0.734,0.566-0.984,1.008c-0.25,0.443-0.376,0.969-0.376,1.576c0,0.608,0.125,1.142,0.376,1.6
		c0.25,0.459,0.582,0.809,0.992,1.049s0.845,0.359,1.304,0.359c0.469,0,0.906-0.117,1.312-0.352
		c0.405-0.234,0.733-0.578,0.984-1.032c0.25-0.453,0.376-0.983,0.376-1.592S95.698,336.533,95.447,336.085z"/>
	<path fill="#48B5A9" d="M102.191,334.757v4.88c0,0.331,0.077,0.568,0.232,0.713c0.154,0.144,0.418,0.215,0.792,0.215h1.12v1.521
		h-1.44c-0.822,0-1.451-0.192-1.888-0.576c-0.438-0.384-0.656-1.008-0.656-1.872v-4.88h-1.04v-1.487h1.04v-2.192h1.84v2.192h2.144
		v1.487H102.191z"/>
	<path fill="#48B5A9" d="M106.111,331.766c-0.224-0.225-0.336-0.502-0.336-0.832c0-0.331,0.112-0.608,0.336-0.832
		c0.224-0.225,0.501-0.336,0.832-0.336c0.32,0,0.592,0.111,0.816,0.336c0.224,0.224,0.336,0.501,0.336,0.832
		c0,0.33-0.112,0.607-0.336,0.832c-0.224,0.223-0.496,0.336-0.816,0.336C106.612,332.102,106.335,331.988,106.111,331.766z
		 M107.839,333.27v8.815h-1.824v-8.815H107.839z"/>
	<path fill="#48B5A9" d="M111.806,341.661c-0.672-0.379-1.2-0.912-1.584-1.601c-0.384-0.688-0.576-1.484-0.576-2.392
		c0-0.896,0.197-1.69,0.592-2.384c0.395-0.693,0.933-1.227,1.616-1.6c0.683-0.374,1.445-0.561,2.288-0.561
		c0.842,0,1.605,0.187,2.288,0.561c0.683,0.373,1.221,0.906,1.616,1.6s0.592,1.488,0.592,2.384s-0.203,1.69-0.608,2.384
		c-0.406,0.693-0.958,1.229-1.656,1.608c-0.699,0.378-1.469,0.567-2.312,0.567C113.23,342.229,112.478,342.039,111.806,341.661z
		 M115.383,340.309c0.41-0.224,0.744-0.56,1-1.008c0.256-0.447,0.384-0.992,0.384-1.632s-0.123-1.181-0.368-1.624
		c-0.246-0.442-0.571-0.775-0.976-1s-0.843-0.336-1.312-0.336s-0.904,0.111-1.304,0.336s-0.718,0.558-0.952,1
		c-0.235,0.443-0.352,0.984-0.352,1.624c0,0.95,0.243,1.683,0.728,2.2s1.096,0.775,1.832,0.775
		C114.531,340.645,114.971,340.533,115.383,340.309z"/>
	<path fill="#48B5A9" d="M126.759,333.557c0.549,0.288,0.979,0.715,1.288,1.28c0.31,0.565,0.464,1.248,0.464,2.048v5.2h-1.808
		v-4.929c0-0.789-0.198-1.394-0.592-1.815c-0.395-0.421-0.933-0.632-1.616-0.632s-1.224,0.211-1.624,0.632
		c-0.4,0.422-0.6,1.026-0.6,1.815v4.929h-1.824v-8.815h1.824v1.008c0.298-0.363,0.68-0.646,1.144-0.848
		c0.464-0.203,0.958-0.305,1.48-0.305C125.588,333.125,126.209,333.27,126.759,333.557z"/>
	<path fill="#48B5A9" d="M146.702,330.965v11.12h-1.824v-7.616l-3.392,7.616h-1.264l-3.408-7.616v7.616h-1.824v-11.12h1.968
		l3.904,8.721l3.888-8.721H146.702z"/>
	<path fill="#48B5A9" d="M149.046,335.285c0.368-0.683,0.869-1.213,1.504-1.592s1.336-0.568,2.104-0.568
		c0.693,0,1.298,0.136,1.816,0.408c0.518,0.271,0.931,0.61,1.24,1.016v-1.279h1.84v8.815h-1.84v-1.312
		c-0.31,0.416-0.731,0.762-1.264,1.039s-1.142,0.416-1.824,0.416c-0.758,0-1.451-0.193-2.08-0.584
		c-0.629-0.389-1.128-0.933-1.496-1.631c-0.368-0.699-0.552-1.491-0.552-2.377C148.493,336.752,148.677,335.968,149.046,335.285z
		 M155.334,336.085c-0.251-0.448-0.579-0.789-0.984-1.024c-0.406-0.234-0.843-0.352-1.312-0.352c-0.47,0-0.907,0.115-1.312,0.344
		c-0.406,0.229-0.734,0.566-0.984,1.008c-0.25,0.443-0.376,0.969-0.376,1.576c0,0.608,0.125,1.142,0.376,1.6
		c0.25,0.459,0.582,0.809,0.992,1.049s0.845,0.359,1.304,0.359c0.469,0,0.906-0.117,1.312-0.352
		c0.405-0.234,0.733-0.578,0.984-1.032c0.25-0.453,0.376-0.983,0.376-1.592S155.584,336.533,155.334,336.085z"/>
	<path fill="#48B5A9" d="M166.261,333.557c0.549,0.288,0.979,0.715,1.288,1.28c0.31,0.565,0.464,1.248,0.464,2.048v5.2h-1.808
		v-4.929c0-0.789-0.198-1.394-0.592-1.815c-0.395-0.421-0.933-0.632-1.616-0.632s-1.224,0.211-1.624,0.632
		c-0.4,0.422-0.6,1.026-0.6,1.815v4.929h-1.824v-8.815h1.824v1.008c0.298-0.363,0.68-0.646,1.144-0.848
		c0.464-0.203,0.958-0.305,1.48-0.305C165.091,333.125,165.712,333.27,166.261,333.557z"/>
	<path fill="#48B5A9" d="M170.277,335.285c0.368-0.683,0.869-1.213,1.504-1.592s1.336-0.568,2.104-0.568
		c0.693,0,1.298,0.136,1.816,0.408c0.518,0.271,0.931,0.61,1.24,1.016v-1.279h1.84v8.815h-1.84v-1.312
		c-0.31,0.416-0.731,0.762-1.264,1.039s-1.142,0.416-1.824,0.416c-0.758,0-1.451-0.193-2.08-0.584
		c-0.629-0.389-1.128-0.933-1.496-1.631c-0.368-0.699-0.552-1.491-0.552-2.377C169.725,336.752,169.909,335.968,170.277,335.285z
		 M176.565,336.085c-0.251-0.448-0.579-0.789-0.984-1.024c-0.406-0.234-0.843-0.352-1.312-0.352c-0.47,0-0.907,0.115-1.312,0.344
		c-0.406,0.229-0.734,0.566-0.984,1.008c-0.25,0.443-0.376,0.969-0.376,1.576c0,0.608,0.125,1.142,0.376,1.6
		c0.25,0.459,0.582,0.809,0.992,1.049s0.845,0.359,1.304,0.359c0.469,0,0.906-0.117,1.312-0.352
		c0.405-0.234,0.733-0.578,0.984-1.032c0.25-0.453,0.376-0.983,0.376-1.592S176.816,336.533,176.565,336.085z"/>
	<path fill="#48B5A9" d="M186.549,333.533c0.528,0.271,0.941,0.61,1.24,1.016v-1.279h1.84v8.959c0,0.811-0.171,1.533-0.512,2.168
		c-0.342,0.635-0.835,1.134-1.48,1.496c-0.645,0.363-1.416,0.545-2.312,0.545c-1.195,0-2.187-0.281-2.976-0.84
		c-0.79-0.561-1.238-1.32-1.344-2.281h1.808c0.139,0.459,0.435,0.83,0.888,1.113c0.453,0.281,0.994,0.424,1.624,0.424
		c0.736,0,1.33-0.225,1.784-0.672c0.453-0.449,0.68-1.1,0.68-1.953v-1.472c-0.31,0.416-0.728,0.766-1.256,1.048
		c-0.528,0.283-1.128,0.424-1.8,0.424c-0.768,0-1.469-0.193-2.104-0.584c-0.635-0.389-1.136-0.933-1.504-1.631
		c-0.368-0.699-0.552-1.491-0.552-2.377c0-0.885,0.184-1.669,0.552-2.352s0.869-1.213,1.504-1.592s1.336-0.568,2.104-0.568
		C185.416,333.125,186.021,333.261,186.549,333.533z M187.413,336.085c-0.251-0.448-0.579-0.789-0.984-1.024
		c-0.406-0.234-0.843-0.352-1.312-0.352c-0.47,0-0.907,0.115-1.312,0.344c-0.406,0.229-0.734,0.566-0.984,1.008
		c-0.25,0.443-0.376,0.969-0.376,1.576c0,0.608,0.125,1.142,0.376,1.6c0.25,0.459,0.582,0.809,0.992,1.049s0.845,0.359,1.304,0.359
		c0.469,0,0.906-0.117,1.312-0.352c0.405-0.234,0.733-0.578,0.984-1.032c0.25-0.453,0.376-0.983,0.376-1.592
		S187.664,336.533,187.413,336.085z"/>
	<path fill="#48B5A9" d="M200.045,338.357h-6.736c0.053,0.703,0.314,1.27,0.784,1.695c0.469,0.427,1.045,0.641,1.728,0.641
		c0.981,0,1.674-0.411,2.08-1.232h1.968c-0.267,0.811-0.75,1.475-1.448,1.992s-1.565,0.775-2.6,0.775
		c-0.843,0-1.598-0.189-2.264-0.567c-0.667-0.379-1.189-0.912-1.568-1.601c-0.379-0.688-0.568-1.484-0.568-2.392
		c0-0.906,0.184-1.704,0.552-2.392c0.368-0.688,0.885-1.219,1.552-1.592c0.667-0.374,1.432-0.561,2.296-0.561
		c0.832,0,1.573,0.182,2.224,0.544c0.651,0.362,1.157,0.872,1.52,1.528s0.544,1.41,0.544,2.264
		C200.109,337.791,200.088,338.09,200.045,338.357z M198.205,336.885c-0.011-0.672-0.25-1.211-0.72-1.615
		c-0.469-0.406-1.05-0.608-1.744-0.608c-0.629,0-1.168,0.2-1.616,0.6c-0.448,0.4-0.715,0.942-0.8,1.624H198.205z"/>
	<path fill="#48B5A9" d="M214.437,333.557c0.549,0.288,0.981,0.715,1.296,1.28c0.314,0.565,0.472,1.248,0.472,2.048v5.2h-1.808
		v-4.929c0-0.789-0.197-1.394-0.592-1.815c-0.395-0.421-0.934-0.632-1.616-0.632s-1.224,0.211-1.624,0.632
		c-0.4,0.422-0.6,1.026-0.6,1.815v4.929h-1.808v-4.929c0-0.789-0.198-1.394-0.592-1.815c-0.395-0.421-0.933-0.632-1.616-0.632
		s-1.224,0.211-1.624,0.632c-0.4,0.422-0.6,1.026-0.6,1.815v4.929h-1.824v-8.815h1.824v1.008c0.298-0.363,0.677-0.646,1.136-0.848
		c0.458-0.203,0.949-0.305,1.472-0.305c0.704,0,1.333,0.149,1.888,0.447c0.555,0.299,0.981,0.731,1.28,1.297
		c0.267-0.533,0.683-0.957,1.248-1.271c0.565-0.315,1.173-0.473,1.824-0.473C213.266,333.125,213.887,333.27,214.437,333.557z"/>
	<path fill="#48B5A9" d="M226.54,338.357h-6.736c0.053,0.703,0.314,1.27,0.784,1.695c0.469,0.427,1.045,0.641,1.728,0.641
		c0.981,0,1.674-0.411,2.08-1.232h1.968c-0.267,0.811-0.75,1.475-1.448,1.992s-1.565,0.775-2.6,0.775
		c-0.843,0-1.598-0.189-2.264-0.567c-0.667-0.379-1.189-0.912-1.568-1.601c-0.379-0.688-0.568-1.484-0.568-2.392
		c0-0.906,0.184-1.704,0.552-2.392c0.368-0.688,0.885-1.219,1.552-1.592c0.667-0.374,1.432-0.561,2.296-0.561
		c0.832,0,1.573,0.182,2.224,0.544c0.651,0.362,1.157,0.872,1.52,1.528s0.544,1.41,0.544,2.264
		C226.604,337.791,226.583,338.09,226.54,338.357z M224.7,336.885c-0.011-0.672-0.25-1.211-0.72-1.615
		c-0.469-0.406-1.05-0.608-1.744-0.608c-0.629,0-1.168,0.2-1.616,0.6c-0.448,0.4-0.715,0.942-0.8,1.624H224.7z"/>
	<path fill="#48B5A9" d="M234.709,333.557c0.549,0.288,0.979,0.715,1.288,1.28c0.31,0.565,0.464,1.248,0.464,2.048v5.2h-1.808
		v-4.929c0-0.789-0.198-1.394-0.592-1.815c-0.395-0.421-0.933-0.632-1.616-0.632s-1.224,0.211-1.624,0.632
		c-0.4,0.422-0.6,1.026-0.6,1.815v4.929h-1.824v-8.815h1.824v1.008c0.298-0.363,0.68-0.646,1.144-0.848
		c0.464-0.203,0.958-0.305,1.48-0.305C233.538,333.125,234.159,333.27,234.709,333.557z"/>
	<path fill="#48B5A9" d="M240.908,334.757v4.88c0,0.331,0.077,0.568,0.232,0.713c0.154,0.144,0.418,0.215,0.792,0.215h1.12v1.521
		h-1.44c-0.822,0-1.451-0.192-1.888-0.576c-0.438-0.384-0.656-1.008-0.656-1.872v-4.88h-1.04v-1.487h1.04v-2.192h1.84v2.192h2.144
		v1.487H240.908z"/>
	<path fill="#48B5A9" d="M256.076,330.965v1.488h-2.96v9.632h-1.824v-9.632h-2.976v-1.488H256.076z"/>
	<path fill="#48B5A9" d="M265.932,338.357h-6.736c0.053,0.703,0.314,1.27,0.784,1.695c0.469,0.427,1.045,0.641,1.728,0.641
		c0.981,0,1.674-0.411,2.08-1.232h1.968c-0.267,0.811-0.75,1.475-1.448,1.992s-1.565,0.775-2.6,0.775
		c-0.843,0-1.598-0.189-2.264-0.567c-0.667-0.379-1.189-0.912-1.568-1.601c-0.379-0.688-0.568-1.484-0.568-2.392
		c0-0.906,0.184-1.704,0.552-2.392c0.368-0.688,0.885-1.219,1.552-1.592c0.667-0.374,1.432-0.561,2.296-0.561
		c0.832,0,1.573,0.182,2.224,0.544c0.651,0.362,1.157,0.872,1.52,1.528s0.544,1.41,0.544,2.264
		C265.996,337.791,265.974,338.09,265.932,338.357z M264.092,336.885c-0.011-0.672-0.25-1.211-0.72-1.615
		c-0.469-0.406-1.05-0.608-1.744-0.608c-0.629,0-1.168,0.2-1.616,0.6c-0.448,0.4-0.715,0.942-0.8,1.624H264.092z"/>
	<path fill="#48B5A9" d="M267.732,335.285c0.368-0.683,0.869-1.213,1.504-1.592s1.336-0.568,2.104-0.568
		c0.693,0,1.298,0.136,1.816,0.408c0.518,0.271,0.931,0.61,1.24,1.016v-1.279h1.84v8.815h-1.84v-1.312
		c-0.31,0.416-0.731,0.762-1.264,1.039s-1.142,0.416-1.824,0.416c-0.758,0-1.451-0.193-2.08-0.584
		c-0.629-0.389-1.128-0.933-1.496-1.631c-0.368-0.699-0.552-1.491-0.552-2.377C267.18,336.752,267.364,335.968,267.732,335.285z
		 M274.02,336.085c-0.251-0.448-0.579-0.789-0.984-1.024c-0.406-0.234-0.843-0.352-1.312-0.352c-0.47,0-0.907,0.115-1.312,0.344
		c-0.406,0.229-0.734,0.566-0.984,1.008c-0.25,0.443-0.376,0.969-0.376,1.576c0,0.608,0.125,1.142,0.376,1.6
		c0.25,0.459,0.582,0.809,0.992,1.049s0.845,0.359,1.304,0.359c0.469,0,0.906-0.117,1.312-0.352
		c0.405-0.234,0.733-0.578,0.984-1.032c0.25-0.453,0.376-0.983,0.376-1.592S274.271,336.533,274.02,336.085z"/>
	<path fill="#48B5A9" d="M291.172,333.557c0.549,0.288,0.981,0.715,1.296,1.28c0.314,0.565,0.472,1.248,0.472,2.048v5.2h-1.808
		v-4.929c0-0.789-0.197-1.394-0.592-1.815c-0.395-0.421-0.934-0.632-1.616-0.632s-1.224,0.211-1.624,0.632
		c-0.4,0.422-0.6,1.026-0.6,1.815v4.929h-1.808v-4.929c0-0.789-0.198-1.394-0.592-1.815c-0.395-0.421-0.933-0.632-1.616-0.632
		s-1.224,0.211-1.624,0.632c-0.4,0.422-0.6,1.026-0.6,1.815v4.929h-1.824v-8.815h1.824v1.008c0.298-0.363,0.677-0.646,1.136-0.848
		c0.458-0.203,0.949-0.305,1.472-0.305c0.704,0,1.333,0.149,1.888,0.447c0.555,0.299,0.981,0.731,1.28,1.297
		c0.267-0.533,0.683-0.957,1.248-1.271c0.565-0.315,1.173-0.473,1.824-0.473C290.001,333.125,290.622,333.27,291.172,333.557z"/>
</g>
<g>
	<path fill="#48B5A9" d="M399.152,333.572c0.507-0.863,1.194-1.537,2.063-2.023c0.869-0.485,1.822-0.729,2.856-0.729
		c1.185,0,2.237,0.291,3.16,0.873c0.923,0.581,1.592,1.405,2.008,2.472h-2.192c-0.287-0.587-0.688-1.024-1.199-1.312
		c-0.512-0.289-1.104-0.433-1.776-0.433c-0.735,0-1.392,0.165-1.968,0.496s-1.027,0.806-1.352,1.424
		c-0.326,0.618-0.488,1.339-0.488,2.16s0.162,1.542,0.488,2.16c0.324,0.618,0.775,1.096,1.352,1.432
		c0.576,0.337,1.232,0.505,1.968,0.505c0.672,0,1.265-0.145,1.776-0.433s0.912-0.726,1.199-1.312h2.192
		c-0.416,1.066-1.085,1.887-2.008,2.463s-1.976,0.865-3.16,0.865c-1.046,0-2-0.243-2.864-0.729c-0.863-0.485-1.549-1.16-2.056-2.023
		c-0.507-0.865-0.761-1.841-0.761-2.929S398.645,334.438,399.152,333.572z"/>
	<path fill="#48B5A9" d="M419.383,338.357h-6.736c0.054,0.703,0.314,1.27,0.785,1.695c0.469,0.427,1.045,0.641,1.728,0.641
		c0.981,0,1.675-0.411,2.079-1.232h1.969c-0.267,0.811-0.75,1.475-1.448,1.992s-1.565,0.775-2.6,0.775
		c-0.843,0-1.598-0.189-2.265-0.567c-0.666-0.379-1.189-0.912-1.567-1.601c-0.379-0.688-0.568-1.484-0.568-2.392
		c0-0.906,0.185-1.704,0.552-2.392c0.369-0.688,0.886-1.219,1.553-1.592c0.666-0.374,1.432-0.561,2.296-0.561
		c0.832,0,1.573,0.182,2.224,0.544s1.157,0.872,1.52,1.528c0.363,0.656,0.545,1.41,0.545,2.264
		C419.448,337.791,419.426,338.09,419.383,338.357z M417.543,336.885c-0.011-0.672-0.25-1.211-0.721-1.615
		c-0.469-0.406-1.05-0.608-1.743-0.608c-0.63,0-1.168,0.2-1.616,0.6c-0.447,0.4-0.715,0.942-0.8,1.624H417.543z"/>
	<path fill="#48B5A9" d="M424.127,333.501c0.442-0.251,0.969-0.376,1.576-0.376v1.889h-0.464c-0.715,0-1.257,0.181-1.624,0.543
		c-0.368,0.363-0.553,0.992-0.553,1.889v4.64h-1.823v-8.815h1.823v1.279C423.33,334.102,423.684,333.752,424.127,333.501z"/>
	<path fill="#48B5A9" d="M429.511,334.757v4.88c0,0.331,0.077,0.568,0.231,0.713c0.154,0.144,0.419,0.215,0.793,0.215h1.119v1.521
		h-1.439c-0.822,0-1.451-0.192-1.889-0.576s-0.656-1.008-0.656-1.872v-4.88h-1.039v-1.487h1.039v-2.192h1.841v2.192h2.144v1.487
		H429.511z"/>
	<path fill="#48B5A9" d="M433.431,331.766c-0.224-0.225-0.336-0.502-0.336-0.832c0-0.331,0.112-0.608,0.336-0.832
		c0.224-0.225,0.501-0.336,0.832-0.336c0.32,0,0.593,0.111,0.815,0.336c0.225,0.224,0.336,0.501,0.336,0.832
		c0,0.33-0.111,0.607-0.336,0.832c-0.223,0.223-0.495,0.336-0.815,0.336C433.932,332.102,433.655,331.988,433.431,331.766z
		 M435.158,333.27v8.815h-1.823v-8.815H435.158z"/>
	<path fill="#48B5A9" d="M441.254,334.757h-1.631v7.328h-1.841v-7.328h-1.04v-1.487h1.04v-0.625c0-1.013,0.27-1.752,0.808-2.215
		c0.539-0.465,1.385-0.697,2.537-0.697v1.521c-0.555,0-0.944,0.104-1.168,0.312c-0.225,0.209-0.336,0.568-0.336,1.08v0.625h1.631
		V334.757z"/>
	<path fill="#48B5A9" d="M442.967,331.766c-0.225-0.225-0.336-0.502-0.336-0.832c0-0.331,0.111-0.608,0.336-0.832
		c0.224-0.225,0.501-0.336,0.832-0.336c0.32,0,0.592,0.111,0.815,0.336c0.224,0.224,0.336,0.501,0.336,0.832
		c0,0.33-0.112,0.607-0.336,0.832c-0.224,0.223-0.495,0.336-0.815,0.336C443.468,332.102,443.191,331.988,442.967,331.766z
		 M444.695,333.27v8.815h-1.823v-8.815H444.695z"/>
	<path fill="#48B5A9" d="M447.039,335.277c0.367-0.688,0.877-1.219,1.527-1.592c0.65-0.374,1.397-0.561,2.24-0.561
		c1.066,0,1.949,0.254,2.648,0.76c0.697,0.507,1.17,1.229,1.416,2.168h-1.969c-0.16-0.438-0.416-0.778-0.768-1.023
		c-0.352-0.246-0.795-0.368-1.328-0.368c-0.747,0-1.342,0.264-1.784,0.792c-0.442,0.527-0.664,1.267-0.664,2.216
		c0,0.95,0.222,1.69,0.664,2.224s1.037,0.801,1.784,0.801c1.056,0,1.754-0.465,2.096-1.393h1.969
		c-0.256,0.896-0.736,1.608-1.44,2.137c-0.704,0.527-1.579,0.791-2.624,0.791c-0.843,0-1.59-0.189-2.24-0.567
		c-0.65-0.379-1.16-0.912-1.527-1.601c-0.369-0.688-0.553-1.484-0.553-2.392C446.487,336.763,446.67,335.965,447.039,335.277z"/>
	<path fill="#48B5A9" d="M456.639,335.285c0.367-0.683,0.869-1.213,1.504-1.592s1.336-0.568,2.104-0.568
		c0.693,0,1.299,0.136,1.816,0.408c0.518,0.271,0.93,0.61,1.24,1.016v-1.279h1.84v8.815h-1.84v-1.312
		c-0.311,0.416-0.731,0.762-1.265,1.039s-1.142,0.416-1.823,0.416c-0.758,0-1.451-0.193-2.08-0.584
		c-0.63-0.389-1.129-0.933-1.496-1.631c-0.369-0.699-0.553-1.491-0.553-2.377C456.086,336.752,456.27,335.968,456.639,335.285z
		 M462.926,336.085c-0.25-0.448-0.578-0.789-0.983-1.024c-0.405-0.234-0.843-0.352-1.312-0.352c-0.471,0-0.907,0.115-1.313,0.344
		c-0.406,0.229-0.734,0.566-0.984,1.008c-0.25,0.443-0.376,0.969-0.376,1.576c0,0.608,0.126,1.142,0.376,1.6
		c0.25,0.459,0.582,0.809,0.992,1.049s0.846,0.359,1.305,0.359c0.469,0,0.906-0.117,1.312-0.352s0.733-0.578,0.983-1.032
		c0.251-0.453,0.377-0.983,0.377-1.592S463.177,336.533,462.926,336.085z"/>
	<path fill="#48B5A9" d="M469.67,334.757v4.88c0,0.331,0.077,0.568,0.232,0.713c0.154,0.144,0.418,0.215,0.791,0.215h1.121v1.521
		h-1.44c-0.821,0-1.451-0.192-1.888-0.576c-0.438-0.384-0.656-1.008-0.656-1.872v-4.88h-1.04v-1.487h1.04v-2.192h1.84v2.192h2.145
		v1.487H469.67z"/>
	<path fill="#48B5A9" d="M473.59,331.766c-0.225-0.225-0.336-0.502-0.336-0.832c0-0.331,0.111-0.608,0.336-0.832
		c0.225-0.225,0.502-0.336,0.832-0.336c0.32,0,0.592,0.111,0.816,0.336c0.224,0.224,0.336,0.501,0.336,0.832
		c0,0.33-0.112,0.607-0.336,0.832c-0.225,0.223-0.496,0.336-0.816,0.336C474.092,332.102,473.815,331.988,473.59,331.766z
		 M475.319,333.27v8.815h-1.824v-8.815H475.319z"/>
	<path fill="#48B5A9" d="M479.285,341.661c-0.672-0.379-1.199-0.912-1.584-1.601c-0.384-0.688-0.576-1.484-0.576-2.392
		c0-0.896,0.197-1.69,0.593-2.384c0.395-0.693,0.933-1.227,1.616-1.6c0.682-0.374,1.445-0.561,2.287-0.561
		c0.843,0,1.605,0.187,2.289,0.561c0.682,0.373,1.221,0.906,1.615,1.6s0.592,1.488,0.592,2.384s-0.202,1.69-0.607,2.384
		c-0.406,0.693-0.957,1.229-1.656,1.608c-0.699,0.378-1.469,0.567-2.313,0.567C480.709,342.229,479.957,342.039,479.285,341.661z
		 M482.862,340.309c0.41-0.224,0.744-0.56,1-1.008c0.256-0.447,0.385-0.992,0.385-1.632s-0.123-1.181-0.369-1.624
		c-0.245-0.442-0.57-0.775-0.976-1s-0.843-0.336-1.312-0.336c-0.47,0-0.904,0.111-1.305,0.336c-0.399,0.225-0.717,0.558-0.951,1
		c-0.235,0.443-0.353,0.984-0.353,1.624c0,0.95,0.243,1.683,0.728,2.2c0.486,0.518,1.097,0.775,1.832,0.775
		C482.011,340.645,482.451,340.533,482.862,340.309z"/>
	<path fill="#48B5A9" d="M494.239,333.557c0.549,0.288,0.979,0.715,1.287,1.28c0.31,0.565,0.465,1.248,0.465,2.048v5.2h-1.809
		v-4.929c0-0.789-0.197-1.394-0.592-1.815c-0.395-0.421-0.934-0.632-1.616-0.632s-1.224,0.211-1.624,0.632
		c-0.4,0.422-0.6,1.026-0.6,1.815v4.929h-1.824v-8.815h1.824v1.008c0.298-0.363,0.68-0.646,1.144-0.848
		c0.464-0.203,0.958-0.305,1.479-0.305C493.067,333.125,493.688,333.27,494.239,333.557z"/>
	<path fill="#48B5A9" d="M504.23,326.98l-4.353,17.904h-1.791l4.336-17.904H504.23z"/>
	<path fill="#48B5A9" d="M508.358,332.438v3.264h3.84v1.488h-3.84v3.408h4.32v1.487h-6.145v-11.136h6.145v1.488H508.358z"/>
	<path fill="#48B5A9" d="M518.324,340.453l2.496-7.184h1.937l-3.36,8.815h-2.176l-3.344-8.815h1.951L518.324,340.453z"/>
	<path fill="#48B5A9" d="M524.076,335.285c0.369-0.683,0.869-1.213,1.504-1.592s1.336-0.568,2.104-0.568
		c0.693,0,1.298,0.136,1.815,0.408c0.518,0.271,0.932,0.61,1.24,1.016v-1.279h1.84v8.815h-1.84v-1.312
		c-0.309,0.416-0.73,0.762-1.264,1.039s-1.142,0.416-1.824,0.416c-0.758,0-1.451-0.193-2.08-0.584
		c-0.629-0.389-1.127-0.933-1.496-1.631c-0.367-0.699-0.552-1.491-0.552-2.377C523.525,336.752,523.709,335.968,524.076,335.285z
		 M530.365,336.085c-0.252-0.448-0.58-0.789-0.984-1.024c-0.406-0.234-0.843-0.352-1.313-0.352c-0.469,0-0.906,0.115-1.312,0.344
		c-0.405,0.229-0.733,0.566-0.984,1.008c-0.251,0.443-0.376,0.969-0.376,1.576c0,0.608,0.125,1.142,0.376,1.6
		c0.251,0.459,0.581,0.809,0.992,1.049s0.845,0.359,1.304,0.359c0.47,0,0.906-0.117,1.313-0.352
		c0.404-0.234,0.732-0.578,0.984-1.032c0.25-0.453,0.375-0.983,0.375-1.592S530.615,336.533,530.365,336.085z"/>
	<path fill="#48B5A9" d="M536.805,330.245v11.84h-1.824v-11.84H536.805z"/>
	<path fill="#48B5A9" d="M547.19,333.27v8.815h-1.824v-1.04c-0.289,0.363-0.664,0.648-1.129,0.855
		c-0.463,0.209-0.957,0.313-1.479,0.313c-0.693,0-1.315-0.145-1.864-0.432c-0.549-0.288-0.98-0.715-1.296-1.28
		c-0.314-0.565-0.472-1.248-0.472-2.048v-5.184h1.809v4.912c0,0.789,0.197,1.395,0.592,1.815s0.933,0.632,1.615,0.632
		s1.225-0.211,1.624-0.632c0.4-0.421,0.601-1.026,0.601-1.815v-4.912H547.19z"/>
	<path fill="#48B5A9" d="M549.533,335.285c0.367-0.683,0.869-1.213,1.504-1.592s1.336-0.568,2.104-0.568
		c0.693,0,1.299,0.136,1.816,0.408c0.518,0.271,0.93,0.61,1.24,1.016v-1.279h1.84v8.815h-1.84v-1.312
		c-0.311,0.416-0.731,0.762-1.265,1.039s-1.142,0.416-1.823,0.416c-0.758,0-1.451-0.193-2.08-0.584
		c-0.63-0.389-1.129-0.933-1.496-1.631c-0.369-0.699-0.553-1.491-0.553-2.377C548.981,336.752,549.164,335.968,549.533,335.285z
		 M555.821,336.085c-0.25-0.448-0.578-0.789-0.983-1.024c-0.405-0.234-0.843-0.352-1.312-0.352c-0.471,0-0.907,0.115-1.313,0.344
		c-0.406,0.229-0.734,0.566-0.984,1.008c-0.25,0.443-0.376,0.969-0.376,1.576c0,0.608,0.126,1.142,0.376,1.6
		c0.25,0.459,0.582,0.809,0.992,1.049s0.846,0.359,1.305,0.359c0.469,0,0.906-0.117,1.312-0.352s0.733-0.578,0.983-1.032
		c0.251-0.453,0.377-0.983,0.377-1.592S556.072,336.533,555.821,336.085z"/>
	<path fill="#48B5A9" d="M562.565,334.757v4.88c0,0.331,0.077,0.568,0.232,0.713c0.154,0.144,0.418,0.215,0.791,0.215h1.121v1.521
		h-1.44c-0.821,0-1.451-0.192-1.888-0.576c-0.438-0.384-0.656-1.008-0.656-1.872v-4.88h-1.04v-1.487h1.04v-2.192h1.84v2.192h2.145
		v1.487H562.565z"/>
	<path fill="#48B5A9" d="M566.485,331.766c-0.225-0.225-0.336-0.502-0.336-0.832c0-0.331,0.111-0.608,0.336-0.832
		c0.225-0.225,0.502-0.336,0.832-0.336c0.32,0,0.592,0.111,0.816,0.336c0.224,0.224,0.336,0.501,0.336,0.832
		c0,0.33-0.112,0.607-0.336,0.832c-0.225,0.223-0.496,0.336-0.816,0.336C566.987,332.102,566.709,331.988,566.485,331.766z
		 M568.213,333.27v8.815h-1.824v-8.815H568.213z"/>
	<path fill="#48B5A9" d="M572.18,341.661c-0.672-0.379-1.199-0.912-1.584-1.601c-0.384-0.688-0.576-1.484-0.576-2.392
		c0-0.896,0.197-1.69,0.593-2.384c0.395-0.693,0.933-1.227,1.616-1.6c0.682-0.374,1.445-0.561,2.287-0.561
		c0.843,0,1.605,0.187,2.289,0.561c0.682,0.373,1.221,0.906,1.615,1.6s0.592,1.488,0.592,2.384s-0.202,1.69-0.607,2.384
		c-0.406,0.693-0.957,1.229-1.656,1.608c-0.699,0.378-1.469,0.567-2.313,0.567C573.604,342.229,572.852,342.039,572.18,341.661z
		 M575.756,340.309c0.41-0.224,0.744-0.56,1-1.008c0.256-0.447,0.385-0.992,0.385-1.632s-0.123-1.181-0.369-1.624
		c-0.245-0.442-0.57-0.775-0.976-1s-0.843-0.336-1.312-0.336c-0.47,0-0.904,0.111-1.305,0.336c-0.399,0.225-0.717,0.558-0.951,1
		c-0.235,0.443-0.353,0.984-0.353,1.624c0,0.95,0.243,1.683,0.728,2.2c0.486,0.518,1.097,0.775,1.832,0.775
		C574.906,340.645,575.346,340.533,575.756,340.309z"/>
	<path fill="#48B5A9" d="M587.133,333.557c0.549,0.288,0.979,0.715,1.287,1.28c0.31,0.565,0.465,1.248,0.465,2.048v5.2h-1.809
		v-4.929c0-0.789-0.197-1.394-0.592-1.815c-0.395-0.421-0.934-0.632-1.616-0.632s-1.224,0.211-1.624,0.632
		c-0.4,0.422-0.6,1.026-0.6,1.815v4.929h-1.824v-8.815h1.824v1.008c0.298-0.363,0.68-0.646,1.144-0.848
		c0.464-0.203,0.958-0.305,1.479-0.305C585.961,333.125,586.582,333.27,587.133,333.557z"/>
	<path fill="#48B5A9" d="M602.547,330.965v1.488h-2.959v9.632h-1.824v-9.632h-2.977v-1.488H602.547z"/>
	<path fill="#48B5A9" d="M612.404,338.357h-6.735c0.053,0.703,0.314,1.27,0.783,1.695c0.47,0.427,1.045,0.641,1.729,0.641
		c0.98,0,1.674-0.411,2.08-1.232h1.968c-0.267,0.811-0.749,1.475-1.448,1.992s-1.565,0.775-2.6,0.775
		c-0.843,0-1.598-0.189-2.264-0.567c-0.668-0.379-1.189-0.912-1.568-1.601c-0.379-0.688-0.568-1.484-0.568-2.392
		c0-0.906,0.184-1.704,0.553-2.392c0.367-0.688,0.885-1.219,1.551-1.592c0.667-0.374,1.433-0.561,2.297-0.561
		c0.832,0,1.573,0.182,2.224,0.544c0.651,0.362,1.157,0.872,1.521,1.528c0.362,0.656,0.543,1.41,0.543,2.264
		C612.467,337.791,612.446,338.09,612.404,338.357z M610.564,336.885c-0.011-0.672-0.251-1.211-0.72-1.615
		c-0.47-0.406-1.051-0.608-1.744-0.608c-0.629,0-1.168,0.2-1.616,0.6c-0.448,0.4-0.715,0.942-0.8,1.624H610.564z"/>
	<path fill="#48B5A9" d="M614.203,335.285c0.369-0.683,0.869-1.213,1.504-1.592s1.336-0.568,2.104-0.568
		c0.693,0,1.298,0.136,1.815,0.408c0.518,0.271,0.932,0.61,1.24,1.016v-1.279h1.84v8.815h-1.84v-1.312
		c-0.309,0.416-0.73,0.762-1.264,1.039s-1.142,0.416-1.824,0.416c-0.758,0-1.451-0.193-2.08-0.584
		c-0.629-0.389-1.127-0.933-1.496-1.631c-0.367-0.699-0.552-1.491-0.552-2.377C613.652,336.752,613.836,335.968,614.203,335.285z
		 M620.492,336.085c-0.252-0.448-0.58-0.789-0.984-1.024c-0.406-0.234-0.843-0.352-1.313-0.352c-0.469,0-0.906,0.115-1.312,0.344
		c-0.405,0.229-0.733,0.566-0.984,1.008c-0.251,0.443-0.376,0.969-0.376,1.576c0,0.608,0.125,1.142,0.376,1.6
		c0.251,0.459,0.581,0.809,0.992,1.049s0.845,0.359,1.304,0.359c0.47,0,0.906-0.117,1.313-0.352
		c0.404-0.234,0.732-0.578,0.984-1.032c0.25-0.453,0.375-0.983,0.375-1.592S620.742,336.533,620.492,336.085z"/>
	<path fill="#48B5A9" d="M637.643,333.557c0.55,0.288,0.982,0.715,1.297,1.28s0.472,1.248,0.472,2.048v5.2h-1.808v-4.929
		c0-0.789-0.197-1.394-0.592-1.815c-0.395-0.421-0.934-0.632-1.617-0.632c-0.682,0-1.223,0.211-1.623,0.632
		c-0.4,0.422-0.6,1.026-0.6,1.815v4.929h-1.809v-4.929c0-0.789-0.197-1.394-0.592-1.815c-0.395-0.421-0.934-0.632-1.616-0.632
		s-1.224,0.211-1.624,0.632c-0.4,0.422-0.6,1.026-0.6,1.815v4.929h-1.824v-8.815h1.824v1.008c0.298-0.363,0.677-0.646,1.136-0.848
		c0.458-0.203,0.949-0.305,1.472-0.305c0.704,0,1.334,0.149,1.889,0.447c0.555,0.299,0.98,0.731,1.279,1.297
		c0.267-0.533,0.683-0.957,1.248-1.271c0.565-0.315,1.174-0.473,1.824-0.473C636.473,333.125,637.094,333.27,637.643,333.557z"/>
</g>
<g>
	<g>
		<g id="Ellipse_4_4_">
			<g>
				<path fill="#FFFFFF" stroke="#51C3CE" stroke-width="2" stroke-miterlimit="10" d="M743.029,182.074H557.03
					c-12.15,0-22,9.851-22,22s9.85,22,22,22h185.999c12.15,0,22-9.851,22-22S755.179,182.074,743.029,182.074z"/>
			</g>
		</g>
	</g>
	<g>
		<path fill="#51C3CE" d="M553.799,201.665c0.506-0.863,1.193-1.537,2.063-2.023c0.869-0.485,1.821-0.728,2.856-0.728
			c1.184,0,2.236,0.291,3.16,0.872c0.922,0.582,1.592,1.405,2.008,2.472h-2.192c-0.288-0.587-0.688-1.023-1.2-1.312
			s-1.104-0.433-1.775-0.433c-0.736,0-1.393,0.166-1.969,0.496c-0.576,0.331-1.026,0.806-1.352,1.424
			c-0.326,0.618-0.488,1.339-0.488,2.16s0.162,1.542,0.488,2.16c0.325,0.618,0.775,1.096,1.352,1.432
			c0.576,0.337,1.232,0.505,1.969,0.505c0.672,0,1.264-0.145,1.775-0.433s0.912-0.726,1.2-1.312h2.192
			c-0.416,1.066-1.086,1.887-2.008,2.463c-0.924,0.576-1.977,0.865-3.16,0.865c-1.046,0-2-0.243-2.864-0.729s-1.55-1.16-2.056-2.023
			c-0.508-0.865-0.761-1.841-0.761-2.929S553.291,202.53,553.799,201.665z"/>
		<path fill="#51C3CE" d="M574.031,206.45h-6.735c0.053,0.703,0.314,1.27,0.783,1.695c0.47,0.427,1.045,0.641,1.729,0.641
			c0.98,0,1.674-0.411,2.08-1.232h1.968c-0.267,0.811-0.749,1.475-1.448,1.992s-1.565,0.775-2.6,0.775
			c-0.843,0-1.598-0.189-2.264-0.567c-0.668-0.379-1.189-0.912-1.568-1.601c-0.379-0.688-0.568-1.484-0.568-2.392
			c0-0.906,0.184-1.704,0.553-2.392c0.367-0.688,0.885-1.219,1.551-1.592c0.667-0.374,1.433-0.561,2.297-0.561
			c0.832,0,1.573,0.182,2.224,0.544c0.651,0.362,1.157,0.872,1.521,1.528c0.362,0.656,0.543,1.41,0.543,2.264
			C574.094,205.884,574.073,206.183,574.031,206.45z M572.191,204.978c-0.011-0.672-0.251-1.211-0.72-1.615
			c-0.47-0.406-1.051-0.608-1.744-0.608c-0.629,0-1.168,0.2-1.616,0.6c-0.448,0.4-0.715,0.942-0.8,1.624H572.191z"/>
		<path fill="#51C3CE" d="M578.774,201.594c0.443-0.25,0.969-0.376,1.576-0.376v1.889h-0.463c-0.715,0-1.257,0.181-1.625,0.543
			c-0.367,0.363-0.552,0.992-0.552,1.889v4.64h-1.823v-8.815h1.823v1.279C577.977,202.194,578.331,201.845,578.774,201.594z"/>
		<path fill="#51C3CE" d="M584.158,202.85v4.88c0,0.331,0.077,0.568,0.232,0.713c0.154,0.144,0.418,0.215,0.791,0.215h1.121v1.521
			h-1.44c-0.821,0-1.451-0.192-1.888-0.576c-0.438-0.384-0.656-1.008-0.656-1.872v-4.88h-1.04v-1.487h1.04v-2.192h1.84v2.192h2.145
			v1.487H584.158z"/>
		<path fill="#51C3CE" d="M588.078,199.858c-0.225-0.224-0.336-0.501-0.336-0.832s0.111-0.608,0.336-0.832
			c0.224-0.224,0.501-0.336,0.832-0.336c0.32,0,0.592,0.112,0.815,0.336s0.336,0.501,0.336,0.832s-0.112,0.608-0.336,0.832
			c-0.224,0.224-0.495,0.336-0.815,0.336C588.579,200.194,588.302,200.082,588.078,199.858z M589.806,201.362v8.815h-1.823v-8.815
			H589.806z"/>
		<path fill="#51C3CE" d="M595.903,202.85h-1.633v7.328h-1.84v-7.328h-1.04v-1.487h1.04v-0.624c0-1.013,0.27-1.752,0.809-2.216
			c0.538-0.464,1.384-0.696,2.535-0.696v1.52c-0.555,0-0.943,0.104-1.168,0.312c-0.224,0.208-0.336,0.568-0.336,1.08v0.624h1.633
			V202.85z"/>
		<path fill="#51C3CE" d="M597.614,199.858c-0.225-0.224-0.336-0.501-0.336-0.832s0.111-0.608,0.336-0.832s0.502-0.336,0.832-0.336
			c0.32,0,0.592,0.112,0.816,0.336c0.224,0.224,0.336,0.501,0.336,0.832s-0.112,0.608-0.336,0.832
			c-0.225,0.224-0.496,0.336-0.816,0.336C598.115,200.194,597.838,200.082,597.614,199.858z M599.342,201.362v8.815h-1.824v-8.815
			H599.342z"/>
		<path fill="#51C3CE" d="M601.686,203.37c0.367-0.688,0.877-1.219,1.527-1.592c0.65-0.374,1.397-0.561,2.24-0.561
			c1.066,0,1.949,0.254,2.648,0.76c0.697,0.507,1.17,1.229,1.416,2.168h-1.969c-0.16-0.438-0.416-0.778-0.768-1.023
			c-0.352-0.246-0.795-0.368-1.328-0.368c-0.747,0-1.342,0.264-1.784,0.792c-0.442,0.527-0.664,1.267-0.664,2.216
			c0,0.95,0.222,1.69,0.664,2.224s1.037,0.801,1.784,0.801c1.056,0,1.754-0.465,2.096-1.393h1.969
			c-0.256,0.896-0.736,1.608-1.44,2.137c-0.704,0.527-1.579,0.791-2.624,0.791c-0.843,0-1.59-0.189-2.24-0.567
			c-0.65-0.379-1.16-0.912-1.527-1.601c-0.369-0.688-0.553-1.484-0.553-2.392C601.133,204.855,601.317,204.058,601.686,203.37z"/>
		<path fill="#51C3CE" d="M611.285,203.378c0.368-0.683,0.869-1.213,1.504-1.592s1.336-0.568,2.104-0.568
			c0.693,0,1.299,0.136,1.816,0.408c0.518,0.271,0.931,0.61,1.24,1.016v-1.279h1.84v8.815h-1.84v-1.312
			c-0.31,0.416-0.73,0.762-1.264,1.039s-1.143,0.416-1.824,0.416c-0.758,0-1.451-0.193-2.08-0.584
			c-0.629-0.389-1.128-0.933-1.496-1.631c-0.368-0.699-0.553-1.491-0.553-2.377C610.733,204.845,610.917,204.061,611.285,203.378z
			 M617.573,204.178c-0.251-0.448-0.579-0.789-0.983-1.024c-0.406-0.234-0.844-0.352-1.313-0.352c-0.47,0-0.906,0.115-1.313,0.344
			c-0.405,0.229-0.733,0.566-0.984,1.008c-0.25,0.443-0.375,0.969-0.375,1.576c0,0.608,0.125,1.142,0.375,1.6
			c0.251,0.459,0.582,0.809,0.992,1.049c0.411,0.24,0.846,0.359,1.305,0.359c0.469,0,0.906-0.117,1.313-0.352
			c0.404-0.234,0.732-0.578,0.983-1.032c0.251-0.453,0.376-0.983,0.376-1.592S617.824,204.626,617.573,204.178z"/>
		<path fill="#51C3CE" d="M624.318,202.85v4.88c0,0.331,0.077,0.568,0.231,0.713c0.154,0.144,0.419,0.215,0.793,0.215h1.119v1.521
			h-1.439c-0.822,0-1.451-0.192-1.889-0.576s-0.656-1.008-0.656-1.872v-4.88h-1.039v-1.487h1.039v-2.192h1.841v2.192h2.144v1.487
			H624.318z"/>
		<path fill="#51C3CE" d="M628.237,199.858c-0.224-0.224-0.336-0.501-0.336-0.832s0.112-0.608,0.336-0.832
			c0.225-0.224,0.502-0.336,0.832-0.336c0.32,0,0.593,0.112,0.816,0.336c0.225,0.224,0.336,0.501,0.336,0.832
			s-0.111,0.608-0.336,0.832c-0.224,0.224-0.496,0.336-0.816,0.336C628.739,200.194,628.461,200.082,628.237,199.858z
			 M629.965,201.362v8.815h-1.824v-8.815H629.965z"/>
		<path fill="#51C3CE" d="M633.934,209.754c-0.672-0.379-1.201-0.912-1.584-1.601c-0.385-0.688-0.576-1.484-0.576-2.392
			c0-0.896,0.197-1.69,0.592-2.384s0.934-1.227,1.615-1.6c0.684-0.374,1.445-0.561,2.289-0.561c0.842,0,1.605,0.187,2.287,0.561
			c0.684,0.373,1.222,0.906,1.616,1.6s0.593,1.488,0.593,2.384s-0.203,1.69-0.608,2.384s-0.958,1.229-1.656,1.608
			c-0.698,0.378-1.47,0.567-2.312,0.567C635.358,210.321,634.606,210.132,633.934,209.754z M637.51,208.401
			c0.41-0.224,0.743-0.56,1-1.008c0.256-0.447,0.383-0.992,0.383-1.632s-0.122-1.181-0.367-1.624c-0.246-0.442-0.571-0.775-0.977-1
			s-0.843-0.336-1.313-0.336c-0.469,0-0.903,0.111-1.303,0.336c-0.4,0.225-0.719,0.558-0.953,1
			c-0.234,0.443-0.352,0.984-0.352,1.624c0,0.95,0.242,1.683,0.729,2.2c0.484,0.518,1.096,0.775,1.832,0.775
			C636.658,208.737,637.098,208.626,637.51,208.401z"/>
		<path fill="#51C3CE" d="M648.885,201.649c0.549,0.288,0.979,0.715,1.287,1.28c0.311,0.565,0.465,1.248,0.465,2.048v5.2h-1.809
			v-4.929c0-0.789-0.197-1.394-0.592-1.815c-0.395-0.421-0.934-0.632-1.615-0.632c-0.684,0-1.225,0.211-1.625,0.632
			c-0.399,0.422-0.6,1.026-0.6,1.815v4.929h-1.824v-8.815h1.824v1.008c0.299-0.363,0.68-0.646,1.145-0.848
			c0.463-0.203,0.957-0.305,1.479-0.305C647.714,201.218,648.335,201.362,648.885,201.649z"/>
		<path fill="#51C3CE" d="M657.268,201.665c0.507-0.863,1.195-1.537,2.064-2.023c0.869-0.485,1.821-0.728,2.855-0.728
			c1.185,0,2.238,0.291,3.16,0.872c0.923,0.582,1.592,1.405,2.008,2.472h-2.191c-0.288-0.587-0.688-1.023-1.2-1.312
			c-0.512-0.288-1.104-0.433-1.776-0.433c-0.735,0-1.392,0.166-1.967,0.496c-0.576,0.331-1.027,0.806-1.353,1.424
			s-0.488,1.339-0.488,2.16s0.163,1.542,0.488,2.16s0.776,1.096,1.353,1.432c0.575,0.337,1.231,0.505,1.967,0.505
			c0.672,0,1.265-0.145,1.776-0.433c0.513-0.288,0.912-0.726,1.2-1.312h2.191c-0.416,1.066-1.085,1.887-2.008,2.463
			c-0.922,0.576-1.976,0.865-3.16,0.865c-1.045,0-2-0.243-2.863-0.729c-0.864-0.485-1.55-1.16-2.057-2.023
			c-0.506-0.865-0.76-1.841-0.76-2.929S656.762,202.53,657.268,201.665z"/>
		<path fill="#51C3CE" d="M671.053,209.754c-0.672-0.379-1.201-0.912-1.584-1.601c-0.385-0.688-0.576-1.484-0.576-2.392
			c0-0.896,0.197-1.69,0.592-2.384s0.934-1.227,1.615-1.6c0.684-0.374,1.445-0.561,2.289-0.561c0.842,0,1.605,0.187,2.287,0.561
			c0.684,0.373,1.222,0.906,1.616,1.6s0.593,1.488,0.593,2.384s-0.203,1.69-0.608,2.384s-0.958,1.229-1.656,1.608
			c-0.698,0.378-1.47,0.567-2.312,0.567C672.477,210.321,671.725,210.132,671.053,209.754z M674.629,208.401
			c0.41-0.224,0.743-0.56,1-1.008c0.256-0.447,0.383-0.992,0.383-1.632s-0.122-1.181-0.367-1.624c-0.246-0.442-0.571-0.775-0.977-1
			s-0.843-0.336-1.313-0.336c-0.469,0-0.903,0.111-1.303,0.336c-0.4,0.225-0.719,0.558-0.953,1
			c-0.234,0.443-0.352,0.984-0.352,1.624c0,0.95,0.242,1.683,0.729,2.2c0.484,0.518,1.096,0.775,1.832,0.775
			C673.778,208.737,674.217,208.626,674.629,208.401z"/>
		<path fill="#51C3CE" d="M692.229,201.649c0.549,0.288,0.98,0.715,1.296,1.28c0.314,0.565,0.472,1.248,0.472,2.048v5.2h-1.809
			v-4.929c0-0.789-0.197-1.394-0.592-1.815c-0.395-0.421-0.934-0.632-1.615-0.632c-0.684,0-1.225,0.211-1.625,0.632
			c-0.399,0.422-0.6,1.026-0.6,1.815v4.929h-1.808v-4.929c0-0.789-0.198-1.394-0.593-1.815c-0.395-0.421-0.933-0.632-1.615-0.632
			s-1.225,0.211-1.624,0.632c-0.399,0.422-0.601,1.026-0.601,1.815v4.929h-1.823v-8.815h1.823v1.008
			c0.299-0.363,0.678-0.646,1.137-0.848c0.459-0.203,0.949-0.305,1.472-0.305c0.704,0,1.333,0.149,1.888,0.447
			c0.555,0.299,0.982,0.731,1.28,1.297c0.267-0.533,0.683-0.957,1.248-1.271c0.565-0.315,1.173-0.473,1.824-0.473
			C691.058,201.218,691.679,201.362,692.229,201.649z"/>
		<path fill="#51C3CE" d="M708.852,201.649c0.549,0.288,0.981,0.715,1.297,1.28c0.314,0.565,0.471,1.248,0.471,2.048v5.2h-1.808
			v-4.929c0-0.789-0.197-1.394-0.592-1.815c-0.395-0.421-0.934-0.632-1.616-0.632s-1.224,0.211-1.624,0.632
			c-0.399,0.422-0.6,1.026-0.6,1.815v4.929h-1.808v-4.929c0-0.789-0.198-1.394-0.593-1.815c-0.395-0.421-0.933-0.632-1.616-0.632
			c-0.682,0-1.224,0.211-1.623,0.632c-0.4,0.422-0.601,1.026-0.601,1.815v4.929h-1.823v-8.815h1.823v1.008
			c0.298-0.363,0.677-0.646,1.136-0.848c0.459-0.203,0.949-0.305,1.473-0.305c0.703,0,1.333,0.149,1.888,0.447
			c0.555,0.299,0.981,0.731,1.28,1.297c0.266-0.533,0.682-0.957,1.248-1.271c0.564-0.315,1.173-0.473,1.824-0.473
			C707.682,201.218,708.303,201.362,708.852,201.649z"/>
		<path fill="#51C3CE" d="M713.035,199.858c-0.225-0.224-0.336-0.501-0.336-0.832s0.111-0.608,0.336-0.832s0.502-0.336,0.832-0.336
			c0.32,0,0.592,0.112,0.816,0.336c0.224,0.224,0.336,0.501,0.336,0.832s-0.112,0.608-0.336,0.832
			c-0.225,0.224-0.496,0.336-0.816,0.336C713.537,200.194,713.26,200.082,713.035,199.858z M714.764,201.362v8.815h-1.824v-8.815
			H714.764z"/>
		<path fill="#51C3CE" d="M719.291,202.85v4.88c0,0.331,0.078,0.568,0.232,0.713c0.154,0.144,0.418,0.215,0.792,0.215h1.12v1.521
			h-1.439c-0.822,0-1.451-0.192-1.889-0.576s-0.656-1.008-0.656-1.872v-4.88h-1.039v-1.487h1.039v-2.192h1.84v2.192h2.145v1.487
			H719.291z"/>
		<path fill="#51C3CE" d="M725.243,202.85v4.88c0,0.331,0.077,0.568,0.231,0.713c0.154,0.144,0.419,0.215,0.793,0.215h1.119v1.521
			h-1.439c-0.822,0-1.451-0.192-1.889-0.576s-0.656-1.008-0.656-1.872v-4.88h-1.039v-1.487h1.039v-2.192h1.841v2.192h2.144v1.487
			H725.243z"/>
		<path fill="#51C3CE" d="M737.083,206.45h-6.735c0.053,0.703,0.314,1.27,0.783,1.695c0.47,0.427,1.045,0.641,1.729,0.641
			c0.98,0,1.674-0.411,2.08-1.232h1.968c-0.267,0.811-0.749,1.475-1.448,1.992s-1.565,0.775-2.6,0.775
			c-0.843,0-1.598-0.189-2.264-0.567c-0.668-0.379-1.189-0.912-1.568-1.601c-0.379-0.688-0.568-1.484-0.568-2.392
			c0-0.906,0.184-1.704,0.553-2.392c0.367-0.688,0.885-1.219,1.551-1.592c0.667-0.374,1.433-0.561,2.297-0.561
			c0.832,0,1.573,0.182,2.224,0.544c0.651,0.362,1.157,0.872,1.521,1.528c0.362,0.656,0.543,1.41,0.543,2.264
			C737.147,205.884,737.125,206.183,737.083,206.45z M735.243,204.978c-0.011-0.672-0.251-1.211-0.72-1.615
			c-0.47-0.406-1.051-0.608-1.744-0.608c-0.629,0-1.168,0.2-1.616,0.6c-0.448,0.4-0.715,0.942-0.8,1.624H735.243z"/>
		<path fill="#51C3CE" d="M746.955,206.45h-6.736c0.054,0.703,0.314,1.27,0.785,1.695c0.469,0.427,1.045,0.641,1.728,0.641
			c0.981,0,1.675-0.411,2.079-1.232h1.969c-0.267,0.811-0.75,1.475-1.448,1.992s-1.565,0.775-2.6,0.775
			c-0.843,0-1.598-0.189-2.265-0.567c-0.666-0.379-1.189-0.912-1.567-1.601c-0.379-0.688-0.568-1.484-0.568-2.392
			c0-0.906,0.185-1.704,0.552-2.392c0.369-0.688,0.886-1.219,1.553-1.592c0.666-0.374,1.432-0.561,2.296-0.561
			c0.832,0,1.573,0.182,2.224,0.544s1.157,0.872,1.52,1.528c0.363,0.656,0.545,1.41,0.545,2.264
			C747.02,205.884,746.998,206.183,746.955,206.45z M745.115,204.978c-0.011-0.672-0.25-1.211-0.721-1.615
			c-0.469-0.406-1.05-0.608-1.743-0.608c-0.63,0-1.168,0.2-1.616,0.6c-0.447,0.4-0.715,0.942-0.8,1.624H745.115z"/>
	</g>
</g>
</svg>
