<?xml version="1.0" encoding="utf-8"?>
<!-- Generator: Adobe Illustrator 16.0.0, SVG Export Plug-In . SVG Version: 6.00 Build 0)  -->
<!DOCTYPE svg PUBLIC "-//W3C//DTD SVG 1.1//EN" "http://www.w3.org/Graphics/SVG/1.1/DTD/svg11.dtd">
<svg version="1.1" id="Layer_1" xmlns="http://www.w3.org/2000/svg" xmlns:xlink="http://www.w3.org/1999/xlink" x="0px" y="0px"
	 width="320px" height="700px" viewBox="0 0 320 700" enable-background="new 0 0 320 700" xml:space="preserve">
<line fill="none" stroke="#F7966D" stroke-width="2" stroke-miterlimit="10" x1="159" y1="47" x2="159" y2="515"/>
<g>
	<path fill="#FFFFFF" d="M290,485.115c0,1.041-1.781,1.885-3.978,1.885H33.477c-2.196,0-4.477-0.844-4.477-1.885v-176.73
		c0-1.042,2.281-1.385,4.477-1.385h252.545c2.196,0,3.978,0.344,3.978,1.385V485.115z"/>
	<path fill="none" stroke="#999999" stroke-linecap="round" stroke-miterlimit="10" stroke-dasharray="0.9972,3.9888" d="
		M289.5,485.115c0,1.041-1.281,2.385-3.478,2.385H33.477c-2.196,0-3.977-1.344-3.977-2.385v-176.73c0-1.042,1.781-1.885,3.977-1.885
		h252.545c2.196,0,3.478,0.844,3.478,1.885V485.115z"/>
</g>
<g>
	<path fill="#FFFFFF" d="M290,286.634c0,1.307-1.781,2.366-3.978,2.366H33.477c-2.196,0-4.477-1.059-4.477-2.366V64.866
		C29,63.559,31.281,63,33.477,63h252.545c2.196,0,3.978,0.559,3.978,1.866V286.634z"/>
	<path fill="none" stroke="#999999" stroke-linecap="round" stroke-miterlimit="10" stroke-dasharray="0.9988,3.9952" d="
		M289.5,286.634c0,1.307-1.281,2.866-3.478,2.866H33.477c-2.196,0-3.977-1.559-3.977-2.866V64.866c0-1.307,1.781-2.366,3.977-2.366
		h252.545c2.196,0,3.478,1.059,3.478,2.366V286.634z"/>
</g>
<g>
	<g id="arrow_copy_2_2_">
		<g>
			<polygon fill="#C8C8C8" points="93.501,217.403 98,225.401 102.499,217.403 			"/>
		</g>
	</g>
	<line fill="none" stroke="#C8C8C8" stroke-miterlimit="10" x1="98.5" y1="220" x2="98.5" y2="201"/>
</g>
<g>
	<g id="arrow_copy_2_3_">
		<g>
			<polygon fill="#C8C8C8" points="218.501,217.403 223,225.401 227.499,217.403 			"/>
		</g>
	</g>
	<line fill="none" stroke="#C8C8C8" stroke-miterlimit="10" x1="223.5" y1="220" x2="223.5" y2="201"/>
</g>
<g>
	<g id="arrow_copy_2_4_">
		<g>
			<polygon fill="#C8C8C8" points="156.501,424.403 161,432.401 165.499,424.403 			"/>
		</g>
	</g>
	<line fill="none" stroke="#C8C8C8" stroke-miterlimit="10" x1="161.5" y1="427" x2="161.5" y2="408"/>
</g>
<polyline fill="none" stroke="#C8C8C8" stroke-miterlimit="10" points="98.5,143 98.5,125.5 222.5,125.5 222.5,143 "/>
<line fill="none" stroke="#C8C8C8" stroke-miterlimit="10" x1="160.5" y1="126" x2="160.5" y2="112"/>
<g id="Rounded_Rectangle_10">
	<g>
		<path fill="#F7966D" d="M261,8.999H59c-2.209,0-4,1.791-4,4V43c0,2.209,1.791,3.999,4,3.999h202c2.209,0,4-1.79,4-3.999V12.999
			C265,10.79,263.209,8.999,261,8.999z"/>
	</g>
</g>
<text transform="matrix(1 0 0 1 131.4692 34)" fill="#FFFFFF" font-family="'NanumBarunGothic'" font-size="18">SKVER</text>
<g id="Rounded_Rectangle_10_2_">
	<g>
		<path fill="#959595" d="M262,73.999H60c-2.209,0-4,1.791-4,4v30c0,2.21,1.791,4,4,4h202c2.209,0,4-1.79,4-4v-30
			C266,75.79,264.209,73.999,262,73.999z"/>
	</g>
</g>
<text transform="matrix(1 0 0 1 109.8159 99)" fill="#FFFFFF" font-family="'NanumBarunGothic'" font-size="18">방법론 “충족”</text>
<line fill="none" stroke="#C8C8C8" stroke-miterlimit="10" x1="160.5" y1="370" x2="160.5" y2="356"/>
<g id="Rounded_Rectangle_10_4_">
	<g>
		<path fill="#959595" d="M262,317.999H60c-2.209,0-4,1.791-4,4v30c0,2.21,1.791,4,4,4h202c2.209,0,4-1.79,4-4v-30
			C266,319.79,264.209,317.999,262,317.999z"/>
	</g>
</g>
<text transform="matrix(1 0 0 1 109.8159 343)" fill="#FFFFFF" font-family="'NanumBarunGothic'" font-size="18">방법론 “충족”</text>
<g id="Rounded_Rectangle_10_9_">
	<g>
		<path fill="#019EBF" d="M262,370H60c-2.209,0-4,1.791-4,4v30c0,2.21,1.791,4,4,4h202c2.209,0,4-1.79,4-4v-30
			C266,371.791,264.209,370,262,370z"/>
	</g>
</g>
<text transform="matrix(1 0 0 1 109.8159 395.001)" fill="#FFFFFF" font-family="'NanumBarunGothic'" font-size="18">대안평가 가능</text>
<g id="Rounded_Rectangle_10_16_">
	<g>
		<path fill="#09B39C" d="M266.499,434.001h-202c-2.209,0-4,1.791-4,4v30c0,2.21,1.791,4,4,4h202c2.209,0,4-1.79,4-4v-30
			C270.499,435.792,268.708,434.001,266.499,434.001z"/>
	</g>
</g>
<text transform="matrix(1 0 0 1 134.9434 459.002)" fill="#FFFFFF" font-family="'NanumBarunGothic'" font-size="18">Level C</text>
<g>
	<path fill="#FFFFFF" d="M290,693.115c0,1.041-1.781,1.885-3.978,1.885H33.477c-2.196,0-4.477-0.844-4.477-1.885v-176.73
		c0-1.041,2.281-1.385,4.477-1.385h252.545c2.196,0,3.978,0.344,3.978,1.385V693.115z"/>
	<path fill="none" stroke="#999999" stroke-linecap="round" stroke-miterlimit="10" stroke-dasharray="0.9972,3.9888" d="
		M289.5,693.115c0,1.041-1.281,2.385-3.478,2.385H33.477c-2.196,0-3.977-1.344-3.977-2.385v-176.73c0-1.041,1.781-1.885,3.977-1.885
		h252.545c2.196,0,3.478,0.844,3.478,1.885V693.115z"/>
</g>
<g>
	<g id="arrow_copy_2_6_">
		<g>
			<polygon fill="#C8C8C8" points="156.501,632.403 161,640.401 165.499,632.403 			"/>
		</g>
	</g>
	<line fill="none" stroke="#C8C8C8" stroke-miterlimit="10" x1="161.5" y1="635" x2="161.5" y2="616"/>
</g>
<line fill="none" stroke="#C8C8C8" stroke-miterlimit="10" x1="160.5" y1="578" x2="160.5" y2="564"/>
<g id="Rounded_Rectangle_10_22_">
	<g>
		<path fill="#959595" d="M262,525.999H60c-2.209,0-4,1.791-4,4v30c0,2.21,1.791,4,4,4h202c2.209,0,4-1.79,4-4v-30
			C266,527.79,264.209,525.999,262,525.999z"/>
	</g>
</g>
<text transform="matrix(1 0 0 1 101.7881 551)" fill="#FFFFFF" font-family="'NanumBarunGothic'" font-size="18">방법론 “미충족”</text>
<g id="Rounded_Rectangle_10_20_">
	<g>
		<path fill="#019EBF" d="M262,578H60c-2.209,0-4,1.791-4,4v30c0,2.21,1.791,4,4,4h202c2.209,0,4-1.79,4-4v-30
			C266,579.791,264.209,578,262,578z"/>
	</g>
</g>
<text transform="matrix(1 0 0 1 101.7881 603.001)" fill="#FFFFFF" font-family="'NanumBarunGothic'" font-size="18">대안평가 불가능</text>
<g id="Rounded_Rectangle_10_18_">
	<g>
		<path fill="#09B39C" d="M266.499,642.001h-202c-2.209,0-4,1.791-4,4v30c0,2.21,1.791,4,4,4h202c2.209,0,4-1.79,4-4v-30
			C270.499,643.792,268.708,642.001,266.499,642.001z"/>
	</g>
</g>
<text transform="matrix(1 0 0 1 132.3872 667.002)" fill="#FFFFFF" font-family="'NanumBarunGothic'" font-size="18">평가탈락</text>
<g id="Rounded_Rectangle_10_7_">
	<g>
		<path fill="#019EBF" d="M150,143.402H49c-1.104,0-2,1.791-2,4v50c0,2.21,0.896,4,2,4h101c1.104,0,2-1.79,2-4v-50
			C152,145.193,151.104,143.402,150,143.402z"/>
	</g>
</g>
<g id="Rounded_Rectangle_10_12_">
	<g>
		<path fill="#09B39C" d="M150,228.502H49c-1.104,0-2,1.791-2,4v30c0,2.21,0.896,4,2,4h101c1.104,0,2-1.79,2-4v-30
			C152,230.293,151.104,228.502,150,228.502z"/>
	</g>
</g>
<g id="Rounded_Rectangle_10_14_">
	<g>
		<path fill="#09B39C" d="M274,228.502H173c-1.104,0-2,1.791-2,4v30c0,2.21,0.896,4,2,4h101c1.104,0,2-1.79,2-4v-30
			C276,230.293,275.104,228.502,274,228.502z"/>
	</g>
</g>
<text transform="matrix(1 0 0 1 79.7183 166.5967)"><tspan x="0" y="0" fill="#FFFFFF" font-family="'NanumBarunGothic'" font-size="18">Data</tspan><tspan x="1.71" y="21.6" fill="#FFFFFF" font-family="'NanumBarunGothic'" font-size="18"> 정확</tspan></text>
<g id="Rounded_Rectangle_10_6_">
	<g>
		<path fill="#019EBF" d="M274,143.402H173c-1.104,0-2,1.791-2,4v50c0,2.21,0.896,4,2,4h101c1.104,0,2-1.79,2-4v-50
			C276,145.193,275.104,143.402,274,143.402z"/>
	</g>
</g>
<text transform="matrix(1 0 0 1 203.7178 166.5967)"><tspan x="0" y="0" fill="#FFFFFF" font-family="'NanumBarunGothic'" font-size="18">Data</tspan><tspan x="-28.386" y="21.6" fill="#FFFFFF" font-family="'NanumBarunGothic'" font-size="18">부족(보수적)</tspan></text>
<text transform="matrix(1 0 0 1 69.8994 252.4971)" fill="#FFFFFF" font-family="'NanumBarunGothic'" font-size="18">Level A</text>
<text transform="matrix(1 0 0 1 194.0527 252.4971)" fill="#FFFFFF" font-family="'NanumBarunGothic'" font-size="18">Level B</text>
</svg>
