<?xml version="1.0" encoding="utf-8"?>
<!-- Generator: Adobe Illustrator 16.0.0, SVG Export Plug-In . SVG Version: 6.00 Build 0)  -->
<!DOCTYPE svg PUBLIC "-//W3C//DTD SVG 1.1//EN" "http://www.w3.org/Graphics/SVG/1.1/DTD/svg11.dtd">
<svg version="1.1" id="Layer_1" xmlns="http://www.w3.org/2000/svg" xmlns:xlink="http://www.w3.org/1999/xlink" x="0px" y="0px"
	 width="1656.166px" height="921.093px" viewBox="0 0 1656.166 921.093" enable-background="new 0 0 1656.166 921.093"
	 xml:space="preserve">
<g opacity="0.4">
	<path opacity="0.5" fill="#019EBF" enable-background="new    " d="M20.788,907.966h368.424
		c-19.141-24.604-56.036-37.361-85.054-25.971c2.922-17.693-6.563-35.904-20.83-46.771c-14.267-10.865-32.555-15.262-50.468-16.129
		c-19.625-0.949-39.844,2.188-56.937,11.875c-17.093,9.689-30.692,26.496-33.75,45.904c-18.62-9.914-40.527-11.551-61.606-10.74
		c-13.834,0.531-28.018,2.143-40.279,8.57C28.027,881.134,21.244,894.13,20.788,907.966z"/>
</g>
<g opacity="0.3">
	<path fill="#019EBF" d="M1370.044,866.46h250.308c-8.847-20.748-34.19-30.313-54.001-19.525
		c-0.37-13.271-9.829-25.01-21.438-31.453c-13.798-7.662-30.979-8.941-45.758-3.406c-14.78,5.533-26.896,17.781-32.27,32.619
		c-3.789-6.756-11.447-11.154-19.19-11.021c-7.745,0.135-15.248,4.793-18.803,11.676c-8.393-12.1-24.941-17.838-39.022-13.533
		S1370.237,851.738,1370.044,866.46z"/>
</g>
<g opacity="0.2">
	<path fill="#019EBF" d="M29.313,201.431h351.375c-11.416-21.138-40.868-31.094-63.329-22.569
		c1.857-29.507-22.029-58.337-51.367-61.996c-29.339-3.659-59.575,18.421-65.021,47.481c-8.491-10.368-22.942-15.47-36.061-12.731
		c-13.119,2.739-24.321,13.196-27.954,26.096c-17.019-12.123-39.203-16.72-59.637-12.356
		C56.884,169.718,39.895,183.414,29.313,201.431z"/>
</g>
<g opacity="0.2">
	<path fill="#019EBF" d="M1358.827,246.572h272.741c-9.03-17.028-30.47-27.645-47.865-19.35
		c-3.545-21.472-22.175-39.561-43.742-42.47c-21.568-2.909-44.325,9.597-53.432,29.363c-4.806-9.677-15.372-16.201-26.176-16.161
		c-10.805,0.04-21.321,6.643-26.055,16.355c-9.251-11.038-26.041-13.543-39.65-8.836c-13.611,4.708-24.396,15.351-32.852,27.009
		C1358.49,237.044,1361.554,241.642,1358.827,246.572z"/>
</g>
<g>
	<g>
		<g>
			<circle id="SVGID_1_" fill="#A6E1FD" cx="769.641" cy="520.194" r="263.387"/>
		</g>
		<g>
			<defs>
				<circle id="SVGID_2_" cx="769.641" cy="520.194" r="263.387"/>
			</defs>
			<clipPath id="SVGID_3_">
				<use xlink:href="#SVGID_2_"  overflow="visible"/>
			</clipPath>
			<g clip-path="url(#SVGID_3_)">
				<path fill="#C0EAFF" d="M708.954,368.393c1.16,10.464,4.117,22.255,13.446,27.133c6.732,3.521,14.854,2.337,22.359,3.514
					c36.213,5.678,44.646,60.069,79.242,72.182c16.327,5.717,35.042,0,48.438-10.948c13.396-10.948,22.276-26.424,29.497-42.145
					c2.215-4.819,4.426-9.867,8.441-13.33c3.624-3.125,8.359-4.628,13.04-5.623c28.77-6.111,62.037,3.44,85.961-13.667
					c21.149-15.124,25.201-46.751,14.713-70.543c-10.487-23.792-32.201-40.779-54.914-53.436
					c-21.573-12.022-44.876-20.877-68.921-26.481c-24.358-5.678-49.486-8.034-74.477-7.035c-24.872,0.994-49.624,5.32-73.301,13.026
					c-7.295,2.374-15.79,4.629-20.94,10.736c-6.168,7.313-9.371,18.144-12.432,26.99c-8.837,25.542-12.646,52.831-10.997,79.814
					C708.313,361.857,708.593,365.129,708.954,368.393z"/>
			</g>
		</g>
		<g>
			<defs>
				<circle id="SVGID_4_" cx="769.641" cy="520.194" r="263.387"/>
			</defs>
			<clipPath id="SVGID_5_">
				<use xlink:href="#SVGID_4_"  overflow="visible"/>
			</clipPath>
			<g clip-path="url(#SVGID_5_)">
				<path fill="#C0EAFF" d="M569.979,501.947c28.69-10.551,66.886-12.033,83.742,13.469c11.036,16.693,8.396,38.619,13.154,58.057
					c1.314,5.367,3.43,10.895,7.831,14.234c3.803,2.887,8.735,3.709,13.452,4.445c19.55,3.045,39.101,6.09,58.649,9.135
					c14.846,2.311,32.259,6.6,37.591,20.645c4.944,13.023-4.299,27.975-16.729,34.266s-27.004,6.152-40.932,5.875
					c-29.025-0.578-58.05-1.154-87.075-1.732c-11.409-0.227-27.733,6.166-23.172,16.625c1.127,2.586,3.437,4.439,5.721,6.092
					c16.083,11.652,35.326,18.898,55.101,20.75c26.257,2.457,56.377-3.307,76.108,14.189c5.753,5.102,10.099,11.896,16.762,15.734
					c14.008,8.063,31.404,0.156,47.556-0.467c15.831-0.611,32.063,6.811,40.868,19.98c8.804,13.17,9.191,31.824-0.117,44.643
					c-9.457,13.02-26.264,18.217-42.118,20.959c-73.691,12.75-149.511-10.49-215.306-46.045
					c-32.745-17.693-64.744-39.381-84.854-70.701c-18.58-28.936-25.198-63.42-27.519-97.238c-0.6-8.732-0.921-17.482-1.099-26.234
					c-0.14-6.949-1.548-15.564,0.808-22.254c1.739-4.943,6.225-7.799,10.06-11.041c6.623-5.594,13.148-11.201,20.214-16.244
					C534.471,517.816,551.768,508.644,569.979,501.947z"/>
			</g>
		</g>
		<g>
			<defs>
				<circle id="SVGID_6_" cx="769.641" cy="520.194" r="263.387"/>
			</defs>
			<clipPath id="SVGID_7_">
				<use xlink:href="#SVGID_6_"  overflow="visible"/>
			</clipPath>
			<g clip-path="url(#SVGID_7_)">
				<path fill="#C0EAFF" d="M852.828,675.052c-8.396-16.791-11.281-36.182-21.55-51.896c-6.499-9.947-15.687-17.963-21.844-28.125
					c-6.156-10.164-8.649-24.137-1.253-33.434c8.522-10.715,24.709-9.762,37.723-14.016c22.938-7.5,36.117-31.734,57.098-43.662
					c6.856-3.896,14.992-6.438,22.637-4.496c17.45,4.434,21.487,28.203,16.057,45.369c-5.434,17.166-16.668,32.943-16.93,50.945
					c-0.273,18.939,13.448,37.209,31.717,42.221c8.377,2.299,17.321,2.037,25.617,4.615c24.13,7.496,35.16,37.289,30.637,62.146
					c-2.435,13.373-8.666,26.5-19.415,34.818c-19.577,15.148-41.827,3.41-61.962-4.061c-20.347-7.549-40.398-17.383-56.616-32.039
					C865.814,695.371,858.22,685.837,852.828,675.052z"/>
			</g>
		</g>
		<g>
			<defs>
				<circle id="SVGID_8_" cx="769.641" cy="520.194" r="263.387"/>
			</defs>
			<clipPath id="SVGID_9_">
				<use xlink:href="#SVGID_8_"  overflow="visible"/>
			</clipPath>
			<g clip-path="url(#SVGID_9_)">
				<path fill="#C0EAFF" d="M637.67,382.777c-7.083,5.686-16.687,6.669-25.453,9.05c-11.226,3.049-21.726,8.739-30.409,16.479
					c-17.164,15.3-27.777,38.69-48.857,47.87c-5.463,2.379-12.121,3.536-17.157,0.353c-5.377-3.4-6.991-10.398-7.88-16.697
					c-4.447-31.501-2.12-64.979,13.213-92.853c13.956-25.37,40.652-44.689,69.35-49.618c26.457-4.544,45.51,17.868,53.61,40.869
					C649.051,352.326,650.723,372.301,637.67,382.777z"/>
			</g>
		</g>
	</g>
</g>
<g>
	<g opacity="0.2">
		<path fill="#019EBF" d="M659.908,128.332h444.9c-2.161-23.093-15.596-46.955-35.114-59.483
			c-17.62-11.309-39.45-14.966-60.28-12.84c-15.427,1.575-32.14,7.471-39.127,21.314c-11.595-35.747-47.484-55.505-83.43-57.63
			c-46.061-2.723-77.611,21.78-103.043,57.911c-24.846-10.161-52.524-13.846-77.866-2.442
			C683.011,85.395,666.472,104.088,659.908,128.332z"/>
	</g>
	<g>
		<polygon fill="#F5C26A" points="911.988,62.149 825.782,195.572 891.074,195.572 844.708,303.446 962.044,161.507 
			893.913,161.507 		"/>
	</g>
</g>
</svg>
