<?xml version="1.0" encoding="utf-8"?>
<!-- Generator: Adobe Illustrator 16.0.0, SVG Export Plug-In . SVG Version: 6.00 Build 0)  -->
<!DOCTYPE svg PUBLIC "-//W3C//DTD SVG 1.1//EN" "http://www.w3.org/Graphics/SVG/1.1/DTD/svg11.dtd">
<svg version="1.1" xmlns="http://www.w3.org/2000/svg" xmlns:xlink="http://www.w3.org/1999/xlink" x="0px" y="0px" width="2000px"
	 height="1612px" viewBox="0 0 2000 1612" enable-background="new 0 0 2000 1612" xml:space="preserve">
<g id="Background">
</g>
<g id="Name">
</g>
<g id="Plants">
	<g>
		<g>
			<path fill="#FFD03E" d="M1549.854,630.422c-0.219,0-0.442-0.029-0.664-0.09c-1.331-0.366-2.113-1.743-1.747-3.074
				c14.911-54.205,94.254-226.254,152.396-313.718c0.765-1.151,2.315-1.461,3.466-0.698c1.15,0.765,1.463,2.316,0.698,3.466
				c-57.914,87.119-136.909,258.363-151.74,312.276C1551.959,629.694,1550.952,630.422,1549.854,630.422z"/>
		</g>
		<path fill="none" stroke="#FFD03E" stroke-width="5" stroke-linecap="round" stroke-linejoin="round" d="M1696.676,309.168
			c-2.759-6.24,0.066-13.537,6.305-16.293c6.237-2.759,13.537,0.065,16.295,6.304c2.758,6.24-0.068,13.531-6.31,16.289
			C1706.728,318.227,1699.434,315.409,1696.676,309.168z"/>
		<path fill="none" stroke="#FFD03E" stroke-width="5" stroke-linecap="round" stroke-linejoin="round" d="M1602.912,368.96
			c-2.673-6.042,0.063-13.105,6.109-15.777c6.038-2.67,13.104,0.063,15.772,6.104c2.672,6.046-0.062,13.11-6.101,15.78
			C1612.647,377.738,1605.583,375.005,1602.912,368.96z"/>
		<path fill="none" stroke="#FFD03E" stroke-width="5" stroke-linecap="round" stroke-linejoin="round" d="M1649.909,482.806
			c-3.029-6.853,0.073-14.873,6.934-17.904c6.853-3.029,14.872,0.074,17.901,6.928c3.032,6.858-0.07,14.877-6.926,17.907
			C1660.961,492.767,1652.941,489.664,1649.909,482.806z"/>
		<path fill="none" stroke="#FFD03E" stroke-width="5" stroke-linecap="round" stroke-linejoin="round" d="M1547.082,495.197
			c-3.508-7.935,0.087-17.214,8.022-20.722c7.935-3.506,17.213,0.083,20.718,8.017c3.508,7.937-0.079,17.218-8.014,20.727
			C1559.874,506.725,1550.59,503.133,1547.082,495.197z"/>
		
			<circle fill="none" stroke="#FFD03E" stroke-width="5" stroke-linecap="round" stroke-linejoin="round" cx="1726.386" cy="342.1" r="10.253"/>
		<g>
			<path fill="#FFD03E" d="M1671.484,367.278c-0.653,0-1.306-0.254-1.796-0.761c-0.961-0.992-0.935-2.574,0.057-3.535
				c6.382-6.179,24.257-12.804,40.51-18.529c2.181-0.768,4.032-1.42,5.396-1.926c1.295-0.48,2.733,0.179,3.214,1.474
				s-0.18,2.733-1.474,3.214c-1.385,0.514-3.263,1.176-5.476,1.955c-11.38,4.008-32.562,11.468-38.692,17.404
				C1672.738,367.044,1672.111,367.278,1671.484,367.278z"/>
		</g>
		<g>
			<path fill="#FFD03E" d="M1633.849,437.485c-1.35,0-2.462-1.075-2.498-2.433c-0.602-22.243-11.94-52.177-14.944-58.975
				c-0.558-1.263,0.014-2.739,1.276-3.297c1.263-0.559,2.739,0.012,3.298,1.276c3.792,8.583,14.756,38.188,15.368,60.861
				c0.037,1.38-1.051,2.529-2.432,2.566C1633.895,437.484,1633.871,437.485,1633.849,437.485z"/>
		</g>
		<g>
			<path fill="#FFD03E" d="M1601.281,504.483c-0.659,0-1.317-0.259-1.809-0.774c-0.953-0.999-0.916-2.582,0.083-3.535
				c8.986-8.571,42.034-19.709,50.306-19.868c1.359-0.016,2.521,1.071,2.548,2.452c0.026,1.38-1.071,2.521-2.452,2.547
				c-7.335,0.141-39.017,10.919-46.95,18.487C1602.522,504.254,1601.901,504.483,1601.281,504.483z"/>
		</g>
		<g>
			<path fill="#FFD03E" d="M1573.894,566.075c-1.375,0-2.493-1.111-2.5-2.488c-0.039-7.973-9.041-49.624-11.161-58.513
				c-0.32-1.343,0.509-2.691,1.852-3.012c1.347-0.326,2.691,0.509,3.012,1.852c1.667,6.99,11.254,50.57,11.298,59.649
				c0.007,1.381-1.107,2.505-2.488,2.512C1573.901,566.075,1573.897,566.075,1573.894,566.075z"/>
		</g>
	</g>
	<g>
		<path fill="#DDE2F8" d="M1687.038,1180.446c2.245,30.693,30.132,38.803,47.047,42.214
			C1732.688,1213.321,1724.81,1175.871,1687.038,1180.446z"/>
		<g>
			<path fill="#DDE2F8" d="M1689.625,1185.631c-0.659,0-1.318-0.26-1.81-0.774c-78.114-81.927-170.36-130.401-230.643-148.45
				c-1.323-0.396-2.074-1.789-1.678-3.111c0.396-1.323,1.785-2.08,3.111-1.678c33.614,10.063,72.878,28.313,110.56,51.385
				c44.711,27.377,86.99,61.404,122.269,98.403c0.952,1,0.915,2.582-0.084,3.535
				C1690.866,1185.401,1690.245,1185.631,1689.625,1185.631z"/>
		</g>
		<path fill="#DDE2F8" d="M1502.481,1035.586c61.822-6.388,67.72-51.663,73.586-86.022
			C1557.294,952.953,1490.964,959.614,1502.481,1035.586z"/>
		<path fill="#DDE2F8" d="M1557.114,1059.304c49.345,7.378,62.97-26.648,74.396-52.188
			C1616.24,1006.002,1563.334,997.933,1557.114,1059.304z"/>
		<path fill="#DDE2F8" d="M1610.298,1096.41c39.745,16.095,57.975-9.595,72.661-28.641
			C1670.427,1063.767,1627.841,1046.383,1610.298,1096.41z"/>
		<path fill="#DDE2F8" d="M1658.653,1136.343c20.933,16.491,36.264,4.313,48.328-4.513
			C1700.191,1127.271,1677.785,1109.521,1658.653,1136.343z"/>
		<path fill="#DDE2F8" d="M1494.767,1067.087c39.198,38.358,18.41,72.868,3.603,99.822
			C1487.258,1154.262,1445.101,1113.242,1494.767,1067.087z"/>
		<path fill="#DDE2F8" d="M1553.702,1093.996c38.546,27.42,25.467,59.617,16.466,84.575
			C1559.012,1169.289,1517.572,1139.994,1553.702,1093.996z"/>
		<path fill="#DDE2F8" d="M1618.267,1136.127c20.128,25.29,5.458,43.958-5.171,58.643
			C1607.522,1186.566,1585.856,1159.504,1618.267,1136.127z"/>
		<path fill="#DDE2F8" d="M1659.777,1167.577c14.231,12.334,7.818,24.596,3.301,34.143
			C1659.01,1197.613,1643.707,1184.43,1659.777,1167.577z"/>
	</g>
	<path fill="#E5E5E5" d="M885.846,690.691c-37.121,56.218-100.041,52.252-159.563-0.218
		C769.927,646.426,847.29,627.933,885.846,690.691z"/>
	<g>
		<path fill="#009DBE" d="M405.985,1002.065c-23.677-77.439-97.563-94.269-184.027-54.02
			C257.29,1013.669,340.193,1061.304,405.985,1002.065z"/>
		<g>
			<path fill="#067887" d="M405.987,1004.566c-0.187,0-0.377-0.021-0.568-0.065c-15.166-3.524-39.935-11.554-66.159-20.055
				c-31.684-10.271-67.596-21.913-95.033-28.412c-1.344-0.318-2.175-1.665-1.856-3.009s1.665-2.176,3.009-1.856
				c27.634,6.546,63.648,18.221,95.423,28.521c26.119,8.467,50.79,16.465,65.749,19.939c1.345,0.313,2.182,1.656,1.869,3.001
				C408.152,1003.786,407.124,1004.566,405.987,1004.566z"/>
		</g>
	</g>
	<g>
		<path fill="#EDEDEF" d="M923.314,679.14c-103.475,17.868-166.141-57.821-170.091-181.425
			C849.834,500.251,953.425,568.365,923.314,679.14z"/>
		<g>
			<path fill="#D6D6D6" d="M923.316,681.64c-0.715,0-1.426-0.305-1.92-0.897c-12.787-15.306-36.473-39.196-61.551-64.489
				c-30.485-30.747-65.038-65.597-88.749-93.733c-0.89-1.056-0.755-2.633,0.301-3.522c1.055-0.891,2.633-0.755,3.522,0.301
				c23.581,27.981,58.058,62.755,88.476,93.435c25.155,25.371,48.914,49.334,61.837,64.803c0.885,1.06,0.744,2.636-0.315,3.521
				C924.45,681.45,923.881,681.64,923.316,681.64z"/>
		</g>
	</g>
	<path fill="#CED3F8" d="M1441.692,711.951c76.788-28.699,89.229-104.391,43.22-189.261
		C1420.787,562.438,1377.78,649.142,1441.692,711.951z"/>
	<g>
		<path fill="#42C0D1" d="M1431.233,783.515c138.405,34.1,230.501-62.394,247.674-229.381
			C1547.851,548.33,1401.065,630.645,1431.233,783.515z"/>
		<g>
			<path fill="#009DBE" d="M1431.233,786.015c-0.624,0-1.249-0.232-1.734-0.699c-0.994-0.958-1.024-2.541-0.066-3.535
				c18.95-19.678,53.392-49.832,89.856-81.756c44.146-38.648,94.182-82.454,128.818-118.119c0.961-0.992,2.545-1.013,3.535-0.052
				c0.99,0.962,1.013,2.545,0.051,3.535c-34.777,35.811-84.894,79.687-129.11,118.397c-36.383,31.852-70.747,61.937-89.549,81.462
				C1432.544,785.758,1431.889,786.015,1431.233,786.015z"/>
		</g>
	</g>
	<path fill="#009DBE" d="M1448.089,788.875c13.496,80.864,85.423,107.531,177.521,78.586
		C1598.842,796.926,1521.956,738.142,1448.089,788.875z"/>
	<g>
		<path fill="#42C0D1" d="M625.897,1079.974c-32.226,25.987-101.166,27.197-130.338-1.175
			c-29.171-28.372-10.608-62.288-30.674-73.267c-20.063-10.981-66.866,2.82-85.201-22.405
			c-32.583-44.839,49.682-84.562,29.058-120.052c-20.619-35.491-65.052-10.449-89.52-40.603
			c-24.478-30.149,45.315-59.005,32.011-104.462c-13.305-45.457-23.946-147.085,35.451-146.194
			c46.946,0.708,22.418,54.919,38.386,67.407c18.21,14.241,39.048-6.695,55.682,13.394c23.501,28.39-6.501,66.905,16.639,87.014
			c23.135,20.109,55.245-4.536,66.607,34.266c14.061,48.043-62.784,66.526-17.514,114.262
			c45.268,47.733,77.994-30.471,110.094-4.942c35.035,27.864-21.774,85.343,5.868,98.188
			C700.063,998.878,675.891,1039.664,625.897,1079.974z"/>
		<g>
			<path fill="#009DBE" d="M616.764,1088.647c-0.609,0-1.22-0.222-1.702-0.669c-2.24-2.083-6.51-4.326-11.454-6.923
				c-11.635-6.113-27.569-14.485-31.924-29.355c-2.247-7.676-3.338-15.782-4.393-23.622c-1.725-12.815-3.509-26.067-10.377-38.05
				c-14.155-24.691-34.567-35.002-52.577-44.1c-13.66-6.9-26.563-13.419-34.064-25.161c-6.932-10.852-4.01-19.466-0.916-28.585
				c2.93-8.636,5.958-17.564,2.136-30.622c-3.669-12.538-8.936-16.384-15.034-20.836c-6.87-5.016-14.656-10.7-20.146-29.455
				c-4.697-16.046-1.472-25.277,1.648-34.204c3.038-8.692,5.907-16.903,2.259-31.96c-7.071-29.19-23.983-43.156-36.332-53.353
				c-7.932-6.55-14.197-11.724-15.867-18.749c-3.813-16.027,6.326-23.948,6.759-24.278c1.099-0.834,2.668-0.62,3.503,0.479
				c0.835,1.099,0.621,2.667-0.479,3.503c-0.314,0.245-7.955,6.384-4.919,19.14c1.282,5.394,6.977,10.097,14.187,16.05
				c12.891,10.645,30.545,25.223,38.008,56.031c3.996,16.491,0.745,25.792-2.398,34.787c-2.991,8.559-5.816,16.643-1.569,31.15
				c5.013,17.123,11.766,22.053,18.296,26.821c6.263,4.572,12.739,9.3,16.885,23.47c4.267,14.573,0.831,24.698-2.2,33.632
				c-2.93,8.638-5.244,15.46,0.395,24.288c6.764,10.589,18.507,16.521,32.104,23.39c18.636,9.414,39.759,20.084,54.66,46.076
				c7.355,12.831,9.206,26.577,10.995,39.869c1.078,8.008,2.096,15.571,4.236,22.885c3.758,12.834,18.004,20.319,29.451,26.333
				c5.26,2.764,9.803,5.15,12.532,7.688c1.011,0.94,1.069,2.521,0.129,3.533C618.103,1088.379,617.435,1088.647,616.764,1088.647z"
				/>
		</g>
	</g>
	<path fill="#EFEFEF" d="M946.008,652.496c12.01,4.942,118.261-55.459,108.04-76.54c-7.96-16.411-25.551-8.335-31.706-4.907
		c-9.697,5.412-32.174,19.947-35.041,12.136c-5.188-14.134,56.347-43.637,70.893-51.747c14.546-8.111,40.594-27.82,41.706-46.211
		c1.113-18.393-0.551-25.979-25.22-10.373c-24.668,15.606-69.42,52.409-66.139,31.326c3.276-21.082,44.66-41.567,64.066-62.009
		c19.4-20.448,49.396-65.958,28.508-69.22c-18.676-2.91-66.791,65.015-73.877,52.307c-5.671-10.164,14.363-23.559,37.366-52.679
		c23.003-29.113,44.419-56.834,28.371-72.097c-12.883-12.253-23.671,9.5-36.273,25.042c-12.604,15.539-30.973,36.526-33.813,25.516
		c-2.836-11.003,66.127-81.045,49.731-105.478c-10.849-16.164-20.81,3.456-36.491,20.716
		c-15.678,17.259-22.476,22.161-24.842,17.926c-2.359-4.236,15.013-30.954,24.938-45.376c9.93-14.423,19.238-38.495,6.12-48.212
		c-13.117-9.714-26.636,15.038-29.506,25.34c-2.876,10.302-9.997,18.903-13.056,18.02c-3.063-0.885,4.005-35.559-14.423-36.39
		c-18.433-0.827-21.952,32.973-12.978,49.075c8.982,16.096,20.547,38.158,14.672,41.431c-5.875,3.273-16.27-15.362-24.46-30.048
		c-8.187-14.689-14.8-18.651-18.716-16.466c-13.052,7.276-13.399,32.524-7.414,43.254c5.984,10.734,47.361,66.524,38.688,71.358
		c-8.673,4.835-21.99-17.729-28.604-29.592c-6.613-11.86-22.043-39.539-36.59-31.427c-14.547,8.11-1.592,49.761,12.406,71.572
		c13.999,21.814,39.352,55.438,32.636,59.183c-6.716,3.742-31.572-19.79-39.601-34.192c-8.031-14.407-15.091-44.163-32.994-34.179
		c-17.907,9.985-9.276,34.008,6.491,62.28c6.591,11.819,23.197,40.902,41.976,51.228c21.381,11.753,30.11,21.121,27.617,26.224
		c-4.961,10.173-22.4-2.686-32.756-14.682c-10.358-12-40.293-51.212-56.024-32.075c-15.731,19.14,16.401,44.542,28.316,56.036
		c11.912,11.504,57.39,48.341,49.403,58.352c-7.988,10.006-26.781-15.8-33.46-23.185c-6.685-7.377-25.39-18.233-27.895-9.247
		C883.565,543.477,924.593,643.685,946.008,652.496z"/>
</g>
<g id="Shadow">
	<path fill="#E9EFFF" d="M1124.428,1394.618c0-14.987,129.589-27.136,289.438-27.136c159.855,0,289.444,12.148,289.444,27.136
		c0,14.989-129.589,27.134-289.444,27.134C1254.017,1421.752,1124.428,1409.607,1124.428,1394.618z"/>
	<path fill="#E9EFFF" d="M328.52,1371.807c0-9.659,157.443-17.488,351.652-17.488c194.215,0,351.658,7.829,351.658,17.488
		s-157.443,17.485-351.658,17.485C485.963,1389.292,328.52,1381.466,328.52,1371.807z"/>
	<path fill="#F6F6FB" d="M587.953,1332.606c0-9.816,160.018-17.773,357.402-17.773c197.39,0,357.408,7.957,357.408,17.773
		c0,9.817-160.018,17.771-357.408,17.771C747.971,1350.378,587.953,1342.424,587.953,1332.606z"/>
</g>
<g id="Back_folder">
	<path fill="#CED3F8" d="M917.073,992.033l-31.233-32.395c-6.779-8.031-16.969-12.605-28.08-12.605h-83.238
		c-15.613,0-29.378,12.396-30.744,27.688l-34.017,357.884h497.165l27.95-312.884c1.365-15.292-10.184-27.688-25.797-27.688H917.073z
		"/>
	<path fill="#E9EDF7" d="M817.981,984.874l-34.681-33.24c-8.943-8.2-20.365-12.87-31.475-12.87h-83.238
		c-15.613,0-26.038,12.657-23.286,28.271l64.46,365.571h497.165l-56.329-319.461c-2.753-15.613-17.642-28.271-33.255-28.271H817.981
		z"/>
</g>
<g id="Front_folder">
	<path fill="#ED9F00" d="M622.01,1031.233l-31.233-32.396c-6.779-8.03-16.969-12.604-28.08-12.604h-83.238
		c-15.613,0-29.377,12.396-30.744,27.688l-34.017,357.884h497.165l27.949-312.885c1.366-15.291-10.184-27.688-25.797-27.688H622.01z
		"/>
	<path fill="#FCBA06" d="M522.918,1024.074l-34.681-33.24c-8.942-8.2-20.365-12.87-31.475-12.87h-83.238
		c-15.613,0-26.039,12.656-23.286,28.27l64.46,365.572h497.165l-56.329-319.461c-2.753-15.613-17.642-28.271-33.255-28.271H522.918z
		"/>
	<text transform="matrix(1 0 0 1 473.9019 1226.6602)" fill="#FFFFFF" font-family="'Poppins-Medium'" font-size="75">No Data</text>
</g>
<g id="Back_hand">
	<path fill="#F8D8D0" d="M1134.345,768.048c-5.441-0.288-7.696-7.978-16.931-7.386c-15.019,0.963-27.655-8.27-26.244-4.304
		c3.77,10.591,17.328,13.854,17.328,13.854l3.542,3.992l-1.057,16.038h18.81L1134.345,768.048z"/>
	<g>
		<path fill="#ED9F00" d="M1395.124,705.309c10.525-11.791,12.372-36.513-2.124-42.608c-14.495-6.095-22.021-8.231-45.589,16.172
			c-34.108,35.319-68.455,61.171-98.129,76.49c-25.611,8.617-70.85,10.762-114.938,12.685c0,0-2.052,18.088-3.54,26.446
			c59.122,2.153,96.545,2.272,133.48-5.881C1322.383,775.788,1371.461,731.817,1395.124,705.309z"/>
		<path fill="#FCBA06" d="M1129.158,793.491c1.242-6.215,5.464-27.432,5.55-29.089c6.023-0.613,16.126-0.469,19.218-0.127
			c-0.29,5.495-3.306,34.871-4.016,35.482c-2.292-0.22-13.761-2.856-18.759-4.02
			C1130.354,794.839,1129.708,794.111,1129.158,793.491z"/>
	</g>
</g>
<g id="Folder_in_the_hands">
	<path fill="#009DBE" d="M1168.65,606.057l29.538-30.973c6.486-7.604,15.672-12.426,25.311-13.289l72.215-6.461
		c13.546-1.212,24.554,8.644,24.586,22.014l2.546,312.749L891.518,928.69l-0.672-273.563c-0.033-13.37,10.921-25.191,24.467-26.403
		L1168.65,606.057z"/>
	<path fill="#42C0D1" d="M1121.129,604.048l19.781-30.839c5.215-7.638,13.677-12.479,23.315-13.341l72.215-6.462
		c13.546-1.212,26.516,8.696,28.968,22.131l57.438,314.561L891.518,928.69l-50.192-274.884c-2.453-13.435,6.539-25.308,20.084-26.52
		L1121.129,604.048z"/>
	<g>
		<path fill="#009DBE" d="M1005.909,768.167c-4.289,0-8.598-1.442-12.138-4.398c-1.59-1.327-1.803-3.692-0.475-5.282
			c1.327-1.59,3.693-1.803,5.282-0.475c4.849,4.049,12.096,3.4,16.152-1.452c6.693-8.016,18.675-9.094,26.707-2.4
			c2.351,1.964,5.321,2.898,8.372,2.62c3.051-0.274,5.811-1.718,7.772-4.067c3.241-3.884,7.807-6.273,12.855-6.727
			c5.046-0.453,9.967,1.084,13.852,4.328c4.85,4.05,12.096,3.399,16.153-1.453c6.697-8.016,18.681-9.094,26.711-2.4
			c1.592,1.326,1.807,3.691,0.48,5.282c-1.327,1.591-3.692,1.805-5.281,0.48c-4.86-4.05-12.107-3.398-16.155,1.449
			c-6.71,8.024-18.694,9.098-26.716,2.399c-2.347-1.96-5.317-2.888-8.373-2.614c-3.053,0.274-5.812,1.717-7.77,4.063
			c-3.246,3.888-7.813,6.278-12.858,6.731c-5.039,0.452-9.963-1.085-13.849-4.332c-4.855-4.045-12.098-3.396-16.146,1.451
			C1016.737,765.853,1011.34,768.167,1005.909,768.167z"/>
	</g>
</g>
<g id="Woman">
	<g>
		<path fill="#009DBE" d="M1348.485,1387.519c3.159-0.008,7.095,3.491,7.6,7.206c4.421-0.013,5.603-0.014,5.763-0.015
			c0,0,5.624-9.564,2.62-21.827c-1.891-7.727-3.871-5.87-5.878-3.858c-4.572,3.732-23.253,4.996-24.731-1.287
			c-4.822,0.738-54.451,15.12-54.444,19.711c0.012,7.438,5.851,7.408,9.826,7.398
			C1336.208,1394.761,1329.979,1391.887,1348.485,1387.519z"/>
		<path fill="#F7D3C9" d="M1338.919,1359.84c1.601-7.077,22.061-12.429,21.023-0.033c-0.24,2.846,0.109,5.602,1.082,7.881
			l-0.009,0.002c-4.573,3.732-47.314,17.032-54.382,7.871C1311.551,1372.913,1338.934,1367.349,1338.919,1359.84z"/>
		<path fill="#008B9E" d="M1341.52,866.484c-3,199.244-3,367.515-3,492.007c7.551,0,22.093,0,22.093,0
			c6.097-15.167,36.888-146.73,36.888-217.634c19.616-59.929,46.826-257.031,47.387-287.189
			C1428.236,855.732,1341.52,866.484,1341.52,866.484z"/>
	</g>
	<g>
		<path fill="#009DBE" d="M1501.959,1387.519c3.158-0.008,7.093,3.491,7.599,7.206c4.422-0.013,5.603-0.014,5.764-0.015
			c0,0,5.623-9.564,2.619-21.827c-1.891-7.727-3.871-5.87-5.878-3.858c-4.572,3.732-23.253,4.996-24.73-1.287
			c-4.823,0.738-54.452,15.12-54.445,19.711c0.012,7.438,5.851,7.408,9.826,7.398
			C1489.681,1394.761,1483.452,1391.887,1501.959,1387.519z"/>
		<path fill="#F7D3C9" d="M1492.392,1359.84c1.601-7.077,22.06-12.429,21.023-0.033c-0.24,2.846,0.109,5.602,1.082,7.881
			l-0.009,0.002c-4.574,3.732-47.314,17.032-54.382,7.871C1465.024,1372.913,1492.406,1367.349,1492.392,1359.84z"/>
		<path fill="#009DBE" d="M1467.264,850.893c21.582,82.607,17.709,187.692,20.038,275.18
			c21.206,67.607,26.712,176.368,26.712,232.419c-7.546,0-22.088,0-22.088,0c-12.407-30.864-119.262-392.491-138.676-493.462
			C1369.895,862.966,1467.264,850.893,1467.264,850.893z"/>
	</g>
	<path fill="#F7D3C9" d="M1411.807,640.328c5.335,5.448-43.557,22.48-47.338,21.063c-1.867-0.7-2.604-7.837-1.821-11.311
		c6.047-10.462,2.591-18.329,1.387-23.828c-13.091,4.923-19.436-1.17-22.683-20.532c-3.945,0.86-6.606-0.525-6.606-0.525
		c-0.576-2.63,3.185-9.748,1.874-15.759c-1.313-6.012-2.881-11.375-3.134-21.555c-0.252-10.176,7.965-28.493,31.297-31.525
		c27.314-3.55,37.859,13.833,42.095,37.161C1411.573,599.417,1377.974,605.808,1411.807,640.328z"/>
	<g>
		<path fill="#FCBA06" d="M1467.264,850.893c-13.719,1.701-125.744,15.592-125.744,15.592c3.442-26.292,6.52-55.926-2.821-80.16
			c-6.753-17.522-23.919-32.004-23.39-36.536c3.103-26.535,37.615-77.151,47.339-99.708c0.34,3.199,0.96,6.007,2.3,10.231
			c11.924-5.286,30.69-13.125,46.859-19.984C1451.607,684.907,1457.951,796.562,1467.264,850.893z"/>
		<path fill="#ED9F00" d="M1351.817,864.887c7.063-70.565-9.15-92.719-18.835-105.957c-3.36-4.591-6.014-8.217-6.536-12.453
			c-1.127-9.156,13.032-38.421,30.247-72.876c2.848-5.699,5.499-11.007,7.625-15.393c0.196,0.677,0.389,1.346,0.629,2.104
			c0.636-0.282,1.3-0.574,1.973-0.87c-2.098,4.328-4.721,9.578-7.653,15.445c-12.376,24.768-31.075,62.199-29.963,71.238
			c0.43,3.491,2.767,6.685,6.001,11.104c9.914,13.549,26.495,36.218,19.405,107.619c-0.497,0.062-0.985,0.122-1.459,0.181
			L1351.817,864.887z"/>
		<path fill="#FFFFFF" d="M1362.914,652.125l-7.261,12.195c0,0,3.04-11.264,6.99-17.492c0.771-0.691,1.653-1.65,2.368-2.038
			C1364.671,646.242,1362.914,652.125,1362.914,652.125z"/>
	</g>
	<path fill="#F7D3C9" d="M1214.017,809.837c-4.361,0.521-6.32,2.604-13.492-1.083s-9.302-5.99-12.702-7.59
		s-13.16-7.369-13.742-5.626c-0.584,1.743,10.09,9.525,9.191,10.571c-0.897,1.045-34.532-2.334-32.092,3.913
		c2.439,6.247,13.432,19.746,30.323,21.301c11.296,1.041,21.888-3.466,28.886-1.804
		C1219.176,825.172,1219.373,816.552,1214.017,809.837z"/>
	<g>
		<path fill="#FFD03E" d="M1430.285,699.907c5.578-14.788,1.338-33.43-14.38-33.902c-15.718-0.471-22.593,1.343-38.035,31.55
			c-17.029,33.313-33.945,61.441-51.69,80.555c-21.479,12.375-61.962,23.62-114.264,30.589c0,0-2.211,14.591-2.952,23.048
			c67.524-4.179,103.215-1.701,141.745-22.984C1384.256,783.976,1418.898,730.094,1430.285,699.907z"/>
		<path fill="#FCBA06" d="M1206.94,833.917c0,0,3.136-26.117,3.064-28.062c5.944-1.146,14.82-2.447,19.084-2.791
			c0.198,5.499-0.338,30.801-0.596,32.665C1225.529,835.708,1206.94,833.917,1206.94,833.917z"/>
	</g>
	<polygon fill="#FFFFFF" points="1372.664,656.928 1382.187,672.089 1410.092,641.055 	"/>
	<path fill="#009DBE" d="M1329.999,559.59c-0.824,11.598,9.312,26.092,31.026,27.175c26.063,1.297,24.203,16.952,20.424,27.324
		c-6.458,17.74,20.744,38.809,40.214,47.782c26.12,12.046,55.746,5.058,71.171-14.117c22.046-27.4-13.094-37.65-39.39-34.36
		c-11.892,1.488-31.544-6.716-31.543-22.7c0.005-13.746-2.058-29.265-7.19-40.148c-10.709-22.712-30.185-33.259-51.88-28.523
		C1341.135,526.759,1331.458,539.201,1329.999,559.59z"/>
</g>
<g id="Secondary_shapes">
	<path fill="#E9EDF7" d="M277.5,1175.782l-26.584-10.564c-2.079-0.825-4.441-0.483-6.196,0.908l-22.444,17.739
		c-1.755,1.387-2.638,3.608-2.313,5.82l4.147,28.309c0.325,2.214,1.802,4.084,3.882,4.909l26.583,10.566
		c2.079,0.825,4.442,0.479,6.196-0.905l22.445-17.744c1.754-1.385,2.635-3.604,2.312-5.818l-4.143-28.311
		C281.06,1178.479,279.579,1176.609,277.5,1175.782z"/>
	<path fill="#FCBA06" d="M1553.387,1536.874l15.75,41.629c1.707,4.509,7.651,5.479,10.703,1.745l28.176-34.45
		c3.053-3.73,0.921-9.368-3.837-10.145l-43.929-7.175C1555.494,1527.702,1551.681,1532.365,1553.387,1536.874z"/>
	<path fill="#FFD03E" d="M770.438,68.754l-30.403,32.5c-3.296,3.518-1.543,9.287,3.154,10.375l43.349,10.081
		c4.697,1.091,8.813-3.309,7.412-7.92L781,71.21C779.599,66.593,773.731,65.231,770.438,68.754z"/>
</g>
</svg>
