<?xml version="1.0" encoding="utf-8"?>
<!-- Generator: Adobe Illustrator 16.0.0, SVG Export Plug-In . SVG Version: 6.00 Build 0)  -->
<!DOCTYPE svg PUBLIC "-//W3C//DTD SVG 1.1//EN" "http://www.w3.org/Graphics/SVG/1.1/DTD/svg11.dtd">
<svg version="1.1" id="Layer_1" xmlns="http://www.w3.org/2000/svg" xmlns:xlink="http://www.w3.org/1999/xlink" x="0px" y="0px"
	 width="720px" height="350px" viewBox="0 0 720 350" enable-background="new 0 0 720 350" xml:space="preserve">
<path fill="#019EBF" d="M399.396,178.85l1.924-3.85l-1.924-3.849c-0.033-0.069-0.068-0.136-0.104-0.204l-20.629-41.259
	c-2.216-4.434-7.604-6.231-12.04-4.014c-4.433,2.217-6.229,7.607-4.013,12.041l14.153,28.31h-52.526
	c-5.51,0-10.769,2.065-14.807,5.816c-4.017,3.728-6.476,8.793-6.923,14.267c-0.562,6.787-1.646,13.559-3.233,20.109
	c-1.662,6.855-3.899,13.639-6.666,20.163c-6.646,15.714-16.174,29.845-28.317,41.993c-12.152,12.148-26.28,21.678-41.996,28.325
	c-16.236,6.868-33.523,10.352-51.38,10.352c-17.858,0-35.146-3.481-51.385-10.352c-15.714-6.647-29.843-16.177-41.988-28.324
	c-12.149-12.149-21.682-26.28-28.325-41.995c-6.869-16.236-10.354-33.521-10.354-51.38c0-17.857,3.483-35.144,10.354-51.381
	c6.646-15.715,16.176-29.844,28.323-41.993c12.147-12.148,26.276-21.678,41.994-28.325c16.233-6.869,33.521-10.352,51.382-10.352
	c17.854,0,35.144,3.483,51.381,10.353c15.715,6.646,29.843,16.176,41.993,28.323c12.146,12.151,21.678,26.28,28.321,41.996
	c2.764,6.523,5.002,13.306,6.664,20.161c1.168,4.817,6.021,7.774,10.838,6.604c4.815-1.167,7.773-6.019,6.604-10.836
	c-1.894-7.796-4.438-15.509-7.576-22.925c-7.551-17.853-18.371-33.899-32.164-47.694c-13.794-13.791-29.839-24.611-47.689-32.162
	C210.827,28.961,191.187,25,170.914,25c-20.273,0-39.913,3.961-58.373,11.771c-17.854,7.551-33.899,18.372-47.694,32.164
	c-13.79,13.793-24.611,29.839-32.162,47.691c-7.81,18.461-11.771,38.101-11.771,58.374c0,20.273,3.96,39.912,11.771,58.372
	c7.551,17.854,18.373,33.899,32.164,47.694c13.793,13.789,29.84,24.607,47.692,32.162c18.461,7.811,38.1,11.771,58.374,11.771
	c20.271,0,39.913-3.961,58.373-11.771c17.854-7.555,33.896-18.373,47.69-32.162c13.792-13.795,24.612-29.842,32.163-47.693
	c3.138-7.416,5.687-15.129,7.578-22.93c1.807-7.459,3.043-15.152,3.679-22.862c0.169-2.058,1.819-3.606,3.84-3.606h52.526
	l-14.153,28.313c-2.218,4.437-0.42,9.821,4.017,12.039c1.286,0.646,2.653,0.948,4.006,0.948c3.292,0,6.462-1.815,8.034-4.963
	l20.629-41.262C399.324,178.984,399.363,178.919,399.396,178.85z"/>
<g>
	<path fill="none" stroke="#B0B7B9" stroke-width="2" stroke-linecap="round" stroke-linejoin="round" stroke-miterlimit="10" d="
		M145.07,98.608h7.391c1.158,0,2.097-0.939,2.097-2.097v-7.37"/>
	<path fill="none" stroke="#B0B7B9" stroke-width="2" stroke-linecap="round" stroke-linejoin="round" stroke-miterlimit="10" d="
		M181.009,142.924H148.45c-1.867,0-3.384-1.513-3.384-3.38v-40.74c0-0.125,0.054-0.246,0.143-0.334l9.188-9.191
		c0.089-0.088,0.209-0.138,0.335-0.138h28.2c1.867,0,3.38,1.514,3.38,3.38v36.215"/>
	
		<circle fill="none" stroke="#B0B7B9" stroke-width="2" stroke-linecap="round" stroke-linejoin="round" stroke-miterlimit="10" cx="166.884" cy="117.948" r="14.118"/>
	
		<line fill="none" stroke="#B0B7B9" stroke-width="2" stroke-linecap="round" stroke-linejoin="round" stroke-miterlimit="10" x1="179.843" y1="130.907" x2="176.868" y2="127.931"/>
	
		<line fill="none" stroke="#B0B7B9" stroke-width="2" stroke-linecap="round" stroke-linejoin="round" stroke-miterlimit="10" x1="189.186" y1="139.243" x2="186.72" y2="136.777"/>
	<path fill="none" stroke="#B0B7B9" stroke-width="2" stroke-linecap="round" stroke-linejoin="round" stroke-miterlimit="10" d="
		M191.013,137.417l-4.534-4.534c-1.366-1.367-3.16-2.226-5.082-2.435l-0.162-0.018c-1.086-0.118-2.011,0.785-1.916,1.873l0.05,0.546
		c0.138,1.583,0.825,3.069,1.95,4.193l5.137,5.133c1.357,1.363,3.616,1.284,4.876-0.24
		C192.426,140.609,192.23,138.633,191.013,137.417z"/>
	<g>
		
			<polyline fill="none" stroke="#019EBF" stroke-width="2" stroke-linecap="round" stroke-linejoin="round" stroke-miterlimit="10" points="
			164.092,118.318 166.361,120.588 170.071,116.876 		"/>
		<path fill="none" stroke="#019EBF" stroke-width="2" stroke-linecap="round" stroke-linejoin="round" stroke-miterlimit="10" d="
			M166.885,110.52c0,0-3.506,2.719-6.43,2.719v6.894c0,1.435,0.586,2.724,1.564,3.45c1.026,0.758,4.09,2.777,4.224,2.863
			l0.643,0.424l0.643-0.424c0.134-0.086,3.194-2.105,4.224-2.863c0.979-0.726,1.564-2.015,1.564-3.45v-6.894
			C170.392,113.239,166.885,110.52,166.885,110.52z"/>
	</g>
</g>
<path fill="#09B39C" d="M689.316,116.627c-7.554-17.854-18.373-33.9-32.164-47.694c-13.795-13.791-29.841-24.612-47.692-32.162
	C590.995,28.96,571.359,25,551.086,25c-20.273,0-39.912,3.96-58.373,11.771c-17.854,7.551-33.897,18.372-47.693,32.164
	c-13.791,13.793-24.61,29.839-32.161,47.691c-1.116,2.636-2.155,5.306-3.117,8.001l-4.922-9.846
	c-2.218-4.433-7.604-6.229-12.041-4.013c-4.434,2.216-6.229,7.607-4.015,12.04L414.86,175l-26.098,52.191
	c-2.216,4.434-0.419,9.824,4.015,12.041c4.438,2.216,9.823,0.418,12.041-4.019l4.922-9.846c0.962,2.692,2,5.358,3.116,7.999
	c7.552,17.854,18.371,33.896,32.162,47.689c13.794,13.791,29.841,24.612,47.693,32.164c18.461,7.813,38.1,11.771,58.373,11.771
	c20.271,0,39.909-3.96,58.369-11.771c17.854-7.552,33.9-18.373,47.693-32.164c13.791-13.793,24.61-29.84,32.161-47.688
	c7.812-18.461,11.771-38.104,11.771-58.374C701.086,154.727,697.125,135.087,689.316,116.627z M672.781,226.381
	c-6.646,15.715-16.176,29.844-28.32,41.993c-12.15,12.147-26.279,21.678-41.994,28.325c-16.236,6.869-33.522,10.352-51.381,10.352
	c-17.857,0-35.146-3.482-51.385-10.352c-15.715-6.647-29.844-16.178-41.989-28.324c-12.147-12.15-21.683-26.279-28.325-41.996
	c-3.774-8.921-6.559-18.261-8.267-27.762L416.879,175l4.241-23.618c1.708-9.5,4.487-18.84,8.267-27.764
	c6.646-15.714,16.178-29.843,28.324-41.993c12.146-12.148,26.275-21.678,41.991-28.325c16.235-6.869,33.521-10.352,51.384-10.352
	c17.855,0,35.146,3.483,51.381,10.353c15.715,6.646,29.844,16.176,41.994,28.323c12.146,12.151,21.678,26.28,28.32,41.996
	c6.869,16.236,10.354,33.522,10.354,51.38C683.137,192.857,679.654,210.145,672.781,226.381z"/>
<g>
	<path fill="none" stroke="#B0B7B9" stroke-width="2" stroke-linecap="round" stroke-linejoin="round" stroke-miterlimit="10" d="
		M556.322,136.102h-31.019c-1.632,0-2.957-1.323-2.957-2.957V95.962c0-1.634,1.325-2.958,2.957-2.958h53.239
		c1.634,0,2.958,1.324,2.958,2.958v13.053"/>
	
		<line fill="none" stroke="#B0B7B9" stroke-width="2" stroke-linecap="round" stroke-linejoin="round" stroke-miterlimit="10" x1="537.854" y1="101.094" x2="565.992" y2="101.094"/>
	
		<line fill="none" stroke="#B0B7B9" stroke-width="2" stroke-linecap="round" stroke-linejoin="round" stroke-miterlimit="10" x1="543.713" y1="106.321" x2="560.137" y2="106.321"/>
	
		<polyline fill="none" stroke="#B0B7B9" stroke-width="2" stroke-linecap="round" stroke-linejoin="round" stroke-miterlimit="10" points="
		562.916,140.22 562.916,148.171 570.363,143.438 577.813,148.171 577.813,140.22 	"/>
	
		<circle fill="none" stroke="#B0B7B9" stroke-width="2" stroke-linecap="round" stroke-linejoin="round" stroke-miterlimit="10" cx="570.363" cy="123.994" r="9.083"/>
	
		<polyline fill="none" stroke="#09B39C" stroke-width="2" stroke-linecap="round" stroke-linejoin="round" stroke-miterlimit="10" points="
		566,123.404 569.545,126.948 575.339,121.154 	"/>
	
		<polygon fill="none" stroke="#09B39C" stroke-width="2" stroke-linecap="round" stroke-linejoin="round" stroke-miterlimit="10" points="
		567.653,111.338 570.302,107.863 572.962,111.33 576.795,109.232 577.816,113.481 582.171,113.125 581.375,117.422 
		585.494,118.867 583.021,122.468 586.199,125.466 582.477,127.749 584.158,131.782 579.825,132.352 579.729,136.721 
		575.535,135.479 573.67,139.43 570.348,136.592 567.031,139.44 565.152,135.496 560.966,136.75 560.852,132.382 556.519,131.825 
		558.189,127.788 554.453,125.517 557.627,122.508 555.14,118.915 559.26,117.457 558.448,113.162 562.806,113.505 563.813,109.253 
			"/>
	
		<line fill="none" stroke="#09B39C" stroke-width="2" stroke-linecap="round" stroke-linejoin="round" stroke-miterlimit="10" x1="531.588" y1="116.542" x2="532.688" y2="116.542"/>
	
		<line fill="none" stroke="#09B39C" stroke-width="2" stroke-linecap="round" stroke-linejoin="round" stroke-miterlimit="10" x1="531.588" y1="121.77" x2="532.688" y2="121.77"/>
	
		<line fill="none" stroke="#09B39C" stroke-width="2" stroke-linecap="round" stroke-linejoin="round" stroke-miterlimit="10" x1="531.588" y1="126.996" x2="532.688" y2="126.996"/>
	
		<line fill="none" stroke="#B0B7B9" stroke-width="2" stroke-linecap="round" stroke-linejoin="round" stroke-miterlimit="10" x1="536.992" y1="116.542" x2="548.52" y2="116.542"/>
	
		<line fill="none" stroke="#B0B7B9" stroke-width="2" stroke-linecap="round" stroke-linejoin="round" stroke-miterlimit="10" x1="536.992" y1="121.77" x2="548.52" y2="121.77"/>
	
		<line fill="none" stroke="#B0B7B9" stroke-width="2" stroke-linecap="round" stroke-linejoin="round" stroke-miterlimit="10" x1="536.992" y1="126.996" x2="548.52" y2="126.996"/>
</g>
<g>
	<path d="M100.941,183.621c0.491-0.869,1.16-1.55,2.008-2.041c0.848-0.49,1.789-0.735,2.824-0.735c1.216,0,2.277,0.294,3.184,0.88
		c0.907,0.587,1.568,1.419,1.984,2.496h-1.744c-0.31-0.672-0.755-1.189-1.336-1.553c-0.582-0.361-1.278-0.543-2.088-0.543
		c-0.779,0-1.478,0.182-2.096,0.543c-0.619,0.363-1.104,0.878-1.456,1.545c-0.352,0.666-0.528,1.447-0.528,2.344
		c0,0.885,0.176,1.662,0.528,2.328s0.837,1.182,1.456,1.544c0.618,0.362,1.317,0.544,2.096,0.544c0.811,0,1.507-0.179,2.088-0.536
		c0.581-0.356,1.026-0.872,1.336-1.544h1.744c-0.416,1.066-1.077,1.891-1.984,2.473c-0.907,0.581-1.968,0.871-3.184,0.871
		c-1.035,0-1.976-0.242-2.824-0.728c-0.848-0.485-1.518-1.16-2.008-2.024c-0.491-0.863-0.736-1.84-0.736-2.928
		S100.45,184.49,100.941,183.621z"/>
	<path d="M113.101,185.365c0.363-0.678,0.861-1.203,1.496-1.576c0.634-0.373,1.341-0.561,2.12-0.561c0.768,0,1.435,0.166,2,0.496
		c0.565,0.33,0.986,0.746,1.264,1.248v-1.6h1.472v8.768h-1.472v-1.632c-0.288,0.512-0.717,0.937-1.288,1.272
		c-0.571,0.336-1.235,0.504-1.992,0.504c-0.779,0-1.483-0.192-2.112-0.576c-0.63-0.385-1.125-0.923-1.488-1.616
		s-0.544-1.482-0.544-2.368C112.557,186.828,112.739,186.042,113.101,185.365z M119.581,186.013
		c-0.267-0.491-0.626-0.866-1.08-1.128c-0.453-0.262-0.952-0.393-1.496-0.393c-0.544,0-1.04,0.129-1.488,0.385
		c-0.448,0.256-0.806,0.629-1.072,1.119c-0.267,0.491-0.4,1.067-0.4,1.729c0,0.672,0.133,1.256,0.4,1.752
		c0.266,0.496,0.624,0.875,1.072,1.137c0.448,0.261,0.944,0.391,1.488,0.391c0.544,0,1.042-0.13,1.496-0.391
		c0.454-0.262,0.813-0.641,1.08-1.137s0.4-1.074,0.4-1.736C119.981,187.08,119.848,186.504,119.581,186.013z"/>
	<path d="M126.469,183.629c0.474-0.277,1.053-0.416,1.736-0.416v1.504h-0.384c-1.632,0-2.448,0.885-2.448,2.656v4.768h-1.456v-8.768
		h1.456v1.424C125.629,184.295,125.994,183.906,126.469,183.629z"/>
	<path d="M132.653,183.725c0.576-0.33,1.232-0.496,1.968-0.496c0.79,0,1.499,0.188,2.128,0.561c0.629,0.373,1.125,0.898,1.488,1.576
		c0.362,0.677,0.544,1.463,0.544,2.359c0,0.886-0.182,1.675-0.544,2.368c-0.363,0.693-0.861,1.231-1.496,1.616
		c-0.635,0.384-1.341,0.576-2.12,0.576c-0.757,0-1.421-0.166-1.992-0.496c-0.571-0.331-1-0.752-1.288-1.265v1.616h-1.456v-11.84
		h1.456v4.703C131.639,184.482,132.076,184.055,132.653,183.725z M136.893,185.996c-0.267-0.49-0.627-0.863-1.08-1.119
		c-0.454-0.256-0.952-0.385-1.496-0.385c-0.534,0-1.027,0.131-1.48,0.393c-0.454,0.262-0.816,0.64-1.088,1.136
		s-0.408,1.069-0.408,1.72c0,0.662,0.136,1.24,0.408,1.736s0.634,0.875,1.088,1.137c0.453,0.261,0.946,0.391,1.48,0.391
		c0.544,0,1.042-0.13,1.496-0.391c0.453-0.262,0.813-0.641,1.08-1.137c0.266-0.496,0.4-1.08,0.4-1.752
		C137.293,187.063,137.159,186.487,136.893,185.996z"/>
	<path d="M142.293,191.725c-0.667-0.373-1.19-0.904-1.568-1.592s-0.568-1.485-0.568-2.393c0-0.896,0.194-1.688,0.584-2.375
		c0.389-0.688,0.92-1.217,1.592-1.584c0.672-0.369,1.424-0.553,2.256-0.553s1.584,0.184,2.256,0.553
		c0.672,0.367,1.203,0.893,1.592,1.575c0.39,0.683,0.584,1.478,0.584,2.384c0,0.907-0.2,1.705-0.6,2.393
		c-0.4,0.688-0.941,1.219-1.624,1.592c-0.683,0.373-1.44,0.561-2.272,0.561C143.703,192.285,142.96,192.098,142.293,191.725z
		 M145.997,190.637c0.458-0.245,0.83-0.613,1.112-1.104c0.282-0.491,0.424-1.088,0.424-1.793c0-0.703-0.139-1.301-0.416-1.791
		c-0.277-0.491-0.64-0.856-1.088-1.097c-0.448-0.239-0.934-0.36-1.456-0.36c-0.534,0-1.021,0.121-1.464,0.36
		c-0.443,0.24-0.798,0.605-1.064,1.097c-0.267,0.49-0.4,1.088-0.4,1.791c0,0.715,0.131,1.318,0.392,1.809s0.611,0.855,1.048,1.096
		c0.437,0.24,0.917,0.359,1.44,0.359C145.048,191.004,145.538,190.883,145.997,190.637z"/>
	<path d="M157.805,184.181c0.661,0.646,0.992,1.576,0.992,2.792v5.168h-1.44v-4.96c0-0.874-0.219-1.544-0.656-2.008
		c-0.438-0.464-1.035-0.696-1.792-0.696c-0.768,0-1.379,0.24-1.832,0.721c-0.454,0.479-0.68,1.178-0.68,2.096v4.848h-1.456v-8.768
		h1.456v1.248c0.288-0.448,0.68-0.795,1.176-1.041c0.496-0.244,1.043-0.367,1.64-0.367
		C156.279,183.213,157.143,183.535,157.805,184.181z"/>
	<path d="M168.005,183.629c0.474-0.277,1.053-0.416,1.736-0.416v1.504h-0.384c-1.632,0-2.448,0.885-2.448,2.656v4.768h-1.456v-8.768
		h1.456v1.424C167.165,184.295,167.53,183.906,168.005,183.629z"/>
	<path d="M179.373,188.301h-7.008c0.054,0.863,0.35,1.539,0.888,2.023c0.539,0.486,1.192,0.729,1.96,0.729
		c0.629,0,1.155-0.146,1.576-0.439c0.421-0.294,0.717-0.686,0.888-1.177h1.568c-0.235,0.843-0.704,1.528-1.408,2.056
		c-0.704,0.528-1.579,0.793-2.624,0.793c-0.832,0-1.576-0.188-2.232-0.561c-0.656-0.373-1.171-0.904-1.544-1.592
		c-0.374-0.688-0.56-1.485-0.56-2.393c0-0.906,0.181-1.701,0.544-2.384s0.872-1.208,1.528-1.575
		c0.656-0.369,1.411-0.553,2.264-0.553c0.832,0,1.568,0.182,2.208,0.544s1.133,0.862,1.48,1.496c0.347,0.635,0.52,1.353,0.52,2.151
		C179.421,187.698,179.405,187.991,179.373,188.301z M177.549,185.685c-0.246-0.399-0.579-0.704-1-0.912s-0.888-0.312-1.4-0.312
		c-0.736,0-1.363,0.234-1.88,0.703c-0.518,0.471-0.813,1.121-0.888,1.953h5.536C177.917,186.563,177.794,186.084,177.549,185.685z"
		/>
	<path d="M181.341,185.365c0.363-0.678,0.861-1.203,1.496-1.576c0.634-0.373,1.347-0.561,2.136-0.561
		c0.683,0,1.317,0.158,1.904,0.473c0.586,0.314,1.035,0.728,1.344,1.239v-4.64h1.472v11.84h-1.472v-1.648
		c-0.288,0.523-0.714,0.953-1.28,1.289s-1.227,0.504-1.984,0.504c-0.779,0-1.486-0.192-2.12-0.576
		c-0.635-0.385-1.133-0.923-1.496-1.616s-0.544-1.482-0.544-2.368C180.797,186.828,180.978,186.042,181.341,185.365z
		 M187.821,186.013c-0.267-0.491-0.626-0.866-1.08-1.128c-0.453-0.262-0.952-0.393-1.496-0.393c-0.544,0-1.04,0.129-1.488,0.385
		c-0.448,0.256-0.806,0.629-1.072,1.119c-0.267,0.491-0.4,1.067-0.4,1.729c0,0.672,0.133,1.256,0.4,1.752
		c0.266,0.496,0.624,0.875,1.072,1.137c0.448,0.261,0.944,0.391,1.488,0.391c0.544,0,1.042-0.13,1.496-0.391
		c0.454-0.262,0.813-0.641,1.08-1.137s0.4-1.074,0.4-1.736C188.22,187.08,188.087,186.504,187.821,186.013z"/>
	<path d="M199.932,183.373v8.768h-1.456v-1.296c-0.277,0.448-0.664,0.798-1.16,1.048s-1.043,0.376-1.64,0.376
		c-0.683,0-1.296-0.142-1.84-0.424s-0.974-0.706-1.288-1.272c-0.315-0.564-0.472-1.253-0.472-2.063v-5.136h1.44v4.943
		c0,0.864,0.219,1.528,0.656,1.992c0.437,0.464,1.035,0.695,1.792,0.695c0.778,0,1.392-0.239,1.84-0.719
		c0.448-0.48,0.672-1.18,0.672-2.097v-4.815H199.932z"/>
	<path d="M202.396,185.365c0.363-0.678,0.867-1.203,1.512-1.576c0.645-0.373,1.384-0.561,2.216-0.561
		c1.077,0,1.965,0.262,2.664,0.784c0.698,0.522,1.16,1.248,1.384,2.176h-1.568c-0.149-0.533-0.44-0.954-0.872-1.264
		c-0.432-0.31-0.968-0.464-1.608-0.464c-0.832,0-1.504,0.285-2.016,0.855c-0.512,0.57-0.768,1.379-0.768,2.424
		c0,1.057,0.256,1.873,0.768,2.448c0.512,0.576,1.184,0.864,2.016,0.864c0.64,0,1.173-0.149,1.6-0.448
		c0.426-0.298,0.72-0.726,0.88-1.28h1.568c-0.234,0.896-0.704,1.613-1.408,2.152s-1.584,0.809-2.64,0.809
		c-0.832,0-1.571-0.188-2.216-0.561c-0.646-0.373-1.149-0.901-1.512-1.584s-0.544-1.482-0.544-2.4
		C201.852,186.834,202.033,186.042,202.396,185.365z"/>
	<path d="M213.884,184.572v5.168c0,0.428,0.091,0.729,0.272,0.904c0.182,0.176,0.496,0.264,0.944,0.264h1.072v1.232h-1.312
		c-0.811,0-1.418-0.187-1.824-0.561c-0.406-0.373-0.608-0.986-0.608-1.84v-5.168h-1.136v-1.199h1.136v-2.209h1.456v2.209h2.288
		v1.199H213.884z"/>
	<path d="M217.98,181.66c-0.192-0.191-0.288-0.426-0.288-0.703s0.096-0.512,0.288-0.705c0.192-0.191,0.427-0.287,0.704-0.287
		c0.267,0,0.493,0.096,0.68,0.287c0.187,0.193,0.28,0.428,0.28,0.705s-0.093,0.512-0.28,0.703c-0.187,0.192-0.414,0.289-0.68,0.289
		C218.407,181.949,218.173,181.853,217.98,181.66z M219.388,183.373v8.768h-1.456v-8.768H219.388z"/>
	<path d="M223.46,191.725c-0.667-0.373-1.19-0.904-1.568-1.592s-0.568-1.485-0.568-2.393c0-0.896,0.194-1.688,0.584-2.375
		c0.389-0.688,0.92-1.217,1.592-1.584c0.672-0.369,1.424-0.553,2.256-0.553s1.584,0.184,2.256,0.553
		c0.672,0.367,1.203,0.893,1.592,1.575c0.39,0.683,0.584,1.478,0.584,2.384c0,0.907-0.2,1.705-0.6,2.393
		c-0.4,0.688-0.941,1.219-1.624,1.592c-0.683,0.373-1.44,0.561-2.272,0.561C224.87,192.285,224.127,192.098,223.46,191.725z
		 M227.164,190.637c0.458-0.245,0.83-0.613,1.112-1.104c0.282-0.491,0.424-1.088,0.424-1.793c0-0.703-0.139-1.301-0.416-1.791
		c-0.277-0.491-0.64-0.856-1.088-1.097c-0.448-0.239-0.934-0.36-1.456-0.36c-0.534,0-1.021,0.121-1.464,0.36
		c-0.443,0.24-0.798,0.605-1.064,1.097c-0.267,0.49-0.4,1.088-0.4,1.791c0,0.715,0.131,1.318,0.392,1.809s0.611,0.855,1.048,1.096
		c0.437,0.24,0.917,0.359,1.44,0.359C226.215,191.004,226.705,190.883,227.164,190.637z"/>
	<path d="M238.972,184.181c0.661,0.646,0.992,1.576,0.992,2.792v5.168h-1.44v-4.96c0-0.874-0.219-1.544-0.656-2.008
		c-0.438-0.464-1.035-0.696-1.792-0.696c-0.768,0-1.379,0.24-1.832,0.721c-0.454,0.479-0.68,1.178-0.68,2.096v4.848h-1.456v-8.768
		h1.456v1.248c0.288-0.448,0.68-0.795,1.176-1.041c0.496-0.244,1.043-0.367,1.64-0.367
		C237.447,183.213,238.311,183.535,238.972,184.181z"/>
	<path d="M130.037,202.837c0.533,0.282,0.955,0.706,1.264,1.272c0.31,0.564,0.464,1.253,0.464,2.063v5.168h-1.44v-4.96
		c0-0.875-0.216-1.544-0.648-2.008c-0.432-0.465-1.016-0.696-1.752-0.696c-0.757,0-1.36,0.243-1.808,0.728
		c-0.448,0.486-0.672,1.188-0.672,2.104v4.832h-1.44v-4.96c0-0.875-0.216-1.544-0.648-2.008c-0.432-0.465-1.016-0.696-1.752-0.696
		c-0.757,0-1.36,0.243-1.808,0.728c-0.448,0.486-0.672,1.188-0.672,2.104v4.832h-1.456v-8.769h1.456v1.265
		c0.288-0.458,0.674-0.811,1.16-1.056c0.485-0.246,1.021-0.369,1.608-0.369c0.736,0,1.386,0.166,1.952,0.496
		c0.565,0.332,0.986,0.816,1.264,1.457c0.246-0.619,0.65-1.1,1.216-1.44c0.565-0.341,1.194-0.513,1.888-0.513
		C128.895,202.412,129.503,202.555,130.037,202.837z"/>
	<path d="M142.101,207.501h-7.008c0.054,0.864,0.35,1.538,0.888,2.024c0.539,0.484,1.192,0.728,1.96,0.728
		c0.629,0,1.155-0.146,1.576-0.44c0.421-0.293,0.717-0.686,0.888-1.176h1.568c-0.235,0.843-0.704,1.528-1.408,2.057
		c-0.704,0.527-1.579,0.791-2.624,0.791c-0.832,0-1.576-0.186-2.232-0.56c-0.656-0.373-1.171-0.903-1.544-1.592
		c-0.374-0.688-0.56-1.485-0.56-2.392c0-0.907,0.181-1.701,0.544-2.385c0.363-0.682,0.872-1.208,1.528-1.576
		c0.656-0.367,1.411-0.552,2.264-0.552c0.832,0,1.568,0.182,2.208,0.544c0.64,0.363,1.133,0.861,1.48,1.496s0.52,1.352,0.52,2.152
		C142.149,206.898,142.133,207.191,142.101,207.501z M140.277,204.885c-0.246-0.4-0.579-0.704-1-0.912s-0.888-0.313-1.4-0.313
		c-0.736,0-1.363,0.235-1.88,0.705c-0.518,0.469-0.813,1.119-0.888,1.951h5.536C140.645,205.762,140.522,205.285,140.277,204.885z"
		/>
	<path d="M145.844,203.773v5.168c0,0.426,0.091,0.728,0.272,0.903c0.182,0.177,0.496,0.265,0.944,0.265h1.072v1.231h-1.312
		c-0.811,0-1.418-0.187-1.824-0.56c-0.406-0.373-0.608-0.986-0.608-1.84v-5.168h-1.136v-1.201h1.136v-2.207h1.456v2.207h2.288v1.201
		H145.844z"/>
	<path d="M156.036,202.837c0.533,0.282,0.952,0.706,1.256,1.272c0.304,0.564,0.456,1.253,0.456,2.063v5.168h-1.44v-4.96
		c0-0.875-0.219-1.544-0.656-2.008c-0.438-0.465-1.035-0.696-1.792-0.696c-0.768,0-1.379,0.24-1.832,0.72
		c-0.454,0.48-0.68,1.18-0.68,2.096v4.849h-1.456v-11.84h1.456v4.319c0.288-0.447,0.685-0.794,1.192-1.039
		c0.507-0.246,1.075-0.369,1.704-0.369C154.906,202.412,155.503,202.555,156.036,202.837z"/>
	<path d="M161.725,210.925c-0.667-0.373-1.19-0.903-1.568-1.592s-0.568-1.485-0.568-2.392c0-0.896,0.194-1.688,0.584-2.377
		c0.389-0.688,0.92-1.216,1.592-1.584c0.672-0.367,1.424-0.552,2.256-0.552s1.584,0.185,2.256,0.552
		c0.672,0.368,1.203,0.895,1.592,1.576c0.39,0.684,0.584,1.478,0.584,2.385c0,0.906-0.2,1.703-0.6,2.392
		c-0.4,0.688-0.941,1.219-1.624,1.592c-0.683,0.374-1.44,0.56-2.272,0.56C163.135,211.484,162.391,211.299,161.725,210.925z
		 M165.428,209.837c0.458-0.245,0.83-0.613,1.112-1.104c0.282-0.49,0.424-1.088,0.424-1.791c0-0.705-0.139-1.302-0.416-1.793
		c-0.277-0.49-0.64-0.855-1.088-1.096c-0.448-0.24-0.934-0.359-1.456-0.359c-0.534,0-1.021,0.119-1.464,0.359
		c-0.443,0.24-0.798,0.605-1.064,1.096c-0.267,0.491-0.4,1.088-0.4,1.793c0,0.715,0.131,1.316,0.392,1.808s0.611,0.856,1.048,1.096
		c0.437,0.24,0.917,0.36,1.44,0.36C164.479,210.205,164.97,210.082,165.428,209.837z"/>
	<path d="M170.373,204.564c0.363-0.677,0.861-1.202,1.496-1.576c0.634-0.373,1.347-0.56,2.136-0.56c0.683,0,1.317,0.157,1.904,0.472
		c0.586,0.314,1.035,0.729,1.344,1.24v-4.64h1.472v11.84h-1.472v-1.647c-0.288,0.521-0.714,0.951-1.28,1.287
		s-1.227,0.504-1.984,0.504c-0.779,0-1.486-0.191-2.12-0.576c-0.635-0.383-1.133-0.922-1.496-1.615s-0.544-1.482-0.544-2.368
		C169.829,206.029,170.01,205.242,170.373,204.564z M176.853,205.213c-0.267-0.49-0.626-0.867-1.08-1.128
		c-0.453-0.261-0.952-0.392-1.496-0.392c-0.544,0-1.04,0.127-1.488,0.383c-0.448,0.257-0.806,0.631-1.072,1.121
		c-0.267,0.49-0.4,1.066-0.4,1.728c0,0.672,0.133,1.256,0.4,1.752c0.266,0.496,0.624,0.875,1.072,1.136
		c0.448,0.262,0.944,0.393,1.488,0.393c0.544,0,1.042-0.131,1.496-0.393c0.454-0.261,0.813-0.64,1.08-1.136s0.4-1.074,0.4-1.735
		C177.253,206.279,177.119,205.703,176.853,205.213z"/>
	<path d="M182.781,210.925c-0.667-0.373-1.19-0.903-1.568-1.592s-0.568-1.485-0.568-2.392c0-0.896,0.194-1.688,0.584-2.377
		c0.389-0.688,0.92-1.216,1.592-1.584c0.672-0.367,1.424-0.552,2.256-0.552s1.584,0.185,2.256,0.552
		c0.672,0.368,1.203,0.895,1.592,1.576c0.39,0.684,0.584,1.478,0.584,2.385c0,0.906-0.2,1.703-0.6,2.392
		c-0.4,0.688-0.941,1.219-1.624,1.592c-0.683,0.374-1.44,0.56-2.272,0.56C184.191,211.484,183.447,211.299,182.781,210.925z
		 M186.484,209.837c0.458-0.245,0.83-0.613,1.112-1.104c0.282-0.49,0.424-1.088,0.424-1.791c0-0.705-0.139-1.302-0.416-1.793
		c-0.277-0.49-0.64-0.855-1.088-1.096c-0.448-0.24-0.934-0.359-1.456-0.359c-0.534,0-1.021,0.119-1.464,0.359
		c-0.443,0.24-0.798,0.605-1.064,1.096c-0.267,0.491-0.4,1.088-0.4,1.793c0,0.715,0.131,1.316,0.392,1.808s0.611,0.856,1.048,1.096
		c0.437,0.24,0.917,0.36,1.44,0.36C185.535,210.205,186.026,210.082,186.484,209.837z"/>
	<path d="M192.885,199.501v11.84h-1.456v-11.84H192.885z"/>
	<path d="M196.956,210.925c-0.667-0.373-1.19-0.903-1.568-1.592s-0.568-1.485-0.568-2.392c0-0.896,0.194-1.688,0.584-2.377
		c0.389-0.688,0.92-1.216,1.592-1.584c0.672-0.367,1.424-0.552,2.256-0.552s1.584,0.185,2.256,0.552
		c0.672,0.368,1.203,0.895,1.592,1.576c0.39,0.684,0.584,1.478,0.584,2.385c0,0.906-0.2,1.703-0.6,2.392
		c-0.4,0.688-0.941,1.219-1.624,1.592c-0.683,0.374-1.44,0.56-2.272,0.56C198.366,211.484,197.623,211.299,196.956,210.925z
		 M200.66,209.837c0.458-0.245,0.83-0.613,1.112-1.104c0.282-0.49,0.424-1.088,0.424-1.791c0-0.705-0.139-1.302-0.416-1.793
		c-0.277-0.49-0.64-0.855-1.088-1.096c-0.448-0.24-0.934-0.359-1.456-0.359c-0.534,0-1.021,0.119-1.464,0.359
		c-0.443,0.24-0.798,0.605-1.064,1.096c-0.267,0.491-0.4,1.088-0.4,1.793c0,0.715,0.131,1.316,0.392,1.808s0.611,0.856,1.048,1.096
		c0.437,0.24,0.917,0.36,1.44,0.36C199.711,210.205,200.201,210.082,200.66,209.837z"/>
	<path d="M211.212,202.925c0.571,0.331,0.995,0.747,1.272,1.248v-1.601h1.472v8.961c0,0.8-0.171,1.512-0.512,2.136
		s-0.829,1.112-1.464,1.464s-1.374,0.527-2.216,0.527c-1.152,0-2.112-0.271-2.88-0.815c-0.768-0.544-1.222-1.286-1.36-2.224h1.44
		c0.16,0.533,0.491,0.963,0.992,1.287c0.501,0.326,1.104,0.488,1.808,0.488c0.8,0,1.453-0.25,1.96-0.752
		c0.506-0.501,0.76-1.205,0.76-2.111v-1.84c-0.288,0.512-0.714,0.938-1.28,1.279s-1.227,0.512-1.984,0.512
		c-0.779,0-1.486-0.191-2.12-0.576c-0.635-0.383-1.133-0.922-1.496-1.615s-0.544-1.482-0.544-2.368c0-0.896,0.181-1.683,0.544-2.36
		c0.363-0.677,0.861-1.202,1.496-1.576c0.634-0.373,1.341-0.56,2.12-0.56C209.978,202.429,210.641,202.594,211.212,202.925z
		 M212.084,205.213c-0.267-0.49-0.626-0.867-1.08-1.128c-0.453-0.261-0.952-0.392-1.496-0.392c-0.544,0-1.04,0.127-1.488,0.383
		c-0.448,0.257-0.806,0.631-1.072,1.121c-0.267,0.49-0.4,1.066-0.4,1.728c0,0.672,0.133,1.256,0.4,1.752
		c0.266,0.496,0.624,0.875,1.072,1.136c0.448,0.262,0.944,0.393,1.488,0.393c0.544,0,1.042-0.131,1.496-0.393
		c0.454-0.261,0.813-0.64,1.08-1.136s0.4-1.074,0.4-1.735C212.484,206.279,212.351,205.703,212.084,205.213z"/>
	<path d="M223.972,202.572l-5.28,12.896h-1.504l1.728-4.225l-3.536-8.672h1.616l2.752,7.104l2.72-7.104H223.972z"/>
	<path d="M68.238,215.469l-4.384,17.792h-1.44l4.368-17.792H68.238z"/>
	<path d="M73.182,222.125c0.576-0.331,1.232-0.496,1.968-0.496c0.79,0,1.499,0.187,2.128,0.56c0.629,0.374,1.125,0.899,1.488,1.576
		c0.362,0.677,0.544,1.464,0.544,2.36c0,0.885-0.182,1.674-0.544,2.367c-0.363,0.693-0.861,1.232-1.496,1.616
		s-1.341,0.576-2.12,0.576c-0.757,0-1.421-0.165-1.992-0.496c-0.571-0.331-1-0.752-1.288-1.265v1.617h-1.456v-11.84h1.456v4.703
		C72.168,222.882,72.606,222.455,73.182,222.125z M77.422,224.396c-0.267-0.49-0.627-0.863-1.08-1.12
		c-0.454-0.256-0.952-0.384-1.496-0.384c-0.534,0-1.027,0.131-1.48,0.393c-0.454,0.261-0.816,0.639-1.088,1.135
		s-0.408,1.07-0.408,1.721c0,0.662,0.136,1.24,0.408,1.736s0.634,0.875,1.088,1.136c0.453,0.261,0.946,0.392,1.48,0.392
		c0.544,0,1.042-0.131,1.496-0.392c0.453-0.261,0.813-0.64,1.08-1.136c0.266-0.496,0.4-1.08,0.4-1.752
		C77.822,225.463,77.688,224.887,77.422,224.396z"/>
	<path d="M89.006,221.772v8.769H87.55v-1.297c-0.277,0.448-0.664,0.798-1.16,1.049c-0.496,0.25-1.043,0.375-1.64,0.375
		c-0.683,0-1.296-0.141-1.84-0.424c-0.544-0.282-0.974-0.706-1.288-1.271c-0.315-0.565-0.472-1.254-0.472-2.064v-5.136h1.44v4.944
		c0,0.863,0.219,1.527,0.656,1.992c0.437,0.463,1.035,0.695,1.792,0.695c0.778,0,1.392-0.24,1.84-0.72
		c0.448-0.479,0.672-1.179,0.672-2.097v-4.815H89.006z"/>
	<path d="M92.766,230.34c-0.533-0.229-0.955-0.549-1.264-0.959c-0.31-0.41-0.48-0.883-0.512-1.416h1.504
		c0.042,0.438,0.248,0.795,0.616,1.072s0.851,0.416,1.448,0.416c0.555,0,0.992-0.123,1.312-0.369c0.32-0.244,0.48-0.555,0.48-0.928
		c0-0.384-0.17-0.669-0.512-0.855c-0.342-0.187-0.87-0.371-1.584-0.553c-0.651-0.17-1.182-0.344-1.592-0.52
		s-0.763-0.438-1.056-0.784c-0.293-0.347-0.44-0.802-0.44-1.368c0-0.447,0.133-0.857,0.4-1.231c0.267-0.374,0.645-0.669,1.136-0.888
		s1.051-0.328,1.68-0.328c0.97,0,1.754,0.245,2.352,0.736c0.597,0.49,0.917,1.162,0.96,2.016h-1.456
		c-0.032-0.459-0.216-0.826-0.552-1.104c-0.336-0.276-0.787-0.416-1.352-0.416c-0.523,0-0.939,0.112-1.248,0.336
		c-0.31,0.224-0.464,0.518-0.464,0.88c0,0.289,0.093,0.525,0.28,0.713c0.187,0.186,0.421,0.336,0.704,0.447
		c0.282,0.112,0.674,0.238,1.176,0.376c0.629,0.171,1.141,0.339,1.536,0.505c0.395,0.165,0.733,0.412,1.016,0.743
		c0.282,0.331,0.429,0.763,0.44,1.296c0,0.48-0.134,0.912-0.4,1.297c-0.267,0.383-0.643,0.686-1.128,0.903
		c-0.485,0.219-1.042,0.328-1.672,0.328C93.902,230.685,93.299,230.57,92.766,230.34z"/>
	<path d="M99.87,220.061c-0.192-0.191-0.288-0.427-0.288-0.704s0.096-0.512,0.288-0.704c0.192-0.191,0.427-0.287,0.704-0.287
		c0.267,0,0.493,0.096,0.68,0.287c0.187,0.192,0.28,0.427,0.28,0.704s-0.093,0.513-0.28,0.704c-0.187,0.191-0.414,0.288-0.68,0.288
		C100.297,220.349,100.062,220.252,99.87,220.061z M101.278,221.772v8.769h-1.456v-8.769H101.278z"/>
	<path d="M110.622,222.58c0.661,0.646,0.992,1.576,0.992,2.793v5.168h-1.44v-4.961c0-0.874-0.219-1.543-0.656-2.008
		c-0.438-0.464-1.035-0.695-1.792-0.695c-0.768,0-1.379,0.24-1.832,0.72c-0.454,0.479-0.68,1.179-0.68,2.096v4.849h-1.456v-8.769
		h1.456v1.248c0.288-0.448,0.68-0.794,1.176-1.04c0.496-0.245,1.043-0.368,1.64-0.368
		C109.096,221.612,109.96,221.936,110.622,222.58z"/>
	<path d="M121.95,226.701h-7.008c0.054,0.863,0.35,1.538,0.888,2.023s1.192,0.729,1.96,0.729c0.629,0,1.155-0.146,1.576-0.44
		s0.717-0.686,0.888-1.177h1.568c-0.235,0.844-0.704,1.529-1.408,2.057s-1.579,0.792-2.624,0.792c-0.832,0-1.576-0.187-2.232-0.56
		c-0.656-0.373-1.171-0.904-1.544-1.592c-0.374-0.688-0.56-1.486-0.56-2.393s0.181-1.701,0.544-2.385
		c0.363-0.682,0.872-1.207,1.528-1.575c0.656-0.368,1.411-0.552,2.264-0.552c0.832,0,1.568,0.182,2.208,0.543
		c0.64,0.363,1.133,0.862,1.48,1.496c0.347,0.635,0.52,1.353,0.52,2.152C121.998,226.098,121.982,226.391,121.95,226.701z
		 M120.126,224.084c-0.246-0.399-0.579-0.703-1-0.912c-0.421-0.207-0.888-0.312-1.4-0.312c-0.736,0-1.363,0.235-1.88,0.704
		c-0.518,0.47-0.813,1.12-0.888,1.952h5.536C120.494,224.962,120.371,224.484,120.126,224.084z"/>
	<path d="M125.214,230.34c-0.533-0.229-0.955-0.549-1.264-0.959c-0.31-0.41-0.48-0.883-0.512-1.416h1.504
		c0.042,0.438,0.248,0.795,0.616,1.072s0.851,0.416,1.448,0.416c0.555,0,0.992-0.123,1.312-0.369c0.32-0.244,0.48-0.555,0.48-0.928
		c0-0.384-0.17-0.669-0.512-0.855c-0.342-0.187-0.87-0.371-1.584-0.553c-0.651-0.17-1.182-0.344-1.592-0.52
		s-0.763-0.438-1.056-0.784c-0.293-0.347-0.44-0.802-0.44-1.368c0-0.447,0.133-0.857,0.4-1.231c0.267-0.374,0.645-0.669,1.136-0.888
		s1.051-0.328,1.68-0.328c0.97,0,1.754,0.245,2.352,0.736c0.597,0.49,0.917,1.162,0.96,2.016h-1.456
		c-0.032-0.459-0.216-0.826-0.552-1.104c-0.336-0.276-0.787-0.416-1.352-0.416c-0.523,0-0.939,0.112-1.248,0.336
		c-0.31,0.224-0.464,0.518-0.464,0.88c0,0.289,0.093,0.525,0.28,0.713c0.187,0.186,0.421,0.336,0.704,0.447
		c0.282,0.112,0.674,0.238,1.176,0.376c0.629,0.171,1.141,0.339,1.536,0.505c0.395,0.165,0.733,0.412,1.016,0.743
		c0.282,0.331,0.429,0.763,0.44,1.296c0,0.48-0.134,0.912-0.4,1.297c-0.267,0.383-0.643,0.686-1.128,0.903
		c-0.485,0.219-1.042,0.328-1.672,0.328C126.35,230.685,125.747,230.57,125.214,230.34z"/>
	<path d="M133.565,230.34c-0.533-0.229-0.955-0.549-1.264-0.959c-0.31-0.41-0.48-0.883-0.512-1.416h1.504
		c0.042,0.438,0.248,0.795,0.616,1.072s0.851,0.416,1.448,0.416c0.555,0,0.992-0.123,1.312-0.369c0.32-0.244,0.48-0.555,0.48-0.928
		c0-0.384-0.17-0.669-0.512-0.855c-0.342-0.187-0.87-0.371-1.584-0.553c-0.651-0.17-1.182-0.344-1.592-0.52
		s-0.763-0.438-1.056-0.784c-0.293-0.347-0.44-0.802-0.44-1.368c0-0.447,0.133-0.857,0.4-1.231c0.267-0.374,0.645-0.669,1.136-0.888
		s1.051-0.328,1.68-0.328c0.97,0,1.754,0.245,2.352,0.736c0.597,0.49,0.917,1.162,0.96,2.016h-1.456
		c-0.032-0.459-0.216-0.826-0.552-1.104c-0.336-0.276-0.787-0.416-1.352-0.416c-0.523,0-0.939,0.112-1.248,0.336
		c-0.31,0.224-0.464,0.518-0.464,0.88c0,0.289,0.093,0.525,0.28,0.713c0.187,0.186,0.421,0.336,0.704,0.447
		c0.282,0.112,0.674,0.238,1.176,0.376c0.629,0.171,1.141,0.339,1.536,0.505c0.395,0.165,0.733,0.412,1.016,0.743
		c0.282,0.331,0.429,0.763,0.44,1.296c0,0.48-0.134,0.912-0.4,1.297c-0.267,0.383-0.643,0.686-1.128,0.903
		c-0.485,0.219-1.042,0.328-1.672,0.328C134.701,230.685,134.098,230.57,133.565,230.34z"/>
	<path d="M147.637,222.133c0.57-0.336,1.234-0.504,1.992-0.504c0.779,0,1.485,0.187,2.12,0.56c0.635,0.374,1.133,0.899,1.496,1.576
		c0.362,0.677,0.544,1.464,0.544,2.36c0,0.885-0.182,1.674-0.544,2.367c-0.363,0.693-0.861,1.232-1.496,1.616
		s-1.341,0.576-2.12,0.576c-0.747,0-1.405-0.168-1.976-0.504c-0.571-0.336-1.006-0.755-1.304-1.257v5.777h-1.456v-12.929h1.456
		v1.616C146.637,222.887,147.067,222.469,147.637,222.133z M151.902,224.396c-0.267-0.49-0.627-0.863-1.08-1.12
		c-0.454-0.256-0.952-0.384-1.496-0.384c-0.534,0-1.027,0.131-1.48,0.393c-0.454,0.261-0.816,0.639-1.088,1.135
		s-0.408,1.07-0.408,1.721c0,0.662,0.136,1.24,0.408,1.736s0.634,0.875,1.088,1.136c0.453,0.261,0.946,0.392,1.48,0.392
		c0.544,0,1.042-0.131,1.496-0.392c0.453-0.261,0.813-0.64,1.08-1.136c0.266-0.496,0.4-1.08,0.4-1.752
		C152.302,225.463,152.168,224.887,151.902,224.396z"/>
	<path d="M157.165,218.701v11.84h-1.456v-11.84H157.165z"/>
	<path d="M159.645,223.765c0.363-0.677,0.861-1.202,1.496-1.576c0.634-0.373,1.341-0.56,2.12-0.56c0.768,0,1.435,0.165,2,0.496
		c0.565,0.33,0.986,0.746,1.264,1.248v-1.601h1.472v8.769h-1.472v-1.633c-0.288,0.512-0.717,0.937-1.288,1.272
		c-0.571,0.336-1.235,0.504-1.992,0.504c-0.779,0-1.483-0.192-2.112-0.576c-0.63-0.384-1.125-0.923-1.488-1.616
		s-0.544-1.482-0.544-2.367C159.101,225.229,159.282,224.441,159.645,223.765z M166.125,224.412c-0.267-0.49-0.626-0.866-1.08-1.127
		c-0.453-0.262-0.952-0.393-1.496-0.393c-0.544,0-1.04,0.128-1.488,0.384c-0.448,0.257-0.806,0.63-1.072,1.12
		c-0.267,0.49-0.4,1.066-0.4,1.729c0,0.672,0.133,1.256,0.4,1.752c0.266,0.496,0.624,0.875,1.072,1.136
		c0.448,0.261,0.944,0.392,1.488,0.392c0.544,0,1.042-0.131,1.496-0.392c0.454-0.261,0.813-0.64,1.08-1.136s0.4-1.074,0.4-1.736
		C166.525,225.479,166.391,224.903,166.125,224.412z"/>
	<path d="M177.325,222.58c0.661,0.646,0.992,1.576,0.992,2.793v5.168h-1.44v-4.961c0-0.874-0.219-1.543-0.656-2.008
		c-0.438-0.464-1.035-0.695-1.792-0.695c-0.768,0-1.379,0.24-1.832,0.72c-0.454,0.479-0.68,1.179-0.68,2.096v4.849h-1.456v-8.769
		h1.456v1.248c0.288-0.448,0.68-0.794,1.176-1.04c0.496-0.245,1.043-0.368,1.64-0.368
		C175.799,221.612,176.663,221.936,177.325,222.58z"/>
	<path d="M184.972,223.765c0.363-0.677,0.867-1.202,1.512-1.576c0.645-0.373,1.384-0.56,2.216-0.56c1.077,0,1.965,0.262,2.664,0.783
		c0.698,0.523,1.16,1.248,1.384,2.176h-1.568c-0.149-0.533-0.44-0.954-0.872-1.264c-0.432-0.309-0.968-0.464-1.608-0.464
		c-0.832,0-1.504,0.286-2.016,0.856c-0.512,0.57-0.768,1.379-0.768,2.424c0,1.056,0.256,1.872,0.768,2.447
		c0.512,0.576,1.184,0.865,2.016,0.865c0.64,0,1.173-0.15,1.6-0.449c0.426-0.298,0.72-0.725,0.88-1.279h1.568
		c-0.234,0.896-0.704,1.613-1.408,2.152c-0.704,0.538-1.584,0.808-2.64,0.808c-0.832,0-1.571-0.187-2.216-0.56
		c-0.646-0.373-1.149-0.902-1.512-1.584c-0.363-0.684-0.544-1.482-0.544-2.4C184.428,225.234,184.61,224.441,184.972,223.765z"/>
	<path d="M202.636,226.701h-7.008c0.054,0.863,0.35,1.538,0.888,2.023s1.192,0.729,1.96,0.729c0.629,0,1.155-0.146,1.576-0.44
		s0.717-0.686,0.888-1.177h1.568c-0.235,0.844-0.704,1.529-1.408,2.057s-1.579,0.792-2.624,0.792c-0.832,0-1.576-0.187-2.232-0.56
		c-0.656-0.373-1.171-0.904-1.544-1.592c-0.374-0.688-0.56-1.486-0.56-2.393s0.181-1.701,0.544-2.385
		c0.363-0.682,0.872-1.207,1.528-1.575c0.656-0.368,1.411-0.552,2.264-0.552c0.832,0,1.568,0.182,2.208,0.543
		c0.64,0.363,1.133,0.862,1.48,1.496c0.347,0.635,0.52,1.353,0.52,2.152C202.684,226.098,202.668,226.391,202.636,226.701z
		 M200.812,224.084c-0.246-0.399-0.579-0.703-1-0.912c-0.421-0.207-0.888-0.312-1.4-0.312c-0.736,0-1.363,0.235-1.88,0.704
		c-0.518,0.47-0.813,1.12-0.888,1.952h5.536C201.18,224.962,201.058,224.484,200.812,224.084z"/>
	<path d="M207.156,222.028c0.474-0.276,1.053-0.416,1.736-0.416v1.505h-0.384c-1.632,0-2.448,0.885-2.448,2.655v4.769h-1.456v-8.769
		h1.456v1.424C206.316,222.695,206.681,222.307,207.156,222.028z"/>
	<path d="M212.348,222.973v5.168c0,0.427,0.091,0.729,0.272,0.904c0.182,0.176,0.496,0.264,0.944,0.264h1.072v1.232h-1.312
		c-0.811,0-1.418-0.188-1.824-0.561c-0.406-0.373-0.608-0.986-0.608-1.84v-5.168h-1.136v-1.2h1.136v-2.208h1.456v2.208h2.288v1.2
		H212.348z"/>
	<path d="M216.444,220.061c-0.192-0.191-0.288-0.427-0.288-0.704s0.096-0.512,0.288-0.704c0.192-0.191,0.427-0.287,0.704-0.287
		c0.267,0,0.493,0.096,0.68,0.287c0.187,0.192,0.28,0.427,0.28,0.704s-0.093,0.513-0.28,0.704c-0.187,0.191-0.414,0.288-0.68,0.288
		C216.871,220.349,216.636,220.252,216.444,220.061z M217.852,221.772v8.769h-1.456v-8.769H217.852z"/>
	<path d="M223.9,222.973h-1.84v7.568h-1.456v-7.568h-1.136v-1.2h1.136v-0.624c0-0.98,0.253-1.698,0.76-2.152
		c0.506-0.453,1.32-0.68,2.44-0.68v1.217c-0.64,0-1.091,0.125-1.352,0.375c-0.262,0.251-0.392,0.664-0.392,1.24v0.624h1.84V222.973z
		"/>
	<path d="M225.644,220.061c-0.192-0.191-0.288-0.427-0.288-0.704s0.096-0.512,0.288-0.704c0.192-0.191,0.427-0.287,0.704-0.287
		c0.267,0,0.493,0.096,0.68,0.287c0.187,0.192,0.28,0.427,0.28,0.704s-0.093,0.513-0.28,0.704c-0.187,0.191-0.414,0.288-0.68,0.288
		C226.071,220.349,225.836,220.252,225.644,220.061z M227.052,221.772v8.769h-1.456v-8.769H227.052z"/>
	<path d="M229.532,223.765c0.363-0.677,0.867-1.202,1.512-1.576c0.645-0.373,1.384-0.56,2.216-0.56c1.077,0,1.965,0.262,2.664,0.783
		c0.698,0.523,1.16,1.248,1.384,2.176h-1.568c-0.149-0.533-0.44-0.954-0.872-1.264c-0.432-0.309-0.968-0.464-1.608-0.464
		c-0.832,0-1.504,0.286-2.016,0.856c-0.512,0.57-0.768,1.379-0.768,2.424c0,1.056,0.256,1.872,0.768,2.447
		c0.512,0.576,1.184,0.865,2.016,0.865c0.64,0,1.173-0.15,1.6-0.449c0.426-0.298,0.72-0.725,0.88-1.279h1.568
		c-0.234,0.896-0.704,1.613-1.408,2.152c-0.704,0.538-1.584,0.808-2.64,0.808c-0.832,0-1.571-0.187-2.216-0.56
		c-0.646-0.373-1.149-0.902-1.512-1.584c-0.363-0.684-0.544-1.482-0.544-2.4C228.988,225.234,229.169,224.441,229.532,223.765z"/>
	<path d="M239.244,223.765c0.363-0.677,0.861-1.202,1.496-1.576c0.634-0.373,1.341-0.56,2.12-0.56c0.768,0,1.435,0.165,2,0.496
		c0.565,0.33,0.986,0.746,1.264,1.248v-1.601h1.472v8.769h-1.472v-1.633c-0.288,0.512-0.717,0.937-1.288,1.272
		c-0.571,0.336-1.235,0.504-1.992,0.504c-0.779,0-1.483-0.192-2.112-0.576c-0.63-0.384-1.125-0.923-1.488-1.616
		s-0.544-1.482-0.544-2.367C238.7,225.229,238.881,224.441,239.244,223.765z M245.724,224.412c-0.267-0.49-0.626-0.866-1.08-1.127
		c-0.453-0.262-0.952-0.393-1.496-0.393c-0.544,0-1.04,0.128-1.488,0.384c-0.448,0.257-0.806,0.63-1.072,1.12
		c-0.267,0.49-0.4,1.066-0.4,1.729c0,0.672,0.133,1.256,0.4,1.752c0.266,0.496,0.624,0.875,1.072,1.136
		c0.448,0.261,0.944,0.392,1.488,0.392c0.544,0,1.042-0.131,1.496-0.392c0.454-0.261,0.813-0.64,1.08-1.136s0.4-1.074,0.4-1.736
		C246.124,225.479,245.99,224.903,245.724,224.412z"/>
	<path d="M251.835,222.973v5.168c0,0.427,0.091,0.729,0.272,0.904c0.182,0.176,0.496,0.264,0.944,0.264h1.072v1.232h-1.312
		c-0.811,0-1.418-0.188-1.824-0.561c-0.406-0.373-0.608-0.986-0.608-1.84v-5.168h-1.136v-1.2h1.136v-2.208h1.456v2.208h2.288v1.2
		H251.835z"/>
	<path d="M255.931,220.061c-0.192-0.191-0.288-0.427-0.288-0.704s0.096-0.512,0.288-0.704c0.192-0.191,0.427-0.287,0.704-0.287
		c0.267,0,0.493,0.096,0.68,0.287c0.187,0.192,0.28,0.427,0.28,0.704s-0.093,0.513-0.28,0.704c-0.187,0.191-0.414,0.288-0.68,0.288
		C256.358,220.349,256.124,220.252,255.931,220.061z M257.34,221.772v8.769h-1.456v-8.769H257.34z"/>
	<path d="M261.411,230.125c-0.667-0.373-1.19-0.904-1.568-1.592c-0.378-0.688-0.568-1.486-0.568-2.393
		c0-0.896,0.194-1.688,0.584-2.376c0.389-0.688,0.92-1.216,1.592-1.584c0.672-0.368,1.424-0.552,2.256-0.552
		s1.584,0.184,2.256,0.552s1.203,0.894,1.592,1.575c0.39,0.684,0.584,1.479,0.584,2.385s-0.2,1.704-0.6,2.393
		c-0.4,0.688-0.941,1.219-1.624,1.592c-0.683,0.373-1.44,0.56-2.272,0.56C262.822,230.685,262.078,230.498,261.411,230.125z
		 M265.115,229.037c0.458-0.246,0.83-0.613,1.112-1.104c0.282-0.491,0.424-1.088,0.424-1.792s-0.139-1.301-0.416-1.792
		s-0.64-0.856-1.088-1.097c-0.448-0.239-0.934-0.359-1.456-0.359c-0.534,0-1.021,0.12-1.464,0.359
		c-0.443,0.24-0.798,0.605-1.064,1.097c-0.267,0.491-0.4,1.088-0.4,1.792c0,0.715,0.131,1.317,0.392,1.809
		c0.261,0.49,0.611,0.855,1.048,1.096c0.437,0.24,0.917,0.359,1.44,0.359C264.166,229.404,264.656,229.282,265.115,229.037z"/>
	<path d="M276.924,222.58c0.661,0.646,0.992,1.576,0.992,2.793v5.168h-1.44v-4.961c0-0.874-0.219-1.543-0.656-2.008
		c-0.438-0.464-1.035-0.695-1.792-0.695c-0.768,0-1.379,0.24-1.832,0.72c-0.454,0.479-0.68,1.179-0.68,2.096v4.849h-1.456v-8.769
		h1.456v1.248c0.288-0.448,0.68-0.794,1.176-1.04c0.496-0.245,1.043-0.368,1.64-0.368
		C275.398,221.612,276.262,221.936,276.924,222.58z"/>
</g>
<g>
	<path d="M482.461,183.621c0.49-0.869,1.16-1.55,2.008-2.041c0.848-0.49,1.789-0.735,2.824-0.735c1.216,0,2.277,0.294,3.184,0.88
		c0.906,0.587,1.568,1.419,1.984,2.496h-1.744c-0.31-0.672-0.755-1.189-1.336-1.553c-0.582-0.361-1.277-0.543-2.088-0.543
		c-0.779,0-1.479,0.182-2.096,0.543c-0.619,0.363-1.104,0.878-1.457,1.545c-0.352,0.666-0.527,1.447-0.527,2.344
		c0,0.885,0.176,1.662,0.527,2.328c0.353,0.666,0.838,1.182,1.457,1.544c0.617,0.362,1.316,0.544,2.096,0.544
		c0.811,0,1.506-0.179,2.088-0.536c0.581-0.356,1.026-0.872,1.336-1.544h1.744c-0.416,1.066-1.078,1.891-1.984,2.473
		c-0.906,0.581-1.968,0.871-3.184,0.871c-1.035,0-1.977-0.242-2.824-0.728s-1.518-1.16-2.008-2.024
		c-0.491-0.863-0.736-1.84-0.736-2.928S481.97,184.49,482.461,183.621z"/>
	<path d="M494.621,185.365c0.362-0.678,0.861-1.203,1.496-1.576c0.634-0.373,1.341-0.561,2.119-0.561c0.769,0,1.436,0.166,2,0.496
		c0.565,0.33,0.986,0.746,1.264,1.248v-1.6h1.473v8.768H501.5v-1.632c-0.287,0.512-0.717,0.937-1.287,1.272
		s-1.234,0.504-1.992,0.504c-0.779,0-1.482-0.192-2.111-0.576c-0.631-0.385-1.126-0.923-1.488-1.616
		c-0.363-0.693-0.545-1.482-0.545-2.368C494.076,186.828,494.258,186.042,494.621,185.365z M501.101,186.013
		c-0.267-0.491-0.626-0.866-1.08-1.128c-0.453-0.262-0.952-0.393-1.495-0.393c-0.545,0-1.041,0.129-1.488,0.385
		c-0.448,0.256-0.807,0.629-1.072,1.119c-0.268,0.491-0.4,1.067-0.4,1.729c0,0.672,0.133,1.256,0.4,1.752
		c0.266,0.496,0.624,0.875,1.072,1.137c0.447,0.261,0.943,0.391,1.488,0.391c0.543,0,1.042-0.13,1.495-0.391
		c0.454-0.262,0.813-0.641,1.08-1.137s0.399-1.074,0.399-1.736C501.5,187.08,501.367,186.504,501.101,186.013z"/>
	<path d="M507.989,183.629c0.475-0.277,1.053-0.416,1.736-0.416v1.504h-0.385c-1.632,0-2.447,0.885-2.447,2.656v4.768h-1.457v-8.768
		h1.457v1.424C507.149,184.295,507.514,183.906,507.989,183.629z"/>
	<path d="M514.172,183.725c0.576-0.33,1.232-0.496,1.968-0.496c0.79,0,1.499,0.188,2.128,0.561s1.125,0.898,1.488,1.576
		c0.362,0.677,0.544,1.463,0.544,2.359c0,0.886-0.182,1.675-0.544,2.368c-0.363,0.693-0.861,1.231-1.496,1.616
		c-0.635,0.384-1.342,0.576-2.12,0.576c-0.757,0-1.421-0.166-1.991-0.496c-0.571-0.331-1-0.752-1.289-1.265v1.616h-1.455v-11.84
		h1.455v4.703C513.158,184.482,513.596,184.055,514.172,183.725z M518.412,185.996c-0.268-0.49-0.627-0.863-1.08-1.119
		s-0.952-0.385-1.496-0.385c-0.533,0-1.027,0.131-1.48,0.393s-0.815,0.64-1.088,1.136c-0.271,0.496-0.408,1.069-0.408,1.72
		c0,0.662,0.137,1.24,0.408,1.736c0.272,0.496,0.635,0.875,1.088,1.137c0.453,0.261,0.947,0.391,1.48,0.391
		c0.544,0,1.043-0.13,1.496-0.391c0.453-0.262,0.813-0.641,1.08-1.137c0.266-0.496,0.4-1.08,0.4-1.752
		C518.813,187.063,518.678,186.487,518.412,185.996z"/>
	<path d="M523.813,191.725c-0.667-0.373-1.189-0.904-1.568-1.592s-0.568-1.485-0.568-2.393c0-0.896,0.195-1.688,0.584-2.375
		c0.39-0.688,0.92-1.217,1.592-1.584c0.673-0.369,1.425-0.553,2.257-0.553s1.584,0.184,2.256,0.553
		c0.672,0.367,1.202,0.893,1.592,1.575s0.584,1.478,0.584,2.384c0,0.907-0.2,1.705-0.6,2.393c-0.4,0.688-0.941,1.219-1.624,1.592
		c-0.684,0.373-1.439,0.561-2.271,0.561C525.223,192.285,524.479,192.098,523.813,191.725z M527.516,190.637
		c0.459-0.245,0.83-0.613,1.113-1.104c0.281-0.491,0.424-1.088,0.424-1.793c0-0.703-0.139-1.301-0.416-1.791
		c-0.277-0.491-0.641-0.856-1.088-1.097c-0.449-0.239-0.934-0.36-1.457-0.36c-0.533,0-1.021,0.121-1.463,0.36
		c-0.443,0.24-0.799,0.605-1.064,1.097c-0.268,0.49-0.4,1.088-0.4,1.791c0,0.715,0.131,1.318,0.393,1.809
		c0.261,0.49,0.61,0.855,1.048,1.096c0.437,0.24,0.917,0.359,1.44,0.359C526.567,191.004,527.058,190.883,527.516,190.637z"/>
	<path d="M539.324,184.181c0.661,0.646,0.992,1.576,0.992,2.792v5.168h-1.44v-4.96c0-0.874-0.219-1.544-0.655-2.008
		c-0.438-0.464-1.035-0.696-1.793-0.696c-0.768,0-1.379,0.24-1.832,0.721c-0.453,0.479-0.68,1.178-0.68,2.096v4.848h-1.456v-8.768
		h1.456v1.248c0.288-0.448,0.68-0.795,1.176-1.041c0.496-0.244,1.043-0.367,1.641-0.367
		C537.799,183.213,538.662,183.535,539.324,184.181z"/>
	<path d="M549.525,183.629c0.474-0.277,1.054-0.416,1.735-0.416v1.504h-0.383c-1.633,0-2.449,0.885-2.449,2.656v4.768h-1.455v-8.768
		h1.455v1.424C548.684,184.295,549.049,183.906,549.525,183.629z"/>
	<path d="M560.893,188.301h-7.009c0.054,0.863,0.35,1.539,0.888,2.023c0.539,0.486,1.192,0.729,1.961,0.729
		c0.629,0,1.154-0.146,1.576-0.439c0.421-0.294,0.717-0.686,0.887-1.177h1.568c-0.234,0.843-0.703,1.528-1.408,2.056
		c-0.703,0.528-1.578,0.793-2.623,0.793c-0.832,0-1.576-0.188-2.232-0.561s-1.171-0.904-1.544-1.592
		c-0.374-0.688-0.56-1.485-0.56-2.393c0-0.906,0.181-1.701,0.543-2.384c0.363-0.683,0.873-1.208,1.528-1.575
		c0.656-0.369,1.411-0.553,2.265-0.553c0.832,0,1.567,0.182,2.207,0.544c0.641,0.362,1.134,0.862,1.48,1.496
		c0.347,0.635,0.52,1.353,0.52,2.151C560.94,187.698,560.924,187.991,560.893,188.301z M559.069,185.685
		c-0.246-0.399-0.579-0.704-1-0.912c-0.422-0.208-0.889-0.312-1.4-0.312c-0.736,0-1.363,0.234-1.88,0.703
		c-0.518,0.471-0.813,1.121-0.888,1.953h5.535C559.436,186.563,559.314,186.084,559.069,185.685z"/>
	<path d="M562.86,185.365c0.363-0.678,0.861-1.203,1.496-1.576s1.348-0.561,2.137-0.561c0.682,0,1.316,0.158,1.904,0.473
		c0.586,0.314,1.034,0.728,1.344,1.239v-4.64h1.472v11.84h-1.472v-1.648c-0.288,0.523-0.715,0.953-1.28,1.289
		s-1.227,0.504-1.983,0.504c-0.779,0-1.486-0.192-2.121-0.576c-0.635-0.385-1.133-0.923-1.496-1.616
		c-0.362-0.693-0.543-1.482-0.543-2.368C562.317,186.828,562.497,186.042,562.86,185.365z M569.34,186.013
		c-0.267-0.491-0.627-0.866-1.08-1.128s-0.951-0.393-1.496-0.393c-0.544,0-1.039,0.129-1.488,0.385
		c-0.447,0.256-0.805,0.629-1.071,1.119c-0.267,0.491-0.4,1.067-0.4,1.729c0,0.672,0.134,1.256,0.4,1.752s0.624,0.875,1.071,1.137
		c0.449,0.261,0.944,0.391,1.488,0.391c0.545,0,1.043-0.13,1.496-0.391c0.453-0.262,0.813-0.641,1.08-1.137s0.4-1.074,0.4-1.736
		C569.74,187.08,569.607,186.504,569.34,186.013z"/>
	<path d="M581.451,183.373v8.768h-1.456v-1.296c-0.277,0.448-0.663,0.798-1.159,1.048s-1.043,0.376-1.641,0.376
		c-0.683,0-1.296-0.142-1.84-0.424s-0.974-0.706-1.288-1.272c-0.315-0.564-0.472-1.253-0.472-2.063v-5.136h1.439v4.943
		c0,0.864,0.219,1.528,0.656,1.992s1.035,0.695,1.792,0.695c0.778,0,1.392-0.239,1.84-0.719c0.448-0.48,0.672-1.18,0.672-2.097
		v-4.815H581.451z"/>
	<path d="M583.916,185.365c0.362-0.678,0.866-1.203,1.512-1.576c0.645-0.373,1.384-0.561,2.216-0.561
		c1.077,0,1.966,0.262,2.664,0.784s1.16,1.248,1.384,2.176h-1.568c-0.148-0.533-0.439-0.954-0.871-1.264s-0.969-0.464-1.608-0.464
		c-0.832,0-1.504,0.285-2.017,0.855c-0.512,0.57-0.768,1.379-0.768,2.424c0,1.057,0.256,1.873,0.768,2.448
		c0.513,0.576,1.185,0.864,2.017,0.864c0.64,0,1.173-0.149,1.601-0.448c0.426-0.298,0.719-0.726,0.879-1.28h1.568
		c-0.234,0.896-0.703,1.613-1.408,2.152c-0.703,0.539-1.584,0.809-2.64,0.809c-0.832,0-1.571-0.188-2.216-0.561
		c-0.646-0.373-1.149-0.901-1.512-1.584c-0.363-0.683-0.545-1.482-0.545-2.4C583.371,186.834,583.553,186.042,583.916,185.365z"/>
	<path d="M595.404,184.572v5.168c0,0.428,0.091,0.729,0.272,0.904s0.496,0.264,0.943,0.264h1.072v1.232h-1.313
		c-0.811,0-1.418-0.187-1.823-0.561c-0.405-0.373-0.608-0.986-0.608-1.84v-5.168h-1.136v-1.199h1.136v-2.209h1.456v2.209h2.288
		v1.199H595.404z"/>
	<path d="M599.5,181.66c-0.192-0.191-0.288-0.426-0.288-0.703s0.096-0.512,0.288-0.705c0.191-0.191,0.426-0.287,0.703-0.287
		c0.268,0,0.494,0.096,0.681,0.287c0.187,0.193,0.28,0.428,0.28,0.705s-0.094,0.512-0.28,0.703
		c-0.187,0.192-0.413,0.289-0.681,0.289C599.926,181.949,599.692,181.853,599.5,181.66z M600.908,183.373v8.768h-1.457v-8.768
		H600.908z"/>
	<path d="M604.98,191.725c-0.667-0.373-1.19-0.904-1.568-1.592s-0.567-1.485-0.567-2.393c0-0.896,0.193-1.688,0.584-2.375
		c0.389-0.688,0.92-1.217,1.592-1.584c0.672-0.369,1.424-0.553,2.256-0.553s1.584,0.184,2.256,0.553
		c0.672,0.367,1.203,0.893,1.592,1.575c0.39,0.683,0.584,1.478,0.584,2.384c0,0.907-0.199,1.705-0.6,2.393s-0.941,1.219-1.624,1.592
		s-1.44,0.561-2.272,0.561C606.39,192.285,605.647,192.098,604.98,191.725z M608.684,190.637c0.458-0.245,0.829-0.613,1.111-1.104
		c0.283-0.491,0.424-1.088,0.424-1.793c0-0.703-0.139-1.301-0.416-1.791c-0.277-0.491-0.64-0.856-1.088-1.097
		c-0.447-0.239-0.934-0.36-1.455-0.36c-0.534,0-1.021,0.121-1.465,0.36c-0.442,0.24-0.797,0.605-1.063,1.097
		c-0.267,0.49-0.4,1.088-0.4,1.791c0,0.715,0.131,1.318,0.392,1.809c0.262,0.49,0.611,0.855,1.049,1.096s0.917,0.359,1.439,0.359
		C607.735,191.004,608.225,190.883,608.684,190.637z"/>
	<path d="M620.492,184.181c0.66,0.646,0.991,1.576,0.991,2.792v5.168h-1.44v-4.96c0-0.874-0.219-1.544-0.655-2.008
		c-0.438-0.464-1.035-0.696-1.792-0.696c-0.768,0-1.379,0.24-1.832,0.721c-0.453,0.479-0.68,1.178-0.68,2.096v4.848h-1.457v-8.768
		h1.457v1.248c0.287-0.448,0.68-0.795,1.176-1.041c0.496-0.244,1.043-0.367,1.64-0.367
		C618.966,183.213,619.83,183.535,620.492,184.181z"/>
	<path d="M453.342,202.933c0.57-0.336,1.234-0.504,1.991-0.504c0.778,0,1.485,0.187,2.12,0.56c0.635,0.374,1.133,0.899,1.496,1.576
		c0.362,0.678,0.544,1.465,0.544,2.36c0,0.886-0.182,1.675-0.544,2.368c-0.363,0.693-0.861,1.232-1.496,1.615
		c-0.635,0.385-1.342,0.576-2.12,0.576c-0.747,0-1.405-0.168-1.976-0.504s-1.006-0.754-1.305-1.256v5.776h-1.455v-12.929h1.455
		v1.617C452.342,203.688,452.771,203.27,453.342,202.933z M457.606,205.197c-0.268-0.49-0.627-0.864-1.08-1.121
		c-0.453-0.256-0.952-0.383-1.496-0.383c-0.533,0-1.027,0.131-1.48,0.392s-0.815,0.64-1.088,1.136
		c-0.271,0.496-0.408,1.07-0.408,1.721c0,0.661,0.137,1.239,0.408,1.735c0.272,0.496,0.635,0.875,1.088,1.136
		c0.453,0.262,0.947,0.393,1.48,0.393c0.544,0,1.043-0.131,1.496-0.393c0.453-0.261,0.813-0.64,1.08-1.136
		c0.266-0.496,0.4-1.08,0.4-1.752C458.006,206.264,457.871,205.688,457.606,205.197z"/>
	<path d="M469.365,207.501h-7.008c0.053,0.864,0.35,1.538,0.888,2.024c0.538,0.484,1.192,0.728,1.96,0.728
		c0.629,0,1.154-0.146,1.576-0.44c0.422-0.293,0.717-0.686,0.888-1.176h1.568c-0.235,0.843-0.704,1.528-1.408,2.057
		c-0.704,0.527-1.579,0.791-2.624,0.791c-0.832,0-1.576-0.186-2.232-0.56c-0.655-0.373-1.17-0.903-1.543-1.592
		c-0.374-0.688-0.561-1.485-0.561-2.392c0-0.907,0.182-1.701,0.544-2.385c0.362-0.682,0.872-1.208,1.528-1.576
		c0.656-0.367,1.41-0.552,2.264-0.552c0.832,0,1.568,0.182,2.208,0.544c0.64,0.363,1.134,0.861,1.479,1.496
		c0.348,0.635,0.521,1.352,0.521,2.152C469.413,206.898,469.397,207.191,469.365,207.501z M467.541,204.885
		c-0.246-0.4-0.578-0.704-1-0.912s-0.888-0.313-1.4-0.313c-0.735,0-1.362,0.235-1.879,0.705c-0.518,0.469-0.814,1.119-0.889,1.951
		h5.536C467.909,205.762,467.787,205.285,467.541,204.885z"/>
	<path d="M473.885,202.828c0.475-0.276,1.054-0.416,1.736-0.416v1.505h-0.384c-1.632,0-2.448,0.886-2.448,2.655v4.769h-1.456v-8.769
		h1.456v1.424C473.045,203.496,473.41,203.106,473.885,202.828z"/>
	<path d="M480.869,203.773h-1.84v7.567h-1.457v-7.567h-1.135v-1.201h1.135v-0.623c0-0.981,0.254-1.699,0.761-2.152
		s1.319-0.68,2.44-0.68v1.216c-0.641,0-1.092,0.126-1.353,0.376c-0.262,0.25-0.392,0.664-0.392,1.24v0.623h1.84V203.773z"/>
	<path d="M484.157,210.925c-0.667-0.373-1.19-0.903-1.568-1.592s-0.567-1.485-0.567-2.392c0-0.896,0.193-1.688,0.584-2.377
		c0.389-0.688,0.92-1.216,1.592-1.584c0.672-0.367,1.424-0.552,2.256-0.552s1.584,0.185,2.256,0.552
		c0.672,0.368,1.203,0.895,1.592,1.576c0.39,0.684,0.584,1.478,0.584,2.385c0,0.906-0.199,1.703-0.6,2.392s-0.941,1.219-1.624,1.592
		c-0.683,0.374-1.44,0.56-2.272,0.56C485.568,211.484,484.824,211.299,484.157,210.925z M487.862,209.837
		c0.458-0.245,0.829-0.613,1.111-1.104c0.283-0.49,0.424-1.088,0.424-1.791c0-0.705-0.139-1.302-0.416-1.793
		c-0.277-0.49-0.64-0.855-1.088-1.096c-0.447-0.24-0.934-0.359-1.455-0.359c-0.534,0-1.021,0.119-1.465,0.359
		c-0.442,0.24-0.797,0.605-1.063,1.096c-0.267,0.491-0.4,1.088-0.4,1.793c0,0.715,0.131,1.316,0.392,1.808
		c0.262,0.491,0.611,0.856,1.049,1.096c0.438,0.24,0.917,0.36,1.439,0.36C486.912,210.205,487.403,210.082,487.862,209.837z"/>
	<path d="M495.358,202.828c0.474-0.276,1.053-0.416,1.735-0.416v1.505h-0.384c-1.633,0-2.448,0.886-2.448,2.655v4.769h-1.456v-8.769
		h1.456v1.424C494.517,203.496,494.882,203.106,495.358,202.828z"/>
	<path d="M511.141,202.837c0.533,0.282,0.955,0.706,1.264,1.272c0.31,0.564,0.465,1.253,0.465,2.063v5.168h-1.44v-4.96
		c0-0.875-0.216-1.544-0.647-2.008c-0.433-0.465-1.017-0.696-1.753-0.696c-0.757,0-1.36,0.243-1.808,0.728
		c-0.448,0.486-0.672,1.188-0.672,2.104v4.832h-1.44v-4.96c0-0.875-0.216-1.544-0.647-2.008c-0.433-0.465-1.017-0.696-1.752-0.696
		c-0.758,0-1.36,0.243-1.809,0.728c-0.447,0.486-0.672,1.188-0.672,2.104v4.832h-1.456v-8.769h1.456v1.265
		c0.288-0.458,0.674-0.811,1.16-1.056c0.484-0.246,1.021-0.369,1.607-0.369c0.736,0,1.387,0.166,1.953,0.496
		c0.564,0.332,0.986,0.816,1.264,1.457c0.245-0.619,0.65-1.1,1.216-1.44s1.194-0.513,1.888-0.513
		C509.999,202.412,510.608,202.555,511.141,202.837z"/>
	<path d="M515.252,204.564c0.363-0.677,0.861-1.202,1.496-1.576c0.635-0.373,1.342-0.56,2.121-0.56c0.768,0,1.434,0.165,2,0.496
		c0.564,0.331,0.986,0.747,1.264,1.248v-1.601h1.472v8.769h-1.472v-1.632c-0.288,0.512-0.718,0.936-1.288,1.271
		c-0.571,0.336-1.235,0.504-1.992,0.504c-0.778,0-1.483-0.191-2.112-0.576c-0.629-0.383-1.125-0.922-1.488-1.615
		c-0.362-0.693-0.543-1.482-0.543-2.368C514.709,206.029,514.89,205.242,515.252,204.564z M521.733,205.213
		c-0.267-0.49-0.627-0.867-1.08-1.128s-0.951-0.392-1.496-0.392c-0.544,0-1.039,0.127-1.488,0.383
		c-0.447,0.257-0.805,0.631-1.071,1.121s-0.4,1.066-0.4,1.728c0,0.672,0.134,1.256,0.4,1.752s0.624,0.875,1.071,1.136
		c0.449,0.262,0.944,0.393,1.488,0.393c0.545,0,1.043-0.131,1.496-0.393c0.453-0.261,0.813-0.64,1.08-1.136s0.4-1.074,0.4-1.735
		C522.133,206.279,521.999,205.703,521.733,205.213z"/>
	<path d="M532.933,203.381c0.661,0.646,0.991,1.576,0.991,2.792v5.168h-1.439v-4.96c0-0.875-0.219-1.544-0.656-2.008
		c-0.438-0.465-1.035-0.696-1.791-0.696c-0.769,0-1.379,0.24-1.832,0.72c-0.454,0.48-0.681,1.18-0.681,2.096v4.849h-1.456v-8.769
		h1.456v1.248c0.288-0.447,0.681-0.794,1.176-1.039c0.496-0.246,1.043-0.369,1.64-0.369
		C531.406,202.412,532.272,202.735,532.933,203.381z"/>
	<path d="M536.309,204.564c0.362-0.677,0.866-1.202,1.512-1.576c0.645-0.373,1.384-0.56,2.216-0.56c1.077,0,1.966,0.262,2.664,0.784
		s1.16,1.248,1.384,2.176h-1.568c-0.148-0.533-0.439-0.955-0.871-1.264c-0.432-0.31-0.969-0.465-1.608-0.465
		c-0.832,0-1.504,0.286-2.017,0.856c-0.512,0.571-0.768,1.379-0.768,2.425c0,1.055,0.256,1.871,0.768,2.447
		c0.513,0.576,1.185,0.864,2.017,0.864c0.64,0,1.173-0.149,1.601-0.448c0.426-0.299,0.719-0.725,0.879-1.279h1.568
		c-0.234,0.896-0.703,1.613-1.408,2.151c-0.703,0.538-1.584,0.808-2.64,0.808c-0.832,0-1.571-0.186-2.216-0.56
		c-0.646-0.373-1.149-0.901-1.512-1.584c-0.363-0.683-0.545-1.482-0.545-2.399C535.764,206.034,535.946,205.242,536.309,204.564z"/>
	<path d="M553.973,207.501h-7.009c0.054,0.864,0.35,1.538,0.888,2.024c0.539,0.484,1.192,0.728,1.961,0.728
		c0.629,0,1.154-0.146,1.576-0.44c0.421-0.293,0.717-0.686,0.887-1.176h1.568c-0.234,0.843-0.703,1.528-1.408,2.057
		c-0.703,0.527-1.578,0.791-2.623,0.791c-0.832,0-1.576-0.186-2.232-0.56c-0.656-0.373-1.171-0.903-1.544-1.592
		c-0.374-0.688-0.56-1.485-0.56-2.392c0-0.907,0.181-1.701,0.543-2.385c0.363-0.682,0.873-1.208,1.528-1.576
		c0.656-0.367,1.411-0.552,2.265-0.552c0.832,0,1.567,0.182,2.207,0.544c0.641,0.363,1.134,0.861,1.48,1.496s0.52,1.352,0.52,2.152
		C554.02,206.898,554.004,207.191,553.973,207.501z M552.149,204.885c-0.246-0.4-0.579-0.704-1-0.912
		c-0.422-0.208-0.889-0.313-1.4-0.313c-0.736,0-1.363,0.235-1.88,0.705c-0.518,0.469-0.813,1.119-0.888,1.951h5.535
		C552.516,205.762,552.394,205.285,552.149,204.885z"/>
	<path d="M560.213,204.564c0.362-0.677,0.866-1.202,1.512-1.576c0.645-0.373,1.384-0.56,2.216-0.56c1.077,0,1.966,0.262,2.664,0.784
		s1.16,1.248,1.384,2.176h-1.568c-0.148-0.533-0.439-0.955-0.871-1.264c-0.432-0.31-0.969-0.465-1.608-0.465
		c-0.832,0-1.504,0.286-2.017,0.856c-0.512,0.571-0.768,1.379-0.768,2.425c0,1.055,0.256,1.871,0.768,2.447
		c0.513,0.576,1.185,0.864,2.017,0.864c0.64,0,1.173-0.149,1.601-0.448c0.426-0.299,0.719-0.725,0.879-1.279h1.568
		c-0.234,0.896-0.703,1.613-1.408,2.151c-0.703,0.538-1.584,0.808-2.64,0.808c-0.832,0-1.571-0.186-2.216-0.56
		c-0.646-0.373-1.149-0.901-1.512-1.584c-0.363-0.683-0.545-1.482-0.545-2.399C559.668,206.034,559.85,205.242,560.213,204.564z"/>
	<path d="M577.877,207.501h-7.009c0.054,0.864,0.35,1.538,0.888,2.024c0.539,0.484,1.192,0.728,1.961,0.728
		c0.629,0,1.154-0.146,1.576-0.44c0.421-0.293,0.717-0.686,0.887-1.176h1.568c-0.234,0.843-0.703,1.528-1.408,2.057
		c-0.703,0.527-1.578,0.791-2.623,0.791c-0.832,0-1.576-0.186-2.232-0.56c-0.656-0.373-1.171-0.903-1.544-1.592
		c-0.374-0.688-0.56-1.485-0.56-2.392c0-0.907,0.181-1.701,0.543-2.385c0.363-0.682,0.873-1.208,1.528-1.576
		c0.656-0.367,1.411-0.552,2.265-0.552c0.832,0,1.567,0.182,2.207,0.544c0.641,0.363,1.134,0.861,1.48,1.496s0.52,1.352,0.52,2.152
		C577.924,206.898,577.908,207.191,577.877,207.501z M576.053,204.885c-0.246-0.4-0.579-0.704-1-0.912
		c-0.422-0.208-0.889-0.313-1.4-0.313c-0.736,0-1.363,0.235-1.88,0.705c-0.518,0.469-0.813,1.119-0.888,1.951h5.535
		C576.42,205.762,576.298,205.285,576.053,204.885z"/>
	<path d="M582.397,202.828c0.475-0.276,1.053-0.416,1.736-0.416v1.505h-0.385c-1.632,0-2.447,0.886-2.447,2.655v4.769h-1.457v-8.769
		h1.457v1.424C581.557,203.496,581.922,203.106,582.397,202.828z"/>
	<path d="M587.588,203.773v5.168c0,0.426,0.091,0.728,0.271,0.903c0.182,0.177,0.496,0.265,0.945,0.265h1.071v1.231h-1.312
		c-0.811,0-1.419-0.187-1.824-0.56c-0.406-0.373-0.608-0.986-0.608-1.84v-5.168h-1.136v-1.201h1.136v-2.207h1.456v2.207h2.288v1.201
		H587.588z"/>
	<path d="M591.684,200.861c-0.191-0.192-0.287-0.428-0.287-0.705s0.096-0.512,0.287-0.703c0.192-0.192,0.427-0.288,0.704-0.288
		c0.267,0,0.493,0.096,0.681,0.288c0.186,0.191,0.279,0.426,0.279,0.703s-0.094,0.513-0.279,0.705
		c-0.188,0.191-0.414,0.287-0.681,0.287C592.111,201.148,591.876,201.053,591.684,200.861z M593.092,202.572v8.769h-1.456v-8.769
		H593.092z"/>
	<path d="M599.14,203.773h-1.84v7.567h-1.456v-7.567h-1.136v-1.201h1.136v-0.623c0-0.981,0.254-1.699,0.76-2.152
		c0.507-0.453,1.32-0.68,2.44-0.68v1.216c-0.64,0-1.091,0.126-1.353,0.376s-0.392,0.664-0.392,1.24v0.623h1.84V203.773z"/>
	<path d="M600.883,200.861c-0.191-0.192-0.287-0.428-0.287-0.705s0.096-0.512,0.287-0.703c0.193-0.192,0.428-0.288,0.705-0.288
		c0.266,0,0.492,0.096,0.68,0.288c0.187,0.191,0.279,0.426,0.279,0.703s-0.093,0.513-0.279,0.705
		c-0.188,0.191-0.414,0.287-0.68,0.287C601.311,201.148,601.076,201.053,600.883,200.861z M602.291,202.572v8.769h-1.455v-8.769
		H602.291z"/>
	<path d="M604.772,204.564c0.362-0.677,0.866-1.202,1.512-1.576c0.645-0.373,1.384-0.56,2.216-0.56c1.077,0,1.966,0.262,2.664,0.784
		s1.16,1.248,1.384,2.176h-1.568c-0.148-0.533-0.439-0.955-0.871-1.264c-0.432-0.31-0.969-0.465-1.608-0.465
		c-0.832,0-1.504,0.286-2.017,0.856c-0.512,0.571-0.768,1.379-0.768,2.425c0,1.055,0.256,1.871,0.768,2.447
		c0.513,0.576,1.185,0.864,2.017,0.864c0.64,0,1.173-0.149,1.601-0.448c0.426-0.299,0.719-0.725,0.879-1.279h1.568
		c-0.234,0.896-0.703,1.613-1.408,2.151c-0.703,0.538-1.584,0.808-2.64,0.808c-0.832,0-1.571-0.186-2.216-0.56
		c-0.646-0.373-1.149-0.901-1.512-1.584c-0.363-0.683-0.545-1.482-0.545-2.399C604.227,206.034,604.408,205.242,604.772,204.564z"/>
	<path d="M614.483,204.564c0.363-0.677,0.861-1.202,1.496-1.576c0.635-0.373,1.342-0.56,2.121-0.56c0.768,0,1.434,0.165,2,0.496
		c0.564,0.331,0.986,0.747,1.264,1.248v-1.601h1.472v8.769h-1.472v-1.632c-0.288,0.512-0.718,0.936-1.288,1.271
		c-0.571,0.336-1.235,0.504-1.992,0.504c-0.778,0-1.483-0.191-2.112-0.576c-0.629-0.383-1.125-0.922-1.488-1.615
		c-0.362-0.693-0.543-1.482-0.543-2.368C613.94,206.029,614.12,205.242,614.483,204.564z M620.963,205.213
		c-0.267-0.49-0.627-0.867-1.08-1.128s-0.951-0.392-1.496-0.392c-0.544,0-1.039,0.127-1.488,0.383
		c-0.447,0.257-0.805,0.631-1.071,1.121s-0.4,1.066-0.4,1.728c0,0.672,0.134,1.256,0.4,1.752s0.624,0.875,1.071,1.136
		c0.449,0.262,0.944,0.393,1.488,0.393c0.545,0,1.043-0.131,1.496-0.393c0.453-0.261,0.813-0.64,1.08-1.136s0.4-1.074,0.4-1.735
		C621.364,206.279,621.23,205.703,620.963,205.213z"/>
	<path d="M627.075,203.773v5.168c0,0.426,0.091,0.728,0.272,0.903c0.182,0.177,0.496,0.265,0.943,0.265h1.072v1.231h-1.313
		c-0.811,0-1.418-0.187-1.823-0.56s-0.608-0.986-0.608-1.84v-5.168h-1.136v-1.201h1.136v-2.207h1.456v2.207h2.288v1.201H627.075z"/>
	<path d="M631.171,200.861c-0.192-0.192-0.288-0.428-0.288-0.705s0.096-0.512,0.288-0.703c0.192-0.192,0.427-0.288,0.704-0.288
		c0.267,0,0.493,0.096,0.68,0.288c0.188,0.191,0.28,0.426,0.28,0.703s-0.093,0.513-0.28,0.705c-0.187,0.191-0.413,0.287-0.68,0.287
		C631.598,201.148,631.364,201.053,631.171,200.861z M632.579,202.572v8.769h-1.456v-8.769H632.579z"/>
	<path d="M636.652,210.925c-0.667-0.373-1.19-0.903-1.568-1.592s-0.567-1.485-0.567-2.392c0-0.896,0.193-1.688,0.584-2.377
		c0.389-0.688,0.92-1.216,1.592-1.584c0.672-0.367,1.424-0.552,2.256-0.552s1.584,0.185,2.256,0.552
		c0.672,0.368,1.203,0.895,1.592,1.576c0.39,0.684,0.584,1.478,0.584,2.385c0,0.906-0.199,1.703-0.6,2.392s-0.941,1.219-1.624,1.592
		c-0.683,0.374-1.44,0.56-2.272,0.56C638.062,211.484,637.319,211.299,636.652,210.925z M640.356,209.837
		c0.458-0.245,0.829-0.613,1.111-1.104c0.283-0.49,0.424-1.088,0.424-1.791c0-0.705-0.139-1.302-0.416-1.793
		c-0.277-0.49-0.64-0.855-1.088-1.096c-0.447-0.24-0.934-0.359-1.455-0.359c-0.534,0-1.021,0.119-1.465,0.359
		c-0.442,0.24-0.797,0.605-1.063,1.096c-0.267,0.491-0.4,1.088-0.4,1.793c0,0.715,0.131,1.316,0.392,1.808
		c0.262,0.491,0.611,0.856,1.049,1.096c0.438,0.24,0.917,0.36,1.439,0.36C639.406,210.205,639.897,210.082,640.356,209.837z"/>
	<path d="M652.163,203.381c0.661,0.646,0.991,1.576,0.991,2.792v5.168h-1.439v-4.96c0-0.875-0.219-1.544-0.656-2.008
		c-0.438-0.465-1.035-0.696-1.791-0.696c-0.769,0-1.379,0.24-1.832,0.72c-0.454,0.48-0.681,1.18-0.681,2.096v4.849h-1.456v-8.769
		h1.456v1.248c0.288-0.447,0.681-0.794,1.176-1.039c0.496-0.246,1.043-0.369,1.64-0.369
		C650.637,202.412,651.502,202.735,652.163,203.381z"/>
</g>
</svg>
