<?xml version="1.0" encoding="utf-8"?>
<!-- Generator: Adobe Illustrator 16.0.3, SVG Export Plug-In . SVG Version: 6.00 Build 0)  -->
<!DOCTYPE svg PUBLIC "-//W3C//DTD SVG 1.1//EN" "http://www.w3.org/Graphics/SVG/1.1/DTD/svg11.dtd">
<svg version="1.1" id="조직도_1_" xmlns="http://www.w3.org/2000/svg" xmlns:xlink="http://www.w3.org/1999/xlink" x="0px"
	 y="0px" width="790.5px" height="400px" viewBox="0 0 790.5 400" enable-background="new 0 0 790.5 400" xml:space="preserve">
<g id="Ellipse_4_5_">
	<g>
		<path fill="#FFFFFF" stroke="#48B5A9" stroke-width="2" stroke-miterlimit="10" d="M396.165,359.5h246.001c12.149,0,22-9.85,22-22
			c0-12.148-9.851-22-22-22H538.946c-2.885-8.15-10.639-14-19.779-14c-9.139,0-16.893,5.85-19.776,14H396.165
			c-12.147,0-22,9.852-22,22C374.165,349.65,384.018,359.5,396.165,359.5z"/>
	</g>
</g>
<g id="Shape_4_1_">
	<g>
		<rect x="472.835" y="130.725" fill="#D0D5D6" width="80.165" height="2"/>
	</g>
</g>
<g id="Shape_4_2_">
	<g>
		<rect x="345.332" y="204.167" fill="#D0D5D6" width="188.229" height="2"/>
	</g>
</g>
<g id="Shape_4">
	<g>
		<rect x="345.332" y="63.999" fill="#D0D5D6" width="2" height="194"/>
	</g>
</g>
<g id="Ellipse_4">
	<g>
		<path fill="#019EBF" d="M468.332,9.999H222.333c-12.15,0-22,9.85-22,22s9.85,22,22,22h103.221c2.886,8.151,10.64,14,19.778,14
			c9.14,0,16.895-5.849,19.778-14h103.222c12.149,0,22-9.85,22-22S480.483,9.999,468.332,9.999z"/>
	</g>
</g>
<g id="SK_그룹_2_">
	<g enable-background="new    ">
		<path fill="#FFFFFF" d="M284.153,34.9V22.98h6.42v1.479h-4.66v8.96h0.66c1.133,0,2.163-0.076,3.09-0.229s1.69-0.297,2.29-0.431
			v1.42c-0.32,0.094-0.7,0.184-1.14,0.271s-0.907,0.163-1.4,0.229c-0.494,0.067-1.003,0.12-1.53,0.16
			c-0.527,0.04-1.037,0.061-1.53,0.061H284.153z M298.813,39.66h-1.72v-9.98h-2.5V39.2h-1.68V21.6h1.68V28.2h2.5v-6.8h1.72V39.66z"
			/>
		<path fill="#FFFFFF" d="M301.093,25.6V24.16h10.84V25.6H301.093z M306.492,33.16c-0.76,0-1.42-0.09-1.98-0.271
			c-0.56-0.18-1.023-0.423-1.39-0.729c-0.367-0.307-0.64-0.66-0.82-1.061c-0.18-0.399-0.27-0.819-0.27-1.26
			c0-0.439,0.09-0.856,0.27-1.25c0.18-0.393,0.453-0.743,0.82-1.05c0.366-0.307,0.83-0.55,1.39-0.73c0.56-0.18,1.22-0.27,1.98-0.27
			c0.76,0,1.42,0.09,1.98,0.27c0.56,0.181,1.023,0.424,1.39,0.73s0.64,0.657,0.82,1.05c0.18,0.394,0.27,0.811,0.27,1.25
			c0,0.44-0.09,0.86-0.27,1.26c-0.18,0.4-0.454,0.754-0.82,1.061s-0.83,0.55-1.39,0.729C307.913,33.07,307.253,33.16,306.492,33.16z
			 M303.433,22.98v-1.44h6.18v1.44H303.433z M306.492,31.76c0.493,0,0.914-0.053,1.26-0.16c0.347-0.106,0.63-0.25,0.85-0.43
			c0.22-0.18,0.38-0.387,0.48-0.62s0.15-0.47,0.15-0.71s-0.05-0.473-0.15-0.7c-0.1-0.227-0.26-0.43-0.48-0.609
			c-0.22-0.181-0.503-0.327-0.85-0.44s-0.767-0.17-1.26-0.17s-0.913,0.057-1.26,0.17s-0.63,0.26-0.85,0.44
			c-0.22,0.18-0.38,0.383-0.48,0.609c-0.1,0.228-0.15,0.46-0.15,0.7s0.05,0.477,0.15,0.71s0.26,0.44,0.48,0.62
			c0.22,0.18,0.503,0.323,0.85,0.43C305.579,31.707,305.999,31.76,306.492,31.76z M315.913,39.3h-11.62v-4.38h1.76v2.88h9.86V39.3z
			 M318.373,29.18h-2.88v6.32h-1.72V21.38h1.72v6.26h2.88V29.18z"/>
		<path fill="#FFFFFF" d="M325.452,21.86c0.013,0.6-0.013,1.177-0.079,1.729c-0.066,0.554-0.165,1.084-0.296,1.59
			c0.557,1.054,1.226,1.964,2.005,2.73c0.78,0.767,1.73,1.43,2.85,1.99l-1.06,1.22c-0.96-0.493-1.813-1.093-2.559-1.8
			s-1.375-1.493-1.89-2.36c-0.475,1.014-1.095,1.91-1.862,2.69c-0.767,0.779-1.65,1.449-2.65,2.01l-1.18-1.141
			c1.72-0.973,3.002-2.159,3.849-3.56c0.846-1.4,1.216-3.1,1.111-5.1H325.452z M333.532,36.22c0,0.521-0.123,1-0.369,1.44
			c-0.247,0.439-0.619,0.82-1.118,1.14c-0.5,0.32-1.118,0.57-1.857,0.75c-0.739,0.181-1.594,0.271-2.566,0.271
			c-0.985,0-1.844-0.09-2.575-0.271c-0.732-0.18-1.348-0.43-1.847-0.75c-0.5-0.319-0.872-0.7-1.118-1.14
			c-0.246-0.44-0.369-0.92-0.369-1.44c0-1.04,0.492-1.887,1.478-2.54c0.985-0.652,2.462-0.979,4.432-0.979
			c1.97,0,3.448,0.327,4.433,0.979C333.04,34.333,333.532,35.18,333.532,36.22z M331.733,36.26c0-0.293-0.08-0.566-0.24-0.819
			c-0.16-0.254-0.41-0.474-0.75-0.66s-0.767-0.333-1.28-0.44c-0.514-0.106-1.13-0.16-1.85-0.16c-1.414,0-2.457,0.2-3.13,0.601
			c-0.674,0.399-1.01,0.894-1.01,1.479c0,0.587,0.336,1.08,1.01,1.48c0.673,0.399,1.716,0.6,3.13,0.6c1.427,0,2.47-0.2,3.13-0.6
			C331.403,37.34,331.733,36.847,331.733,36.26z M336.213,27.6h-2.88v4.881h-1.72V21.4h1.72v4.659h2.88V27.6z"/>
		<path fill="#FFFFFF" d="M344.873,25.9v3.72h9.14V31.1h-17.38V29.62h6.48V25.9H344.873z M351.413,36.16
			c0,0.507-0.13,0.983-0.39,1.43c-0.26,0.446-0.65,0.837-1.17,1.17s-1.167,0.594-1.94,0.78c-0.773,0.187-1.667,0.28-2.68,0.28
			c-1.027,0-1.927-0.094-2.7-0.28c-0.773-0.187-1.42-0.447-1.94-0.78s-0.914-0.724-1.18-1.17c-0.267-0.446-0.4-0.923-0.4-1.43
			c0-0.521,0.133-1,0.4-1.44c0.267-0.439,0.66-0.819,1.18-1.14s1.167-0.57,1.94-0.75c0.773-0.18,1.673-0.271,2.7-0.271
			c1.013,0,1.907,0.091,2.68,0.271c0.773,0.18,1.42,0.43,1.94,0.75s0.91,0.7,1.17,1.14C351.283,35.16,351.413,35.64,351.413,36.16z
			 M339.053,21.9h12.12c-0.027,1.293-0.094,2.517-0.202,3.67s-0.223,2.123-0.344,2.91h-1.714c0.133-0.841,0.243-1.688,0.33-2.54
			c0.086-0.854,0.143-1.7,0.17-2.54h-10.36V21.9z M349.553,36.16c0-0.267-0.07-0.53-0.21-0.79c-0.14-0.26-0.38-0.49-0.72-0.69
			c-0.34-0.199-0.787-0.363-1.34-0.489c-0.554-0.127-1.237-0.19-2.05-0.19c-0.827,0-1.517,0.063-2.07,0.19
			c-0.553,0.126-1,0.29-1.34,0.489c-0.34,0.2-0.58,0.431-0.72,0.69s-0.21,0.523-0.21,0.79c0,0.253,0.07,0.51,0.21,0.77
			c0.14,0.261,0.38,0.493,0.72,0.7c0.34,0.207,0.787,0.377,1.34,0.51c0.553,0.134,1.243,0.2,2.07,0.2c0.813,0,1.497-0.066,2.05-0.2
			c0.553-0.133,1-0.303,1.34-0.51s0.58-0.439,0.72-0.7C349.483,36.67,349.553,36.413,349.553,36.16z"/>
		<path fill="#FFFFFF" d="M365.713,29.92c0,0.813-0.295,1.51-0.885,2.09c-0.59,0.58-1.469,0.938-2.635,1.07V35
			c0.987-0.04,1.96-0.093,2.92-0.16c0.96-0.066,1.827-0.153,2.6-0.26V36c-0.64,0.094-1.343,0.174-2.11,0.24
			c-0.767,0.066-1.554,0.123-2.361,0.17c-0.808,0.047-1.614,0.083-2.42,0.109c-0.806,0.027-1.563,0.04-2.269,0.04h-3.58V35.08h3.56
			c0.293,0,0.597,0,0.91,0c0.313,0,0.643-0.007,0.99-0.021V33.08c-1.213-0.12-2.12-0.47-2.72-1.05s-0.9-1.283-0.9-2.11
			c0-0.453,0.093-0.873,0.28-1.26s0.467-0.724,0.84-1.01c0.373-0.287,0.836-0.511,1.39-0.67c0.553-0.16,1.203-0.24,1.95-0.24
			c0.733,0,1.376,0.08,1.93,0.24c0.553,0.159,1.017,0.383,1.39,0.67c0.373,0.286,0.653,0.623,0.84,1.01
			C365.619,29.047,365.713,29.467,365.713,29.92z M355.633,25.9v-1.42h11.12v1.42H355.633z M358.073,23.38v-1.46h6.18v1.46H358.073z
			 M363.953,29.92c0-0.24-0.05-0.473-0.149-0.7c-0.099-0.227-0.258-0.427-0.476-0.6s-0.496-0.313-0.834-0.42
			c-0.337-0.106-0.745-0.16-1.221-0.16c-0.477,0-0.887,0.054-1.231,0.16s-0.625,0.247-0.844,0.42s-0.377,0.373-0.477,0.6
			c-0.1,0.228-0.149,0.46-0.149,0.7s0.049,0.474,0.149,0.7s0.258,0.427,0.477,0.6c0.218,0.174,0.5,0.313,0.844,0.42
			c0.344,0.107,0.754,0.16,1.231,0.16c0.476,0,0.883-0.053,1.221-0.16c0.338-0.106,0.616-0.246,0.834-0.42
			c0.218-0.173,0.377-0.373,0.476-0.6C363.903,30.394,363.953,30.16,363.953,29.92z M370.353,39.66h-1.72V21.4h1.72V39.66z"/>
		<path fill="#FFFFFF" d="M372.773,34.32h3.66c0.667,0,1.4-0.011,2.2-0.03c0.8-0.021,1.61-0.05,2.43-0.09
			c0.82-0.04,1.62-0.094,2.4-0.16c0.78-0.066,1.49-0.14,2.13-0.22v1.439c-0.64,0.094-1.343,0.174-2.11,0.24
			c-0.767,0.066-1.554,0.123-2.36,0.17s-1.61,0.084-2.41,0.11c-0.8,0.026-1.554,0.04-2.26,0.04h-3.68V34.32z M383.392,27.12
			c0,0.653-0.109,1.264-0.329,1.83s-0.531,1.057-0.936,1.47c-0.405,0.413-0.899,0.737-1.483,0.97
			c-0.584,0.233-1.235,0.351-1.952,0.351s-1.368-0.117-1.952-0.351c-0.584-0.232-1.079-0.557-1.484-0.97
			c-0.405-0.413-0.717-0.903-0.936-1.47c-0.219-0.566-0.329-1.177-0.329-1.83s0.109-1.264,0.329-1.83
			c0.219-0.566,0.531-1.057,0.936-1.47c0.405-0.413,0.899-0.737,1.484-0.971c0.584-0.232,1.235-0.35,1.952-0.35
			s1.367,0.117,1.952,0.35c0.584,0.233,1.079,0.558,1.483,0.971c0.405,0.413,0.717,0.903,0.936,1.47S383.392,26.467,383.392,27.12z
			 M381.633,27.12c0-0.96-0.264-1.72-0.79-2.28c-0.527-0.56-1.244-0.84-2.15-0.84c-0.907,0-1.624,0.28-2.15,0.84
			c-0.527,0.561-0.79,1.32-0.79,2.28s0.263,1.72,0.79,2.28c0.526,0.56,1.243,0.84,2.15,0.84c0.906,0,1.623-0.28,2.15-0.84
			C381.369,28.84,381.633,28.08,381.633,27.12z M388.193,39.66h-1.66V21.4h1.66V39.66z"/>
		<path fill="#FFFFFF" d="M407.332,37.02h-16.979v-1.46h7.64V30.9h1.76v4.659h7.58V37.02z M399.615,24.86
			c0.758,1.373,1.701,2.547,2.827,3.52c1.127,0.974,2.437,1.693,3.931,2.16l-1.121,1.3c-1.279-0.439-2.467-1.12-3.56-2.04
			s-2.003-1.986-2.729-3.2c-0.634,1.228-1.504,2.28-2.61,3.16c-1.107,0.88-2.327,1.561-3.66,2.04l-1.14-1.319
			c1.013-0.347,1.93-0.764,2.75-1.25c0.82-0.487,1.517-1.063,2.09-1.73s1.01-1.43,1.31-2.29s0.437-1.843,0.411-2.95h1.76
			C399.912,23.193,399.826,24.06,399.615,24.86z"/>
	</g>
</g>
<g id="Ellipse_4_3_">
	<g>
		<path fill="#FFFFFF" stroke="#51C3CE" stroke-width="2" stroke-miterlimit="10" d="M741.439,109.725h-186c-12.15,0-22,9.85-22,22
			s9.85,22,22,22h186c12.15,0,22-9.85,22-22S753.589,109.725,741.439,109.725z"/>
	</g>
</g>
<g id="SUPEX_추구협의_4_">
	<g>
		<g enable-background="new    ">
			<path fill="#51C3CE" d="M614.02,136.154h-1.761v-3.92h-8.2v-1.479h17.381v1.479h-7.42V136.154z M618.78,125.354
				c0,0.547-0.127,1.054-0.381,1.52c-0.253,0.467-0.629,0.87-1.129,1.21c-0.5,0.341-1.127,0.604-1.881,0.79
				c-0.754,0.188-1.623,0.28-2.609,0.28c-1,0-1.874-0.093-2.621-0.28c-0.746-0.187-1.373-0.449-1.879-0.79
				c-0.508-0.34-0.887-0.743-1.141-1.21c-0.254-0.466-0.38-0.973-0.38-1.52s0.126-1.057,0.38-1.53
				c0.254-0.473,0.633-0.88,1.141-1.22c0.506-0.34,1.133-0.606,1.879-0.8c0.747-0.193,1.621-0.29,2.621-0.29
				c0.986,0,1.855,0.097,2.609,0.29s1.381,0.46,1.881,0.8s0.876,0.747,1.129,1.22C618.653,124.298,618.78,124.808,618.78,125.354z
				 M619.199,139.654h-12.301v-5.439h1.721v3.939h10.58V139.654z M616.879,125.395c0-0.32-0.08-0.627-0.24-0.92
				s-0.406-0.55-0.74-0.771c-0.333-0.22-0.756-0.396-1.27-0.529c-0.514-0.134-1.13-0.2-1.85-0.2c-0.721,0-1.344,0.066-1.871,0.2
				c-0.526,0.133-0.956,0.31-1.289,0.529c-0.334,0.221-0.58,0.478-0.74,0.771s-0.24,0.6-0.24,0.92s0.08,0.617,0.24,0.89
				c0.16,0.273,0.406,0.518,0.74,0.73c0.333,0.213,0.763,0.38,1.289,0.5c0.527,0.12,1.15,0.18,1.871,0.18
				c0.72,0,1.336-0.06,1.85-0.18s0.937-0.287,1.27-0.5c0.334-0.213,0.58-0.457,0.74-0.73
				C616.799,126.012,616.879,125.715,616.879,125.395z"/>
			<path fill="#51C3CE" d="M631.199,123.755h4.379v-2.08h1.721v10.739h-1.721v-3.12h-4.199c-0.428,0.587-0.967,1.047-1.62,1.381
				c-0.653,0.333-1.387,0.5-2.2,0.5c-0.667,0-1.279-0.113-1.84-0.341c-0.561-0.227-1.047-0.543-1.46-0.949
				c-0.413-0.407-0.737-0.887-0.97-1.44c-0.234-0.553-0.351-1.156-0.351-1.81c0-0.641,0.116-1.237,0.351-1.79
				c0.232-0.554,0.557-1.033,0.97-1.44c0.413-0.406,0.899-0.727,1.46-0.96s1.173-0.35,1.84-0.35c0.76,0,1.45,0.149,2.07,0.449
				C630.248,122.845,630.772,123.248,631.199,123.755z M624.619,126.635c0,0.439,0.069,0.843,0.209,1.21
				c0.141,0.366,0.341,0.687,0.601,0.96s0.569,0.486,0.931,0.64c0.359,0.153,0.76,0.23,1.199,0.23c0.427,0,0.823-0.077,1.189-0.23
				c0.367-0.153,0.681-0.366,0.94-0.64c0.261-0.273,0.464-0.594,0.61-0.96c0.146-0.367,0.22-0.771,0.22-1.21
				c0-0.427-0.073-0.827-0.22-1.2s-0.35-0.696-0.61-0.97c-0.26-0.273-0.573-0.487-0.94-0.641c-0.366-0.153-0.763-0.229-1.189-0.229
				s-0.82,0.076-1.18,0.229c-0.36,0.153-0.67,0.367-0.93,0.641c-0.261,0.273-0.464,0.597-0.61,0.97
				C624.692,125.808,624.619,126.208,624.619,126.635z M637.379,136.294c0,0.547-0.123,1.051-0.369,1.511s-0.619,0.859-1.119,1.2
				c-0.499,0.34-1.117,0.606-1.856,0.8c-0.739,0.192-1.594,0.29-2.565,0.29c-0.984,0-1.844-0.098-2.576-0.29
				c-0.731-0.193-1.348-0.46-1.846-0.8c-0.5-0.341-0.873-0.744-1.119-1.211s-0.369-0.973-0.369-1.52s0.123-1.05,0.369-1.51
				s0.619-0.86,1.119-1.2c0.498-0.34,1.114-0.606,1.846-0.8c0.732-0.193,1.592-0.29,2.576-0.29c0.972,0,1.826,0.097,2.565,0.29
				s1.357,0.46,1.856,0.8c0.5,0.34,0.873,0.743,1.119,1.21S637.379,135.748,637.379,136.294z M635.578,136.274
				c0-0.307-0.08-0.6-0.239-0.88c-0.16-0.28-0.41-0.53-0.75-0.75c-0.341-0.22-0.767-0.394-1.28-0.521
				c-0.514-0.126-1.13-0.189-1.85-0.189c-0.707,0-1.32,0.063-1.84,0.189c-0.521,0.127-0.95,0.301-1.291,0.521
				c-0.34,0.22-0.593,0.47-0.76,0.75c-0.166,0.28-0.25,0.573-0.25,0.88s0.084,0.604,0.25,0.89c0.167,0.287,0.42,0.537,0.76,0.75
				c0.341,0.214,0.771,0.384,1.291,0.511c0.52,0.126,1.133,0.189,1.84,0.189c0.72,0,1.336-0.063,1.85-0.189
				c0.514-0.127,0.939-0.297,1.28-0.511c0.34-0.213,0.59-0.463,0.75-0.75C635.498,136.878,635.578,136.581,635.578,136.274z
				 M632.039,127.895h3.56v-2.76h-3.64c0.16,0.467,0.24,0.967,0.24,1.5C632.199,127.048,632.146,127.468,632.039,127.895z"/>
			<path fill="#51C3CE" d="M647.379,139.534h-1.76v-5.939c-0.32,0.013-0.634,0.02-0.94,0.02c-0.308,0-0.606,0-0.9,0h-3.54v-1.5
				h3.521c0.667,0,1.399-0.01,2.2-0.03c0.8-0.02,1.609-0.05,2.43-0.09s1.62-0.093,2.4-0.16c0.779-0.066,1.489-0.14,2.129-0.22v1.44
				c-0.786,0.106-1.656,0.2-2.609,0.279c-0.953,0.08-1.93,0.147-2.93,0.2V139.534z M650.879,126.414c0,0.561-0.11,1.08-0.33,1.561
				c-0.221,0.479-0.53,0.894-0.93,1.24c-0.4,0.347-0.888,0.619-1.461,0.819s-1.22,0.3-1.939,0.3c-0.721,0-1.367-0.1-1.94-0.3
				s-1.06-0.473-1.46-0.819s-0.71-0.761-0.93-1.24c-0.221-0.48-0.33-1-0.33-1.561c0-0.56,0.109-1.08,0.33-1.56
				c0.22-0.48,0.529-0.894,0.93-1.24s0.887-0.62,1.46-0.82c0.573-0.199,1.22-0.3,1.94-0.3c0.72,0,1.366,0.101,1.939,0.3
				c0.573,0.2,1.061,0.474,1.461,0.82c0.399,0.347,0.709,0.76,0.93,1.24C650.769,125.334,650.879,125.854,650.879,126.414z
				 M649.179,126.414c0-0.72-0.264-1.31-0.79-1.77c-0.527-0.46-1.25-0.69-2.17-0.69s-1.644,0.23-2.17,0.69
				c-0.527,0.46-0.79,1.05-0.79,1.77c0,0.733,0.263,1.327,0.79,1.78c0.526,0.453,1.25,0.68,2.17,0.68s1.643-0.227,2.17-0.68
				C648.915,127.741,649.179,127.147,649.179,126.414z M655.619,139.935h-1.721v-18.26h1.721V139.935z"/>
			<path fill="#51C3CE" d="M658.199,130.255h3.3c0.667,0,1.401-0.011,2.207-0.03c0.805-0.021,1.618-0.05,2.44-0.09
				c0.821-0.04,1.623-0.094,2.402-0.16c0.78-0.066,1.49-0.141,2.13-0.22v1.399c-0.76,0.107-1.59,0.197-2.489,0.271
				c-0.9,0.073-1.824,0.137-2.771,0.189v4.061h-1.761v-4c-0.373,0.026-0.736,0.04-1.09,0.04s-0.703,0-1.049,0h-3.32V130.255z
				 M669.1,125.494c0,0.521-0.11,1-0.33,1.44c-0.219,0.439-0.527,0.82-0.926,1.14c-0.397,0.32-0.883,0.57-1.453,0.75
				c-0.571,0.181-1.215,0.271-1.932,0.271s-1.361-0.09-1.932-0.271c-0.571-0.18-1.057-0.43-1.454-0.75
				c-0.397-0.319-0.707-0.7-0.926-1.14c-0.22-0.44-0.329-0.92-0.329-1.44c0-0.52,0.109-1,0.329-1.439
				c0.219-0.44,0.528-0.82,0.926-1.141c0.397-0.319,0.883-0.569,1.454-0.75c0.57-0.18,1.215-0.27,1.932-0.27s1.36,0.09,1.932,0.27
				c0.57,0.181,1.056,0.431,1.453,0.75c0.398,0.32,0.707,0.7,0.926,1.141C668.99,124.494,669.1,124.975,669.1,125.494z
				 M673.759,139.574h-12.7v-4.7h1.7v3.221h11V139.574z M667.339,125.475c0-0.24-0.05-0.49-0.149-0.75
				c-0.101-0.26-0.264-0.497-0.49-0.71s-0.523-0.387-0.891-0.521c-0.367-0.133-0.816-0.2-1.35-0.2s-0.983,0.067-1.35,0.2
				c-0.367,0.134-0.664,0.308-0.891,0.521s-0.39,0.45-0.49,0.71c-0.1,0.26-0.149,0.51-0.149,0.75s0.05,0.49,0.149,0.75
				c0.101,0.26,0.264,0.493,0.49,0.7c0.227,0.206,0.523,0.38,0.891,0.52c0.366,0.14,0.816,0.21,1.35,0.21s0.982-0.07,1.35-0.21
				s0.664-0.313,0.891-0.52c0.227-0.207,0.39-0.44,0.49-0.7C667.289,125.965,667.339,125.715,667.339,125.475z M671.739,136.374
				v-2.22h-4.18v-1.46h4.18v-11.02h1.721v14.699H671.739z"/>
			<path fill="#51C3CE" d="M686.658,130.194c0,0.813-0.295,1.51-0.885,2.09s-1.469,0.938-2.635,1.07v1.92
				c0.986-0.04,1.96-0.093,2.92-0.16c0.96-0.066,1.826-0.153,2.6-0.26v1.42c-0.64,0.094-1.343,0.174-2.109,0.24
				c-0.768,0.066-1.554,0.123-2.361,0.17c-0.807,0.047-1.613,0.083-2.42,0.109c-0.807,0.027-1.563,0.04-2.27,0.04h-3.579v-1.479
				h3.56c0.293,0,0.597,0,0.91,0c0.313,0,0.643-0.007,0.99-0.021v-1.979c-1.213-0.12-2.12-0.47-2.721-1.05
				c-0.6-0.58-0.899-1.283-0.899-2.11c0-0.453,0.093-0.873,0.28-1.26c0.186-0.387,0.467-0.724,0.84-1.01
				c0.373-0.287,0.836-0.511,1.39-0.67c0.554-0.16,1.203-0.24,1.95-0.24c0.732,0,1.377,0.08,1.93,0.24
				c0.553,0.159,1.018,0.383,1.391,0.67c0.373,0.286,0.652,0.623,0.84,1.01C686.566,129.321,686.658,129.741,686.658,130.194z
				 M676.578,126.175v-1.42h11.121v1.42H676.578z M679.019,123.654v-1.46h6.181v1.46H679.019z M684.899,130.194
				c0-0.24-0.049-0.473-0.148-0.7c-0.1-0.227-0.258-0.427-0.477-0.6s-0.496-0.313-0.834-0.42s-0.744-0.16-1.221-0.16
				s-0.887,0.054-1.23,0.16c-0.345,0.106-0.626,0.247-0.844,0.42c-0.219,0.173-0.377,0.373-0.477,0.6
				c-0.1,0.228-0.149,0.46-0.149,0.7s0.05,0.474,0.149,0.7s0.258,0.427,0.477,0.6c0.218,0.174,0.499,0.313,0.844,0.42
				c0.344,0.107,0.754,0.16,1.23,0.16s0.883-0.053,1.221-0.16c0.338-0.106,0.615-0.246,0.834-0.42
				c0.219-0.173,0.377-0.373,0.477-0.6S684.899,130.435,684.899,130.194z M691.299,139.935h-1.721v-18.26h1.721V139.935z"/>
		</g>
	</g>
</g>
<g>
	<g id="Ellipse_4_4_">
		<g>
			<path fill="#FFFFFF" stroke="#51C3CE" stroke-width="2" stroke-miterlimit="10" d="M741.439,183.167H555.44
				c-12.15,0-22,9.851-22,22c0,12.149,9.85,22,22,22h185.999c12.15,0,22-9.851,22-22
				C763.439,193.018,753.589,183.167,741.439,183.167z"/>
		</g>
	</g>
	<g id="SUPEX_추구협의_3_">
		<g enable-background="new    ">
			<path fill="#51C3CE" d="M604.901,200.557c0-0.666,0.119-1.286,0.358-1.859s0.572-1.067,0.998-1.48s0.925-0.736,1.497-0.97
				s1.197-0.351,1.876-0.351s1.31,0.117,1.896,0.351s1.092,0.557,1.518,0.97s0.758,0.907,0.998,1.48
				c0.238,0.573,0.359,1.193,0.359,1.859c0,0.653-0.121,1.26-0.359,1.82c-0.24,0.56-0.572,1.043-0.998,1.45
				c-0.426,0.406-0.932,0.727-1.518,0.96s-1.217,0.35-1.896,0.35s-1.304-0.116-1.876-0.35s-1.071-0.554-1.497-0.96
				c-0.426-0.407-0.759-0.891-0.998-1.45C605.02,201.816,604.901,201.21,604.901,200.557z M606.74,200.547
				c0,0.438,0.07,0.847,0.209,1.226c0.141,0.379,0.341,0.701,0.601,0.967c0.261,0.267,0.569,0.476,0.931,0.629
				c0.359,0.152,0.76,0.229,1.199,0.229s0.84-0.076,1.2-0.229c0.36-0.153,0.67-0.362,0.931-0.629
				c0.26-0.266,0.463-0.588,0.609-0.967s0.22-0.787,0.22-1.226c0-0.466-0.073-0.891-0.22-1.276c-0.146-0.385-0.35-0.717-0.609-0.996
				c-0.261-0.279-0.57-0.495-0.931-0.648c-0.36-0.152-0.761-0.229-1.2-0.229s-0.84,0.077-1.199,0.229
				c-0.361,0.153-0.67,0.369-0.931,0.648c-0.26,0.279-0.46,0.611-0.601,0.996C606.811,199.656,606.74,200.081,606.74,200.547z
				 M619.86,213.017H608.04v-5.66h1.76v4.16h10.06V213.017z M619.44,208.316h-1.699v-13.199h1.699V208.316z"/>
			<path fill="#51C3CE" d="M639.3,203.657v1.479h-17.399v-1.479H639.3z M632.699,199.197c0.813,0.427,1.688,0.797,2.621,1.109
				c0.933,0.313,1.879,0.563,2.84,0.75l-0.881,1.36c-0.479-0.106-0.979-0.24-1.5-0.4c-0.52-0.16-1.039-0.347-1.56-0.56
				s-1.03-0.44-1.53-0.681c-0.5-0.239-0.957-0.493-1.369-0.76c-1.121,0.601-2.314,1.104-3.58,1.51
				c-1.268,0.407-2.527,0.697-3.781,0.87l-0.819-1.319c1.12-0.16,2.183-0.38,3.19-0.66c1.006-0.28,1.933-0.601,2.779-0.96
				c0.847-0.36,1.597-0.75,2.25-1.17s1.193-0.844,1.62-1.271c-1.427,0.04-2.847,0.061-4.26,0.061h-4.04v-1.42h5.58
				c0.854,0,1.71,0,2.57,0c0.859,0,1.756-0.014,2.689-0.04c0.16-0.014,0.267,0.036,0.32,0.149c0.053,0.113,0.047,0.23-0.02,0.351
				c-0.334,0.573-0.768,1.116-1.301,1.63C633.987,198.26,633.38,198.744,632.699,199.197z M636.94,210.057
				c0,0.493-0.13,0.953-0.39,1.38c-0.261,0.427-0.649,0.793-1.17,1.101c-0.521,0.307-1.167,0.55-1.94,0.729
				c-0.773,0.181-1.666,0.271-2.68,0.271c-1.027,0-1.927-0.09-2.7-0.271c-0.773-0.18-1.42-0.423-1.94-0.729
				c-0.52-0.308-0.913-0.674-1.18-1.101s-0.4-0.887-0.4-1.38c0-1,0.523-1.816,1.57-2.45c1.047-0.633,2.597-0.949,4.65-0.949
				c2.053,0,3.597,0.316,4.63,0.949C636.423,208.24,636.94,209.057,636.94,210.057z M635.08,210.077c0-0.254-0.07-0.5-0.211-0.74
				c-0.14-0.24-0.379-0.457-0.719-0.65c-0.341-0.192-0.787-0.35-1.341-0.47s-1.237-0.18-2.05-0.18c-0.827,0-1.518,0.06-2.07,0.18
				s-1,0.277-1.34,0.47c-0.34,0.193-0.58,0.41-0.72,0.65s-0.21,0.486-0.21,0.74c0,0.239,0.07,0.483,0.21,0.729
				c0.14,0.247,0.38,0.463,0.72,0.65c0.34,0.187,0.787,0.34,1.34,0.46s1.243,0.18,2.07,0.18c0.813,0,1.496-0.06,2.05-0.18
				s1-0.273,1.341-0.46c0.34-0.188,0.579-0.403,0.719-0.65C635.01,210.561,635.08,210.316,635.08,210.077z"/>
			<path fill="#51C3CE" d="M647.379,212.977h-1.76v-5.939c-0.32,0.013-0.633,0.02-0.939,0.02s-0.607,0-0.9,0h-3.539v-1.5h3.52
				c0.666,0,1.4-0.01,2.199-0.03c0.801-0.02,1.61-0.05,2.431-0.09c0.819-0.04,1.62-0.093,2.399-0.16
				c0.78-0.066,1.49-0.14,2.131-0.22v1.44c-0.787,0.106-1.657,0.2-2.61,0.279c-0.954,0.08-1.931,0.147-2.931,0.2V212.977z
				 M650.879,199.856c0,0.561-0.109,1.08-0.33,1.561c-0.219,0.479-0.529,0.894-0.93,1.24c-0.399,0.347-0.887,0.619-1.459,0.819
				c-0.574,0.2-1.221,0.3-1.94,0.3s-1.367-0.1-1.94-0.3s-1.06-0.473-1.46-0.819c-0.399-0.347-0.71-0.761-0.93-1.24
				c-0.22-0.48-0.33-1-0.33-1.561c0-0.56,0.11-1.08,0.33-1.56c0.22-0.48,0.53-0.894,0.93-1.24c0.4-0.347,0.887-0.62,1.46-0.82
				c0.573-0.199,1.221-0.3,1.94-0.3s1.366,0.101,1.94,0.3c0.572,0.2,1.06,0.474,1.459,0.82c0.4,0.347,0.711,0.76,0.93,1.24
				C650.77,198.776,650.879,199.297,650.879,199.856z M649.18,199.856c0-0.72-0.264-1.31-0.79-1.77s-1.25-0.69-2.17-0.69
				c-0.921,0-1.644,0.23-2.171,0.69c-0.526,0.46-0.789,1.05-0.789,1.77c0,0.733,0.263,1.327,0.789,1.78
				c0.527,0.453,1.25,0.68,2.171,0.68c0.92,0,1.644-0.227,2.17-0.68S649.18,200.59,649.18,199.856z M655.619,213.377h-1.72v-18.26
				h1.72V213.377z"/>
			<path fill="#51C3CE" d="M658.199,203.697h3.301c0.666,0,1.402-0.011,2.207-0.03c0.805-0.021,1.618-0.05,2.439-0.09
				c0.822-0.04,1.623-0.094,2.403-0.16s1.49-0.141,2.13-0.22v1.399c-0.76,0.107-1.59,0.197-2.49,0.271
				c-0.899,0.073-1.823,0.137-2.77,0.189v4.061h-1.76v-4c-0.373,0.026-0.737,0.04-1.09,0.04c-0.354,0-0.704,0-1.051,0h-3.32V203.697
				z M669.1,198.937c0,0.521-0.109,1-0.328,1.44c-0.219,0.439-0.528,0.82-0.926,1.14c-0.398,0.32-0.883,0.57-1.454,0.75
				c-0.571,0.181-1.215,0.271-1.932,0.271s-1.36-0.09-1.933-0.271c-0.57-0.18-1.055-0.43-1.453-0.75
				c-0.398-0.319-0.707-0.7-0.926-1.14c-0.219-0.44-0.328-0.92-0.328-1.44c0-0.52,0.109-1,0.328-1.439
				c0.219-0.44,0.527-0.82,0.926-1.141c0.398-0.319,0.883-0.569,1.453-0.75c0.572-0.18,1.216-0.27,1.933-0.27s1.36,0.09,1.932,0.27
				c0.571,0.181,1.056,0.431,1.454,0.75c0.397,0.32,0.707,0.7,0.926,1.141C668.99,197.937,669.1,198.417,669.1,198.937z
				 M673.76,213.017h-12.699v-4.7h1.699v3.221h11V213.017z M667.34,198.917c0-0.24-0.05-0.49-0.15-0.75
				c-0.1-0.26-0.264-0.497-0.49-0.71s-0.523-0.387-0.889-0.521c-0.367-0.133-0.817-0.2-1.351-0.2c-0.534,0-0.983,0.067-1.351,0.2
				c-0.366,0.134-0.663,0.308-0.89,0.521s-0.39,0.45-0.489,0.71c-0.101,0.26-0.15,0.51-0.15,0.75s0.05,0.49,0.15,0.75
				c0.1,0.26,0.263,0.493,0.489,0.7c0.227,0.206,0.523,0.38,0.89,0.52c0.367,0.14,0.816,0.21,1.351,0.21
				c0.533,0,0.983-0.07,1.351-0.21c0.365-0.14,0.662-0.313,0.889-0.52c0.227-0.207,0.391-0.44,0.49-0.7
				C667.29,199.407,667.34,199.157,667.34,198.917z M671.74,209.816v-2.22h-4.18v-1.46h4.18v-11.02h1.72v14.699H671.74z"/>
			<path fill="#51C3CE" d="M686.66,203.637c0,0.813-0.295,1.51-0.885,2.09c-0.591,0.58-1.469,0.938-2.636,1.07v1.92
				c0.987-0.04,1.96-0.093,2.92-0.16c0.96-0.066,1.827-0.153,2.601-0.26v1.42c-0.641,0.094-1.344,0.174-2.11,0.24
				s-1.554,0.123-2.36,0.17c-0.809,0.047-1.615,0.083-2.421,0.109c-0.806,0.027-1.563,0.04-2.269,0.04h-3.58v-1.479h3.56
				c0.294,0,0.597,0,0.91,0s0.644-0.007,0.99-0.021v-1.979c-1.214-0.12-2.12-0.47-2.72-1.05c-0.601-0.58-0.9-1.283-0.9-2.11
				c0-0.453,0.094-0.873,0.279-1.26c0.188-0.387,0.467-0.724,0.841-1.01c0.373-0.287,0.837-0.511,1.39-0.67
				c0.553-0.16,1.203-0.24,1.95-0.24c0.733,0,1.376,0.08,1.931,0.24c0.553,0.159,1.016,0.383,1.389,0.67
				c0.373,0.286,0.654,0.623,0.841,1.01S686.66,203.184,686.66,203.637z M676.58,199.617v-1.42h11.119v1.42H676.58z M679.02,197.097
				v-1.46h6.18v1.46H679.02z M684.901,203.637c0-0.24-0.051-0.473-0.15-0.7c-0.099-0.227-0.258-0.427-0.476-0.6
				s-0.496-0.313-0.834-0.42c-0.337-0.106-0.745-0.16-1.221-0.16c-0.477,0-0.887,0.054-1.231,0.16
				c-0.344,0.106-0.625,0.247-0.844,0.42c-0.218,0.173-0.377,0.373-0.477,0.6c-0.1,0.228-0.148,0.46-0.148,0.7
				s0.049,0.474,0.148,0.7s0.259,0.427,0.477,0.6c0.219,0.174,0.5,0.313,0.844,0.42c0.345,0.107,0.755,0.16,1.231,0.16
				c0.476,0,0.884-0.053,1.221-0.16c0.338-0.106,0.616-0.246,0.834-0.42c0.218-0.173,0.377-0.373,0.476-0.6
				C684.85,204.11,684.901,203.877,684.901,203.637z M691.3,213.377h-1.72v-18.26h1.72V213.377z"/>
		</g>
	</g>
</g>
<g id="Ellipse_4_2_">
	<g>
		<path fill="#48B5A9" d="M469.332,108.274H223.333c-12.15,0-22,9.851-22,22s9.85,22,22,22h103.221c2.886,8.151,10.64,14,19.778,14
			c9.14,0,16.895-5.849,19.778-14h103.222c12.149,0,22-9.851,22-22S481.483,108.274,469.332,108.274z"/>
	</g>
</g>
<g id="SK_탄소감축_인증센터_2_">
	<g enable-background="new    ">
		<path fill="#FFFFFF" d="M278.013,130.335h-4.08v-9.779h8.5v1.439h-6.74v2.66h6.4v1.4h-6.4v2.859h2.58
			c1.133,0,2.23-0.063,3.29-0.189s2.083-0.304,3.07-0.53v1.38c-0.987,0.254-2.047,0.443-3.18,0.57
			C280.32,130.272,279.173,130.335,278.013,130.335z M287.893,137.575h-11.42v-5.08h1.76v3.58h9.66V137.575z M290.373,126.396h-2.88
			v6.86h-1.72v-13.601h1.72v5.2h2.88V126.396z"/>
		<path fill="#FFFFFF" d="M307.973,135.295h-16.98v-1.46h7.64v-4.659h1.76v4.659h7.58V135.295z M300.256,123.136
			c0.758,1.373,1.701,2.547,2.827,3.52c1.127,0.974,2.437,1.693,3.93,2.16l-1.12,1.3c-1.28-0.439-2.467-1.12-3.56-2.04
			s-2.003-1.986-2.729-3.2c-0.634,1.228-1.504,2.28-2.61,3.16c-1.107,0.88-2.327,1.561-3.66,2.04l-1.14-1.319
			c1.013-0.347,1.93-0.764,2.75-1.25c0.82-0.487,1.517-1.063,2.09-1.73s1.01-1.43,1.31-2.29c0.3-0.86,0.437-1.843,0.411-2.95h1.76
			C300.553,121.469,300.467,122.335,300.256,123.136z"/>
		<path fill="#FFFFFF" d="M310.073,120.476h2.92c0.933,0,1.867,0,2.8,0s1.873-0.014,2.82-0.04c-0.08,1.066-0.327,2.083-0.74,3.05
			c-0.414,0.967-0.983,1.86-1.71,2.68c-0.727,0.82-1.604,1.551-2.63,2.19c-1.027,0.64-2.18,1.16-3.46,1.56l-1-1.359
			c2.093-0.627,3.787-1.49,5.08-2.59c1.293-1.101,2.1-2.457,2.42-4.07c-0.8,0.026-1.594,0.043-2.38,0.05s-1.58,0.01-2.38,0.01h-1.74
			V120.476z M323.173,137.655h-11.2v-6.84h11.2V137.655z M321.453,132.355h-7.76v3.8h7.76V132.355z M326.053,125.415h-2.88v4.36
			h-1.72v-10.1h1.72v4.199h2.88V125.415z"/>
		<path fill="#FFFFFF" d="M334.253,132.556v-2.2h-7.78v-1.48h17.38v1.48h-7.84v2.2h5.04v5.439h-1.72v-3.96h-10.34v-1.479H334.253z
			 M329.213,121.955h5.56c0.84,0,1.677,0,2.51,0c0.833,0,1.71-0.013,2.63-0.04c0.146,0.014,0.25,0.084,0.31,0.21
			c0.06,0.127,0.056,0.244-0.01,0.351c-0.267,0.507-0.667,1-1.2,1.479c-0.533,0.48-1.16,0.927-1.88,1.34
			c0.787,0.294,1.62,0.554,2.5,0.78c0.88,0.228,1.8,0.414,2.76,0.561l-0.82,1.319c-1.027-0.173-2.05-0.42-3.07-0.739
			c-1.02-0.32-1.99-0.693-2.91-1.12c-1.08,0.507-2.227,0.93-3.44,1.27s-2.36,0.557-3.44,0.65l-0.72-1.3
			c1-0.094,1.977-0.254,2.93-0.48s1.85-0.493,2.69-0.8c0.84-0.307,1.6-0.644,2.28-1.01c0.68-0.367,1.253-0.743,1.72-1.131
			c-0.747,0.027-1.487,0.047-2.22,0.061c-0.733,0.014-1.467,0.02-2.2,0.02h-3.98V121.955z M331.573,119.436h6.48v1.46h-6.48V119.436
			z"/>
		<path fill="#FFFFFF" d="M349.633,125.115c0-0.666,0.12-1.286,0.359-1.859s0.572-1.067,0.998-1.48s0.925-0.736,1.497-0.97
			c0.572-0.233,1.197-0.351,1.876-0.351c0.678,0,1.31,0.117,1.896,0.351c0.585,0.233,1.091,0.557,1.517,0.97s0.759,0.907,0.998,1.48
			s0.359,1.193,0.359,1.859c0,0.653-0.12,1.26-0.359,1.82c-0.239,0.56-0.572,1.043-0.998,1.45c-0.426,0.406-0.931,0.727-1.517,0.96
			c-0.586,0.233-1.218,0.35-1.896,0.35c-0.679,0-1.304-0.116-1.876-0.35c-0.572-0.233-1.071-0.554-1.497-0.96
			c-0.426-0.407-0.759-0.891-0.998-1.45C349.753,126.375,349.633,125.769,349.633,125.115z M351.473,125.105
			c0,0.438,0.07,0.847,0.21,1.226c0.14,0.379,0.34,0.701,0.6,0.967c0.26,0.267,0.57,0.476,0.93,0.629
			c0.36,0.152,0.76,0.229,1.2,0.229s0.84-0.076,1.2-0.229c0.36-0.153,0.67-0.362,0.93-0.629c0.26-0.266,0.463-0.588,0.61-0.967
			c0.146-0.379,0.22-0.787,0.22-1.226c0-0.466-0.073-0.891-0.22-1.276c-0.147-0.385-0.35-0.717-0.61-0.996
			c-0.26-0.279-0.57-0.495-0.93-0.648c-0.36-0.152-0.76-0.229-1.2-0.229s-0.84,0.077-1.2,0.229c-0.36,0.153-0.67,0.369-0.93,0.648
			c-0.26,0.279-0.46,0.611-0.6,0.996C351.543,124.215,351.473,124.64,351.473,125.105z M364.593,137.575h-11.82v-5.66h1.76v4.16
			h10.06V137.575z M364.173,132.875h-1.7v-13.199h1.7V132.875z"/>
		<path fill="#FFFFFF" d="M384.033,128.216v1.479h-17.4v-1.479H384.033z M377.433,123.756c0.813,0.427,1.687,0.797,2.62,1.109
			c0.933,0.313,1.88,0.563,2.84,0.75l-0.88,1.36c-0.48-0.106-0.98-0.24-1.5-0.4s-1.04-0.347-1.56-0.56s-1.03-0.44-1.53-0.681
			c-0.5-0.239-0.957-0.493-1.37-0.76c-1.12,0.601-2.313,1.104-3.58,1.51c-1.267,0.407-2.527,0.697-3.78,0.87l-0.82-1.319
			c1.12-0.16,2.183-0.38,3.19-0.66s1.933-0.601,2.78-0.96c0.846-0.36,1.596-0.75,2.25-1.17c0.653-0.42,1.193-0.844,1.62-1.271
			c-1.427,0.04-2.847,0.061-4.26,0.061h-4.04v-1.42h5.58c0.853,0,1.71,0,2.57,0s1.757-0.014,2.69-0.04
			c0.16-0.014,0.267,0.036,0.32,0.149c0.053,0.113,0.046,0.23-0.02,0.351c-0.333,0.573-0.767,1.116-1.3,1.63
			C378.719,122.818,378.113,123.303,377.433,123.756z M381.673,134.615c0,0.493-0.13,0.953-0.39,1.38
			c-0.26,0.427-0.65,0.793-1.17,1.101c-0.52,0.307-1.167,0.55-1.94,0.729c-0.773,0.181-1.667,0.271-2.68,0.271
			c-1.027,0-1.927-0.09-2.7-0.271c-0.773-0.18-1.42-0.423-1.94-0.729c-0.52-0.308-0.914-0.674-1.18-1.101s-0.4-0.887-0.4-1.38
			c0-1,0.523-1.816,1.57-2.45c1.046-0.633,2.596-0.949,4.65-0.949c2.053,0,3.597,0.316,4.63,0.949
			C381.156,132.799,381.673,133.615,381.673,134.615z M379.813,134.636c0-0.254-0.07-0.5-0.21-0.74s-0.38-0.457-0.72-0.65
			c-0.34-0.192-0.787-0.35-1.34-0.47s-1.237-0.18-2.05-0.18c-0.827,0-1.517,0.06-2.07,0.18s-1,0.277-1.34,0.47
			c-0.34,0.193-0.58,0.41-0.72,0.65c-0.14,0.24-0.21,0.486-0.21,0.74c0,0.239,0.07,0.483,0.21,0.729
			c0.14,0.247,0.38,0.463,0.72,0.65c0.34,0.187,0.787,0.34,1.34,0.46s1.243,0.18,2.07,0.18c0.813,0,1.497-0.06,2.05-0.18
			s1-0.273,1.34-0.46c0.34-0.188,0.58-0.403,0.72-0.65C379.743,135.119,379.813,134.875,379.813,134.636z"/>
		<path fill="#FFFFFF" d="M385.793,130.455l-1.28-1.1c0.92-0.561,1.67-1.163,2.25-1.811c0.58-0.646,1.03-1.336,1.35-2.069
			c0.32-0.733,0.523-1.523,0.61-2.37c0.086-0.847,0.09-1.75,0.01-2.71h1.7c0.026,1.293-0.06,2.453-0.26,3.479
			c0.4,1.027,0.927,1.95,1.58,2.771s1.46,1.57,2.42,2.25l-1.26,1.12c-0.68-0.48-1.304-1.066-1.87-1.76
			c-0.567-0.693-1.057-1.467-1.47-2.32c-0.36,0.88-0.847,1.689-1.46,2.43S386.726,129.803,385.793,130.455z M400.633,137.575h-11.8
			v-5.56h1.76v4.06h10.041V137.575z M392.193,123.855h2.88v-3.98h1.641v12.98h-1.641v-7.58h-2.88V123.855z M400.332,133.256h-1.66
			v-13.58h1.66V133.256z"/>
		<path fill="#FFFFFF" d="M407.573,133.355h-4.039v-12.2h7.939v1.46h-6.22v3.86h5.78v1.46h-5.78v3.96h2.58
			c1.133,0,2.229-0.063,3.29-0.19c1.06-0.126,2.083-0.303,3.07-0.529v1.42c-0.987,0.253-2.047,0.443-3.181,0.569
			C409.879,133.292,408.733,133.355,407.573,133.355z M412.774,127.556v-1.5h3.219v-6.38h1.721v18.26h-1.721v-10.38H412.774z"/>
	</g>
</g>
<polyline fill="none" stroke="#D0D5D6" stroke-width="2" stroke-miterlimit="10" points="171.333,294 171.333,257.999 
	519.332,257.999 519.332,294 "/>
<g id="사무국">
	<g enable-background="new    ">
		<path fill="#48B5A9" d="M473.897,333.84c0-0.666,0.119-1.286,0.358-1.859s0.572-1.067,0.998-1.48s0.925-0.736,1.497-0.97
			s1.197-0.351,1.876-0.351s1.31,0.117,1.896,0.351s1.092,0.557,1.518,0.97s0.758,0.907,0.998,1.48
			c0.238,0.573,0.359,1.193,0.359,1.859c0,0.653-0.121,1.26-0.359,1.82c-0.24,0.56-0.572,1.043-0.998,1.45
			c-0.426,0.406-0.932,0.727-1.518,0.96s-1.217,0.35-1.896,0.35s-1.304-0.116-1.876-0.35s-1.071-0.554-1.497-0.96
			c-0.426-0.407-0.759-0.891-0.998-1.45C474.016,335.1,473.897,334.493,473.897,333.84z M475.737,333.83
			c0,0.438,0.07,0.847,0.209,1.226c0.141,0.379,0.341,0.701,0.601,0.967c0.261,0.267,0.569,0.476,0.931,0.629
			c0.359,0.152,0.76,0.229,1.199,0.229s0.84-0.076,1.2-0.229c0.36-0.153,0.67-0.362,0.931-0.629c0.26-0.266,0.463-0.588,0.609-0.967
			s0.22-0.787,0.22-1.226c0-0.466-0.073-0.891-0.22-1.276c-0.146-0.385-0.35-0.717-0.609-0.996c-0.261-0.279-0.57-0.495-0.931-0.648
			c-0.36-0.152-0.761-0.229-1.2-0.229s-0.84,0.077-1.199,0.229c-0.361,0.153-0.67,0.369-0.931,0.648
			c-0.26,0.279-0.46,0.611-0.601,0.996C475.807,332.939,475.737,333.364,475.737,333.83z M488.856,346.3h-11.819v-5.66h1.76v4.16
			h10.06V346.3z M488.436,341.6h-1.699V328.4h1.699V341.6z"/>
		<path fill="#48B5A9" d="M508.296,336.94v1.479h-17.399v-1.479H508.296z M501.696,332.48c0.813,0.427,1.688,0.797,2.621,1.109
			c0.933,0.313,1.879,0.563,2.84,0.75l-0.881,1.36c-0.479-0.106-0.979-0.24-1.5-0.4c-0.52-0.16-1.039-0.347-1.56-0.56
			s-1.03-0.44-1.53-0.681c-0.5-0.239-0.957-0.493-1.369-0.76c-1.121,0.601-2.314,1.104-3.58,1.51
			c-1.268,0.407-2.527,0.697-3.781,0.87l-0.819-1.319c1.12-0.16,2.183-0.38,3.19-0.66c1.006-0.28,1.933-0.601,2.779-0.96
			c0.847-0.36,1.597-0.75,2.25-1.17s1.193-0.844,1.62-1.271c-1.427,0.04-2.847,0.061-4.26,0.061h-4.04v-1.42h5.58
			c0.854,0,1.71,0,2.57,0c0.859,0,1.756-0.014,2.689-0.04c0.16-0.014,0.267,0.036,0.32,0.149c0.053,0.113,0.047,0.23-0.02,0.351
			c-0.334,0.573-0.768,1.116-1.301,1.63C502.983,331.543,502.376,332.027,501.696,332.48z M505.936,343.34
			c0,0.493-0.13,0.953-0.39,1.38c-0.261,0.427-0.649,0.793-1.17,1.101c-0.521,0.307-1.167,0.55-1.94,0.729
			c-0.773,0.181-1.666,0.271-2.68,0.271c-1.027,0-1.927-0.09-2.7-0.271c-0.773-0.18-1.42-0.423-1.94-0.729
			c-0.52-0.308-0.913-0.674-1.18-1.101s-0.4-0.887-0.4-1.38c0-1,0.523-1.816,1.57-2.45c1.047-0.633,2.597-0.949,4.65-0.949
			c2.053,0,3.597,0.316,4.63,0.949C505.419,341.523,505.936,342.34,505.936,343.34z M504.076,343.36c0-0.254-0.07-0.5-0.211-0.74
			c-0.14-0.24-0.379-0.457-0.719-0.65c-0.341-0.192-0.787-0.35-1.341-0.47s-1.237-0.18-2.05-0.18c-0.827,0-1.518,0.06-2.07,0.18
			s-1,0.277-1.34,0.47c-0.34,0.193-0.58,0.41-0.72,0.65s-0.21,0.486-0.21,0.74c0,0.239,0.07,0.483,0.21,0.729
			c0.14,0.247,0.38,0.463,0.72,0.65c0.34,0.187,0.787,0.34,1.34,0.46s1.243,0.18,2.07,0.18c0.813,0,1.496-0.06,2.05-0.18
			s1-0.273,1.341-0.46c0.34-0.188,0.579-0.403,0.719-0.65C504.006,343.844,504.076,343.6,504.076,343.36z"/>
		<path fill="#48B5A9" d="M511.375,337.04l-0.08-5.6h1.66l0.08,5.6h2.08c0.146,0,0.301,0,0.461,0s0.313-0.007,0.459-0.021
			l0.101-5.579h1.659l-0.1,5.52c0.6-0.04,1.19-0.1,1.771-0.18c0.579-0.08,1.136-0.181,1.67-0.3v1.42
			c-0.813,0.227-1.747,0.383-2.8,0.47c-1.054,0.087-2.12,0.13-3.2,0.13h-5.979v-1.46H511.375z M509.535,330.7v-1.46h9.98v1.46
			H509.535z M524.295,343.42c0,1-0.506,1.816-1.517,2.45c-1.013,0.633-2.53,0.95-4.553,0.95c-1.997,0-3.497-0.32-4.503-0.96
			c-1.004-0.641-1.507-1.46-1.507-2.46s0.503-1.82,1.507-2.46c1.006-0.641,2.506-0.96,4.503-0.96c2.022,0,3.54,0.323,4.553,0.97
			C523.789,341.597,524.295,342.42,524.295,343.42z M522.496,343.42c0-0.267-0.084-0.52-0.25-0.76c-0.168-0.24-0.428-0.45-0.78-0.63
			c-0.354-0.181-0.8-0.323-1.341-0.431c-0.539-0.106-1.176-0.159-1.909-0.159c-1.454,0-2.523,0.193-3.21,0.579
			c-0.688,0.388-1.03,0.854-1.03,1.4c0,0.533,0.343,0.986,1.03,1.36c0.687,0.373,1.756,0.56,3.21,0.56
			c1.479,0,2.563-0.187,3.25-0.56C522.153,344.406,522.496,343.953,522.496,343.42z M519.476,332.64v-1.399h2.94v-2.84h1.72v11.38
			h-1.72v-4.221h-2.94v-1.42h2.96v-1.5H519.476z"/>
		<path fill="#48B5A9" d="M526.836,341.48c1.174-0.587,2.207-1.254,3.1-2c0.894-0.747,1.65-1.554,2.271-2.421
			c0.62-0.866,1.116-1.776,1.489-2.729s0.627-1.93,0.761-2.93c-0.813,0.026-1.62,0.043-2.42,0.05s-1.601,0.01-2.4,0.01h-2.06v-1.479
			h3.14c0.933,0,1.866,0,2.8,0s1.873-0.014,2.82-0.04c-0.188,2.746-0.947,5.203-2.279,7.369c-1.334,2.167-3.354,3.978-6.061,5.431
			L526.836,341.48z M544.156,336.98h-3.141v9.68h-1.72V328.4h1.72v7.04h3.141V336.98z"/>
		<path fill="#48B5A9" d="M550.156,337.9h-4.34V329.1h8.76v1.44h-7v2.18h6.64v1.4h-6.64v2.32h2.82c1.186,0,2.332-0.063,3.439-0.19
			c1.106-0.127,2.152-0.303,3.14-0.53v1.42c-1,0.254-2.087,0.443-3.26,0.57S551.356,337.9,550.156,337.9z M559.817,346.38h-11.4
			v-6.34h11.4V346.38z M558.096,341.58h-7.96v3.3h7.96V341.58z M558.096,328.4h1.721V339h-1.721V328.4z"/>
	</g>
</g>
<g id="Ellipse_4_1_">
	<g>
		<path fill="#FFFFFF" stroke="#48B5A9" stroke-width="2" stroke-miterlimit="10" d="M47.833,359.5h246
			c12.149,0,21.999-9.85,21.999-22c0-12.148-9.85-22-21.999-22H190.613c-2.886-8.15-10.64-14-19.778-14
			c-9.14,0-16.895,5.85-19.778,14H47.833c-12.149,0-22,9.852-22,22C25.833,349.65,35.684,359.5,47.833,359.5z"/>
	</g>
</g>
<g id="인증위원회">
	<g enable-background="new    ">
		<path fill="#48B5A9" d="M135.913,342.214h-1.76v-3.92h-8.2v-1.479h17.38v1.479h-7.42V342.214z M140.673,331.414
			c0,0.547-0.127,1.054-0.38,1.52c-0.253,0.467-0.63,0.87-1.13,1.21c-0.5,0.341-1.127,0.604-1.88,0.79
			c-0.753,0.188-1.623,0.28-2.61,0.28c-1,0-1.874-0.093-2.62-0.28c-0.747-0.187-1.373-0.449-1.88-0.79
			c-0.507-0.34-0.887-0.743-1.14-1.21c-0.253-0.466-0.38-0.973-0.38-1.52s0.126-1.057,0.38-1.53c0.253-0.473,0.633-0.88,1.14-1.22
			s1.133-0.606,1.88-0.8s1.62-0.29,2.62-0.29c0.987,0,1.856,0.097,2.61,0.29s1.38,0.46,1.88,0.8s0.876,0.747,1.13,1.22
			C140.546,330.357,140.673,330.867,140.673,331.414z M141.093,345.714h-12.3v-5.439h1.72v3.939h10.58V345.714z M138.773,331.454
			c0-0.32-0.08-0.627-0.24-0.92c-0.16-0.293-0.407-0.55-0.74-0.771c-0.333-0.22-0.757-0.396-1.27-0.529
			c-0.514-0.134-1.13-0.2-1.85-0.2c-0.72,0-1.343,0.066-1.87,0.2c-0.527,0.133-0.957,0.31-1.29,0.529
			c-0.333,0.221-0.58,0.478-0.74,0.771s-0.24,0.6-0.24,0.92s0.08,0.617,0.24,0.89c0.16,0.273,0.407,0.518,0.74,0.73
			c0.333,0.213,0.763,0.38,1.29,0.5s1.15,0.18,1.87,0.18c0.72,0,1.336-0.06,1.85-0.18c0.513-0.12,0.937-0.287,1.27-0.5
			c0.333-0.213,0.58-0.457,0.74-0.73C138.693,332.071,138.773,331.774,138.773,331.454z"/>
		<path fill="#48B5A9" d="M153.093,329.814h4.38v-2.08h1.72v10.739h-1.72v-3.12h-4.2c-0.427,0.587-0.967,1.047-1.62,1.381
			c-0.653,0.333-1.387,0.5-2.2,0.5c-0.667,0-1.28-0.113-1.84-0.341c-0.56-0.227-1.047-0.543-1.46-0.949
			c-0.414-0.407-0.737-0.887-0.97-1.44c-0.233-0.553-0.35-1.156-0.35-1.81c0-0.641,0.117-1.237,0.35-1.79
			c0.233-0.554,0.557-1.033,0.97-1.44c0.413-0.406,0.9-0.727,1.46-0.96s1.173-0.35,1.84-0.35c0.76,0,1.45,0.149,2.07,0.449
			C152.142,328.904,152.666,329.308,153.093,329.814z M146.512,332.694c0,0.439,0.07,0.843,0.21,1.21
			c0.14,0.366,0.34,0.687,0.6,0.96s0.57,0.486,0.93,0.64c0.36,0.153,0.76,0.23,1.2,0.23c0.427,0,0.823-0.077,1.19-0.23
			s0.68-0.366,0.94-0.64c0.26-0.273,0.463-0.594,0.61-0.96c0.146-0.367,0.22-0.771,0.22-1.21c0-0.427-0.073-0.827-0.22-1.2
			c-0.147-0.373-0.35-0.696-0.61-0.97c-0.26-0.273-0.573-0.487-0.94-0.641s-0.763-0.229-1.19-0.229s-0.82,0.076-1.18,0.229
			c-0.36,0.153-0.67,0.367-0.93,0.641c-0.26,0.273-0.463,0.597-0.61,0.97C146.586,331.867,146.512,332.268,146.512,332.694z
			 M159.273,342.354c0,0.547-0.124,1.051-0.37,1.511s-0.619,0.859-1.118,1.2c-0.5,0.34-1.118,0.606-1.857,0.8
			c-0.739,0.192-1.594,0.29-2.565,0.29c-0.985,0-1.844-0.098-2.576-0.29c-0.732-0.193-1.348-0.46-1.847-0.8
			c-0.5-0.341-0.872-0.744-1.118-1.211c-0.247-0.467-0.37-0.973-0.37-1.52s0.123-1.05,0.37-1.51c0.246-0.46,0.619-0.86,1.118-1.2
			c0.499-0.34,1.115-0.606,1.847-0.8s1.591-0.29,2.576-0.29c0.972,0,1.827,0.097,2.565,0.29s1.357,0.46,1.857,0.8
			c0.499,0.34,0.872,0.743,1.118,1.21S159.273,341.808,159.273,342.354z M157.472,342.334c0-0.307-0.08-0.6-0.24-0.88
			c-0.16-0.28-0.41-0.53-0.75-0.75c-0.34-0.22-0.767-0.394-1.28-0.521c-0.513-0.126-1.13-0.189-1.85-0.189
			c-0.707,0-1.32,0.063-1.84,0.189c-0.52,0.127-0.95,0.301-1.29,0.521c-0.34,0.22-0.593,0.47-0.76,0.75
			c-0.167,0.28-0.25,0.573-0.25,0.88s0.083,0.604,0.25,0.89c0.167,0.287,0.42,0.537,0.76,0.75c0.34,0.214,0.77,0.384,1.29,0.511
			c0.52,0.126,1.133,0.189,1.84,0.189c0.72,0,1.337-0.063,1.85-0.189c0.513-0.127,0.94-0.297,1.28-0.511
			c0.34-0.213,0.59-0.463,0.75-0.75C157.392,342.938,157.472,342.641,157.472,342.334z M153.932,333.954h3.56v-2.76h-3.64
			c0.16,0.467,0.24,0.967,0.24,1.5C154.093,333.107,154.039,333.527,153.932,333.954z"/>
		<path fill="#48B5A9" d="M171.372,335.454v1.82h7.64v1.439h-17.38v-1.439h7.98v-1.82H171.372z M164.452,329.954h5.56
			c0.84,0,1.676,0,2.51,0s1.71-0.014,2.63-0.04c0.146,0.014,0.25,0.083,0.31,0.21c0.06,0.127,0.057,0.243-0.01,0.35
			c-0.267,0.494-0.667,0.971-1.2,1.431s-1.16,0.896-1.88,1.31c0.787,0.267,1.62,0.51,2.5,0.73c0.88,0.22,1.8,0.403,2.76,0.55
			l-0.82,1.3c-1.04-0.173-2.067-0.417-3.08-0.729c-1.013-0.313-1.98-0.671-2.9-1.07c-1.093,0.493-2.243,0.903-3.45,1.229
			c-1.207,0.327-2.35,0.537-3.43,0.63l-0.72-1.279c1-0.094,1.977-0.25,2.93-0.471c0.953-0.22,1.847-0.479,2.68-0.779
			c0.833-0.3,1.59-0.627,2.27-0.98c0.68-0.353,1.253-0.71,1.72-1.069c-0.747,0.026-1.487,0.047-2.22,0.06
			c-0.733,0.014-1.467,0.02-2.2,0.02h-3.96V329.954z M176.512,343.094c0,0.44-0.13,0.847-0.39,1.221
			c-0.26,0.373-0.65,0.696-1.17,0.97c-0.52,0.272-1.167,0.486-1.94,0.64c-0.773,0.153-1.667,0.23-2.68,0.23
			c-1.027,0-1.927-0.077-2.7-0.23c-0.773-0.153-1.42-0.367-1.94-0.64c-0.52-0.273-0.913-0.597-1.18-0.97
			c-0.267-0.374-0.4-0.78-0.4-1.221c0-0.88,0.523-1.606,1.57-2.18c1.046-0.573,2.597-0.86,4.65-0.86s3.597,0.287,4.63,0.86
			S176.512,342.214,176.512,343.094z M174.653,343.114c0-0.2-0.07-0.403-0.21-0.61c-0.14-0.206-0.38-0.39-0.72-0.55
			s-0.787-0.29-1.34-0.39c-0.554-0.101-1.237-0.15-2.05-0.15c-0.827,0-1.517,0.05-2.07,0.15c-0.554,0.1-1,0.229-1.34,0.39
			c-0.34,0.16-0.58,0.344-0.72,0.55c-0.14,0.207-0.21,0.41-0.21,0.61s0.07,0.399,0.21,0.6s0.38,0.38,0.72,0.54
			c0.34,0.16,0.787,0.287,1.34,0.38c0.553,0.094,1.243,0.141,2.07,0.141c0.813,0,1.497-0.047,2.05-0.141
			c0.553-0.093,1-0.22,1.34-0.38s0.58-0.34,0.72-0.54C174.582,343.514,174.653,343.314,174.653,343.114z M166.792,327.494h6.48v1.46
			h-6.48V327.494z"/>
		<path fill="#48B5A9" d="M179.552,335.254h4.14v-3.2h1.76v3.12c1.08-0.025,2.17-0.073,3.27-0.143c1.1-0.07,2.083-0.162,2.95-0.277
			v1.4c-0.64,0.093-1.343,0.173-2.11,0.239c-0.767,0.067-1.554,0.124-2.36,0.171c-0.807,0.047-1.614,0.083-2.42,0.109
			c-0.807,0.027-1.563,0.04-2.27,0.04h-2.96V335.254z M190.052,328.474c-0.013,0.44-0.037,0.9-0.07,1.38
			c-0.033,0.48-0.077,0.961-0.13,1.44c-0.054,0.48-0.12,0.947-0.2,1.4s-0.167,0.88-0.26,1.279h-1.68
			c0.173-0.692,0.313-1.37,0.42-2.029c0.106-0.66,0.173-1.344,0.2-2.051h-7.32v-1.42H190.052z M194.653,345.794h-11.88v-4.56h9.78
			v-1.521h-9.78v-1.5h11.48v4.48h-9.78v1.6h10.18V345.794z M192.532,337.154v-9.42h1.72v4.04h2.64v1.54h-2.64v3.84H192.532z"/>
		<path fill="#48B5A9" d="M203.052,337.234h-4.34v-8.801h8.76v1.44h-7v2.18h6.64v1.4h-6.64v2.32h2.82c1.187,0,2.333-0.063,3.44-0.19
			c1.106-0.127,2.153-0.303,3.14-0.53v1.42c-1,0.254-2.086,0.443-3.26,0.57S204.253,337.234,203.052,337.234z M212.713,345.714
			h-11.4v-6.34h11.4V345.714z M210.992,340.914h-7.96v3.3h7.96V340.914z M210.992,327.734h1.72v10.6h-1.72V327.734z"/>
	</g>
</g>
</svg>
