<?xml version="1.0" encoding="utf-8"?>
<!-- Generator: Adobe Illustrator 16.0.0, SVG Export Plug-In . SVG Version: 6.00 Build 0)  -->
<!DOCTYPE svg PUBLIC "-//W3C//DTD SVG 1.1//EN" "http://www.w3.org/Graphics/SVG/1.1/DTD/svg11.dtd">
<svg version="1.1" id="Layer_1" xmlns="http://www.w3.org/2000/svg" xmlns:xlink="http://www.w3.org/1999/xlink" x="0px" y="0px"
	 width="48px" height="48px" viewBox="0 0 48 48" enable-background="new 0 0 48 48" xml:space="preserve">
<g>
	<circle fill="#0084AD" cx="24" cy="24" r="24"/>
	<path fill="#FFFFFF" d="M24.937,15.062c-0.516-0.521-1.36-0.521-1.881,0l-6.665,6.665c-0.521,0.52-0.521,1.366,0,1.884
		c0.521,0.523,1.366,0.523,1.886,0l4.39-4.392v12.777c0,0.738,0.597,1.334,1.333,1.334c0.738,0,1.335-0.596,1.335-1.334V19.219
		l4.389,4.391c0.519,0.521,1.364,0.521,1.885,0c0.523-0.522,0.523-1.367,0-1.889l-6.664-6.662L24.937,15.062z"/>
</g>
</svg>
