<?xml version="1.0" encoding="utf-8"?>
<!-- Generator: Adobe Illustrator 16.0.0, SVG Export Plug-In . SVG Version: 6.00 Build 0)  -->
<!DOCTYPE svg PUBLIC "-//W3C//DTD SVG 1.1//EN" "http://www.w3.org/Graphics/SVG/1.1/DTD/svg11.dtd">
<svg version="1.1" id="Layer_1" xmlns="http://www.w3.org/2000/svg" xmlns:xlink="http://www.w3.org/1999/xlink" x="0px" y="0px"
	 width="36px" height="36px" viewBox="0 0 36 36" enable-background="new 0 0 36 36" xml:space="preserve">
<path fill="none" stroke="#B0B7B9" stroke-width="2" stroke-linecap="round" stroke-linejoin="round" stroke-miterlimit="10" d="
	M19.55,25.654H4.005c-0.82,0-1.483-0.659-1.483-1.481V5.539c0-0.817,0.663-1.482,1.483-1.482h26.68c0.815,0,1.486,0.665,1.486,1.482
	v6.544"/>
<line fill="none" stroke="#B0B7B9" stroke-width="2" stroke-linecap="round" stroke-linejoin="round" stroke-miterlimit="10" x1="10.292" y1="8.112" x2="24.396" y2="8.112"/>
<line fill="none" stroke="#B0B7B9" stroke-width="2" stroke-linecap="round" stroke-linejoin="round" stroke-miterlimit="10" x1="13.228" y1="10.733" x2="21.461" y2="10.733"/>
<polyline fill="none" stroke="#B0B7B9" stroke-width="2" stroke-linecap="round" stroke-linejoin="round" stroke-miterlimit="10" points="
	22.857,27.721 22.857,31.7 26.583,29.335 30.313,31.7 30.313,27.721 "/>
<path fill="none" stroke="#B0B7B9" stroke-width="2" stroke-linecap="round" stroke-linejoin="round" stroke-miterlimit="10" d="
	M27.608,24.023c-2.455,0.566-4.896-0.966-5.459-3.417c-0.563-2.449,0.968-4.893,3.414-5.456c2.451-0.562,4.896,0.968,5.458,3.419
	C31.585,21.017,30.056,23.46,27.608,24.023z"/>
<polyline fill="none" stroke="#09B39C" stroke-width="2" stroke-linecap="round" stroke-linejoin="round" stroke-miterlimit="10" points="
	24.397,19.292 26.177,21.069 29.079,18.164 "/>
<polygon fill="none" stroke="#09B39C" stroke-width="2" stroke-linecap="round" stroke-linejoin="round" stroke-miterlimit="10" points="
	25.23,13.243 26.555,11.503 27.888,13.241 29.81,12.19 30.321,14.319 32.5,14.14 32.105,16.295 34.17,17.02 32.927,18.821 
	34.522,20.322 32.655,21.468 33.499,23.492 31.331,23.779 31.279,25.967 29.178,25.345 28.243,27.322 26.579,25.904 24.918,27.326 
	23.971,25.351 21.875,25.979 21.822,23.789 19.646,23.508 20.484,21.485 18.616,20.351 20.204,18.839 18.958,17.041 21.021,16.313 
	20.615,14.16 22.801,14.333 23.305,12.199 "/>
<line fill="none" stroke="#09B39C" stroke-width="2" stroke-linecap="round" stroke-linejoin="round" stroke-miterlimit="10" x1="7.152" y1="15.853" x2="7.705" y2="15.853"/>
<line fill="none" stroke="#09B39C" stroke-width="2" stroke-linecap="round" stroke-linejoin="round" stroke-miterlimit="10" x1="7.152" y1="18.471" x2="7.705" y2="18.471"/>
<line fill="none" stroke="#09B39C" stroke-width="2" stroke-linecap="round" stroke-linejoin="round" stroke-miterlimit="10" x1="7.152" y1="21.09" x2="7.705" y2="21.09"/>
<line fill="none" stroke="#B0B7B9" stroke-width="2" stroke-linecap="round" stroke-linejoin="round" stroke-miterlimit="10" x1="9.863" y1="15.853" x2="15.638" y2="15.853"/>
<line fill="none" stroke="#B0B7B9" stroke-width="2" stroke-linecap="round" stroke-linejoin="round" stroke-miterlimit="10" x1="9.863" y1="18.471" x2="15.638" y2="18.471"/>
<line fill="none" stroke="#B0B7B9" stroke-width="2" stroke-linecap="round" stroke-linejoin="round" stroke-miterlimit="10" x1="9.863" y1="21.09" x2="15.638" y2="21.09"/>
</svg>
