<?xml version="1.0" encoding="utf-8"?>
<!-- Generator: Adobe Illustrator 16.0.0, SVG Export Plug-In . SVG Version: 6.00 Build 0)  -->
<!DOCTYPE svg PUBLIC "-//W3C//DTD SVG 1.1//EN" "http://www.w3.org/Graphics/SVG/1.1/DTD/svg11.dtd">
<svg version="1.1" id="Layer_1" xmlns="http://www.w3.org/2000/svg" xmlns:xlink="http://www.w3.org/1999/xlink" x="0px" y="0px"
	 width="350px" height="720px" viewBox="0 0 350 720" enable-background="new 0 0 350 720" xml:space="preserve">
<path fill="#019EBF" d="M172.282,398.396l3.85,1.924l3.85-1.924c0.068-0.033,0.139-0.068,0.203-0.104l41.26-20.629
	c4.438-2.216,6.23-7.606,4.019-12.04c-2.217-4.434-7.606-6.23-12.041-4.014l-28.313,14.154v-52.531
	c0-5.509-2.063-10.768-5.813-14.806c-3.729-4.013-8.792-6.472-14.27-6.923c-6.784-0.558-13.554-1.647-20.105-3.234
	c-6.855-1.661-13.643-3.903-20.163-6.665c-15.714-6.646-29.846-16.174-41.993-28.321c-12.146-12.152-21.678-26.28-28.325-41.996
	c-6.869-16.236-10.352-33.523-10.352-51.38c0-17.858,3.479-35.146,10.352-51.381c6.647-15.714,16.179-29.843,28.324-41.992
	c12.148-12.149,26.28-21.678,41.995-28.325c16.234-6.869,33.521-10.353,51.379-10.353c17.856,0,35.146,3.483,51.381,10.353
	c15.716,6.647,29.845,16.176,41.993,28.323c12.146,12.151,21.68,26.28,28.325,41.996c6.865,16.235,10.352,33.522,10.352,51.38
	c0,17.857-3.481,35.144-10.352,51.381c-6.646,15.715-16.18,29.843-28.324,41.993c-12.149,12.148-26.278,21.678-41.995,28.325
	c-6.521,2.76-13.306,5.002-20.16,6.663c-4.816,1.168-7.772,6.021-6.604,10.838c1.167,4.816,6.019,7.774,10.836,6.605
	c7.796-1.89,15.509-4.439,22.925-7.576c17.854-7.551,33.896-18.371,47.691-32.164c13.791-13.794,24.608-29.839,32.16-47.693
	c7.813-18.459,11.771-38.1,11.771-58.373c0-20.273-3.962-39.913-11.771-58.373c-7.553-17.853-18.371-33.899-32.162-47.694
	c-13.796-13.79-29.842-24.611-47.689-32.162c-18.466-7.806-38.104-11.767-58.379-11.767s-39.912,3.96-58.372,11.771
	C99.91,39.234,83.865,50.056,70.069,63.847C56.28,77.64,45.459,93.687,37.907,111.539c-7.811,18.46-11.771,38.1-11.771,58.373
	s3.961,39.913,11.771,58.373c7.552,17.854,18.372,33.899,32.162,47.694c13.796,13.792,29.843,24.612,47.693,32.163
	c7.416,3.137,15.129,5.686,22.93,7.578c7.459,1.806,15.152,3.043,22.862,3.678c2.057,0.169,3.604,1.82,3.604,3.84v52.526
	l-28.313-14.152c-4.436-2.218-9.824-0.422-12.039,4.013c-0.646,1.289-0.95,2.657-0.95,4.006c0,3.292,1.817,6.464,4.962,8.034
	l41.262,20.629C172.147,398.328,172.214,398.363,172.282,398.396z"/>
<path fill="#09B39C" d="M234.508,688.316c17.854-7.558,33.896-18.373,47.692-32.164c13.791-13.795,24.609-29.845,32.159-47.693
	c7.813-18.46,11.771-38.1,11.771-58.373c0-20.271-3.961-39.912-11.771-58.373c-7.551-17.853-18.372-33.896-32.161-47.688
	c-13.795-13.791-29.842-24.611-47.688-32.167c-2.64-1.111-5.31-2.15-8.002-3.112l9.846-4.927c4.437-2.217,6.229-7.604,4.017-12.041
	c-2.219-4.432-7.605-6.229-12.041-4.014l-52.191,26.096l-52.191-26.096c-4.434-2.219-9.822-0.422-12.04,4.014
	c-2.217,4.436-0.42,9.824,4.017,12.041l9.846,4.924c-2.695,0.962-5.362,2-7.999,3.113c-17.854,7.555-33.898,18.37-47.692,32.161
	c-13.791,13.797-24.611,29.845-32.163,47.693c-7.813,18.464-11.772,38.104-11.772,58.376c0,20.273,3.96,39.913,11.771,58.373
	c7.551,17.854,18.372,33.9,32.164,47.693c13.793,13.791,29.839,24.606,47.689,32.158c18.461,7.813,38.103,11.771,58.374,11.771
	C196.406,700.086,216.048,696.125,234.508,688.316z M124.756,671.785c-15.717-6.646-29.846-16.176-41.993-28.324
	c-12.146-12.15-21.678-26.279-28.325-41.994c-6.869-16.231-10.352-33.521-10.352-51.381s3.479-35.145,10.352-51.381
	c6.647-15.715,16.179-29.844,28.324-41.993c12.148-12.146,26.277-21.679,41.996-28.325c8.921-3.771,18.261-6.555,27.762-8.263
	l23.617-4.245l23.617,4.245c9.5,1.708,18.841,4.487,27.764,8.263c15.715,6.646,29.844,16.182,41.993,28.324
	c12.146,12.15,21.679,26.279,28.325,41.995c6.865,16.235,10.352,33.521,10.352,51.38s-3.48,35.146-10.352,51.381
	c-6.646,15.715-16.18,29.844-28.324,41.994c-12.15,12.148-26.279,21.678-41.995,28.324c-16.233,6.869-33.521,10.352-51.38,10.352
	S140.991,678.654,124.756,671.785z"/>
<g>
	<path fill="none" stroke="#B0B7B9" stroke-width="2" stroke-linecap="round" stroke-linejoin="round" stroke-miterlimit="10" d="
		M152.644,88.608h7.387c1.158,0,2.099-0.939,2.099-2.097v-7.37"/>
	<path fill="none" stroke="#B0B7B9" stroke-width="2" stroke-linecap="round" stroke-linejoin="round" stroke-miterlimit="10" d="
		M188.583,132.924h-32.561c-1.867,0-3.38-1.513-3.38-3.38v-40.74c0-0.125,0.05-0.246,0.141-0.334l9.188-9.191
		c0.091-0.088,0.209-0.138,0.335-0.138h28.201c1.867,0,3.381,1.514,3.381,3.38v36.215"/>
	
		<circle fill="none" stroke="#B0B7B9" stroke-width="2" stroke-linecap="round" stroke-linejoin="round" stroke-miterlimit="10" cx="174.458" cy="107.948" r="14.118"/>
	
		<line fill="none" stroke="#B0B7B9" stroke-width="2" stroke-linecap="round" stroke-linejoin="round" stroke-miterlimit="10" x1="187.417" y1="120.907" x2="184.442" y2="117.931"/>
	
		<line fill="none" stroke="#B0B7B9" stroke-width="2" stroke-linecap="round" stroke-linejoin="round" stroke-miterlimit="10" x1="196.758" y1="129.243" x2="194.296" y2="126.777"/>
	<path fill="none" stroke="#B0B7B9" stroke-width="2" stroke-linecap="round" stroke-linejoin="round" stroke-miterlimit="10" d="
		M198.587,127.417l-4.533-4.534c-1.363-1.367-3.158-2.226-5.082-2.435l-0.158-0.018c-1.088-0.118-2.014,0.785-1.916,1.873
		l0.047,0.546c0.139,1.583,0.828,3.069,1.953,4.193l5.133,5.133c1.359,1.363,3.621,1.284,4.879-0.24
		C200.001,130.609,199.803,128.633,198.587,127.417z"/>
	<g>
		
			<polyline fill="none" stroke="#019EBF" stroke-width="2" stroke-linecap="round" stroke-linejoin="round" stroke-miterlimit="10" points="
			171.666,108.318 173.933,110.588 177.646,106.876 		"/>
		<path fill="none" stroke="#019EBF" stroke-width="2" stroke-linecap="round" stroke-linejoin="round" stroke-miterlimit="10" d="
			M174.46,100.52c0,0-3.506,2.719-6.433,2.719v6.894c0,1.435,0.588,2.724,1.566,3.45c1.026,0.758,4.091,2.777,4.222,2.863
			l0.645,0.424l0.646-0.424c0.131-0.086,3.191-2.105,4.222-2.863c0.979-0.726,1.564-2.015,1.564-3.45v-6.894
			C177.966,103.239,174.46,100.52,174.46,100.52z"/>
	</g>
</g>
<g>
	<path fill="none" stroke="#B0B7B9" stroke-width="2" stroke-linecap="round" stroke-linejoin="round" stroke-miterlimit="10" d="
		M178.182,508.102h-31.019c-1.634,0-2.957-1.318-2.957-2.957v-37.182c0-1.635,1.323-2.958,2.957-2.958h53.237
		c1.636,0,2.958,1.323,2.958,2.958v13.053"/>
	
		<line fill="none" stroke="#B0B7B9" stroke-width="2" stroke-linecap="round" stroke-linejoin="round" stroke-miterlimit="10" x1="159.713" y1="473.094" x2="187.856" y2="473.094"/>
	
		<line fill="none" stroke="#B0B7B9" stroke-width="2" stroke-linecap="round" stroke-linejoin="round" stroke-miterlimit="10" x1="165.573" y1="478.321" x2="181.996" y2="478.321"/>
	
		<polyline fill="none" stroke="#B0B7B9" stroke-width="2" stroke-linecap="round" stroke-linejoin="round" stroke-miterlimit="10" points="
		184.776,512.22 184.776,520.171 192.223,515.438 199.671,520.171 199.671,512.22 	"/>
	
		<circle fill="none" stroke="#B0B7B9" stroke-width="2" stroke-linecap="round" stroke-linejoin="round" stroke-miterlimit="10" cx="192.223" cy="495.994" r="9.083"/>
	
		<polyline fill="none" stroke="#09B39C" stroke-width="2" stroke-linecap="round" stroke-linejoin="round" stroke-miterlimit="10" points="
		187.86,495.404 191.405,498.948 197.198,493.154 	"/>
	
		<polygon fill="none" stroke="#09B39C" stroke-width="2" stroke-linecap="round" stroke-linejoin="round" stroke-miterlimit="10" points="
		189.512,483.338 192.161,479.863 194.822,483.33 198.655,481.232 199.675,485.481 204.031,485.125 203.235,489.422 
		207.358,490.867 204.88,494.468 208.063,497.466 204.335,499.749 206.022,503.782 201.689,504.352 201.587,508.721 
		197.399,507.479 195.53,511.43 192.207,508.592 188.893,511.44 187.012,507.496 182.825,508.75 182.71,504.382 178.378,503.825 
		180.048,499.788 176.317,497.517 179.487,494.508 176.999,490.915 181.119,489.457 180.308,485.162 184.666,485.506 
		185.671,481.253 	"/>
	
		<line fill="none" stroke="#09B39C" stroke-width="2" stroke-linecap="round" stroke-linejoin="round" stroke-miterlimit="10" x1="153.448" y1="488.543" x2="154.548" y2="488.543"/>
	
		<line fill="none" stroke="#09B39C" stroke-width="2" stroke-linecap="round" stroke-linejoin="round" stroke-miterlimit="10" x1="153.448" y1="493.77" x2="154.548" y2="493.77"/>
	
		<line fill="none" stroke="#09B39C" stroke-width="2" stroke-linecap="round" stroke-linejoin="round" stroke-miterlimit="10" x1="153.448" y1="498.996" x2="154.548" y2="498.996"/>
	
		<line fill="none" stroke="#B0B7B9" stroke-width="2" stroke-linecap="round" stroke-linejoin="round" stroke-miterlimit="10" x1="158.856" y1="488.543" x2="170.38" y2="488.543"/>
	
		<line fill="none" stroke="#B0B7B9" stroke-width="2" stroke-linecap="round" stroke-linejoin="round" stroke-miterlimit="10" x1="158.856" y1="493.77" x2="170.38" y2="493.77"/>
	
		<line fill="none" stroke="#B0B7B9" stroke-width="2" stroke-linecap="round" stroke-linejoin="round" stroke-miterlimit="10" x1="158.856" y1="498.996" x2="170.38" y2="498.996"/>
</g>
<g>
	<path d="M105.083,166.621c0.491-0.869,1.16-1.549,2.008-2.04c0.848-0.49,1.789-0.736,2.824-0.736c1.216,0,2.277,0.293,3.184,0.88
		c0.907,0.587,1.568,1.419,1.984,2.496h-1.744c-0.31-0.672-0.755-1.189-1.336-1.552c-0.582-0.362-1.278-0.544-2.088-0.544
		c-0.779,0-1.478,0.182-2.096,0.544c-0.619,0.363-1.104,0.877-1.456,1.544c-0.352,0.667-0.528,1.448-0.528,2.344
		c0,0.885,0.176,1.662,0.528,2.328s0.837,1.181,1.456,1.544c0.618,0.363,1.317,0.544,2.096,0.544c0.811,0,1.507-0.179,2.088-0.536
		c0.581-0.357,1.026-0.872,1.336-1.544h1.744c-0.416,1.067-1.077,1.891-1.984,2.472s-1.968,0.872-3.184,0.872
		c-1.035,0-1.976-0.243-2.824-0.728c-0.848-0.485-1.518-1.16-2.008-2.024c-0.491-0.864-0.736-1.84-0.736-2.928
		S104.592,167.49,105.083,166.621z"/>
	<path d="M117.243,168.365c0.363-0.677,0.861-1.203,1.496-1.576c0.634-0.373,1.341-0.56,2.12-0.56c0.768,0,1.435,0.166,2,0.496
		c0.565,0.331,0.986,0.747,1.264,1.248v-1.6h1.472v8.768h-1.472v-1.632c-0.288,0.512-0.717,0.936-1.288,1.272
		c-0.571,0.336-1.235,0.504-1.992,0.504c-0.779,0-1.483-0.192-2.112-0.576c-0.63-0.384-1.125-0.922-1.488-1.616
		s-0.544-1.482-0.544-2.368C116.699,169.829,116.88,169.042,117.243,168.365z M123.723,169.013c-0.267-0.491-0.626-0.867-1.08-1.128
		c-0.453-0.261-0.952-0.392-1.496-0.392c-0.544,0-1.04,0.128-1.488,0.384c-0.448,0.256-0.806,0.63-1.072,1.12
		c-0.267,0.491-0.4,1.067-0.4,1.728c0,0.672,0.133,1.256,0.4,1.752c0.266,0.496,0.624,0.875,1.072,1.136
		c0.448,0.261,0.944,0.392,1.488,0.392c0.544,0,1.042-0.13,1.496-0.392c0.454-0.261,0.813-0.64,1.08-1.136s0.4-1.074,0.4-1.736
		C124.123,170.08,123.99,169.503,123.723,169.013z"/>
	<path d="M130.611,166.628c0.474-0.277,1.053-0.416,1.736-0.416v1.504h-0.384c-1.632,0-2.448,0.885-2.448,2.656v4.768h-1.456v-8.768
		h1.456v1.424C129.77,167.295,130.135,166.906,130.611,166.628z"/>
	<path d="M136.794,166.725c0.576-0.331,1.232-0.496,1.968-0.496c0.79,0,1.499,0.187,2.128,0.56c0.629,0.374,1.125,0.899,1.488,1.576
		c0.362,0.677,0.544,1.464,0.544,2.36c0,0.886-0.182,1.675-0.544,2.368c-0.363,0.693-0.861,1.232-1.496,1.616
		c-0.635,0.384-1.341,0.576-2.12,0.576c-0.757,0-1.421-0.166-1.992-0.496c-0.571-0.331-1-0.752-1.288-1.264v1.616h-1.456v-11.84
		h1.456v4.704C135.781,167.482,136.218,167.055,136.794,166.725z M141.034,168.997c-0.267-0.49-0.627-0.864-1.08-1.12
		c-0.454-0.256-0.952-0.384-1.496-0.384c-0.534,0-1.027,0.131-1.48,0.392c-0.454,0.261-0.816,0.64-1.088,1.136
		s-0.408,1.07-0.408,1.72c0,0.662,0.136,1.24,0.408,1.736s0.634,0.875,1.088,1.136c0.453,0.261,0.946,0.392,1.48,0.392
		c0.544,0,1.042-0.13,1.496-0.392c0.453-0.261,0.813-0.64,1.08-1.136c0.266-0.496,0.4-1.08,0.4-1.752
		C141.434,170.063,141.301,169.487,141.034,168.997z"/>
	<path d="M146.435,174.725c-0.667-0.373-1.19-0.904-1.568-1.592s-0.568-1.485-0.568-2.392c0-0.896,0.194-1.688,0.584-2.376
		c0.389-0.688,0.92-1.216,1.592-1.584c0.672-0.368,1.424-0.552,2.256-0.552s1.584,0.184,2.256,0.552
		c0.672,0.368,1.203,0.894,1.592,1.576c0.39,0.683,0.584,1.478,0.584,2.384s-0.2,1.704-0.6,2.392
		c-0.4,0.688-0.941,1.219-1.624,1.592c-0.683,0.374-1.44,0.56-2.272,0.56C147.845,175.285,147.101,175.098,146.435,174.725z
		 M150.138,173.637c0.458-0.245,0.83-0.613,1.112-1.104c0.282-0.491,0.424-1.088,0.424-1.792s-0.139-1.301-0.416-1.792
		s-0.64-0.856-1.088-1.096c-0.448-0.24-0.934-0.36-1.456-0.36c-0.534,0-1.021,0.12-1.464,0.36c-0.443,0.24-0.798,0.605-1.064,1.096
		c-0.267,0.491-0.4,1.088-0.4,1.792c0,0.715,0.131,1.317,0.392,1.808s0.611,0.856,1.048,1.096c0.437,0.24,0.917,0.36,1.44,0.36
		C149.189,174.004,149.68,173.882,150.138,173.637z"/>
	<path d="M161.947,167.181c0.661,0.646,0.992,1.576,0.992,2.792v5.168h-1.44v-4.96c0-0.875-0.219-1.544-0.656-2.008
		c-0.438-0.464-1.035-0.696-1.792-0.696c-0.768,0-1.379,0.24-1.832,0.72c-0.454,0.48-0.68,1.179-0.68,2.096v4.848h-1.456v-8.768
		h1.456v1.248c0.288-0.448,0.68-0.794,1.176-1.04c0.496-0.245,1.043-0.368,1.64-0.368
		C160.421,166.212,161.285,166.535,161.947,167.181z"/>
	<path d="M172.147,166.628c0.474-0.277,1.053-0.416,1.736-0.416v1.504h-0.384c-1.632,0-2.448,0.885-2.448,2.656v4.768h-1.456v-8.768
		h1.456v1.424C171.306,167.295,171.672,166.906,172.147,166.628z"/>
	<path d="M183.514,171.301h-7.008c0.054,0.864,0.35,1.539,0.889,2.024c0.538,0.485,1.191,0.728,1.959,0.728
		c0.63,0,1.155-0.146,1.576-0.44c0.422-0.293,0.718-0.686,0.889-1.176h1.568c-0.235,0.843-0.705,1.528-1.408,2.056
		c-0.705,0.528-1.579,0.792-2.625,0.792c-0.832,0-1.575-0.187-2.231-0.56c-0.655-0.373-1.171-0.904-1.544-1.592
		c-0.374-0.688-0.56-1.485-0.56-2.392s0.181-1.701,0.544-2.384c0.362-0.682,0.871-1.208,1.527-1.576
		c0.656-0.368,1.41-0.552,2.264-0.552c0.832,0,1.568,0.182,2.209,0.544c0.64,0.363,1.133,0.862,1.479,1.496
		c0.347,0.635,0.521,1.352,0.521,2.152C183.563,170.698,183.546,170.991,183.514,171.301z M181.69,168.685
		c-0.245-0.4-0.578-0.704-1-0.912c-0.421-0.208-0.887-0.312-1.399-0.312c-0.735,0-1.362,0.235-1.88,0.704
		c-0.518,0.47-0.813,1.12-0.889,1.952h5.537C182.059,169.562,181.936,169.084,181.69,168.685z"/>
	<path d="M185.483,168.365c0.362-0.677,0.861-1.203,1.496-1.576c0.634-0.373,1.346-0.56,2.135-0.56c0.684,0,1.318,0.158,1.904,0.472
		c0.587,0.314,1.035,0.728,1.344,1.24v-4.64h1.473v11.84h-1.473v-1.648c-0.287,0.522-0.714,0.952-1.279,1.288
		s-1.227,0.504-1.984,0.504c-0.778,0-1.485-0.192-2.119-0.576c-0.635-0.384-1.134-0.922-1.496-1.616
		c-0.363-0.693-0.545-1.482-0.545-2.368C184.938,169.829,185.119,169.042,185.483,168.365z M191.962,169.013
		c-0.267-0.491-0.626-0.867-1.08-1.128c-0.453-0.261-0.952-0.392-1.495-0.392c-0.545,0-1.041,0.128-1.488,0.384
		c-0.448,0.256-0.807,0.63-1.072,1.12c-0.268,0.491-0.4,1.067-0.4,1.728c0,0.672,0.133,1.256,0.4,1.752
		c0.266,0.496,0.624,0.875,1.072,1.136c0.447,0.261,0.943,0.392,1.488,0.392c0.543,0,1.042-0.13,1.495-0.392
		c0.454-0.261,0.813-0.64,1.08-1.136s0.399-1.074,0.399-1.736C192.362,170.08,192.229,169.503,191.962,169.013z"/>
	<path d="M204.073,166.373v8.768h-1.456v-1.296c-0.277,0.448-0.664,0.797-1.16,1.048s-1.043,0.376-1.64,0.376
		c-0.683,0-1.296-0.141-1.84-0.424s-0.974-0.707-1.288-1.272s-0.473-1.253-0.473-2.064v-5.136h1.44v4.944
		c0,0.864,0.219,1.528,0.656,1.992c0.437,0.464,1.034,0.696,1.792,0.696c0.778,0,1.393-0.24,1.84-0.72
		c0.448-0.48,0.672-1.179,0.672-2.096v-4.816H204.073z"/>
	<path d="M206.537,168.365c0.363-0.677,0.867-1.203,1.513-1.576c0.646-0.373,1.384-0.56,2.216-0.56c1.077,0,1.965,0.262,2.664,0.784
		c0.698,0.522,1.16,1.248,1.384,2.176h-1.567c-0.15-0.533-0.44-0.955-0.873-1.264c-0.432-0.31-0.967-0.464-1.607-0.464
		c-0.832,0-1.504,0.286-2.016,0.856c-0.512,0.571-0.769,1.379-0.769,2.424c0,1.056,0.257,1.872,0.769,2.448
		c0.512,0.576,1.184,0.864,2.016,0.864c0.641,0,1.174-0.149,1.6-0.448c0.427-0.298,0.721-0.725,0.881-1.28h1.567
		c-0.234,0.896-0.704,1.613-1.407,2.152c-0.705,0.539-1.584,0.808-2.641,0.808c-0.832,0-1.57-0.187-2.216-0.56
		c-0.646-0.373-1.149-0.901-1.513-1.584c-0.362-0.683-0.543-1.482-0.543-2.4C205.994,169.834,206.175,169.042,206.537,168.365z"/>
	<path d="M218.026,167.573v5.168c0,0.427,0.091,0.728,0.271,0.904c0.182,0.176,0.496,0.264,0.945,0.264h1.071v1.232h-1.312
		c-0.811,0-1.419-0.187-1.824-0.56c-0.406-0.373-0.608-0.986-0.608-1.84v-5.168h-1.136v-1.2h1.136v-2.208h1.456v2.208h2.288v1.2
		H218.026z"/>
	<path d="M222.121,164.661c-0.191-0.192-0.287-0.427-0.287-0.704s0.096-0.512,0.287-0.704c0.193-0.192,0.428-0.288,0.705-0.288
		c0.266,0,0.492,0.096,0.68,0.288c0.187,0.192,0.279,0.427,0.279,0.704s-0.093,0.512-0.279,0.704
		c-0.188,0.192-0.414,0.288-0.68,0.288C222.549,164.949,222.315,164.853,222.121,164.661z M223.53,166.373v8.768h-1.455v-8.768
		H223.53z"/>
	<path d="M227.602,174.725c-0.667-0.373-1.189-0.904-1.568-1.592s-0.568-1.485-0.568-2.392c0-0.896,0.195-1.688,0.584-2.376
		c0.39-0.688,0.92-1.216,1.592-1.584c0.673-0.368,1.425-0.552,2.257-0.552s1.584,0.184,2.256,0.552
		c0.672,0.368,1.202,0.894,1.592,1.576c0.39,0.683,0.584,1.478,0.584,2.384s-0.2,1.704-0.6,2.392
		c-0.4,0.688-0.941,1.219-1.624,1.592c-0.684,0.374-1.439,0.56-2.271,0.56C229.012,175.285,228.268,175.098,227.602,174.725z
		 M231.305,173.637c0.459-0.245,0.83-0.613,1.113-1.104c0.281-0.491,0.424-1.088,0.424-1.792s-0.139-1.301-0.416-1.792
		s-0.641-0.856-1.088-1.096c-0.449-0.24-0.934-0.36-1.457-0.36c-0.533,0-1.021,0.12-1.463,0.36c-0.443,0.24-0.799,0.605-1.064,1.096
		c-0.268,0.491-0.4,1.088-0.4,1.792c0,0.715,0.131,1.317,0.393,1.808c0.261,0.491,0.61,0.856,1.048,1.096
		c0.437,0.24,0.917,0.36,1.44,0.36C230.356,174.004,230.847,173.882,231.305,173.637z"/>
	<path d="M243.114,167.181c0.662,0.646,0.992,1.576,0.992,2.792v5.168h-1.439v-4.96c0-0.875-0.219-1.544-0.656-2.008
		c-0.438-0.464-1.035-0.696-1.792-0.696c-0.769,0-1.379,0.24-1.832,0.72c-0.454,0.48-0.681,1.179-0.681,2.096v4.848h-1.455v-8.768
		h1.455v1.248c0.289-0.448,0.681-0.794,1.176-1.04c0.496-0.245,1.043-0.368,1.641-0.368
		C241.588,166.212,242.452,166.535,243.114,167.181z"/>
	<path d="M134.178,185.837c0.533,0.283,0.955,0.707,1.264,1.272c0.31,0.565,0.464,1.253,0.464,2.064v5.168h-1.44v-4.96
		c0-0.875-0.216-1.544-0.648-2.008c-0.432-0.464-1.016-0.696-1.752-0.696c-0.757,0-1.36,0.243-1.808,0.728
		c-0.448,0.485-0.672,1.187-0.672,2.104v4.832h-1.44v-4.96c0-0.875-0.216-1.544-0.648-2.008c-0.432-0.464-1.016-0.696-1.752-0.696
		c-0.757,0-1.36,0.243-1.808,0.728c-0.448,0.485-0.672,1.187-0.672,2.104v4.832h-1.456v-8.768h1.456v1.264
		c0.288-0.458,0.674-0.811,1.16-1.056c0.485-0.245,1.021-0.368,1.608-0.368c0.736,0,1.386,0.166,1.952,0.496
		c0.565,0.331,0.986,0.816,1.264,1.456c0.246-0.619,0.65-1.099,1.216-1.44c0.565-0.341,1.194-0.512,1.888-0.512
		C133.037,185.413,133.645,185.554,134.178,185.837z"/>
	<path d="M146.242,190.501h-7.008c0.054,0.864,0.35,1.539,0.888,2.024s1.192,0.728,1.96,0.728c0.629,0,1.155-0.146,1.576-0.44
		s0.717-0.686,0.888-1.176h1.568c-0.235,0.843-0.704,1.528-1.408,2.056s-1.579,0.792-2.624,0.792c-0.832,0-1.576-0.187-2.232-0.56
		c-0.656-0.373-1.171-0.904-1.544-1.592c-0.374-0.688-0.56-1.485-0.56-2.392s0.181-1.701,0.544-2.384
		c0.363-0.682,0.872-1.208,1.528-1.576c0.656-0.368,1.411-0.552,2.264-0.552c0.832,0,1.568,0.182,2.208,0.544
		c0.64,0.363,1.133,0.862,1.48,1.496c0.347,0.635,0.52,1.352,0.52,2.152C146.29,189.898,146.274,190.191,146.242,190.501z
		 M144.418,187.885c-0.246-0.4-0.579-0.704-1-0.912s-0.888-0.312-1.4-0.312c-0.736,0-1.363,0.235-1.88,0.704
		c-0.518,0.47-0.813,1.12-0.888,1.952h5.536C144.786,188.762,144.664,188.285,144.418,187.885z"/>
	<path d="M149.986,186.773v5.168c0,0.427,0.091,0.728,0.272,0.904c0.182,0.176,0.496,0.264,0.944,0.264h1.072v1.232h-1.312
		c-0.811,0-1.418-0.187-1.824-0.56c-0.406-0.373-0.608-0.986-0.608-1.84v-5.168h-1.136v-1.2h1.136v-2.208h1.456v2.208h2.288v1.2
		H149.986z"/>
	<path d="M160.178,185.837c0.533,0.283,0.952,0.707,1.256,1.272c0.304,0.565,0.456,1.253,0.456,2.064v5.168h-1.44v-4.96
		c0-0.875-0.219-1.544-0.656-2.008c-0.438-0.464-1.035-0.696-1.792-0.696c-0.768,0-1.379,0.24-1.832,0.72
		c-0.454,0.48-0.68,1.179-0.68,2.096v4.848h-1.456v-11.84h1.456v4.32c0.288-0.448,0.685-0.794,1.192-1.04
		c0.507-0.245,1.075-0.368,1.704-0.368C159.047,185.413,159.644,185.554,160.178,185.837z"/>
	<path d="M165.866,193.925c-0.667-0.373-1.19-0.904-1.568-1.592s-0.568-1.485-0.568-2.392c0-0.896,0.194-1.688,0.584-2.376
		c0.389-0.688,0.92-1.216,1.592-1.584c0.672-0.368,1.424-0.552,2.256-0.552s1.584,0.184,2.256,0.552
		c0.672,0.368,1.203,0.894,1.592,1.576c0.39,0.683,0.584,1.478,0.584,2.384s-0.2,1.704-0.6,2.392
		c-0.4,0.688-0.941,1.219-1.624,1.592c-0.683,0.374-1.44,0.56-2.272,0.56C167.277,194.485,166.533,194.298,165.866,193.925z
		 M169.57,192.837c0.458-0.245,0.83-0.613,1.112-1.104c0.282-0.491,0.424-1.088,0.424-1.792s-0.139-1.301-0.416-1.792
		s-0.64-0.856-1.088-1.096c-0.448-0.24-0.934-0.36-1.456-0.36c-0.534,0-1.021,0.12-1.464,0.36c-0.443,0.24-0.798,0.605-1.064,1.096
		c-0.267,0.491-0.4,1.088-0.4,1.792c0,0.715,0.131,1.317,0.392,1.808s0.611,0.856,1.048,1.096c0.437,0.24,0.917,0.36,1.44,0.36
		C168.621,193.205,169.112,193.083,169.57,192.837z"/>
	<path d="M174.514,187.565c0.363-0.677,0.861-1.203,1.496-1.576c0.635-0.373,1.348-0.56,2.137-0.56c0.682,0,1.316,0.158,1.904,0.472
		c0.586,0.314,1.034,0.728,1.344,1.24v-4.64h1.472v11.84h-1.472v-1.648c-0.288,0.522-0.715,0.952-1.28,1.288
		s-1.227,0.504-1.983,0.504c-0.779,0-1.486-0.192-2.121-0.576c-0.634-0.384-1.133-0.922-1.496-1.616s-0.544-1.482-0.544-2.368
		C173.97,189.029,174.152,188.242,174.514,187.565z M180.994,188.213c-0.267-0.491-0.627-0.867-1.08-1.128s-0.951-0.392-1.496-0.392
		c-0.544,0-1.039,0.128-1.488,0.384c-0.447,0.256-0.805,0.63-1.071,1.12c-0.267,0.491-0.4,1.067-0.4,1.728
		c0,0.672,0.134,1.256,0.4,1.752s0.624,0.875,1.071,1.136c0.449,0.261,0.944,0.392,1.488,0.392c0.545,0,1.043-0.13,1.496-0.392
		s0.813-0.64,1.08-1.136s0.4-1.074,0.4-1.736C181.395,189.28,181.261,188.704,180.994,188.213z"/>
	<path d="M186.922,193.925c-0.667-0.373-1.189-0.904-1.568-1.592s-0.568-1.485-0.568-2.392c0-0.896,0.195-1.688,0.584-2.376
		c0.39-0.688,0.92-1.216,1.592-1.584c0.673-0.368,1.425-0.552,2.257-0.552s1.584,0.184,2.256,0.552
		c0.672,0.368,1.202,0.894,1.592,1.576c0.39,0.683,0.584,1.478,0.584,2.384s-0.2,1.704-0.6,2.392
		c-0.4,0.688-0.941,1.219-1.624,1.592c-0.684,0.374-1.439,0.56-2.271,0.56C188.332,194.485,187.588,194.298,186.922,193.925z
		 M190.625,192.837c0.459-0.245,0.83-0.613,1.113-1.104c0.281-0.491,0.424-1.088,0.424-1.792s-0.139-1.301-0.416-1.792
		s-0.641-0.856-1.088-1.096c-0.449-0.24-0.934-0.36-1.457-0.36c-0.533,0-1.021,0.12-1.463,0.36c-0.443,0.24-0.799,0.605-1.064,1.096
		c-0.268,0.491-0.4,1.088-0.4,1.792c0,0.715,0.131,1.317,0.393,1.808c0.261,0.491,0.61,0.856,1.048,1.096
		c0.437,0.24,0.917,0.36,1.44,0.36C189.676,193.205,190.167,193.083,190.625,192.837z"/>
	<path d="M197.026,182.501v11.84h-1.455v-11.84H197.026z"/>
	<path d="M201.098,193.925c-0.667-0.373-1.189-0.904-1.568-1.592s-0.568-1.485-0.568-2.392c0-0.896,0.195-1.688,0.584-2.376
		c0.39-0.688,0.92-1.216,1.592-1.584c0.673-0.368,1.425-0.552,2.257-0.552s1.584,0.184,2.256,0.552
		c0.672,0.368,1.202,0.894,1.592,1.576c0.39,0.683,0.584,1.478,0.584,2.384s-0.2,1.704-0.6,2.392
		c-0.4,0.688-0.941,1.219-1.624,1.592c-0.684,0.374-1.439,0.56-2.271,0.56C202.508,194.485,201.764,194.298,201.098,193.925z
		 M204.801,192.837c0.459-0.245,0.83-0.613,1.113-1.104c0.281-0.491,0.424-1.088,0.424-1.792s-0.139-1.301-0.416-1.792
		s-0.641-0.856-1.088-1.096c-0.449-0.24-0.934-0.36-1.457-0.36c-0.533,0-1.021,0.12-1.463,0.36c-0.443,0.24-0.799,0.605-1.064,1.096
		c-0.268,0.491-0.4,1.088-0.4,1.792c0,0.715,0.131,1.317,0.393,1.808c0.261,0.491,0.61,0.856,1.048,1.096
		c0.437,0.24,0.917,0.36,1.44,0.36C203.852,193.205,204.343,193.083,204.801,192.837z"/>
	<path d="M215.354,185.925c0.57,0.331,0.994,0.747,1.271,1.248v-1.6h1.473v8.96c0,0.8-0.171,1.512-0.512,2.136
		c-0.342,0.624-0.83,1.112-1.465,1.464s-1.373,0.528-2.215,0.528c-1.152,0-2.113-0.272-2.881-0.816s-1.221-1.286-1.359-2.224h1.439
		c0.16,0.534,0.49,0.963,0.992,1.288s1.104,0.488,1.809,0.488c0.799,0,1.453-0.251,1.959-0.752c0.507-0.501,0.76-1.206,0.76-2.112
		v-1.84c-0.287,0.512-0.714,0.938-1.279,1.28c-0.565,0.342-1.227,0.512-1.984,0.512c-0.778,0-1.485-0.192-2.119-0.576
		c-0.635-0.384-1.134-0.922-1.496-1.616c-0.363-0.693-0.545-1.482-0.545-2.368c0-0.896,0.182-1.683,0.545-2.36
		c0.362-0.677,0.861-1.203,1.496-1.576c0.634-0.373,1.341-0.56,2.119-0.56C214.119,185.429,214.783,185.594,215.354,185.925z
		 M216.226,188.213c-0.267-0.491-0.626-0.867-1.08-1.128c-0.453-0.261-0.952-0.392-1.495-0.392c-0.545,0-1.041,0.128-1.488,0.384
		c-0.448,0.256-0.807,0.63-1.072,1.12c-0.268,0.491-0.4,1.067-0.4,1.728c0,0.672,0.133,1.256,0.4,1.752
		c0.266,0.496,0.624,0.875,1.072,1.136c0.447,0.261,0.943,0.392,1.488,0.392c0.543,0,1.042-0.13,1.495-0.392
		c0.454-0.261,0.813-0.64,1.08-1.136s0.399-1.074,0.399-1.736C216.625,189.28,216.492,188.704,216.226,188.213z"/>
	<path d="M228.114,185.573l-5.279,12.896h-1.504l1.728-4.224l-3.536-8.672h1.616l2.752,7.104l2.72-7.104H228.114z"/>
	<path d="M72.38,198.469l-4.384,17.792h-1.44l4.368-17.792H72.38z"/>
	<path d="M77.323,205.125c0.576-0.331,1.232-0.496,1.968-0.496c0.79,0,1.499,0.187,2.128,0.56c0.629,0.374,1.125,0.899,1.488,1.576
		c0.362,0.677,0.544,1.464,0.544,2.36c0,0.886-0.182,1.675-0.544,2.368c-0.363,0.693-0.861,1.232-1.496,1.616
		c-0.635,0.384-1.341,0.576-2.12,0.576c-0.757,0-1.421-0.166-1.992-0.496c-0.571-0.331-1-0.752-1.288-1.264v1.616h-1.456v-11.84
		h1.456v4.704C76.31,205.882,76.747,205.455,77.323,205.125z M81.564,207.396c-0.267-0.49-0.627-0.864-1.08-1.12
		c-0.454-0.256-0.952-0.384-1.496-0.384c-0.534,0-1.027,0.131-1.48,0.392c-0.454,0.261-0.816,0.64-1.088,1.136
		s-0.408,1.07-0.408,1.72c0,0.662,0.136,1.24,0.408,1.736s0.634,0.875,1.088,1.136c0.453,0.261,0.946,0.392,1.48,0.392
		c0.544,0,1.042-0.13,1.496-0.392c0.453-0.261,0.813-0.64,1.08-1.136c0.266-0.496,0.4-1.08,0.4-1.752
		C81.964,208.463,81.83,207.887,81.564,207.396z"/>
	<path d="M93.148,204.772v8.768h-1.456v-1.296c-0.277,0.448-0.664,0.797-1.16,1.048s-1.043,0.376-1.64,0.376
		c-0.683,0-1.296-0.141-1.84-0.424s-0.974-0.707-1.288-1.272c-0.315-0.565-0.472-1.253-0.472-2.064v-5.136h1.44v4.944
		c0,0.864,0.219,1.528,0.656,1.992c0.437,0.464,1.035,0.696,1.792,0.696c0.778,0,1.392-0.24,1.84-0.72
		c0.448-0.48,0.672-1.179,0.672-2.096v-4.816H93.148z"/>
	<path d="M96.907,213.34c-0.533-0.229-0.955-0.549-1.264-0.96c-0.31-0.41-0.48-0.882-0.512-1.416h1.504
		c0.042,0.438,0.248,0.795,0.616,1.072s0.851,0.416,1.448,0.416c0.555,0,0.992-0.123,1.312-0.368c0.32-0.245,0.48-0.555,0.48-0.928
		c0-0.384-0.17-0.669-0.512-0.856c-0.342-0.186-0.87-0.37-1.584-0.552c-0.651-0.17-1.182-0.344-1.592-0.52s-0.763-0.437-1.056-0.784
		c-0.293-0.346-0.44-0.802-0.44-1.368c0-0.448,0.133-0.858,0.4-1.232c0.267-0.374,0.645-0.669,1.136-0.888s1.051-0.328,1.68-0.328
		c0.97,0,1.754,0.246,2.352,0.736c0.597,0.491,0.917,1.163,0.96,2.016h-1.456c-0.032-0.458-0.216-0.826-0.552-1.104
		c-0.336-0.277-0.787-0.416-1.352-0.416c-0.523,0-0.939,0.112-1.248,0.336c-0.31,0.224-0.464,0.518-0.464,0.88
		c0,0.288,0.093,0.525,0.28,0.712c0.187,0.187,0.421,0.336,0.704,0.448c0.282,0.112,0.674,0.238,1.176,0.376
		c0.629,0.171,1.141,0.339,1.536,0.504c0.395,0.166,0.733,0.413,1.016,0.744c0.282,0.331,0.429,0.763,0.44,1.296
		c0,0.48-0.134,0.912-0.4,1.296c-0.267,0.384-0.643,0.686-1.128,0.904c-0.485,0.219-1.042,0.328-1.672,0.328
		C98.044,213.685,97.441,213.57,96.907,213.34z"/>
	<path d="M104.011,203.061c-0.192-0.192-0.288-0.427-0.288-0.704s0.096-0.512,0.288-0.704c0.192-0.192,0.427-0.288,0.704-0.288
		c0.267,0,0.493,0.096,0.68,0.288c0.187,0.192,0.28,0.427,0.28,0.704s-0.093,0.512-0.28,0.704c-0.187,0.192-0.414,0.288-0.68,0.288
		C104.438,203.349,104.204,203.252,104.011,203.061z M105.42,204.772v8.768h-1.456v-8.768H105.42z"/>
	<path d="M114.763,205.581c0.661,0.646,0.992,1.576,0.992,2.792v5.168h-1.44v-4.96c0-0.875-0.219-1.544-0.656-2.008
		c-0.438-0.464-1.035-0.696-1.792-0.696c-0.768,0-1.379,0.24-1.832,0.72c-0.454,0.48-0.68,1.179-0.68,2.096v4.848h-1.456v-8.768
		h1.456v1.248c0.288-0.448,0.68-0.794,1.176-1.04c0.496-0.245,1.043-0.368,1.64-0.368
		C113.238,204.612,114.102,204.935,114.763,205.581z"/>
	<path d="M126.092,209.701h-7.008c0.054,0.864,0.35,1.539,0.888,2.024s1.192,0.728,1.96,0.728c0.629,0,1.155-0.146,1.576-0.44
		s0.717-0.686,0.888-1.176h1.568c-0.235,0.843-0.704,1.528-1.408,2.056s-1.579,0.792-2.624,0.792c-0.832,0-1.576-0.187-2.232-0.56
		c-0.656-0.373-1.171-0.904-1.544-1.592c-0.374-0.688-0.56-1.485-0.56-2.392s0.181-1.701,0.544-2.384
		c0.363-0.682,0.872-1.208,1.528-1.576c0.656-0.368,1.411-0.552,2.264-0.552c0.832,0,1.568,0.182,2.208,0.544
		c0.64,0.363,1.133,0.862,1.48,1.496c0.347,0.635,0.52,1.352,0.52,2.152C126.139,209.098,126.123,209.391,126.092,209.701z
		 M124.267,207.084c-0.246-0.4-0.579-0.704-1-0.912s-0.888-0.312-1.4-0.312c-0.736,0-1.363,0.235-1.88,0.704
		c-0.518,0.47-0.813,1.12-0.888,1.952h5.536C124.635,207.962,124.513,207.484,124.267,207.084z"/>
	<path d="M129.355,213.34c-0.533-0.229-0.955-0.549-1.264-0.96c-0.31-0.41-0.48-0.882-0.512-1.416h1.504
		c0.042,0.438,0.248,0.795,0.616,1.072s0.851,0.416,1.448,0.416c0.555,0,0.992-0.123,1.312-0.368c0.32-0.245,0.48-0.555,0.48-0.928
		c0-0.384-0.17-0.669-0.512-0.856c-0.342-0.186-0.87-0.37-1.584-0.552c-0.651-0.17-1.182-0.344-1.592-0.52s-0.763-0.437-1.056-0.784
		c-0.293-0.346-0.44-0.802-0.44-1.368c0-0.448,0.133-0.858,0.4-1.232c0.267-0.374,0.645-0.669,1.136-0.888s1.051-0.328,1.68-0.328
		c0.97,0,1.754,0.246,2.352,0.736c0.597,0.491,0.917,1.163,0.96,2.016h-1.456c-0.032-0.458-0.216-0.826-0.552-1.104
		c-0.336-0.277-0.787-0.416-1.352-0.416c-0.523,0-0.939,0.112-1.248,0.336c-0.31,0.224-0.464,0.518-0.464,0.88
		c0,0.288,0.093,0.525,0.28,0.712c0.187,0.187,0.421,0.336,0.704,0.448c0.282,0.112,0.674,0.238,1.176,0.376
		c0.629,0.171,1.141,0.339,1.536,0.504c0.395,0.166,0.733,0.413,1.016,0.744c0.282,0.331,0.429,0.763,0.44,1.296
		c0,0.48-0.134,0.912-0.4,1.296c-0.267,0.384-0.643,0.686-1.128,0.904c-0.485,0.219-1.042,0.328-1.672,0.328
		C130.491,213.685,129.888,213.57,129.355,213.34z"/>
	<path d="M137.707,213.34c-0.533-0.229-0.955-0.549-1.264-0.96c-0.31-0.41-0.48-0.882-0.512-1.416h1.504
		c0.042,0.438,0.248,0.795,0.616,1.072s0.851,0.416,1.448,0.416c0.555,0,0.992-0.123,1.312-0.368c0.32-0.245,0.48-0.555,0.48-0.928
		c0-0.384-0.17-0.669-0.512-0.856c-0.342-0.186-0.87-0.37-1.584-0.552c-0.651-0.17-1.182-0.344-1.592-0.52s-0.763-0.437-1.056-0.784
		c-0.293-0.346-0.44-0.802-0.44-1.368c0-0.448,0.133-0.858,0.4-1.232c0.267-0.374,0.645-0.669,1.136-0.888s1.051-0.328,1.68-0.328
		c0.97,0,1.754,0.246,2.352,0.736c0.597,0.491,0.917,1.163,0.96,2.016h-1.456c-0.032-0.458-0.216-0.826-0.552-1.104
		c-0.336-0.277-0.787-0.416-1.352-0.416c-0.523,0-0.939,0.112-1.248,0.336c-0.31,0.224-0.464,0.518-0.464,0.88
		c0,0.288,0.093,0.525,0.28,0.712c0.187,0.187,0.421,0.336,0.704,0.448c0.282,0.112,0.674,0.238,1.176,0.376
		c0.629,0.171,1.141,0.339,1.536,0.504c0.395,0.166,0.733,0.413,1.016,0.744c0.282,0.331,0.429,0.763,0.44,1.296
		c0,0.48-0.134,0.912-0.4,1.296c-0.267,0.384-0.643,0.686-1.128,0.904c-0.485,0.219-1.042,0.328-1.672,0.328
		C138.843,213.685,138.24,213.57,137.707,213.34z"/>
	<path d="M151.779,205.132c0.57-0.336,1.234-0.504,1.992-0.504c0.779,0,1.485,0.187,2.12,0.56c0.635,0.374,1.133,0.899,1.496,1.576
		c0.362,0.677,0.544,1.464,0.544,2.36c0,0.886-0.182,1.675-0.544,2.368c-0.363,0.693-0.861,1.232-1.496,1.616
		c-0.635,0.384-1.341,0.576-2.12,0.576c-0.747,0-1.405-0.168-1.976-0.504c-0.571-0.336-1.006-0.754-1.304-1.256v5.776h-1.456
		v-12.928h1.456v1.616C150.779,205.887,151.208,205.469,151.779,205.132z M156.043,207.396c-0.267-0.49-0.627-0.864-1.08-1.12
		c-0.454-0.256-0.952-0.384-1.496-0.384c-0.534,0-1.027,0.131-1.48,0.392c-0.454,0.261-0.816,0.64-1.088,1.136
		s-0.408,1.07-0.408,1.72c0,0.662,0.136,1.24,0.408,1.736s0.634,0.875,1.088,1.136c0.453,0.261,0.946,0.392,1.48,0.392
		c0.544,0,1.042-0.13,1.496-0.392c0.453-0.261,0.813-0.64,1.08-1.136c0.266-0.496,0.4-1.08,0.4-1.752
		C156.443,208.463,156.309,207.887,156.043,207.396z"/>
	<path d="M161.306,201.701v11.84h-1.456v-11.84H161.306z"/>
	<path d="M163.786,206.765c0.363-0.677,0.861-1.203,1.496-1.576c0.634-0.373,1.341-0.56,2.12-0.56c0.768,0,1.435,0.166,2,0.496
		c0.565,0.331,0.986,0.747,1.264,1.248v-1.6h1.472v8.768h-1.472v-1.632c-0.288,0.512-0.717,0.936-1.288,1.272
		c-0.571,0.336-1.235,0.504-1.992,0.504c-0.779,0-1.483-0.192-2.112-0.576c-0.63-0.384-1.125-0.922-1.488-1.616
		s-0.544-1.482-0.544-2.368C163.242,208.229,163.424,207.442,163.786,206.765z M170.266,207.413
		c-0.267-0.491-0.626-0.867-1.08-1.128c-0.453-0.261-0.952-0.392-1.496-0.392c-0.544,0-1.04,0.128-1.488,0.384
		c-0.448,0.256-0.806,0.63-1.072,1.12c-0.267,0.491-0.4,1.067-0.4,1.728c0,0.672,0.133,1.256,0.4,1.752
		c0.266,0.496,0.624,0.875,1.072,1.136c0.448,0.261,0.944,0.392,1.488,0.392c0.544,0,1.042-0.13,1.496-0.392
		c0.454-0.261,0.813-0.64,1.08-1.136s0.4-1.074,0.4-1.736C170.666,208.479,170.533,207.903,170.266,207.413z"/>
	<path d="M181.467,205.581c0.66,0.646,0.991,1.576,0.991,2.792v5.168h-1.44v-4.96c0-0.875-0.219-1.544-0.655-2.008
		c-0.438-0.464-1.035-0.696-1.792-0.696c-0.768,0-1.379,0.24-1.832,0.72s-0.68,1.179-0.68,2.096v4.848h-1.457v-8.768h1.457v1.248
		c0.287-0.448,0.68-0.794,1.176-1.04c0.496-0.245,1.043-0.368,1.64-0.368C179.941,204.612,180.805,204.935,181.467,205.581z"/>
	<path d="M189.114,206.765c0.363-0.677,0.867-1.203,1.513-1.576c0.646-0.373,1.384-0.56,2.216-0.56c1.077,0,1.965,0.262,2.664,0.784
		c0.698,0.522,1.16,1.248,1.384,2.176h-1.567c-0.15-0.533-0.44-0.955-0.873-1.264c-0.432-0.31-0.967-0.464-1.607-0.464
		c-0.832,0-1.504,0.286-2.016,0.856c-0.512,0.571-0.769,1.379-0.769,2.424c0,1.056,0.257,1.872,0.769,2.448
		c0.512,0.576,1.184,0.864,2.016,0.864c0.641,0,1.174-0.149,1.6-0.448c0.427-0.298,0.721-0.725,0.881-1.28h1.567
		c-0.234,0.896-0.704,1.613-1.407,2.152c-0.705,0.539-1.584,0.808-2.641,0.808c-0.832,0-1.57-0.187-2.216-0.56
		c-0.646-0.373-1.149-0.901-1.513-1.584c-0.362-0.683-0.543-1.482-0.543-2.4C188.571,208.234,188.751,207.442,189.114,206.765z"/>
	<path d="M206.778,209.701h-7.008c0.054,0.864,0.35,1.539,0.889,2.024c0.538,0.485,1.191,0.728,1.959,0.728
		c0.63,0,1.155-0.146,1.576-0.44c0.422-0.293,0.718-0.686,0.889-1.176h1.568c-0.235,0.843-0.705,1.528-1.408,2.056
		c-0.705,0.528-1.579,0.792-2.625,0.792c-0.832,0-1.575-0.187-2.231-0.56c-0.655-0.373-1.171-0.904-1.544-1.592
		s-0.561-1.485-0.561-2.392s0.182-1.701,0.545-2.384c0.362-0.682,0.871-1.208,1.527-1.576c0.656-0.368,1.41-0.552,2.264-0.552
		c0.832,0,1.568,0.182,2.209,0.544c0.64,0.363,1.133,0.862,1.479,1.496c0.347,0.635,0.521,1.352,0.521,2.152
		C206.826,209.098,206.81,209.391,206.778,209.701z M204.953,207.084c-0.245-0.4-0.578-0.704-1-0.912
		c-0.421-0.208-0.887-0.312-1.399-0.312c-0.735,0-1.362,0.235-1.88,0.704c-0.518,0.47-0.813,1.12-0.889,1.952h5.537
		C205.323,207.962,205.199,207.484,204.953,207.084z"/>
	<path d="M211.298,205.028c0.474-0.277,1.054-0.416,1.735-0.416v1.504h-0.383c-1.633,0-2.449,0.885-2.449,2.656v4.768h-1.455v-8.768
		h1.455v1.424C210.457,205.695,210.823,205.306,211.298,205.028z"/>
	<path d="M216.49,205.973v5.168c0,0.427,0.091,0.728,0.272,0.904c0.182,0.176,0.496,0.264,0.943,0.264h1.072v1.232h-1.313
		c-0.811,0-1.418-0.187-1.823-0.56c-0.405-0.373-0.608-0.986-0.608-1.84v-5.168h-1.136v-1.2h1.136v-2.208h1.456v2.208h2.288v1.2
		H216.49z"/>
	<path d="M220.586,203.061c-0.192-0.192-0.288-0.427-0.288-0.704s0.096-0.512,0.288-0.704c0.191-0.192,0.426-0.288,0.703-0.288
		c0.268,0,0.494,0.096,0.681,0.288c0.187,0.192,0.28,0.427,0.28,0.704s-0.094,0.512-0.28,0.704s-0.413,0.288-0.681,0.288
		C221.012,203.349,220.778,203.252,220.586,203.061z M221.994,204.772v8.768h-1.457v-8.768H221.994z"/>
	<path d="M228.041,205.973h-1.84v7.568h-1.456v-7.568h-1.136v-1.2h1.136v-0.624c0-0.981,0.253-1.698,0.761-2.152
		c0.506-0.453,1.319-0.68,2.439-0.68v1.216c-0.641,0-1.091,0.125-1.352,0.376c-0.262,0.25-0.393,0.664-0.393,1.24v0.624h1.84
		V205.973z"/>
	<path d="M229.785,203.061c-0.191-0.192-0.287-0.427-0.287-0.704s0.096-0.512,0.287-0.704c0.192-0.192,0.427-0.288,0.704-0.288
		c0.267,0,0.493,0.096,0.681,0.288c0.186,0.192,0.279,0.427,0.279,0.704s-0.094,0.512-0.279,0.704
		c-0.188,0.192-0.414,0.288-0.681,0.288C230.212,203.349,229.978,203.252,229.785,203.061z M231.194,204.772v8.768h-1.456v-8.768
		H231.194z"/>
	<path d="M233.674,206.765c0.362-0.677,0.866-1.203,1.512-1.576c0.645-0.373,1.384-0.56,2.216-0.56c1.077,0,1.966,0.262,2.664,0.784
		s1.16,1.248,1.384,2.176h-1.568c-0.148-0.533-0.439-0.955-0.871-1.264c-0.432-0.31-0.969-0.464-1.608-0.464
		c-0.832,0-1.504,0.286-2.017,0.856c-0.512,0.571-0.768,1.379-0.768,2.424c0,1.056,0.256,1.872,0.768,2.448
		c0.513,0.576,1.185,0.864,2.017,0.864c0.64,0,1.173-0.149,1.601-0.448c0.426-0.298,0.719-0.725,0.879-1.28h1.568
		c-0.234,0.896-0.703,1.613-1.408,2.152c-0.703,0.539-1.584,0.808-2.64,0.808c-0.832,0-1.571-0.187-2.216-0.56
		c-0.646-0.373-1.149-0.901-1.512-1.584c-0.363-0.683-0.545-1.482-0.545-2.4C233.129,208.234,233.311,207.442,233.674,206.765z"/>
	<path d="M243.385,206.765c0.363-0.677,0.861-1.203,1.496-1.576c0.635-0.373,1.342-0.56,2.121-0.56c0.768,0,1.434,0.166,2,0.496
		c0.564,0.331,0.986,0.747,1.264,1.248v-1.6h1.472v8.768h-1.472v-1.632c-0.288,0.512-0.718,0.936-1.288,1.272
		c-0.571,0.336-1.235,0.504-1.992,0.504c-0.778,0-1.483-0.192-2.112-0.576c-0.629-0.384-1.125-0.922-1.488-1.616
		c-0.362-0.693-0.543-1.482-0.543-2.368C242.842,208.229,243.023,207.442,243.385,206.765z M249.865,207.413
		c-0.267-0.491-0.627-0.867-1.08-1.128s-0.951-0.392-1.496-0.392c-0.544,0-1.039,0.128-1.488,0.384
		c-0.447,0.256-0.805,0.63-1.071,1.12c-0.267,0.491-0.4,1.067-0.4,1.728c0,0.672,0.134,1.256,0.4,1.752s0.624,0.875,1.071,1.136
		c0.449,0.261,0.944,0.392,1.488,0.392c0.545,0,1.043-0.13,1.496-0.392s0.813-0.64,1.08-1.136s0.4-1.074,0.4-1.736
		C250.266,208.479,250.132,207.903,249.865,207.413z"/>
	<path d="M255.977,205.973v5.168c0,0.427,0.091,0.728,0.271,0.904c0.182,0.176,0.496,0.264,0.945,0.264h1.071v1.232h-1.312
		c-0.811,0-1.419-0.187-1.824-0.56c-0.406-0.373-0.608-0.986-0.608-1.84v-5.168h-1.136v-1.2h1.136v-2.208h1.456v2.208h2.288v1.2
		H255.977z"/>
	<path d="M260.073,203.061c-0.191-0.192-0.287-0.427-0.287-0.704s0.096-0.512,0.287-0.704c0.193-0.192,0.428-0.288,0.705-0.288
		c0.266,0,0.492,0.096,0.68,0.288c0.187,0.192,0.279,0.427,0.279,0.704s-0.093,0.512-0.279,0.704
		c-0.188,0.192-0.414,0.288-0.68,0.288C260.5,203.349,260.266,203.252,260.073,203.061z M261.481,204.772v8.768h-1.455v-8.768
		H261.481z"/>
	<path d="M265.553,213.125c-0.667-0.373-1.189-0.904-1.568-1.592s-0.568-1.485-0.568-2.392c0-0.896,0.195-1.688,0.584-2.376
		c0.39-0.688,0.92-1.216,1.592-1.584c0.673-0.368,1.425-0.552,2.257-0.552s1.584,0.184,2.256,0.552
		c0.672,0.368,1.202,0.894,1.592,1.576c0.39,0.683,0.584,1.478,0.584,2.384s-0.2,1.704-0.6,2.392
		c-0.4,0.688-0.941,1.219-1.624,1.592c-0.684,0.374-1.439,0.56-2.271,0.56C266.963,213.685,266.219,213.498,265.553,213.125z
		 M269.256,212.037c0.459-0.245,0.83-0.613,1.113-1.104c0.281-0.491,0.424-1.088,0.424-1.792s-0.139-1.301-0.416-1.792
		s-0.641-0.856-1.088-1.096c-0.449-0.24-0.934-0.36-1.457-0.36c-0.533,0-1.021,0.12-1.463,0.36c-0.443,0.24-0.799,0.605-1.064,1.096
		c-0.268,0.491-0.4,1.088-0.4,1.792c0,0.715,0.131,1.317,0.393,1.808c0.261,0.491,0.61,0.856,1.048,1.096
		c0.437,0.24,0.917,0.36,1.44,0.36C268.307,212.404,268.798,212.282,269.256,212.037z"/>
	<path d="M281.065,205.581c0.662,0.646,0.992,1.576,0.992,2.792v5.168h-1.439v-4.96c0-0.875-0.219-1.544-0.656-2.008
		c-0.438-0.464-1.035-0.696-1.792-0.696c-0.769,0-1.379,0.24-1.832,0.72c-0.454,0.48-0.681,1.179-0.681,2.096v4.848h-1.455v-8.768
		h1.455v1.248c0.289-0.448,0.681-0.794,1.176-1.04c0.496-0.245,1.043-0.368,1.641-0.368
		C279.539,204.612,280.404,204.935,281.065,205.581z"/>
</g>
<g>
	<path d="M111.516,574.621c0.491-0.869,1.16-1.55,2.008-2.041c0.848-0.49,1.789-0.735,2.824-0.735c1.216,0,2.277,0.294,3.184,0.88
		c0.907,0.587,1.568,1.419,1.984,2.496h-1.744c-0.31-0.672-0.755-1.189-1.336-1.553c-0.582-0.361-1.278-0.543-2.088-0.543
		c-0.779,0-1.478,0.182-2.096,0.543c-0.619,0.363-1.104,0.878-1.456,1.545c-0.352,0.666-0.528,1.447-0.528,2.344
		c0,0.885,0.176,1.662,0.528,2.328s0.837,1.182,1.456,1.544c0.618,0.362,1.317,0.544,2.096,0.544c0.811,0,1.507-0.179,2.088-0.536
		c0.581-0.356,1.026-0.872,1.336-1.544h1.744c-0.416,1.066-1.077,1.891-1.984,2.473c-0.907,0.581-1.968,0.871-3.184,0.871
		c-1.035,0-1.976-0.242-2.824-0.728c-0.848-0.485-1.518-1.16-2.008-2.024c-0.491-0.863-0.736-1.84-0.736-2.928
		S111.026,575.49,111.516,574.621z"/>
	<path d="M123.677,576.365c0.363-0.678,0.861-1.203,1.496-1.576c0.634-0.373,1.341-0.561,2.12-0.561c0.768,0,1.435,0.166,2,0.496
		c0.565,0.33,0.986,0.746,1.264,1.248v-1.6h1.472v8.768h-1.472v-1.632c-0.288,0.512-0.717,0.937-1.288,1.272
		c-0.571,0.336-1.235,0.504-1.992,0.504c-0.779,0-1.483-0.192-2.112-0.576c-0.63-0.385-1.125-0.923-1.488-1.616
		s-0.544-1.482-0.544-2.368C123.133,577.828,123.314,577.042,123.677,576.365z M130.156,577.013
		c-0.267-0.491-0.626-0.866-1.08-1.128c-0.453-0.262-0.952-0.393-1.496-0.393c-0.544,0-1.04,0.129-1.488,0.385
		c-0.448,0.256-0.806,0.629-1.072,1.119c-0.267,0.491-0.4,1.067-0.4,1.729c0,0.672,0.133,1.256,0.4,1.752
		c0.266,0.496,0.624,0.875,1.072,1.137c0.448,0.261,0.944,0.391,1.488,0.391c0.544,0,1.042-0.13,1.496-0.391
		c0.454-0.262,0.813-0.641,1.08-1.137s0.4-1.074,0.4-1.736C130.556,578.08,130.423,577.504,130.156,577.013z"/>
	<path d="M137.044,574.629c0.474-0.277,1.053-0.416,1.736-0.416v1.504h-0.384c-1.632,0-2.448,0.885-2.448,2.656v4.768h-1.456v-8.768
		h1.456v1.424C136.204,575.295,136.569,574.906,137.044,574.629z"/>
	<path d="M143.228,574.725c0.576-0.33,1.232-0.496,1.968-0.496c0.79,0,1.499,0.188,2.128,0.561c0.629,0.373,1.125,0.898,1.488,1.576
		c0.362,0.677,0.544,1.463,0.544,2.359c0,0.886-0.182,1.675-0.544,2.368c-0.363,0.693-0.861,1.231-1.496,1.616
		c-0.635,0.384-1.341,0.576-2.12,0.576c-0.757,0-1.421-0.166-1.992-0.496c-0.571-0.331-1-0.752-1.288-1.265v1.616h-1.456v-11.84
		h1.456v4.703C142.214,575.482,142.652,575.055,143.228,574.725z M147.468,576.996c-0.267-0.49-0.627-0.863-1.08-1.119
		c-0.454-0.256-0.952-0.385-1.496-0.385c-0.534,0-1.027,0.131-1.48,0.393c-0.454,0.262-0.816,0.64-1.088,1.136
		s-0.408,1.069-0.408,1.72c0,0.662,0.136,1.24,0.408,1.736s0.634,0.875,1.088,1.137c0.453,0.261,0.946,0.391,1.48,0.391
		c0.544,0,1.042-0.13,1.496-0.391c0.453-0.262,0.813-0.641,1.08-1.137c0.266-0.496,0.4-1.08,0.4-1.752
		C147.868,578.063,147.734,577.487,147.468,576.996z"/>
	<path d="M152.868,582.725c-0.667-0.373-1.19-0.904-1.568-1.592s-0.568-1.485-0.568-2.393c0-0.896,0.194-1.688,0.584-2.375
		c0.389-0.688,0.92-1.217,1.592-1.584c0.672-0.369,1.424-0.553,2.256-0.553s1.584,0.184,2.256,0.553
		c0.672,0.367,1.203,0.893,1.592,1.575c0.39,0.683,0.584,1.478,0.584,2.384c0,0.907-0.2,1.705-0.6,2.393
		c-0.4,0.688-0.941,1.219-1.624,1.592c-0.683,0.373-1.44,0.561-2.272,0.561C154.279,583.285,153.535,583.098,152.868,582.725z
		 M156.572,581.637c0.458-0.245,0.83-0.613,1.112-1.104c0.282-0.491,0.424-1.088,0.424-1.793c0-0.703-0.139-1.301-0.416-1.791
		c-0.277-0.491-0.64-0.856-1.088-1.097c-0.448-0.239-0.934-0.36-1.456-0.36c-0.534,0-1.021,0.121-1.464,0.36
		c-0.443,0.24-0.798,0.605-1.064,1.097c-0.267,0.49-0.4,1.088-0.4,1.791c0,0.715,0.131,1.318,0.392,1.809s0.611,0.855,1.048,1.096
		c0.437,0.24,0.917,0.359,1.44,0.359C155.623,582.004,156.114,581.883,156.572,581.637z"/>
	<path d="M168.38,575.181c0.661,0.646,0.992,1.576,0.992,2.792v5.168h-1.44v-4.96c0-0.874-0.219-1.544-0.656-2.008
		c-0.438-0.464-1.035-0.696-1.792-0.696c-0.768,0-1.379,0.24-1.832,0.721c-0.454,0.479-0.68,1.178-0.68,2.096v4.848h-1.456v-8.768
		h1.456v1.248c0.288-0.448,0.68-0.795,1.176-1.041c0.496-0.244,1.043-0.367,1.64-0.367
		C166.854,574.213,167.719,574.535,168.38,575.181z"/>
	<path d="M178.58,574.629c0.475-0.277,1.053-0.416,1.736-0.416v1.504h-0.385c-1.632,0-2.447,0.885-2.447,2.656v4.768h-1.457v-8.768
		h1.457v1.424C177.74,575.295,178.106,574.906,178.58,574.629z"/>
	<path d="M189.948,579.301h-7.008c0.054,0.863,0.35,1.539,0.889,2.023c0.538,0.486,1.191,0.729,1.959,0.729
		c0.63,0,1.155-0.146,1.576-0.439c0.422-0.294,0.718-0.686,0.889-1.177h1.568c-0.235,0.843-0.705,1.528-1.408,2.056
		c-0.705,0.528-1.579,0.793-2.625,0.793c-0.832,0-1.575-0.188-2.231-0.561c-0.655-0.373-1.171-0.904-1.544-1.592
		s-0.561-1.485-0.561-2.393c0-0.906,0.182-1.701,0.545-2.384c0.362-0.683,0.871-1.208,1.527-1.575
		c0.656-0.369,1.41-0.553,2.264-0.553c0.832,0,1.568,0.182,2.209,0.544c0.64,0.362,1.133,0.862,1.479,1.496
		c0.347,0.635,0.521,1.353,0.521,2.151C189.996,578.698,189.98,578.991,189.948,579.301z M188.123,576.685
		c-0.245-0.399-0.578-0.704-1-0.912c-0.421-0.208-0.887-0.312-1.399-0.312c-0.735,0-1.362,0.234-1.88,0.703
		c-0.518,0.471-0.813,1.121-0.889,1.953h5.537C188.492,577.563,188.369,577.084,188.123,576.685z"/>
	<path d="M191.916,576.365c0.362-0.678,0.861-1.203,1.496-1.576c0.634-0.373,1.346-0.561,2.135-0.561
		c0.684,0,1.318,0.158,1.904,0.473c0.587,0.314,1.035,0.728,1.344,1.239v-4.64h1.473v11.84h-1.473v-1.648
		c-0.287,0.523-0.714,0.953-1.279,1.289s-1.227,0.504-1.984,0.504c-0.778,0-1.485-0.192-2.119-0.576
		c-0.635-0.385-1.134-0.923-1.496-1.616c-0.363-0.693-0.545-1.482-0.545-2.368C191.371,577.828,191.553,577.042,191.916,576.365z
		 M198.396,577.013c-0.267-0.491-0.626-0.866-1.08-1.128c-0.453-0.262-0.952-0.393-1.495-0.393c-0.545,0-1.041,0.129-1.488,0.385
		c-0.448,0.256-0.807,0.629-1.072,1.119c-0.268,0.491-0.4,1.067-0.4,1.729c0,0.672,0.133,1.256,0.4,1.752
		c0.266,0.496,0.624,0.875,1.072,1.137c0.447,0.261,0.943,0.391,1.488,0.391c0.543,0,1.042-0.13,1.495-0.391
		c0.454-0.262,0.813-0.641,1.08-1.137s0.399-1.074,0.399-1.736C198.795,578.08,198.662,577.504,198.396,577.013z"/>
	<path d="M210.507,574.373v8.768h-1.456v-1.296c-0.277,0.448-0.664,0.798-1.16,1.048s-1.043,0.376-1.64,0.376
		c-0.683,0-1.296-0.142-1.84-0.424s-0.974-0.706-1.288-1.272c-0.314-0.564-0.473-1.253-0.473-2.063v-5.136h1.44v4.943
		c0,0.864,0.219,1.528,0.656,1.992c0.437,0.464,1.034,0.695,1.792,0.695c0.778,0,1.393-0.239,1.84-0.719
		c0.448-0.48,0.672-1.18,0.672-2.097v-4.815H210.507z"/>
	<path d="M212.971,576.365c0.363-0.678,0.867-1.203,1.513-1.576s1.384-0.561,2.216-0.561c1.077,0,1.965,0.262,2.664,0.784
		c0.698,0.522,1.16,1.248,1.384,2.176h-1.567c-0.15-0.533-0.44-0.954-0.873-1.264c-0.432-0.31-0.967-0.464-1.607-0.464
		c-0.832,0-1.504,0.285-2.016,0.855s-0.769,1.379-0.769,2.424c0,1.057,0.257,1.873,0.769,2.448c0.512,0.576,1.184,0.864,2.016,0.864
		c0.641,0,1.174-0.149,1.6-0.448c0.427-0.298,0.721-0.726,0.881-1.28h1.567c-0.234,0.896-0.704,1.613-1.407,2.152
		c-0.705,0.539-1.584,0.809-2.641,0.809c-0.832,0-1.57-0.188-2.216-0.561s-1.149-0.901-1.513-1.584
		c-0.362-0.683-0.543-1.482-0.543-2.4C212.428,577.834,212.609,577.042,212.971,576.365z"/>
	<path d="M224.459,575.572v5.168c0,0.428,0.091,0.729,0.271,0.904c0.182,0.176,0.496,0.264,0.945,0.264h1.071v1.232h-1.312
		c-0.811,0-1.419-0.187-1.824-0.561c-0.406-0.373-0.608-0.986-0.608-1.84v-5.168h-1.136v-1.199h1.136v-2.209h1.456v2.209h2.288
		v1.199H224.459z"/>
	<path d="M228.555,572.66c-0.191-0.191-0.287-0.426-0.287-0.703s0.096-0.512,0.287-0.705c0.193-0.191,0.428-0.287,0.705-0.287
		c0.266,0,0.492,0.096,0.68,0.287c0.187,0.193,0.279,0.428,0.279,0.705s-0.093,0.512-0.279,0.703
		c-0.188,0.192-0.414,0.289-0.68,0.289C228.983,572.949,228.748,572.853,228.555,572.66z M229.963,574.373v8.768h-1.455v-8.768
		H229.963z"/>
	<path d="M234.035,582.725c-0.667-0.373-1.189-0.904-1.568-1.592s-0.568-1.485-0.568-2.393c0-0.896,0.195-1.688,0.584-2.375
		c0.39-0.688,0.92-1.217,1.592-1.584c0.673-0.369,1.425-0.553,2.257-0.553s1.584,0.184,2.256,0.553
		c0.672,0.367,1.202,0.893,1.592,1.575s0.584,1.478,0.584,2.384c0,0.907-0.2,1.705-0.6,2.393c-0.4,0.688-0.941,1.219-1.624,1.592
		c-0.684,0.373-1.439,0.561-2.271,0.561C235.446,583.285,234.701,583.098,234.035,582.725z M237.739,581.637
		c0.459-0.245,0.83-0.613,1.113-1.104c0.281-0.491,0.424-1.088,0.424-1.793c0-0.703-0.139-1.301-0.416-1.791
		c-0.277-0.491-0.641-0.856-1.088-1.097c-0.449-0.239-0.934-0.36-1.457-0.36c-0.533,0-1.021,0.121-1.463,0.36
		c-0.443,0.24-0.799,0.605-1.064,1.097c-0.268,0.49-0.4,1.088-0.4,1.791c0,0.715,0.131,1.318,0.393,1.809
		c0.261,0.49,0.61,0.855,1.048,1.096c0.437,0.24,0.917,0.359,1.44,0.359C236.789,582.004,237.281,581.883,237.739,581.637z"/>
	<path d="M249.547,575.181c0.662,0.646,0.992,1.576,0.992,2.792v5.168H249.1v-4.96c0-0.874-0.219-1.544-0.656-2.008
		s-1.035-0.696-1.792-0.696c-0.769,0-1.379,0.24-1.832,0.721c-0.454,0.479-0.681,1.178-0.681,2.096v4.848h-1.455v-8.768h1.455v1.248
		c0.289-0.448,0.681-0.795,1.176-1.041c0.496-0.244,1.043-0.367,1.641-0.367C248.022,574.213,248.886,574.535,249.547,575.181z"/>
	<path d="M82.397,593.933c0.57-0.336,1.234-0.504,1.992-0.504c0.779,0,1.485,0.187,2.12,0.56c0.635,0.374,1.133,0.899,1.496,1.576
		c0.362,0.678,0.544,1.465,0.544,2.36c0,0.886-0.182,1.675-0.544,2.368c-0.363,0.693-0.861,1.232-1.496,1.615
		c-0.635,0.385-1.341,0.576-2.12,0.576c-0.747,0-1.405-0.168-1.976-0.504c-0.571-0.336-1.006-0.754-1.304-1.256v5.776h-1.456
		v-12.929h1.456v1.617C81.397,594.688,81.826,594.27,82.397,593.933z M86.661,596.197c-0.267-0.49-0.627-0.864-1.08-1.121
		c-0.454-0.256-0.952-0.383-1.496-0.383c-0.534,0-1.027,0.131-1.48,0.392c-0.454,0.261-0.816,0.64-1.088,1.136
		s-0.408,1.07-0.408,1.721c0,0.661,0.136,1.239,0.408,1.735s0.634,0.875,1.088,1.136c0.453,0.262,0.946,0.393,1.48,0.393
		c0.544,0,1.042-0.131,1.496-0.393c0.453-0.261,0.813-0.64,1.08-1.136c0.266-0.496,0.4-1.08,0.4-1.752
		C87.061,597.264,86.927,596.688,86.661,596.197z"/>
	<path d="M98.421,598.501h-7.008c0.054,0.864,0.35,1.538,0.888,2.024c0.539,0.484,1.192,0.728,1.96,0.728
		c0.629,0,1.155-0.146,1.576-0.44c0.421-0.293,0.717-0.686,0.888-1.176h1.568c-0.235,0.843-0.704,1.528-1.408,2.057
		c-0.704,0.527-1.579,0.791-2.624,0.791c-0.832,0-1.576-0.186-2.232-0.56c-0.656-0.373-1.171-0.903-1.544-1.592
		c-0.374-0.688-0.56-1.485-0.56-2.392c0-0.907,0.181-1.701,0.544-2.385c0.363-0.682,0.872-1.208,1.528-1.576
		c0.656-0.367,1.411-0.552,2.264-0.552c0.832,0,1.568,0.182,2.208,0.544c0.64,0.363,1.133,0.861,1.48,1.496s0.52,1.352,0.52,2.152
		C98.469,597.898,98.453,598.191,98.421,598.501z M96.597,595.885c-0.246-0.4-0.579-0.704-1-0.912s-0.888-0.313-1.4-0.313
		c-0.736,0-1.363,0.235-1.88,0.705c-0.518,0.469-0.813,1.119-0.888,1.951h5.536C96.965,596.762,96.843,596.285,96.597,595.885z"/>
	<path d="M102.941,593.828c0.474-0.276,1.053-0.416,1.736-0.416v1.505h-0.384c-1.632,0-2.448,0.886-2.448,2.655v4.769h-1.456v-8.769
		h1.456v1.424C102.101,594.496,102.466,594.106,102.941,593.828z"/>
	<path d="M109.925,594.773h-1.84v7.567h-1.456v-7.567h-1.136v-1.201h1.136v-0.623c0-0.981,0.253-1.699,0.76-2.152
		c0.506-0.453,1.32-0.68,2.44-0.68v1.216c-0.64,0-1.091,0.126-1.352,0.376c-0.262,0.25-0.392,0.664-0.392,1.24v0.623h1.84V594.773z"
		/>
	<path d="M113.213,601.925c-0.667-0.373-1.19-0.903-1.568-1.592s-0.568-1.485-0.568-2.392c0-0.896,0.194-1.688,0.584-2.377
		c0.389-0.688,0.92-1.216,1.592-1.584c0.672-0.367,1.424-0.552,2.256-0.552s1.584,0.185,2.256,0.552
		c0.672,0.368,1.203,0.895,1.592,1.576c0.39,0.684,0.584,1.478,0.584,2.385c0,0.906-0.2,1.703-0.6,2.392
		c-0.4,0.688-0.941,1.219-1.624,1.592c-0.683,0.374-1.44,0.56-2.272,0.56C114.623,602.484,113.88,602.299,113.213,601.925z
		 M116.917,600.837c0.458-0.245,0.83-0.613,1.112-1.104c0.282-0.49,0.424-1.088,0.424-1.791c0-0.705-0.139-1.302-0.416-1.793
		c-0.277-0.49-0.64-0.855-1.088-1.096c-0.448-0.24-0.934-0.359-1.456-0.359c-0.534,0-1.021,0.119-1.464,0.359
		c-0.443,0.24-0.798,0.605-1.064,1.096c-0.267,0.491-0.4,1.088-0.4,1.793c0,0.715,0.131,1.316,0.392,1.808s0.611,0.856,1.048,1.096
		c0.437,0.24,0.917,0.36,1.44,0.36C115.968,601.205,116.458,601.082,116.917,600.837z"/>
	<path d="M124.413,593.828c0.474-0.276,1.053-0.416,1.736-0.416v1.505h-0.384c-1.632,0-2.448,0.886-2.448,2.655v4.769h-1.456v-8.769
		h1.456v1.424C123.573,594.496,123.938,594.106,124.413,593.828z"/>
	<path d="M140.197,593.837c0.533,0.282,0.955,0.706,1.264,1.272c0.31,0.564,0.464,1.253,0.464,2.063v5.168h-1.44v-4.96
		c0-0.875-0.216-1.544-0.648-2.008c-0.432-0.465-1.016-0.696-1.752-0.696c-0.757,0-1.36,0.243-1.808,0.728
		c-0.448,0.486-0.672,1.188-0.672,2.104v4.832h-1.44v-4.96c0-0.875-0.216-1.544-0.648-2.008c-0.432-0.465-1.016-0.696-1.752-0.696
		c-0.757,0-1.36,0.243-1.808,0.728c-0.448,0.486-0.672,1.188-0.672,2.104v4.832h-1.456v-8.769h1.456v1.265
		c0.288-0.458,0.674-0.811,1.16-1.056c0.485-0.246,1.021-0.369,1.608-0.369c0.736,0,1.386,0.166,1.952,0.496
		c0.565,0.332,0.986,0.816,1.264,1.457c0.246-0.619,0.65-1.1,1.216-1.44c0.565-0.341,1.194-0.513,1.888-0.513
		C139.055,593.412,139.663,593.555,140.197,593.837z"/>
	<path d="M144.308,595.564c0.363-0.677,0.861-1.202,1.496-1.576c0.634-0.373,1.341-0.56,2.12-0.56c0.768,0,1.435,0.165,2,0.496
		c0.565,0.331,0.986,0.747,1.264,1.248v-1.601h1.472v8.769h-1.472v-1.632c-0.288,0.512-0.717,0.936-1.288,1.271
		c-0.571,0.336-1.235,0.504-1.992,0.504c-0.779,0-1.483-0.191-2.112-0.576c-0.63-0.383-1.125-0.922-1.488-1.615
		s-0.544-1.482-0.544-2.368C143.764,597.029,143.946,596.242,144.308,595.564z M150.788,596.213c-0.267-0.49-0.626-0.867-1.08-1.128
		c-0.453-0.261-0.952-0.392-1.496-0.392c-0.544,0-1.04,0.127-1.488,0.383c-0.448,0.257-0.806,0.631-1.072,1.121
		c-0.267,0.49-0.4,1.066-0.4,1.728c0,0.672,0.133,1.256,0.4,1.752c0.266,0.496,0.624,0.875,1.072,1.136
		c0.448,0.262,0.944,0.393,1.488,0.393c0.544,0,1.042-0.131,1.496-0.393c0.454-0.261,0.813-0.64,1.08-1.136s0.4-1.074,0.4-1.735
		C151.188,597.279,151.055,596.703,150.788,596.213z"/>
	<path d="M161.989,594.381c0.661,0.646,0.992,1.576,0.992,2.792v5.168h-1.44v-4.96c0-0.875-0.219-1.544-0.656-2.008
		c-0.438-0.465-1.035-0.696-1.792-0.696c-0.768,0-1.379,0.24-1.832,0.72c-0.454,0.48-0.68,1.18-0.68,2.096v4.849h-1.456v-8.769
		h1.456v1.248c0.288-0.447,0.68-0.794,1.176-1.039c0.496-0.246,1.043-0.369,1.64-0.369
		C160.463,593.412,161.327,593.735,161.989,594.381z"/>
	<path d="M165.364,595.564c0.363-0.677,0.867-1.202,1.512-1.576c0.645-0.373,1.384-0.56,2.216-0.56c1.077,0,1.965,0.262,2.664,0.784
		c0.698,0.522,1.16,1.248,1.384,2.176h-1.568c-0.149-0.533-0.44-0.955-0.872-1.264c-0.432-0.31-0.968-0.465-1.608-0.465
		c-0.832,0-1.504,0.286-2.016,0.856c-0.512,0.571-0.768,1.379-0.768,2.425c0,1.055,0.256,1.871,0.768,2.447
		c0.512,0.576,1.184,0.864,2.016,0.864c0.64,0,1.173-0.149,1.6-0.448c0.426-0.299,0.72-0.725,0.88-1.279h1.568
		c-0.234,0.896-0.704,1.613-1.408,2.151s-1.584,0.808-2.64,0.808c-0.832,0-1.571-0.186-2.216-0.56
		c-0.646-0.373-1.149-0.901-1.512-1.584s-0.544-1.482-0.544-2.399C164.82,597.034,165.001,596.242,165.364,595.564z"/>
	<path d="M183.028,598.501h-7.008c0.054,0.864,0.35,1.538,0.889,2.024c0.538,0.484,1.191,0.728,1.959,0.728
		c0.63,0,1.155-0.146,1.576-0.44c0.422-0.293,0.718-0.686,0.889-1.176h1.568c-0.235,0.843-0.705,1.528-1.408,2.057
		c-0.705,0.527-1.579,0.791-2.625,0.791c-0.832,0-1.575-0.186-2.231-0.56c-0.655-0.373-1.171-0.903-1.544-1.592
		c-0.374-0.688-0.56-1.485-0.56-2.392c0-0.907,0.181-1.701,0.544-2.385c0.363-0.682,0.872-1.208,1.528-1.576
		c0.656-0.367,1.41-0.552,2.264-0.552c0.832,0,1.568,0.182,2.209,0.544c0.64,0.363,1.133,0.861,1.479,1.496s0.521,1.352,0.521,2.152
		C183.076,597.898,183.06,598.191,183.028,598.501z M181.203,595.885c-0.245-0.4-0.578-0.704-1-0.912
		c-0.421-0.208-0.887-0.313-1.399-0.313c-0.735,0-1.362,0.235-1.88,0.705c-0.518,0.469-0.813,1.119-0.889,1.951h5.537
		C181.573,596.762,181.449,596.285,181.203,595.885z"/>
	<path d="M189.268,595.564c0.363-0.677,0.867-1.202,1.513-1.576c0.646-0.373,1.384-0.56,2.216-0.56c1.077,0,1.965,0.262,2.664,0.784
		c0.698,0.522,1.16,1.248,1.384,2.176h-1.567c-0.15-0.533-0.44-0.955-0.873-1.264c-0.432-0.31-0.967-0.465-1.607-0.465
		c-0.832,0-1.504,0.286-2.016,0.856c-0.512,0.571-0.769,1.379-0.769,2.425c0,1.055,0.257,1.871,0.769,2.447s1.184,0.864,2.016,0.864
		c0.641,0,1.174-0.149,1.6-0.448c0.427-0.299,0.721-0.725,0.881-1.279h1.567c-0.234,0.896-0.704,1.613-1.407,2.151
		c-0.705,0.538-1.584,0.808-2.641,0.808c-0.832,0-1.57-0.186-2.216-0.56c-0.646-0.373-1.149-0.901-1.513-1.584
		c-0.362-0.683-0.543-1.482-0.543-2.399C188.725,597.034,188.906,596.242,189.268,595.564z"/>
	<path d="M206.932,598.501h-7.008c0.054,0.864,0.35,1.538,0.889,2.024c0.538,0.484,1.191,0.728,1.959,0.728
		c0.63,0,1.155-0.146,1.576-0.44c0.422-0.293,0.718-0.686,0.889-1.176h1.568c-0.235,0.843-0.705,1.528-1.408,2.057
		c-0.705,0.527-1.579,0.791-2.625,0.791c-0.832,0-1.575-0.186-2.231-0.56c-0.655-0.373-1.171-0.903-1.544-1.592
		s-0.561-1.485-0.561-2.392c0-0.907,0.182-1.701,0.545-2.385c0.362-0.682,0.871-1.208,1.527-1.576
		c0.656-0.367,1.41-0.552,2.264-0.552c0.832,0,1.568,0.182,2.209,0.544c0.64,0.363,1.133,0.861,1.479,1.496s0.521,1.352,0.521,2.152
		C206.981,597.898,206.964,598.191,206.932,598.501z M205.108,595.885c-0.245-0.4-0.578-0.704-1-0.912
		c-0.421-0.208-0.887-0.313-1.399-0.313c-0.735,0-1.362,0.235-1.88,0.705c-0.518,0.469-0.813,1.119-0.889,1.951h5.537
		C205.477,596.762,205.354,596.285,205.108,595.885z"/>
	<path d="M211.452,593.828c0.474-0.276,1.054-0.416,1.735-0.416v1.505h-0.383c-1.633,0-2.449,0.886-2.449,2.655v4.769h-1.455v-8.769
		h1.455v1.424C210.612,594.496,210.977,594.106,211.452,593.828z"/>
	<path d="M216.644,594.773v5.168c0,0.426,0.091,0.728,0.272,0.903c0.182,0.177,0.496,0.265,0.943,0.265h1.072v1.231h-1.313
		c-0.811,0-1.418-0.187-1.823-0.56s-0.608-0.986-0.608-1.84v-5.168h-1.136v-1.201h1.136v-2.207h1.456v2.207h2.288v1.201H216.644z"/>
	<path d="M220.74,591.861c-0.192-0.192-0.288-0.428-0.288-0.705s0.096-0.512,0.288-0.703c0.192-0.192,0.427-0.288,0.704-0.288
		c0.267,0,0.493,0.096,0.68,0.288c0.188,0.191,0.28,0.426,0.28,0.703s-0.093,0.513-0.28,0.705c-0.187,0.191-0.413,0.287-0.68,0.287
		C221.166,592.148,220.932,592.053,220.74,591.861z M222.148,593.572v8.769h-1.456v-8.769H222.148z"/>
	<path d="M228.196,594.773h-1.84v7.567H224.9v-7.567h-1.136v-1.201h1.136v-0.623c0-0.981,0.253-1.699,0.761-2.152
		c0.506-0.453,1.319-0.68,2.439-0.68v1.216c-0.641,0-1.091,0.126-1.352,0.376c-0.262,0.25-0.393,0.664-0.393,1.24v0.623h1.84
		V594.773z"/>
	<path d="M229.94,591.861c-0.192-0.192-0.288-0.428-0.288-0.705s0.096-0.512,0.288-0.703c0.191-0.192,0.426-0.288,0.703-0.288
		c0.268,0,0.494,0.096,0.681,0.288c0.187,0.191,0.28,0.426,0.28,0.703s-0.094,0.513-0.28,0.705
		c-0.187,0.191-0.413,0.287-0.681,0.287C230.365,592.148,230.131,592.053,229.94,591.861z M231.348,593.572v8.769h-1.457v-8.769
		H231.348z"/>
	<path d="M233.826,595.564c0.363-0.677,0.867-1.202,1.513-1.576c0.646-0.373,1.384-0.56,2.216-0.56c1.077,0,1.965,0.262,2.664,0.784
		c0.698,0.522,1.16,1.248,1.384,2.176h-1.567c-0.15-0.533-0.44-0.955-0.873-1.264c-0.432-0.31-0.967-0.465-1.607-0.465
		c-0.832,0-1.504,0.286-2.016,0.856c-0.512,0.571-0.769,1.379-0.769,2.425c0,1.055,0.257,1.871,0.769,2.447s1.184,0.864,2.016,0.864
		c0.641,0,1.174-0.149,1.6-0.448c0.427-0.299,0.721-0.725,0.881-1.279h1.567c-0.234,0.896-0.704,1.613-1.407,2.151
		c-0.705,0.538-1.584,0.808-2.641,0.808c-0.832,0-1.57-0.186-2.216-0.56c-0.646-0.373-1.149-0.901-1.513-1.584
		c-0.362-0.683-0.543-1.482-0.543-2.399C233.283,597.034,233.464,596.242,233.826,595.564z"/>
	<path d="M243.539,595.564c0.362-0.677,0.861-1.202,1.496-1.576c0.634-0.373,1.341-0.56,2.119-0.56c0.769,0,1.436,0.165,2,0.496
		c0.565,0.331,0.986,0.747,1.264,1.248v-1.601h1.473v8.769h-1.473v-1.632c-0.287,0.512-0.717,0.936-1.287,1.271
		s-1.234,0.504-1.992,0.504c-0.779,0-1.482-0.191-2.111-0.576c-0.631-0.383-1.126-0.922-1.488-1.615
		c-0.363-0.693-0.545-1.482-0.545-2.368C242.994,597.029,243.176,596.242,243.539,595.564z M250.019,596.213
		c-0.267-0.49-0.626-0.867-1.08-1.128c-0.453-0.261-0.952-0.392-1.495-0.392c-0.545,0-1.041,0.127-1.488,0.383
		c-0.448,0.257-0.807,0.631-1.072,1.121c-0.268,0.49-0.4,1.066-0.4,1.728c0,0.672,0.133,1.256,0.4,1.752
		c0.266,0.496,0.624,0.875,1.072,1.136c0.447,0.262,0.943,0.393,1.488,0.393c0.543,0,1.042-0.131,1.495-0.393
		c0.454-0.261,0.813-0.64,1.08-1.136s0.399-1.074,0.399-1.735C250.418,597.279,250.285,596.703,250.019,596.213z"/>
	<path d="M256.131,594.773v5.168c0,0.426,0.091,0.728,0.271,0.903c0.182,0.177,0.496,0.265,0.945,0.265h1.071v1.231h-1.312
		c-0.811,0-1.419-0.187-1.824-0.56c-0.406-0.373-0.608-0.986-0.608-1.84v-5.168h-1.136v-1.201h1.136v-2.207h1.456v2.207h2.288v1.201
		H256.131z"/>
	<path d="M260.227,591.861c-0.191-0.192-0.287-0.428-0.287-0.705s0.096-0.512,0.287-0.703c0.192-0.192,0.427-0.288,0.704-0.288
		c0.267,0,0.493,0.096,0.681,0.288c0.186,0.191,0.279,0.426,0.279,0.703s-0.094,0.513-0.279,0.705
		c-0.188,0.191-0.414,0.287-0.681,0.287C260.654,592.148,260.419,592.053,260.227,591.861z M261.635,593.572v8.769h-1.456v-8.769
		H261.635z"/>
	<path d="M265.707,601.925c-0.667-0.373-1.189-0.903-1.568-1.592s-0.568-1.485-0.568-2.392c0-0.896,0.195-1.688,0.584-2.377
		c0.39-0.688,0.92-1.216,1.592-1.584c0.673-0.367,1.425-0.552,2.257-0.552s1.584,0.185,2.256,0.552
		c0.672,0.368,1.202,0.895,1.592,1.576c0.39,0.684,0.584,1.478,0.584,2.385c0,0.906-0.2,1.703-0.6,2.392
		c-0.4,0.688-0.941,1.219-1.624,1.592c-0.684,0.374-1.439,0.56-2.271,0.56C267.117,602.484,266.373,602.299,265.707,601.925z
		 M269.41,600.837c0.459-0.245,0.83-0.613,1.113-1.104c0.281-0.49,0.424-1.088,0.424-1.791c0-0.705-0.139-1.302-0.416-1.793
		c-0.277-0.49-0.641-0.855-1.088-1.096c-0.449-0.24-0.934-0.359-1.457-0.359c-0.533,0-1.021,0.119-1.463,0.359
		c-0.443,0.24-0.799,0.605-1.064,1.096c-0.268,0.491-0.4,1.088-0.4,1.793c0,0.715,0.131,1.316,0.393,1.808
		c0.261,0.491,0.61,0.856,1.048,1.096c0.437,0.24,0.917,0.36,1.44,0.36C268.461,601.205,268.952,601.082,269.41,600.837z"/>
	<path d="M281.219,594.381c0.661,0.646,0.992,1.576,0.992,2.792v5.168h-1.44v-4.96c0-0.875-0.219-1.544-0.655-2.008
		c-0.438-0.465-1.035-0.696-1.793-0.696c-0.768,0-1.379,0.24-1.832,0.72c-0.453,0.48-0.68,1.18-0.68,2.096v4.849h-1.456v-8.769
		h1.456v1.248c0.288-0.447,0.68-0.794,1.176-1.039c0.496-0.246,1.043-0.369,1.641-0.369
		C279.694,593.412,280.557,593.735,281.219,594.381z"/>
</g>
</svg>
