<?xml version="1.0" encoding="utf-8"?>
<!-- Generator: Adobe Illustrator 16.0.3, SVG Export Plug-In . SVG Version: 6.00 Build 0)  -->
<!DOCTYPE svg PUBLIC "-//W3C//DTD SVG 1.1//EN" "http://www.w3.org/Graphics/SVG/1.1/DTD/svg11.dtd">
<svg version="1.1" id="다이어그램_1_" xmlns="http://www.w3.org/2000/svg" xmlns:xlink="http://www.w3.org/1999/xlink" x="0px"
	 y="0px" width="750.5px" height="305.5px" viewBox="0 0 750.5 305.5" enable-background="new 0 0 750.5 305.5"
	 xml:space="preserve">
<g>
	<g id="Ellipse_5">
		<g>
			<circle fill="#525252" cx="546.726" cy="85.999" r="12"/>
		</g>
	</g>
	<g id="_x31_">
		<g enable-background="new    ">
			<path fill="#FFFFFF" d="M544.677,83.136v-0.992c0.438-0.191,0.854-0.429,1.239-0.712c0.39-0.282,0.75-0.61,1.08-0.983h1.439
				v12.128h-1.375V81.952h-0.018c-0.363,0.288-0.729,0.536-1.097,0.744c-0.367,0.208-0.737,0.381-1.11,0.52
				C544.73,83.259,544.677,83.232,544.677,83.136z"/>
		</g>
	</g>
</g>
<g>
	<g id="Ellipse_5_16_">
		<g>
			<circle fill="#525252" cx="546.726" cy="207.333" r="12"/>
		</g>
	</g>
	<g id="_x32_">
		<g enable-background="new    ">
			<path fill="#FFFFFF" d="M544.181,204.102c-0.117,0.118-0.176,0.099-0.176-0.063v-1.2c0.446-0.353,0.938-0.649,1.471-0.896
				c0.533-0.247,1.158-0.368,1.873-0.368c1.162,0,2.045,0.264,2.647,0.792c0.603,0.527,0.9,1.336,0.9,2.424
				c0,0.361-0.059,0.709-0.176,1.04s-0.277,0.664-0.484,1c-0.209,0.336-0.459,0.687-0.754,1.048
				c-0.295,0.363-0.615,0.758-0.969,1.184l-3.264,3.715v0.016h5.823v1.12h-7.475v-1.2l3.729-4.191
				c0.416-0.533,0.763-0.979,1.039-1.336c0.275-0.355,0.498-0.672,0.664-0.942c0.166-0.272,0.283-0.521,0.353-0.744
				c0.069-0.226,0.104-0.47,0.104-0.735c0-0.649-0.168-1.158-0.504-1.521c-0.336-0.363-0.873-0.544-1.609-0.544
				c-0.512,0-1.034,0.119-1.567,0.359C545.281,203.294,544.738,203.645,544.181,204.102z"/>
		</g>
	</g>
</g>
<g>
	<g id="Ellipse_5_1_">
		<g>
			<circle fill="#525252" cx="546.726" cy="276" r="12"/>
		</g>
	</g>
	<g id="_x32__1_">
		<g enable-background="new    ">
			<path fill="#FFFFFF" d="M546.654,282.721c-0.715-0.012-1.397-0.123-2.057-0.336c-0.654-0.213-1.188-0.512-1.592-0.896v-1.152
				c0-0.073,0.02-0.119,0.055-0.135c0.037-0.019,0.084,0.002,0.139,0.055c0.574,0.479,1.146,0.824,1.703,1.033
				c0.562,0.207,1.154,0.312,1.783,0.312c0.354,0,0.68-0.056,0.979-0.168c0.298-0.109,0.56-0.271,0.783-0.479
				c0.226-0.209,0.398-0.451,0.525-0.729c0.129-0.276,0.192-0.586,0.192-0.93c0-1.652-0.991-2.479-2.979-2.479h-0.432v-1.137h0.19
				c0.385-0.012,0.752-0.051,1.104-0.119c0.354-0.067,0.662-0.188,0.928-0.354c0.27-0.166,0.479-0.395,0.643-0.68
				c0.16-0.289,0.24-0.662,0.24-1.121c0-0.717-0.213-1.236-0.635-1.568c-0.42-0.33-0.949-0.496-1.592-0.496
				c-0.513,0-1.039,0.104-1.584,0.307c-0.543,0.203-1.052,0.513-1.521,0.929c-0.043,0.032-0.082,0.043-0.119,0.032
				c-0.039-0.012-0.059-0.049-0.059-0.112v-1.185c0.16-0.141,0.354-0.271,0.576-0.399c0.227-0.127,0.477-0.242,0.752-0.345
				c0.276-0.104,0.578-0.186,0.903-0.247c0.324-0.064,0.664-0.097,1.017-0.097c0.533,0,1.024,0.063,1.479,0.189
				c0.453,0.129,0.84,0.322,1.162,0.584c0.32,0.264,0.57,0.588,0.752,0.979c0.181,0.39,0.271,0.84,0.271,1.353
				c0,0.373-0.054,0.719-0.16,1.032c-0.104,0.313-0.254,0.597-0.441,0.849c-0.19,0.25-0.418,0.461-0.686,0.632
				c-0.264,0.172-0.555,0.288-0.871,0.354v0.031c0.769,0.17,1.369,0.492,1.81,0.969c0.438,0.475,0.655,1.158,0.655,2.055
				c0,0.449-0.084,0.883-0.248,1.305c-0.166,0.422-0.414,0.791-0.744,1.111c-0.331,0.32-0.739,0.576-1.225,0.768
				C547.869,282.628,547.306,282.721,546.654,282.721z"/>
		</g>
	</g>
</g>
<g>
	<path fill="#4C4C4C" d="M580.223,89.028v1.344h-13.092v-1.344h5.696v-3.266h-4.241v-6.915h10.116v6.915h-4.227v3.266H580.223z
		 M570.202,84.45h6.884v-4.29h-6.884V84.45z"/>
	<path fill="#4C4C4C" d="M584.331,87.091c2.05-0.016,4.209-0.192,6.482-0.656l0.176,1.376c-2.479,0.512-4.817,0.688-7.059,0.688
		h-1.232v-9.396h1.633V87.091z M593.791,77.695v14.454h-1.648V77.695H593.791z"/>
	<path fill="#4C4C4C" d="M598.86,87.443c2.305-0.016,3.953-0.096,5.842-0.416l0.146,1.329c-2.064,0.368-3.873,0.432-6.498,0.432
		h-1.137v-9.844h6.706v1.36h-5.059v2.705h4.467v1.313h-4.467V87.443L598.86,87.443z M608.575,77.663v14.502h-1.666v-7.827h-2.768
		v-1.361h2.768v-5.314H608.575L608.575,77.663z"/>
	<path fill="#4C4C4C" d="M620.239,85.346c-2.272,0.368-4.227,0.432-6.994,0.432h-1.217v-4.273h4.961v-1.601h-4.994v-1.328h6.611
		v4.178h-4.945v1.681c2.48,0,4.289-0.08,6.388-0.433L620.239,85.346z M623.295,89.492c0,1.681-1.855,2.673-4.898,2.673
		c-3.041,0-4.881-0.993-4.881-2.673c0-1.68,1.84-2.673,4.881-2.673C621.44,86.819,623.295,87.811,623.295,89.492z M621.647,89.492
		c0-0.896-1.168-1.376-3.25-1.376c-2.064,0-3.248,0.48-3.248,1.376c0,0.88,1.184,1.361,3.248,1.361
		C620.479,90.853,621.647,90.372,621.647,89.492z M623.198,86.547h-1.647v-8.852h1.647V86.547z"/>
	<path fill="#4C4C4C" d="M642.702,89.028v1.36h-13.092v-1.36h5.697v-2.913h-4.225v-7.459h1.633v2.433h6.85v-2.433h1.633v7.459
		h-4.241v2.913H642.702z M632.717,84.786h6.85v-2.369h-6.85V84.786z"/>
	<path fill="#4C4C4C" d="M657.393,88.9v1.36h-13.063V88.9h4.867v-5.09h1.664v5.09H657.393z M654.319,80.384h-8.627V79.04h10.291
		v1.425c0,1.792,0,3.793-0.559,6.787l-1.666-0.176c0.561-2.833,0.561-4.882,0.561-6.61V80.384L654.319,80.384z"/>
	<path fill="#4C4C4C" d="M664.284,81.249c0,2.689,1.375,5.314,3.584,6.339l-0.977,1.328c-1.633-0.816-2.801-2.401-3.424-4.337
		c-0.642,2.049-1.826,3.729-3.476,4.578l-1.039-1.313c2.256-1.104,3.664-3.89,3.664-6.595v-2.385h1.666L664.284,81.249
		L664.284,81.249z M671.055,77.663v14.502h-1.664v-8.403h-3.09v-1.345h3.09v-4.754H671.055z"/>
	<path fill="#4C4C4C" d="M681.756,81.665c0,2.465,0.93,4.962,2.944,6.131l-0.961,1.2c-1.358-0.8-2.256-2.225-2.768-3.905
		c-0.515,1.825-1.441,3.377-2.834,4.257l-0.992-1.216c2.049-1.28,3.01-3.89,3.01-6.467v-1.04h-2.545v-1.361h6.529v1.361h-2.385
		L681.756,81.665L681.756,81.665z M685.213,77.967h1.553v13.478h-1.553v-7.331h-2.129v-1.345h2.129V77.967z M689.696,77.679v14.454
		h-1.567V77.679H689.696z"/>
	<path fill="#4C4C4C" d="M699.438,85.218v1.121h4.082V89.7h-8.229v1.088h8.646v1.232h-10.277v-3.458h8.244v-1.008h-8.274v-1.216
		h4.161v-1.121h-5.684v-1.232h13.047v1.232L699.438,85.218L699.438,85.218z M692.698,82.225c2.849-0.16,4.625-0.96,4.945-2.097
		h-4.258v-1.232h4.401v-1.264h1.648v1.264h4.418v1.232h-4.273c0.32,1.137,2.111,1.937,4.931,2.097l-0.449,1.232
		c-2.561-0.176-4.545-0.88-5.457-2.097c-0.912,1.216-2.865,1.92-5.428,2.097L692.698,82.225z"/>
</g>
<g>
	<path fill="#4C4C4C" d="M574.909,209.493c-1.6-0.562-2.752-1.696-3.377-3.089c-0.641,1.553-1.856,2.801-3.569,3.393l-0.849-1.297
		c2.24-0.768,3.553-2.672,3.553-4.625v-0.289h-3.057v-1.328h7.73v1.328h-3.009v0.273c0,1.791,1.232,3.601,3.394,4.354
		L574.909,209.493z M569.356,210.709h9.748v5.105h-1.648v-3.776h-8.1V210.709z M579.104,201.346v8.645h-1.648v-3.649h-2.528v-1.36
		h2.528v-3.633h1.648V201.346z"/>
	<path fill="#4C4C4C" d="M590.399,204.066h-8.531v-1.328h3.441v-1.506h1.647v1.506h3.441L590.399,204.066L590.399,204.066z
		 M586.125,209.701c-2.082,0-3.507-1.024-3.507-2.561c0-1.521,1.425-2.547,3.507-2.547c2.096,0,3.506,1.024,3.506,2.547
		C589.631,208.677,588.221,209.701,586.125,209.701z M591.502,210.389h1.633v5.252h-9.234v-5.252h1.633v1.329h5.97L591.502,210.389
		L591.502,210.389z M586.125,208.469c1.151,0,1.936-0.496,1.936-1.328c0-0.815-0.783-1.313-1.936-1.313
		c-1.153,0-1.923,0.496-1.923,1.313C584.202,207.973,584.973,208.469,586.125,208.469z M591.502,212.998h-5.97v1.329h5.97V212.998z
		 M595.184,206.324h-2.049v3.473h-1.648v-8.436h1.648v3.602h2.049V206.324z"/>
	<path fill="#4C4C4C" d="M604.272,209.301c-1.553-0.561-2.674-1.648-3.299-3.057c-0.639,1.6-1.855,2.865-3.603,3.488l-0.862-1.328
		c2.319-0.784,3.586-2.736,3.586-4.851v-1.425h1.664v1.346c0,2,1.201,3.81,3.393,4.528L604.272,209.301z M608.61,213.047
		c0,1.744-1.856,2.77-4.883,2.77c-3.01,0-4.865-1.024-4.865-2.77s1.855-2.77,4.865-2.77
		C606.752,210.277,608.61,211.302,608.61,213.047z M606.959,213.047c0-0.945-1.185-1.473-3.232-1.473s-3.217,0.527-3.217,1.473
		c0,0.943,1.168,1.473,3.217,1.473S606.959,213.99,606.959,213.047z M606.897,205.588h-2.93v-1.346h2.93v-2.896h1.648v8.531h-1.648
		V205.588z"/>
	<path fill="#4C4C4C" d="M622.319,202.227c0,3.746-2.479,6.338-6.658,7.522l-0.674-1.313c3.314-0.896,5.269-2.642,5.555-4.865
		h-4.784v-1.344H622.319L622.319,202.227z M617.45,210.133h9.412v5.508h-9.412V210.133z M619.069,214.311h6.18v-2.865h-6.18V214.311
		z M626.864,201.346v8.195h-1.647v-3.232h-2.865v-1.36h2.865v-3.603H626.864L626.864,201.346z"/>
	<path fill="#4C4C4C" d="M642.702,212.758v1.361h-13.092v-1.361h5.697v-2.721h-4.082v-7.587h9.893v1.345h-8.211v1.744h7.892v1.297
		h-7.892v1.889h8.341v1.313h-4.273v2.721L642.702,212.758L642.702,212.758z"/>
</g>
<g>
	<path fill="#4C4C4C" d="M574.446,269.227c0,3.746-2.479,6.371-6.754,7.508l-0.641-1.313c3.377-0.896,5.346-2.656,5.619-4.852
		h-4.964v-1.344H574.446L574.446,269.227z M569.18,277.135h9.236v5.506h-9.236V277.135z M570.813,281.313h5.971v-2.864h-5.971
		V281.313z M580.465,273.068h-2.049v3.44h-1.648v-8.163h1.648v3.361h2.049V273.068z"/>
	<path fill="#4C4C4C" d="M589.198,276.895v1.457h4.113v4.449h-1.648v-3.138h-8.37v-1.313h4.258v-1.455h-5.715v-1.33h13.077v1.33
		H589.198L589.198,276.895z M582.524,273.645c2.93-0.224,4.754-1.297,4.914-2.608h-4.305v-1.296h4.418v-1.426h1.647v1.426h4.402
		v1.296h-4.291c0.16,1.313,1.969,2.386,4.914,2.608l-0.512,1.248c-2.515-0.207-4.449-1.039-5.347-2.336
		c-0.896,1.297-2.834,2.129-5.348,2.336L582.524,273.645z"/>
	<path fill="#4C4C4C" d="M604.272,276.302c-1.553-0.56-2.674-1.647-3.299-3.058c-0.639,1.602-1.855,2.865-3.603,3.49l-0.862-1.33
		c2.319-0.783,3.586-2.736,3.586-4.85v-1.425h1.664v1.345c0,2.002,1.201,3.811,3.393,4.53L604.272,276.302z M608.61,280.047
		c0,1.745-1.856,2.77-4.883,2.77c-3.01,0-4.865-1.023-4.865-2.77c0-1.744,1.855-2.77,4.865-2.77
		C606.752,277.277,608.61,278.303,608.61,280.047z M606.959,280.047c0-0.943-1.185-1.473-3.232-1.473s-3.217,0.529-3.217,1.473
		c0,0.945,1.168,1.473,3.217,1.473S606.959,280.992,606.959,280.047z M606.897,272.588h-2.93v-1.344h2.93v-2.896h1.648v8.53h-1.648
		V272.588z"/>
	<path fill="#4C4C4C" d="M615.629,278.352c1.504-0.063,3.024-0.16,4.434-0.336l0.08,1.199c-2.977,0.496-6.291,0.561-8.818,0.561
		l-0.178-1.36c0.881,0,1.857-0.017,2.865-0.031v-4.354h1.617V278.352L615.629,278.352z M617.245,276.35
		c0.367-2.24,0.4-3.922,0.4-5.138h-5.729v-1.329h7.346v0.961c0,1.266,0,3.09-0.398,5.65L617.245,276.35z M624.625,275.693h-2.13
		v7.123h-1.664v-14.453h1.664v5.938h2.13V275.693z"/>
	<path fill="#4C4C4C" d="M637.6,275.982c-1.666-0.545-2.898-1.649-3.537-3.105c-0.658,1.553-1.906,2.785-3.635,3.377l-0.801-1.297
		c2.272-0.768,3.569-2.673,3.569-4.643v-1.393h1.681v1.393c0,1.905,1.297,3.683,3.521,4.387L637.6,275.982z M632.061,277.326h9.461
		v5.314h-9.461V277.326z M633.678,281.328h6.227v-2.689h-6.227V281.328z M641.522,268.379v8.195h-1.65v-8.195H641.522z"/>
	<path fill="#4C4C4C" d="M644.395,278.414c2.594,0,6.195-0.016,9.301-0.479l0.111,1.199c-3.186,0.608-6.643,0.641-9.203,0.641
		L644.395,278.414z M652.928,272.844c0,2.049-1.683,3.475-3.938,3.475c-2.258,0-3.922-1.426-3.922-3.475s1.664-3.473,3.922-3.473
		C651.245,269.371,652.928,270.795,652.928,272.844z M646.684,272.844c0,1.249,0.977,2.065,2.307,2.065
		c1.345,0,2.32-0.816,2.32-2.065c0-1.264-0.977-2.063-2.32-2.063C647.659,270.779,646.684,271.58,646.684,272.844z M656.225,268.348
		v14.484h-1.664v-14.484H656.225z"/>
</g>
<g id="탄소감축_인증센터_3_">
	<g id="Rectangle_24_1_">
		<g>
			<polygon fill="#B6E3DD" points="313.332,149.951 148.333,149.951 147.333,149.951 146.333,149.951 146.333,189.951 
				148.333,189.951 148.333,151.951 313.332,151.951 			"/>
		</g>
	</g>
	<g id="Rectangle_24_copy_1_">
		<g>
			<polygon fill="#B6E3DD" points="148.333,281.951 148.333,248.951 146.333,248.951 146.333,283.951 147.333,283.951 
				148.333,283.951 314.332,283.951 314.332,281.951 			"/>
		</g>
	</g>
	<g id="box_1_">
		<g>
			<path fill="#FFFFFF" d="M206.333,191.951h-130c-15.464,0-28,12.535-28,28c0,15.464,12.536,28,28,28h130c15.464,0,28-12.536,28-28
				C234.333,204.486,221.797,191.951,206.333,191.951z"/>
		</g>
		<g>
			<path fill="none" stroke="#09B39C" stroke-miterlimit="10" d="M206.333,191.951h-130c-15.464,0-28,12.535-28,28
				c0,15.464,12.536,28,28,28h130c15.464,0,28-12.536,28-28C234.333,204.486,221.797,191.951,206.333,191.951z"/>
		</g>
	</g>
	<g id="탄소감축_인증센터_4_">
		<g enable-background="new    ">
			<path fill="#09B39C" d="M84.845,221.506h-3.672v-8.803h7.65V214h-6.066v2.395h5.76v1.26h-5.76v2.574h2.322
				c1.02,0,2.007-0.058,2.961-0.171c0.954-0.114,1.875-0.272,2.763-0.478v1.242c-0.888,0.228-1.842,0.397-2.862,0.513
				C86.921,221.449,85.889,221.506,84.845,221.506z M93.737,228.023H83.459v-4.572h1.584v3.223h8.692L93.737,228.023L93.737,228.023
				z M95.969,217.96h-2.592v6.174h-1.548v-12.239h1.548v4.68h2.592V217.96z"/>
			<path fill="#09B39C" d="M111.809,225.97H96.527v-1.313h6.876v-4.192h1.584v4.192h6.822V225.97z M104.864,215.027
				c0.685,1.235,1.53,2.291,2.546,3.168c1.014,0.875,2.191,1.522,3.535,1.942l-1.008,1.171c-1.15-0.396-2.22-1.009-3.204-1.837
				c-0.982-0.827-1.803-1.787-2.457-2.88c-0.568,1.104-1.354,2.053-2.35,2.845s-2.094,1.403-3.294,1.837l-1.026-1.188
				c0.912-0.313,1.737-0.688,2.477-1.125c0.736-0.438,1.363-0.957,1.881-1.559c0.516-0.601,0.909-1.287,1.179-2.062
				c0.271-0.772,0.395-1.658,0.369-2.654h1.584C105.131,213.527,105.054,214.306,104.864,215.027z"/>
			<path fill="#09B39C" d="M113.699,212.632h2.628c0.84,0,1.68,0,2.52,0s1.688-0.013,2.538-0.036
				c-0.072,0.961-0.294,1.876-0.666,2.745c-0.372,0.87-0.885,1.675-1.539,2.412s-1.443,1.396-2.367,1.972
				c-0.924,0.575-1.962,1.044-3.112,1.403l-0.9-1.224c1.884-0.564,3.408-1.343,4.572-2.332s1.89-2.211,2.178-3.662
				c-0.72,0.022-1.437,0.039-2.142,0.045c-0.708,0.006-1.424,0.009-2.144,0.009H113.7L113.699,212.632L113.699,212.632z
				 M125.489,228.094H115.41v-6.154h10.078V228.094z M123.941,223.324h-6.982v3.42h6.982V223.324z M128.081,217.078h-2.594v3.924
				h-1.548v-9.09h1.548v3.779h2.594V217.078z"/>
			<path fill="#09B39C" d="M135.461,223.504v-1.979h-7.002v-1.332h15.642v1.332h-7.056v1.979h4.536v4.896h-1.548v-3.564h-9.308
				v-1.332H135.461z M130.925,213.964h5.004c0.756,0,1.509,0,2.259,0s1.539-0.013,2.367-0.036c0.132,0.014,0.225,0.075,0.279,0.189
				c0.054,0.113,0.051,0.219-0.009,0.313c-0.24,0.456-0.602,0.899-1.08,1.331c-0.48,0.434-1.044,0.835-1.692,1.206
				c0.708,0.267,1.458,0.498,2.25,0.702s1.62,0.372,2.484,0.504l-0.738,1.188c-0.924-0.156-1.845-0.379-2.763-0.666
				c-0.918-0.289-1.791-0.625-2.619-1.008c-0.974,0.455-2.004,0.836-3.098,1.144c-1.092,0.306-2.124,0.501-3.096,0.585l-0.646-1.17
				c0.898-0.086,1.777-0.229,2.637-0.434c0.856-0.203,1.665-0.443,2.421-0.721c0.756-0.275,1.44-0.578,2.052-0.908
				c0.612-0.33,1.128-0.669,1.548-1.018c-0.672,0.023-1.338,0.042-1.998,0.055c-0.658,0.012-1.318,0.018-1.979,0.018h-3.582
				L130.925,213.964L130.925,213.964z M133.049,211.695h5.832v1.313h-5.832V211.695z"/>
			<path fill="#09B39C" d="M145.303,216.809c0-0.601,0.107-1.158,0.323-1.675c0.215-0.517,0.515-0.96,0.896-1.332
				c0.385-0.371,0.833-0.662,1.349-0.873c0.515-0.209,1.078-0.313,1.688-0.313c0.61,0,1.179,0.104,1.707,0.313
				c0.527,0.211,0.982,0.502,1.365,0.873c0.383,0.372,0.683,0.815,0.896,1.332c0.217,0.517,0.323,1.074,0.323,1.675
				c0,0.588-0.106,1.135-0.323,1.639c-0.215,0.504-0.515,0.938-0.896,1.306c-0.383,0.364-0.838,0.653-1.365,0.862
				c-0.527,0.211-1.096,0.314-1.707,0.314c-0.609,0-1.174-0.104-1.688-0.314c-0.516-0.209-0.964-0.498-1.349-0.862
				c-0.383-0.366-0.683-0.802-0.896-1.306C145.41,217.943,145.303,217.396,145.303,216.809z M146.959,216.799
				c0,0.395,0.063,0.763,0.188,1.104c0.126,0.342,0.308,0.631,0.54,0.871c0.234,0.238,0.515,0.428,0.837,0.564
				c0.324,0.138,0.686,0.206,1.08,0.206c0.396,0,0.756-0.068,1.08-0.206c0.324-0.139,0.604-0.326,0.837-0.564
				c0.234-0.24,0.417-0.529,0.549-0.871c0.134-0.341,0.198-0.709,0.198-1.104c0-0.419-0.064-0.801-0.198-1.148
				c-0.132-0.347-0.313-0.646-0.549-0.896c-0.232-0.251-0.513-0.445-0.837-0.583c-0.324-0.139-0.684-0.207-1.08-0.207
				c-0.396,0-0.756,0.068-1.08,0.207c-0.322,0.138-0.603,0.332-0.837,0.583c-0.232,0.251-0.414,0.55-0.54,0.896
				C147.022,215.998,146.959,216.38,146.959,216.799z M158.767,228.023h-10.638v-5.096h1.584v3.744h9.054V228.023z M158.389,223.792
				h-1.53v-11.88h1.53V223.792z"/>
			<path fill="#09B39C" d="M176.263,219.599v1.331h-15.66v-1.331H176.263z M170.323,215.584c0.731,0.385,1.519,0.718,2.357,0.999
				c0.84,0.282,1.692,0.507,2.556,0.675l-0.792,1.225c-0.432-0.096-0.882-0.216-1.35-0.358c-0.468-0.146-0.936-0.313-1.404-0.505
				c-0.468-0.19-0.927-0.396-1.377-0.611s-0.859-0.441-1.231-0.686c-1.009,0.541-2.082,0.994-3.224,1.358
				c-1.14,0.366-2.272,0.628-3.4,0.783l-0.738-1.188c1.008-0.145,1.965-0.342,2.871-0.594c0.906-0.253,1.74-0.54,2.502-0.863
				c0.762-0.324,1.437-0.676,2.025-1.054c0.588-0.379,1.072-0.76,1.457-1.144c-1.283,0.035-2.563,0.054-3.834,0.054h-3.637v-1.276
				h5.022c0.768,0,1.539,0,2.313,0c0.774,0,1.581-0.013,2.421-0.037c0.146-0.012,0.24,0.033,0.288,0.137
				c0.048,0.103,0.042,0.207-0.018,0.314c-0.3,0.517-0.69,1.004-1.17,1.467C171.481,214.74,170.935,215.177,170.323,215.584z
				 M174.139,225.359c0,0.442-0.117,0.856-0.351,1.241c-0.234,0.384-0.585,0.714-1.055,0.989c-0.468,0.275-1.05,0.495-1.746,0.657
				c-0.694,0.161-1.5,0.243-2.41,0.243c-0.926,0-1.734-0.082-2.432-0.243c-0.694-0.162-1.276-0.382-1.746-0.657
				c-0.468-0.275-0.82-0.605-1.062-0.989c-0.24-0.385-0.36-0.799-0.36-1.241c0-0.899,0.473-1.636,1.413-2.205
				c0.942-0.569,2.337-0.854,4.187-0.854c1.848,0,3.235,0.285,4.167,0.854C173.674,223.724,174.139,224.458,174.139,225.359z
				 M172.465,225.376c0-0.228-0.063-0.45-0.189-0.666s-0.342-0.411-0.646-0.585c-0.308-0.174-0.708-0.314-1.206-0.424
				c-0.498-0.107-1.113-0.161-1.845-0.161c-0.744,0-1.365,0.054-1.863,0.161s-0.9,0.25-1.206,0.424s-0.522,0.369-0.648,0.585
				s-0.188,0.438-0.188,0.666c0,0.216,0.063,0.436,0.188,0.657c0.126,0.221,0.344,0.416,0.648,0.584s0.708,0.307,1.206,0.414
				s1.119,0.162,1.863,0.162c0.73,0,1.347-0.055,1.845-0.162s0.898-0.246,1.206-0.414c0.306-0.168,0.521-0.362,0.646-0.584
				C172.402,225.811,172.465,225.592,172.465,225.376z"/>
			<path fill="#09B39C" d="M177.847,221.613l-1.152-0.989c0.828-0.505,1.505-1.048,2.025-1.63c0.522-0.582,0.927-1.202,1.215-1.862
				c0.288-0.659,0.473-1.37,0.549-2.133c0.078-0.763,0.081-1.575,0.011-2.438h1.528c0.024,1.164-0.054,2.208-0.232,3.133
				c0.358,0.924,0.834,1.754,1.422,2.492c0.588,0.737,1.313,1.413,2.178,2.024l-1.134,1.008c-0.612-0.433-1.173-0.96-1.685-1.584
				c-0.51-0.623-0.949-1.319-1.321-2.088c-0.324,0.792-0.764,1.521-1.314,2.188C179.383,220.4,178.686,221.027,177.847,221.613z
				 M191.203,228.023h-10.62v-5.005h1.584v3.653h9.036V228.023z M183.607,215.674h2.594v-3.582h1.476v11.684H186.2v-6.822h-2.594
				V215.674z M190.933,224.134h-1.494v-12.222h1.494V224.134z"/>
			<path fill="#09B39C" d="M197.449,224.225h-3.638v-10.98h7.146v1.314h-5.6v3.475h5.202v1.313h-5.202v3.563h2.322
				c1.021,0,2.007-0.058,2.961-0.172c0.954-0.112,1.875-0.271,2.764-0.478v1.278c-0.889,0.229-1.843,0.397-2.861,0.513
				C199.525,224.167,198.493,224.225,197.449,224.225z M202.129,219.004v-1.35h2.896v-5.742h1.55v16.434h-1.55v-9.342H202.129z"/>
		</g>
	</g>
</g>
<g id="Rectangle_22_4_">
	<g>
		<rect x="306.325" y="7.469" fill="#F7966D" width="199.999" height="38"/>
	</g>
</g>
<g id="Rectangle_22_3_">
	<g>
		<rect x="50.87" y="7.469" fill="#019EBF" width="177.255" height="38"/>
	</g>
</g>
<g id="제3자_검증기관_1_">
	<g enable-background="new    ">
		<path fill="#FFFFFF" d="M89.403,20.124c-0.479,0.036-0.993,0.057-1.539,0.063c-0.547,0.007-1.09,0.011-1.629,0.011h-1.08v-1.314
			h2.018c0.637,0,1.27,0,1.896,0c0.632,0,1.308-0.012,2.025-0.036c-0.145,1.896-0.57,3.696-1.277,5.4
			c0.384,0.804,0.854,1.563,1.404,2.286c0.551,0.72,1.151,1.35,1.799,1.89l-1.223,1.044c-0.54-0.504-1.041-1.066-1.503-1.691
			c-0.462-0.623-0.867-1.289-1.215-1.998c-0.456,0.828-0.979,1.603-1.566,2.321c-0.587,0.72-1.248,1.386-1.979,1.998l-1.241-0.918
			c1.548-1.235,2.733-2.592,3.563-4.067C88.683,23.634,89.198,21.972,89.403,20.124z M93.544,17.604h1.494v15.842h-1.494v-8.91
			h-2.196v-1.314h2.196V17.604z M98.349,33.857h-1.548V17.424h1.548V33.857z"/>
		<path fill="#FFFFFF" d="M105.243,32.273c-0.806-0.012-1.574-0.138-2.313-0.377c-0.738-0.24-1.336-0.576-1.791-1.009v-1.296
			c0-0.084,0.021-0.135,0.063-0.152c0.041-0.019,0.093,0.004,0.15,0.063c0.648,0.54,1.287,0.927,1.918,1.16
			c0.63,0.234,1.299,0.352,2.007,0.352c0.396,0,0.764-0.063,1.1-0.188s0.63-0.308,0.882-0.541s0.45-0.506,0.594-0.818
			c0.146-0.313,0.217-0.66,0.217-1.044c0-1.86-1.114-2.79-3.348-2.79h-0.486v-1.277h0.218c0.433-0.013,0.847-0.058,1.24-0.136
			c0.396-0.078,0.743-0.21,1.044-0.396c0.302-0.188,0.54-0.441,0.722-0.767c0.181-0.323,0.271-0.743,0.271-1.26
			c0-0.804-0.236-1.392-0.711-1.765c-0.475-0.371-1.07-0.559-1.791-0.559c-0.576,0-1.17,0.114-1.782,0.342
			c-0.61,0.229-1.183,0.576-1.71,1.045c-0.049,0.035-0.094,0.049-0.135,0.035c-0.043-0.012-0.063-0.054-0.063-0.125v-1.332
			c0.181-0.156,0.396-0.307,0.646-0.449c0.252-0.146,0.534-0.273,0.848-0.389c0.313-0.113,0.65-0.207,1.018-0.277
			c0.366-0.072,0.747-0.108,1.143-0.108c0.603,0,1.155,0.071,1.666,0.216s0.945,0.363,1.311,0.657
			c0.359,0.294,0.644,0.66,0.846,1.098c0.201,0.438,0.303,0.945,0.303,1.521c0,0.42-0.061,0.807-0.18,1.161
			c-0.119,0.354-0.285,0.672-0.5,0.953s-0.471,0.52-0.769,0.711c-0.3,0.191-0.626,0.324-0.981,0.396v0.036
			c0.863,0.192,1.541,0.556,2.033,1.089c0.491,0.534,0.737,1.307,0.737,2.313c0,0.504-0.095,0.994-0.278,1.468
			c-0.187,0.474-0.465,0.891-0.837,1.251c-0.372,0.359-0.831,0.646-1.377,0.863C106.614,32.166,105.976,32.273,105.243,32.273z"/>
		<path fill="#FFFFFF" d="M117.393,24.498c0.518,0.792,1.116,1.564,1.8,2.322c0.687,0.756,1.43,1.422,2.232,1.996l-1.152,1.116
			c-0.72-0.552-1.383-1.176-1.987-1.872c-0.605-0.695-1.175-1.438-1.7-2.23c-0.66,0.972-1.404,1.854-2.232,2.646
			s-1.71,1.458-2.646,1.998l-1.1-1.044c0.961-0.516,1.83-1.158,2.61-1.926s1.455-1.578,2.023-2.43
			c0.569-0.854,1.025-1.711,1.368-2.574c0.343-0.864,0.55-1.656,0.621-2.376c-0.685,0.024-1.354,0.038-2.008,0.045
			c-0.654,0.006-1.315,0.009-1.988,0.009h-1.69v-1.313h2.718c0.768,0,1.548,0,2.34,0s1.614-0.013,2.467-0.037
			c-0.036,0.973-0.197,1.936-0.484,2.89C118.294,22.671,117.898,23.598,117.393,24.498z M126.592,25.128h-2.826v8.729h-1.548V17.424
			h1.548v6.318h2.826V25.128z"/>
		<path fill="#FFFFFF" d="M132.459,18.144h2.629c0.84,0,1.674,0,2.502,0s1.668-0.012,2.52-0.036
			c-0.07,0.961-0.294,1.877-0.666,2.745c-0.371,0.87-0.882,1.675-1.527,2.412c-0.648,0.738-1.434,1.396-2.352,1.972
			s-1.953,1.045-3.104,1.403l-0.899-1.224c1.884-0.564,3.401-1.342,4.555-2.331c1.152-0.99,1.872-2.211,2.159-3.663
			c-0.72,0.023-1.428,0.039-2.123,0.045s-1.402,0.009-2.125,0.009h-1.564v-1.332H132.459z M144.718,33.605h-10.261v-6.029h10.261
			V33.605z M143.17,28.926h-7.164v3.348h7.164V28.926z M139.857,23.382v-1.351h3.313v-4.607h1.548v9.216h-1.548v-3.258H139.857z"/>
		<path fill="#FFFFFF" d="M162.573,25.111v1.33h-15.658v-1.33H162.573z M156.634,21.096c0.729,0.385,1.519,0.719,2.357,0.999
			c0.841,0.282,1.69,0.507,2.557,0.675l-0.792,1.225c-0.434-0.096-0.882-0.215-1.352-0.359c-0.469-0.145-0.937-0.313-1.402-0.504
			c-0.469-0.191-0.928-0.396-1.377-0.612c-0.45-0.216-0.861-0.442-1.233-0.684c-1.008,0.54-2.082,0.993-3.222,1.358
			c-1.143,0.365-2.274,0.627-3.402,0.782l-0.738-1.188c1.01-0.145,1.967-0.342,2.871-0.594c0.906-0.252,1.74-0.539,2.502-0.863
			c0.764-0.324,1.438-0.676,2.025-1.053c0.588-0.379,1.074-0.761,1.458-1.145c-1.284,0.036-2.562,0.054-3.834,0.054h-3.636V17.91
			h5.021c0.77,0,1.539,0,2.313,0c0.772,0,1.581-0.012,2.421-0.036c0.145-0.013,0.24,0.032,0.288,0.135s0.042,0.207-0.021,0.315
			c-0.3,0.516-0.688,1.004-1.17,1.467C157.789,20.253,157.246,20.689,156.634,21.096z M160.448,30.869
			c0,0.443-0.114,0.857-0.351,1.242c-0.233,0.385-0.585,0.713-1.053,0.989c-0.469,0.276-1.051,0.495-1.746,0.657
			c-0.696,0.162-1.5,0.243-2.412,0.243c-0.924,0-1.733-0.081-2.43-0.243c-0.697-0.162-1.278-0.381-1.746-0.657
			s-0.822-0.604-1.063-0.989c-0.239-0.385-0.358-0.799-0.358-1.242c0-0.899,0.471-1.635,1.413-2.204
			c0.939-0.57,2.336-0.855,4.185-0.855s3.237,0.285,4.167,0.855C159.983,29.234,160.448,29.97,160.448,30.869z M158.775,30.888
			c0-0.228-0.063-0.45-0.188-0.666s-0.344-0.411-0.647-0.585c-0.307-0.174-0.709-0.314-1.207-0.423s-1.111-0.162-1.845-0.162
			c-0.744,0-1.365,0.054-1.862,0.162c-0.498,0.108-0.898,0.249-1.207,0.423c-0.306,0.174-0.521,0.369-0.646,0.585
			c-0.126,0.216-0.188,0.438-0.188,0.666c0,0.216,0.063,0.437,0.188,0.657s0.342,0.417,0.646,0.585
			c0.309,0.168,0.709,0.306,1.207,0.414c0.497,0.108,1.118,0.162,1.862,0.162c0.731,0,1.347-0.054,1.845-0.162
			s0.9-0.246,1.207-0.414s0.521-0.363,0.647-0.585C158.714,31.322,158.775,31.104,158.775,30.888z"/>
		<path fill="#FFFFFF" d="M163.437,29.195c1.058-0.527,1.988-1.127,2.799-1.801c0.813-0.672,1.497-1.396,2.063-2.178
			c0.563-0.78,1.018-1.6,1.357-2.457c0.344-0.857,0.573-1.736,0.693-2.637c-0.731,0.023-1.458,0.039-2.178,0.045
			c-0.722,0.006-1.44,0.009-2.16,0.009h-1.908v-1.332h2.88c0.84,0,1.683,0,2.521,0s1.686-0.012,2.537-0.036
			c-0.168,2.473-0.861,4.684-2.078,6.633c-1.22,1.95-3.045,3.58-5.481,4.889L163.437,29.195z M175.28,17.424h1.551v16.434h-1.551
			V17.424z"/>
		<path fill="#FFFFFF" d="M184.3,22.14v3.582c0.995-0.034,1.998-0.083,3.006-0.146c1.008-0.063,1.908-0.146,2.7-0.25v1.277
			c-0.576,0.084-1.209,0.156-1.899,0.217c-0.688,0.061-1.396,0.11-2.124,0.152c-0.727,0.042-1.45,0.075-2.178,0.1
			c-0.727,0.023-1.407,0.035-2.043,0.035h-2.664v-1.332h3.618V22.14H184.3z M188.548,18.27c-0.014,0.469-0.033,0.967-0.063,1.494
			c-0.027,0.528-0.066,1.061-0.116,1.594c-0.049,0.533-0.106,1.057-0.181,1.565s-0.149,0.976-0.233,1.396h-1.513
			c0.156-0.757,0.282-1.539,0.379-2.35c0.098-0.811,0.155-1.604,0.182-2.385h-6.589V18.27H188.548z M192.597,33.533h-10.729v-4.625
			h1.584v3.274h9.145V33.533z M190.778,30.006V17.424h1.551v5.598h2.375v1.387h-2.375v5.599L190.778,30.006L190.778,30.006z"/>
	</g>
</g>
<g id="Rectangle_22_2_">
	<g>
		<rect x="307.493" y="132.967" fill="#09B39C" width="199.999" height="38.001"/>
	</g>
</g>
<g id="인증센터_사무국_1_">
	<g enable-background="new    ">
		<path fill="#FFFFFF" d="M384.438,156.762l-1.116-0.99c0.731-0.527,1.41-1.134,2.034-1.816c0.624-0.686,1.152-1.469,1.584-2.35
			c0.433-0.883,0.753-1.875,0.963-2.979c0.209-1.104,0.269-2.334,0.171-3.69h1.64c0.022,0.792,0,1.542-0.072,2.25
			s-0.174,1.387-0.306,2.034c0.432,1.235,1.044,2.367,1.836,3.394c0.792,1.025,1.732,1.904,2.825,2.638l-1.009,1.151
			c-0.898-0.638-1.708-1.391-2.421-2.261s-1.322-1.851-1.827-2.942c-0.456,1.177-1.047,2.224-1.771,3.142
			C386.24,155.259,385.398,156.066,384.438,156.762z M399.558,151.775h-2.826v8.586h-1.548V143.91h1.548v6.479h2.826V151.775z"/>
		<path fill="#FFFFFF" d="M399.972,154.674v-1.314h15.3v1.314h-6.695v5.598h-1.584v-5.598H399.972z M402.511,151.29v-6.786h10.439
			v6.786H402.511z M411.403,145.854h-7.344v4.122h7.344V145.854z"/>
		<path fill="#FFFFFF" d="M418.205,144.396h10.729c-0.023,1.115-0.079,2.156-0.164,3.122c-0.084,0.968-0.175,1.827-0.271,2.583
			h3.027v1.332h-7.002v3.33h4.446v5.652h-1.548v-4.338h-9.308v-1.314h4.824v-3.33h-7.092v-1.332h11.124
			c0.096-0.744,0.18-1.467,0.252-2.169s0.114-1.431,0.126-2.187h-9.145L418.205,144.396L418.205,144.396z"/>
	</g>
</g>
<g id="탄소감축_인증위원회_3_">
	<g id="Rectangle_22_1_">
		<g>
			<rect x="308.738" y="259.968" fill="#09B39C" width="199.999" height="37.999"/>
		</g>
	</g>
	<g id="탄소감축_인증위원회_4_">
		<g enable-background="new    ">
			<path fill="#FFFFFF" d="M369.858,275.824c0-0.603,0.106-1.158,0.323-1.676c0.215-0.517,0.515-0.959,0.896-1.332
				c0.384-0.371,0.833-0.662,1.349-0.873c0.515-0.209,1.077-0.313,1.688-0.313s1.18,0.104,1.707,0.313
				c0.527,0.211,0.982,0.502,1.365,0.873c0.383,0.373,0.683,0.815,0.897,1.332c0.215,0.518,0.322,1.073,0.322,1.676
				c0,0.588-0.107,1.134-0.322,1.638c-0.216,0.504-0.516,0.938-0.897,1.305c-0.382,0.367-0.838,0.654-1.365,0.864
				c-0.526,0.21-1.096,0.314-1.707,0.314c-0.61,0-1.174-0.104-1.688-0.314c-0.516-0.21-0.965-0.498-1.349-0.864
				c-0.383-0.366-0.683-0.801-0.896-1.305S369.858,276.412,369.858,275.824z M371.514,275.814c0,0.396,0.063,0.764,0.188,1.104
				c0.125,0.34,0.308,0.631,0.54,0.87c0.234,0.238,0.514,0.428,0.838,0.563c0.323,0.14,0.685,0.206,1.079,0.206
				c0.396,0,0.757-0.066,1.08-0.206c0.324-0.138,0.604-0.325,0.837-0.563c0.234-0.239,0.417-0.529,0.55-0.87
				s0.197-0.709,0.197-1.104c0-0.419-0.064-0.801-0.197-1.146c-0.133-0.348-0.314-0.646-0.55-0.896
				c-0.232-0.251-0.513-0.443-0.837-0.582c-0.323-0.139-0.684-0.207-1.08-0.207c-0.396,0-0.756,0.068-1.079,0.207
				c-0.324,0.139-0.604,0.331-0.838,0.582c-0.232,0.252-0.414,0.551-0.54,0.896S371.514,275.396,371.514,275.814z M383.322,287.038
				h-10.638v-5.095h1.584v3.742h9.054V287.038z M382.944,282.808h-1.529v-11.88h1.529V282.808z"/>
			<path fill="#FFFFFF" d="M400.818,278.613v1.332h-15.66v-1.332H400.818z M394.877,274.6c0.731,0.385,1.519,0.719,2.357,0.999
				c0.84,0.282,1.692,0.507,2.557,0.675l-0.792,1.227c-0.433-0.098-0.883-0.217-1.351-0.36s-0.937-0.313-1.404-0.504
				s-0.927-0.396-1.377-0.61c-0.449-0.218-0.859-0.443-1.231-0.686c-1.009,0.54-2.082,0.993-3.223,1.357
				c-1.141,0.365-2.273,0.627-3.401,0.783l-0.738-1.188c1.008-0.146,1.965-0.344,2.871-0.596s1.74-0.539,2.502-0.862
				c0.762-0.324,1.438-0.677,2.024-1.054c0.589-0.379,1.073-0.76,1.458-1.145c-1.283,0.036-2.563,0.055-3.834,0.055h-3.637v-1.276
				h5.022c0.768,0,1.539,0,2.313,0c0.774,0,1.581-0.013,2.422-0.036c0.145-0.014,0.239,0.031,0.287,0.135
				c0.049,0.104,0.042,0.207-0.018,0.314c-0.3,0.517-0.69,1.006-1.17,1.468C396.035,273.757,395.49,274.193,394.877,274.6z
				 M398.694,284.374c0,0.442-0.117,0.856-0.351,1.241c-0.234,0.385-0.585,0.713-1.054,0.99c-0.469,0.274-1.051,0.493-1.746,0.655
				s-1.5,0.243-2.411,0.243c-0.925,0-1.734-0.081-2.432-0.243c-0.695-0.162-1.277-0.381-1.745-0.655
				c-0.469-0.277-0.821-0.605-1.063-0.99s-0.36-0.799-0.36-1.241c0-0.9,0.472-1.636,1.413-2.205c0.942-0.57,2.337-0.854,4.187-0.854
				c1.848,0,3.235,0.284,4.167,0.854C398.229,282.738,398.694,283.474,398.694,284.374z M397.02,284.392
				c0-0.228-0.063-0.45-0.188-0.666s-0.343-0.411-0.647-0.585c-0.306-0.174-0.708-0.314-1.206-0.423s-1.113-0.162-1.845-0.162
				c-0.744,0-1.365,0.054-1.863,0.162s-0.9,0.249-1.206,0.423s-0.521,0.369-0.647,0.585s-0.188,0.438-0.188,0.666
				c0,0.216,0.063,0.437,0.188,0.657c0.126,0.22,0.343,0.417,0.647,0.585s0.708,0.306,1.206,0.414s1.119,0.162,1.863,0.162
				c0.73,0,1.347-0.054,1.845-0.162s0.899-0.246,1.206-0.414c0.306-0.168,0.521-0.363,0.647-0.585
				C396.956,284.826,397.02,284.607,397.02,284.392z"/>
			<path fill="#FFFFFF" d="M408.089,287.002h-1.584v-5.346c-0.287,0.012-0.569,0.018-0.847,0.018c-0.274,0-0.546,0-0.81,0h-3.187
				v-1.35h3.168c0.601,0,1.261-0.01,1.979-0.027c0.72-0.02,1.449-0.045,2.188-0.081c0.737-0.036,1.458-0.084,2.159-0.146
				c0.702-0.061,1.342-0.125,1.917-0.196v1.296c-0.708,0.096-1.49,0.18-2.349,0.252c-0.859,0.072-1.737,0.132-2.638,0.18v5.4
				H408.089z M411.24,275.193c0,0.506-0.099,0.975-0.297,1.404c-0.198,0.432-0.477,0.805-0.837,1.116
				c-0.36,0.313-0.798,0.558-1.313,0.737c-0.517,0.181-1.099,0.271-1.746,0.271s-1.229-0.09-1.745-0.271
				c-0.518-0.182-0.954-0.426-1.314-0.737c-0.359-0.312-0.639-0.685-0.837-1.116c-0.198-0.431-0.297-0.898-0.297-1.404
				c0-0.504,0.099-0.972,0.297-1.401c0.198-0.435,0.478-0.806,0.837-1.116c0.36-0.313,0.798-0.559,1.314-0.738
				c0.516-0.18,1.098-0.27,1.745-0.27s1.229,0.09,1.746,0.27c0.517,0.182,0.953,0.428,1.313,0.738
				c0.36,0.313,0.639,0.686,0.837,1.116C411.141,274.222,411.24,274.689,411.24,275.193z M409.709,275.193
				c0-0.646-0.236-1.179-0.711-1.593s-1.125-0.62-1.953-0.62c-0.827,0-1.479,0.206-1.952,0.62c-0.476,0.414-0.711,0.945-0.711,1.593
				c0,0.66,0.235,1.194,0.711,1.604c0.474,0.408,1.125,0.61,1.952,0.61c0.828,0,1.479-0.202,1.953-0.61
				C409.473,276.389,409.709,275.854,409.709,275.193z M415.505,287.361h-1.548v-16.434h1.548V287.361z"/>
			<path fill="#FFFFFF" d="M417.827,278.65h2.972c0.6,0,1.262-0.01,1.984-0.025c0.726-0.02,1.457-0.047,2.196-0.081
				c0.739-0.036,1.46-0.084,2.162-0.146c0.702-0.061,1.341-0.127,1.917-0.197v1.261c-0.685,0.096-1.432,0.177-2.241,0.243
				c-0.81,0.064-1.641,0.121-2.493,0.171v3.651h-1.584v-3.6c-0.336,0.023-0.663,0.036-0.979,0.036c-0.318,0-0.634,0-0.945,0h-2.988
				V278.65L417.827,278.65z M427.638,274.365c0,0.469-0.1,0.898-0.296,1.297c-0.197,0.396-0.477,0.736-0.833,1.023
				c-0.358,0.288-0.796,0.516-1.311,0.676c-0.514,0.162-1.093,0.242-1.737,0.242c-0.646,0-1.226-0.08-1.738-0.242
				c-0.515-0.16-0.95-0.388-1.31-0.676c-0.358-0.287-0.637-0.63-0.833-1.023c-0.196-0.396-0.297-0.828-0.297-1.297
				s0.101-0.899,0.297-1.297c0.196-0.396,0.476-0.736,0.833-1.024s0.795-0.513,1.31-0.675c0.514-0.162,1.093-0.243,1.738-0.243
				s1.226,0.081,1.737,0.243c0.514,0.162,0.95,0.387,1.311,0.675c0.356,0.288,0.636,0.63,0.833,1.024
				C427.538,273.466,427.638,273.898,427.638,274.365z M431.831,287.038h-11.431v-4.23h1.53v2.898h9.899L431.831,287.038
				L431.831,287.038z M426.054,274.348c0-0.216-0.045-0.439-0.136-0.675c-0.091-0.233-0.236-0.447-0.44-0.64
				c-0.204-0.191-0.471-0.35-0.801-0.469s-0.735-0.181-1.216-0.181c-0.479,0-0.886,0.062-1.215,0.181
				c-0.33,0.119-0.598,0.275-0.802,0.469c-0.204,0.19-0.351,0.403-0.44,0.64c-0.09,0.233-0.135,0.459-0.135,0.675
				c0,0.217,0.045,0.441,0.135,0.676c0.091,0.233,0.236,0.443,0.44,0.629c0.204,0.188,0.472,0.345,0.802,0.471
				c0.329,0.126,0.734,0.188,1.215,0.188c0.479,0,0.886-0.063,1.216-0.188s0.597-0.282,0.801-0.471
				c0.204-0.186,0.351-0.396,0.44-0.629C426.009,274.789,426.054,274.564,426.054,274.348z M430.014,284.158v-1.998h-3.763v-1.314
				h3.763v-9.918h1.548v13.23H430.014z"/>
			<path fill="#FFFFFF" d="M443.442,278.596c0,0.732-0.266,1.359-0.796,1.881c-0.531,0.522-1.322,0.844-2.372,0.963v1.729
				c0.888-0.036,1.765-0.084,2.628-0.146c0.864-0.061,1.645-0.139,2.34-0.232v1.277c-0.575,0.084-1.209,0.154-1.897,0.217
				c-0.69,0.06-1.398,0.109-2.125,0.152c-0.729,0.041-1.453,0.073-2.179,0.1c-0.727,0.023-1.405,0.035-2.042,0.035h-3.223v-1.332
				h3.204c0.264,0,0.537,0,0.819,0c0.281,0,0.578-0.006,0.891-0.02v-1.781c-1.092-0.106-1.908-0.424-2.448-0.943
				c-0.54-0.522-0.81-1.155-0.81-1.899c0-0.407,0.083-0.786,0.252-1.134c0.168-0.348,0.42-0.65,0.756-0.909
				c0.336-0.258,0.753-0.459,1.251-0.603c0.498-0.146,1.083-0.217,1.755-0.217c0.66,0,1.239,0.07,1.737,0.217
				c0.498,0.144,0.915,0.345,1.251,0.603c0.335,0.259,0.588,0.562,0.756,0.909C443.358,277.81,443.442,278.188,443.442,278.596z
				 M434.369,274.978v-1.276h10.009v1.276H434.369z M436.566,272.71v-1.313h5.563v1.313H436.566z M441.858,278.596
				c0-0.216-0.045-0.426-0.134-0.63s-0.232-0.384-0.43-0.54c-0.196-0.156-0.445-0.282-0.75-0.378c-0.305-0.097-0.67-0.146-1.1-0.146
				c-0.429,0-0.798,0.049-1.107,0.146c-0.311,0.096-0.563,0.222-0.76,0.378c-0.194,0.156-0.339,0.336-0.429,0.54
				s-0.134,0.414-0.134,0.63s0.044,0.426,0.134,0.63s0.231,0.386,0.429,0.54c0.196,0.156,0.45,0.282,0.76,0.378
				c0.311,0.097,0.68,0.146,1.107,0.146c0.43,0,0.795-0.05,1.1-0.146c0.305-0.096,0.555-0.222,0.75-0.378
				c0.196-0.154,0.34-0.336,0.43-0.54S441.858,278.812,441.858,278.596z M447.617,287.361h-1.548v-16.434h1.548V287.361z"/>
		</g>
	</g>
</g>
<g id="Shape_4_5_">
	<g>
		<polygon fill="#9D9D9D" points="408.99,117.716 408.867,47.959 407.228,47.959 406.99,117.716 402.99,117.716 407.99,124.974 
			412.995,117.66 		"/>
	</g>
</g>
<g id="양쪽화살_copy_1_">
	<g>
		<polygon fill="#9D9D9D" points="408.932,207.193 408.99,184.208 412.995,184.264 407.99,176.951 402.99,184.208 406.99,184.208 
			407.102,207.193 406.99,243.709 402.99,243.709 407.99,250.966 412.995,243.652 408.99,243.709 		"/>
	</g>
</g>
<g id="Shape_4_4_">
	<g>
		<polygon fill="#5E5E5E" points="244.973,13.293 237.66,18.298 244.919,23.299 244.919,19.299 297.675,19.062 297.675,17.421 
			244.919,17.299 		"/>
	</g>
</g>
<g id="Shape_4_3_">
	<g>
		<polygon fill="#9D9D9D" points="290.416,36.805 237.66,36.927 237.66,38.568 290.416,38.805 290.416,42.805 297.675,37.804 
			290.36,32.799 		"/>
	</g>
</g>
<g>
	<path fill="#FFFFFF" d="M376.354,18.759c0,4.104-2.845,7.004-7.598,8.3l-0.576-1.17c3.942-1.063,6.302-3.188,6.59-5.924h-5.87
		v-1.206H376.354z M370.556,27.652h10.174v5.996h-10.174V27.652z M372.015,32.461h7.256v-3.619h-7.256V32.461z M383.123,22.9h-2.395
		v3.996h-1.477v-9.183h1.477v3.961h2.395V22.9z"/>
	<path fill="#FFFFFF" d="M392.806,27.041v1.854h4.753v4.934h-1.478v-3.762h-9.703v-1.17h4.95v-1.854h-6.571v-1.188h14.603v1.188
		L392.806,27.041L392.806,27.041z M385.64,23.836c3.043-0.307,5.491-1.549,5.617-3.35h-4.987v-1.17h5.06v-1.674h1.478v1.674h5.06
		v1.17h-5.006c0.126,1.801,2.575,3.043,5.636,3.35l-0.468,1.117c-2.646-0.271-4.988-1.243-5.96-2.863
		c-0.973,1.62-3.331,2.593-5.978,2.863L385.64,23.836z"/>
	<path fill="#FFFFFF" d="M406.738,22.035c0,2.845,1.836,5.779,4.105,6.914l-0.919,1.17c-1.71-0.918-3.169-2.81-3.907-5.023
		c-0.702,2.357-2.196,4.375-4.015,5.348l-0.884-1.188c2.323-1.188,4.159-4.285,4.159-7.221v-2.898h1.459L406.738,22.035
		L406.738,22.035z M416.406,25.51h-2.665v8.373h-1.477V17.75h1.477v6.535h2.665V25.51z"/>
	<path fill="#FFFFFF" d="M431.183,17.75v8.66h-1.494v-3.618h-3.276c-0.287,1.907-1.908,3.169-4.124,3.169
		c-2.411,0-4.158-1.514-4.158-3.745c0-2.215,1.747-3.728,4.158-3.728c2.18,0,3.801,1.225,4.105,3.098h3.295v-3.835L431.183,17.75
		L431.183,17.75z M425.043,22.216c0-1.478-1.152-2.503-2.756-2.503c-1.603,0-2.755,1.025-2.755,2.503s1.152,2.521,2.755,2.521
		C423.891,24.736,425.043,23.691,425.043,22.216z M429.706,27.185h1.477v6.482h-10.335v-6.482h1.459v2.054h7.4L429.706,27.185
		L429.706,27.185z M429.706,30.39h-7.399v2.088h7.399V30.39z"/>
	<path fill="#FFFFFF" d="M439.873,22.666c0,2.574,1.838,5.438,4.179,6.535l-0.848,1.188c-1.8-0.899-3.313-2.791-4.051-4.952
		c-0.737,2.359-2.305,4.412-4.123,5.348l-0.863-1.17c2.305-1.151,4.249-4.213,4.249-6.949v-2.053h-3.691v-1.226h8.731v1.226h-3.583
		V22.666z M449.526,25.492h-2.665v8.391h-1.477V17.75h1.477v6.5h2.665V25.492z"/>
</g>
</svg>
