<?xml version="1.0" encoding="utf-8"?>
<!-- Generator: Adobe Illustrator 16.0.0, SVG Export Plug-In . SVG Version: 6.00 Build 0)  -->
<!DOCTYPE svg PUBLIC "-//W3C//DTD SVG 1.1//EN" "http://www.w3.org/Graphics/SVG/1.1/DTD/svg11.dtd">
<svg version="1.1" id="Layer_1" xmlns="http://www.w3.org/2000/svg" xmlns:xlink="http://www.w3.org/1999/xlink" x="0px" y="0px"
	 width="36px" height="36px" viewBox="0 0 36 36" enable-background="new 0 0 36 36" xml:space="preserve">
<path fill="none" stroke="#B0B7B9" stroke-width="2" stroke-linecap="round" stroke-linejoin="round" stroke-miterlimit="10" d="
	M3.675,7.104h4.377c0.686,0,1.242-0.557,1.242-1.243V1.493"/>
<path fill="none" stroke="#B0B7B9" stroke-width="2" stroke-linecap="round" stroke-linejoin="round" stroke-miterlimit="10" d="
	M24.972,33.364H5.678c-1.107,0-2.004-0.896-2.004-2.004V7.219c0-0.075,0.029-0.145,0.082-0.198l5.446-5.445
	C9.255,1.523,9.326,1.493,9.4,1.493h16.71c1.107,0,2.003,0.897,2.003,2.003v21.459"/>
<circle fill="none" stroke="#B0B7B9" stroke-width="2" stroke-linecap="round" stroke-linejoin="round" stroke-miterlimit="10" cx="16.602" cy="18.564" r="8.366"/>
<line fill="none" stroke="#B0B7B9" stroke-width="2" stroke-linecap="round" stroke-linejoin="round" stroke-miterlimit="10" x1="24.28" y1="26.243" x2="22.516" y2="24.479"/>
<path fill="none" stroke="#B0B7B9" stroke-width="2" stroke-linecap="round" stroke-linejoin="round" stroke-miterlimit="10" d="
	M30.899,30.102l-2.687-2.687c-0.81-0.812-1.873-1.319-3.01-1.442l-0.096-0.012c-0.646-0.071-1.191,0.465-1.136,1.11l0.026,0.322
	c0.081,0.938,0.49,1.819,1.158,2.487l3.043,3.039c0.807,0.809,2.145,0.762,2.888-0.141C31.736,31.992,31.62,30.821,30.899,30.102z"
	/>
<g>
	
		<polyline fill="none" stroke="#019EBF" stroke-width="2" stroke-linecap="round" stroke-linejoin="round" stroke-miterlimit="10" points="
		14.946,18.784 16.291,20.13 18.491,17.929 	"/>
	<path fill="none" stroke="#019EBF" stroke-width="2" stroke-linecap="round" stroke-linejoin="round" stroke-miterlimit="10" d="
		M16.602,14.162c0,0-2.078,1.611-3.811,1.611v4.084c0,0.852,0.348,1.616,0.93,2.046c0.608,0.449,2.424,1.645,2.501,1.698l0.38,0.251
		l0.381-0.251c0.077-0.054,1.893-1.249,2.501-1.698c0.581-0.43,0.93-1.194,0.93-2.046v-4.084
		C18.68,15.773,16.602,14.162,16.602,14.162z"/>
</g>
</svg>
