<?xml version="1.0" encoding="utf-8"?>
<!-- Generator: Adobe Illustrator 16.0.3, SVG Export Plug-In . SVG Version: 6.00 Build 0)  -->
<!DOCTYPE svg PUBLIC "-//W3C//DTD SVG 1.1//EN" "http://www.w3.org/Graphics/SVG/1.1/DTD/svg11.dtd">
<svg version="1.1" id="Layer_1" xmlns="http://www.w3.org/2000/svg" xmlns:xlink="http://www.w3.org/1999/xlink" x="0px" y="0px"
	 width="720px" height="350px" viewBox="0 0 720 350" enable-background="new 0 0 720 350" xml:space="preserve">
<path fill="#019EBF" d="M399.396,178.85l1.924-3.85l-1.924-3.849c-0.033-0.069-0.068-0.136-0.104-0.204l-20.629-41.259
	c-2.216-4.434-7.604-6.231-12.04-4.014c-4.433,2.217-6.229,7.607-4.013,12.041l14.153,28.31h-52.526
	c-5.51,0-10.769,2.065-14.807,5.816c-4.016,3.728-6.475,8.793-6.923,14.267c-0.561,6.787-1.646,13.558-3.233,20.109
	c-1.662,6.855-3.9,13.639-6.666,20.163c-6.646,15.714-16.174,29.845-28.318,41.993c-12.152,12.148-26.28,21.678-41.996,28.325
	c-16.236,6.868-33.523,10.352-51.38,10.352c-17.858,0-35.146-3.481-51.384-10.352c-15.714-6.647-29.843-16.177-41.989-28.324
	c-12.149-12.149-21.681-26.28-28.325-41.995c-6.869-16.236-10.354-33.521-10.354-51.38c0-17.857,3.483-35.144,10.354-51.381
	c6.646-15.715,16.176-29.844,28.323-41.993c12.148-12.148,26.277-21.678,41.994-28.325c16.234-6.869,33.521-10.352,51.382-10.352
	c17.854,0,35.144,3.483,51.381,10.353c15.715,6.646,29.843,16.176,41.993,28.323c12.146,12.151,21.678,26.28,28.322,41.996
	c2.763,6.523,5.002,13.306,6.664,20.161c1.168,4.817,6.021,7.774,10.838,6.604c4.815-1.167,7.773-6.019,6.604-10.836
	c-1.893-7.796-4.438-15.509-7.576-22.925c-7.551-17.853-18.371-33.899-32.164-47.694c-13.794-13.791-29.839-24.611-47.69-32.162
	C210.827,28.961,191.187,25,170.914,25c-20.273,0-39.913,3.961-58.373,11.771c-17.854,7.551-33.899,18.372-47.694,32.164
	c-13.79,13.793-24.611,29.839-32.162,47.691c-7.81,18.461-11.771,38.101-11.771,58.374c0,20.273,3.96,39.912,11.771,58.372
	c7.551,17.854,18.373,33.899,32.164,47.694c13.793,13.789,29.84,24.608,47.692,32.162c18.461,7.811,38.1,11.771,58.374,11.771
	c20.271,0,39.913-3.961,58.373-11.771c17.854-7.554,33.896-18.373,47.691-32.162c13.792-13.795,24.612-29.842,32.163-47.693
	c3.138-7.416,5.687-15.129,7.578-22.93c1.807-7.459,3.043-15.152,3.679-22.862c0.169-2.058,1.819-3.606,3.84-3.606h52.526
	l-14.153,28.313c-2.218,4.437-0.42,9.821,4.016,12.039c1.287,0.646,2.654,0.948,4.006,0.948c3.292,0,6.462-1.815,8.034-4.963
	l20.629-41.261C399.325,178.984,399.363,178.919,399.396,178.85z"/>
<g>
	<path fill="none" stroke="#B0B7B9" stroke-width="2" stroke-linecap="round" stroke-linejoin="round" stroke-miterlimit="10" d="
		M145.07,98.608h7.39c1.158,0,2.097-0.939,2.097-2.097v-7.37"/>
	<path fill="none" stroke="#B0B7B9" stroke-width="2" stroke-linecap="round" stroke-linejoin="round" stroke-miterlimit="10" d="
		M181.009,142.924H148.45c-1.867,0-3.383-1.513-3.383-3.38v-40.74c0-0.125,0.053-0.246,0.142-0.334l9.188-9.191
		c0.089-0.088,0.209-0.138,0.335-0.138h28.2c1.867,0,3.38,1.514,3.38,3.38v36.215"/>
	
		<circle fill="none" stroke="#B0B7B9" stroke-width="2" stroke-linecap="round" stroke-linejoin="round" stroke-miterlimit="10" cx="166.884" cy="117.948" r="14.118"/>
	
		<line fill="none" stroke="#B0B7B9" stroke-width="2" stroke-linecap="round" stroke-linejoin="round" stroke-miterlimit="10" x1="179.843" y1="130.907" x2="176.868" y2="127.931"/>
	
		<line fill="none" stroke="#B0B7B9" stroke-width="2" stroke-linecap="round" stroke-linejoin="round" stroke-miterlimit="10" x1="189.186" y1="139.243" x2="186.72" y2="136.777"/>
	<path fill="none" stroke="#B0B7B9" stroke-width="2" stroke-linecap="round" stroke-linejoin="round" stroke-miterlimit="10" d="
		M191.013,137.417l-4.534-4.534c-1.366-1.367-3.16-2.226-5.082-2.435l-0.162-0.018c-1.086-0.118-2.011,0.785-1.916,1.873
		l0.049,0.546c0.138,1.583,0.826,3.069,1.951,4.193l5.136,5.133c1.358,1.363,3.617,1.284,4.876-0.24
		C192.426,140.609,192.23,138.633,191.013,137.417z"/>
	<g>
		
			<polyline fill="none" stroke="#019EBF" stroke-width="2" stroke-linecap="round" stroke-linejoin="round" stroke-miterlimit="10" points="
			164.092,118.318 166.361,120.588 170.071,116.876 		"/>
		<path fill="none" stroke="#019EBF" stroke-width="2" stroke-linecap="round" stroke-linejoin="round" stroke-miterlimit="10" d="
			M166.885,110.52c0,0-3.506,2.719-6.43,2.719v6.894c0,1.435,0.586,2.724,1.565,3.45c1.026,0.758,4.09,2.777,4.223,2.863
			l0.643,0.424l0.643-0.424c0.133-0.086,3.194-2.105,4.223-2.863c0.979-0.726,1.565-2.015,1.565-3.45v-6.894
			C170.392,113.239,166.885,110.52,166.885,110.52z"/>
	</g>
</g>
<path fill="#09B39C" d="M689.316,116.627c-7.554-17.854-18.373-33.9-32.164-47.694c-13.795-13.791-29.841-24.612-47.692-32.162
	C590.996,28.96,571.359,25,551.086,25c-20.273,0-39.912,3.96-58.373,11.771c-17.854,7.551-33.897,18.372-47.693,32.164
	c-13.791,13.793-24.61,29.839-32.161,47.691c-1.116,2.636-2.155,5.306-3.117,8.001l-4.922-9.846
	c-2.218-4.433-7.604-6.229-12.041-4.013c-4.434,2.216-6.229,7.607-4.015,12.04L414.86,175l-26.098,52.191
	c-2.216,4.434-0.419,9.824,4.015,12.041c4.437,2.216,9.823,0.418,12.041-4.018l4.922-9.846c0.962,2.693,2,5.359,3.116,7.999
	c7.552,17.854,18.371,33.897,32.162,47.69c13.794,13.791,29.841,24.612,47.693,32.164c18.461,7.813,38.1,11.771,58.373,11.771
	c20.271,0,39.91-3.96,58.37-11.771c17.854-7.552,33.9-18.373,47.693-32.164c13.791-13.793,24.61-29.84,32.161-47.688
	c7.812-18.461,11.771-38.104,11.771-58.374C701.086,154.727,697.125,135.087,689.316,116.627z M672.782,226.381
	c-6.646,15.715-16.176,29.844-28.321,41.993c-12.15,12.147-26.279,21.678-41.994,28.325c-16.236,6.869-33.522,10.352-51.381,10.352
	c-17.857,0-35.146-3.482-51.384-10.352c-15.715-6.647-29.844-16.178-41.99-28.324c-12.147-12.15-21.682-26.279-28.325-41.996
	c-3.774-8.921-6.558-18.261-8.266-27.762L416.879,175l4.242-23.618c1.708-9.5,4.487-18.84,8.266-27.764
	c6.646-15.714,16.178-29.843,28.324-41.993c12.147-12.148,26.276-21.678,41.992-28.325c16.235-6.869,33.521-10.352,51.383-10.352
	c17.856,0,35.146,3.483,51.381,10.353c15.715,6.646,29.844,16.176,41.994,28.323c12.146,12.151,21.678,26.28,28.321,41.996
	c6.869,16.236,10.354,33.522,10.354,51.38C683.137,192.857,679.654,210.145,672.782,226.381z"/>
<g>
	<path fill="none" stroke="#B0B7B9" stroke-width="2" stroke-linecap="round" stroke-linejoin="round" stroke-miterlimit="10" d="
		M556.322,136.102h-31.019c-1.632,0-2.957-1.323-2.957-2.957V95.962c0-1.634,1.325-2.958,2.957-2.958h53.239
		c1.634,0,2.958,1.324,2.958,2.958v13.053"/>
	
		<line fill="none" stroke="#B0B7B9" stroke-width="2" stroke-linecap="round" stroke-linejoin="round" stroke-miterlimit="10" x1="537.854" y1="101.094" x2="565.993" y2="101.094"/>
	
		<line fill="none" stroke="#B0B7B9" stroke-width="2" stroke-linecap="round" stroke-linejoin="round" stroke-miterlimit="10" x1="543.713" y1="106.321" x2="560.137" y2="106.321"/>
	
		<polyline fill="none" stroke="#B0B7B9" stroke-width="2" stroke-linecap="round" stroke-linejoin="round" stroke-miterlimit="10" points="
		562.916,140.22 562.916,148.171 570.363,143.438 577.813,148.171 577.813,140.22 	"/>
	
		<circle fill="none" stroke="#B0B7B9" stroke-width="2" stroke-linecap="round" stroke-linejoin="round" stroke-miterlimit="10" cx="570.363" cy="123.994" r="9.083"/>
	
		<polyline fill="none" stroke="#09B39C" stroke-width="2" stroke-linecap="round" stroke-linejoin="round" stroke-miterlimit="10" points="
		566,123.404 569.545,126.948 575.339,121.154 	"/>
	
		<polygon fill="none" stroke="#09B39C" stroke-width="2" stroke-linecap="round" stroke-linejoin="round" stroke-miterlimit="10" points="
		567.653,111.338 570.302,107.863 572.962,111.33 576.795,109.232 577.816,113.481 582.171,113.125 581.375,117.422 
		585.495,118.867 583.021,122.468 586.2,125.466 582.477,127.749 584.159,131.782 579.826,132.352 579.729,136.721 575.536,135.479 
		573.67,139.43 570.348,136.592 567.031,139.44 565.152,135.496 560.966,136.75 560.852,132.382 556.519,131.825 558.189,127.788 
		554.454,125.517 557.627,122.508 555.14,118.915 559.26,117.457 558.448,113.162 562.806,113.505 563.813,109.253 	"/>
	
		<line fill="none" stroke="#09B39C" stroke-width="2" stroke-linecap="round" stroke-linejoin="round" stroke-miterlimit="10" x1="531.588" y1="116.542" x2="532.688" y2="116.542"/>
	
		<line fill="none" stroke="#09B39C" stroke-width="2" stroke-linecap="round" stroke-linejoin="round" stroke-miterlimit="10" x1="531.588" y1="121.77" x2="532.688" y2="121.77"/>
	
		<line fill="none" stroke="#09B39C" stroke-width="2" stroke-linecap="round" stroke-linejoin="round" stroke-miterlimit="10" x1="531.588" y1="126.996" x2="532.688" y2="126.996"/>
	
		<line fill="none" stroke="#B0B7B9" stroke-width="2" stroke-linecap="round" stroke-linejoin="round" stroke-miterlimit="10" x1="536.993" y1="116.542" x2="548.52" y2="116.542"/>
	
		<line fill="none" stroke="#B0B7B9" stroke-width="2" stroke-linecap="round" stroke-linejoin="round" stroke-miterlimit="10" x1="536.993" y1="121.77" x2="548.52" y2="121.77"/>
	
		<line fill="none" stroke="#B0B7B9" stroke-width="2" stroke-linecap="round" stroke-linejoin="round" stroke-miterlimit="10" x1="536.993" y1="126.996" x2="548.52" y2="126.996"/>
</g>
<g>
	<path fill="#333333" d="M142.387,188.928c-2.441,0.46-4.481,0.52-8.183,0.52h-1.359v-9.102h8.201v1.32h-6.562v2.501h6.241v1.3
		h-6.241v2.681c3.461,0,5.401-0.101,7.722-0.521L142.387,188.928z M136.425,195.109h10.322v1.34h-11.962v-5.441h1.64V195.109z
		 M148.588,184.486v1.361h-2.641v6.361h-1.641v-13.303h1.641v5.58H148.588z"/>
	<path fill="#333333" d="M166.208,193.168v1.341h-16.283v-1.341h7.241v-4.36h1.641v4.36H166.208z M164.708,189.027
		c-2.741-0.58-5.562-2.439-6.722-5c-1.16,2.561-3.961,4.42-6.722,5l-0.68-1.359c3.141-0.561,6.541-3.201,6.541-6.182v-1.381h1.721
		v1.381c0,2.98,3.421,5.621,6.562,6.182L164.708,189.027z"/>
	<path fill="#333333" d="M176.886,180.046c0,4.562-3.16,7.782-8.441,9.222l-0.641-1.3c4.381-1.181,7.002-3.541,7.321-6.581h-6.521
		v-1.341H176.886z M170.445,189.928h11.303v6.662h-11.303V189.928z M172.065,195.27h8.063v-4.021h-8.063V195.27z M184.407,184.646
		h-2.66v4.441h-1.641v-10.202h1.641v4.401h2.66V184.646z"/>
	<path fill="#333333" d="M194.666,189.248v2.061h5.281v5.48h-1.641v-4.181h-10.782v-1.3h5.501v-2.061h-7.301v-1.32h16.223v1.32
		H194.666z M186.704,185.688c3.381-0.34,6.102-1.721,6.242-3.721h-5.542v-1.301h5.621v-1.86h1.641v1.86h5.621v1.301h-5.561
		c0.14,2,2.86,3.381,6.261,3.721l-0.52,1.24c-2.941-0.301-5.542-1.381-6.622-3.182c-1.08,1.801-3.7,2.881-6.641,3.182
		L186.704,185.688z"/>
	<path fill="#333333" d="M72.447,216.308h-8.302v-8.262h1.62v2.7h5.081v-2.7h1.601V216.308z M77.528,221.509
		c0,2.12-2.261,3.341-5.901,3.341c-3.661,0-5.922-1.221-5.922-3.341s2.261-3.341,5.922-3.341
		C75.267,218.168,77.528,219.389,77.528,221.509z M70.846,212.027h-5.081v2.96h5.081V212.027z M75.887,221.509
		c0-1.28-1.62-2.021-4.261-2.021c-2.681,0-4.281,0.74-4.281,2.021s1.601,2.04,4.281,2.04
		C74.267,223.549,75.887,222.789,75.887,221.509z M79.988,211.427v1.36h-2.66v4.921h-1.641v-10.802h1.641v4.521H79.988z"/>
	<path fill="#333333" d="M96.088,206.926v9.802h-1.661v-4.061h-4.141v3.38h-8.082v-8.201h1.621v2.74h4.841v-2.74h1.62v3.48h4.141
		v-4.4H96.088z M88.666,211.867h-4.841v2.84h4.841V211.867z M94.448,217.568h1.62v7.021H84.585v-7.021h1.62v2.18h8.242V217.568z
		 M94.448,221.029h-8.242v2.24h8.242V221.029z"/>
	<path fill="#333333" d="M115.467,217.148v1.34H99.184v-1.34h7.321v-1.961h-5.221v-4.461h10.482v-1.961h-10.522v-1.279h12.143v4.461
		h-10.482v1.96h10.862v1.28h-5.601v1.961H115.467z M102.965,223.329h10.802v1.341h-12.442v-4.961h1.641V223.329z"/>
	<path fill="#333333" d="M130.406,215.407h-8.382v-7.341h8.382V215.407z M130.966,219.688c0.02,1.72,2.801,3.46,5.881,3.841
		l-0.56,1.26c-2.701-0.38-5.102-1.62-6.161-3.28c-1.081,1.7-3.562,2.9-6.262,3.28l-0.54-1.26c3.061-0.36,5.921-2.061,5.941-3.841
		h-5.241v-1.261h5.261v-1.74h1.66v1.74h5.262v1.261H130.966z M128.806,209.366h-5.182v4.721h5.182V209.366z M135.787,217.208h-1.641
		v-10.302h1.641V217.208z"/>
	<path fill="#333333" d="M148.985,211.687c0,3.161,2.041,6.421,4.562,7.682l-1.021,1.3c-1.9-1.02-3.521-3.12-4.341-5.58
		c-0.78,2.62-2.44,4.86-4.461,5.941l-0.98-1.32c2.581-1.32,4.621-4.762,4.621-8.022v-3.221h1.62V211.687z M159.728,215.547h-2.961
		v9.303h-1.641v-17.924h1.641v7.262h2.961V215.547z"/>
	<path fill="#333333" d="M175.648,206.926v9.622h-1.661v-4.021h-3.641c-0.319,2.12-2.12,3.52-4.581,3.52
		c-2.681,0-4.621-1.68-4.621-4.16c0-2.461,1.94-4.141,4.621-4.141c2.421,0,4.222,1.359,4.562,3.44h3.66v-4.261H175.648z
		 M168.825,211.887c0-1.641-1.28-2.781-3.061-2.781s-3.061,1.141-3.061,2.781s1.28,2.801,3.061,2.801
		S168.825,213.527,168.825,211.887z M174.007,217.408h1.641v7.201h-11.482v-7.201h1.62v2.28h8.222V217.408z M174.007,220.969h-8.222
		v2.32h8.222V220.969z"/>
	<path fill="#333333" d="M188.846,207.386h1.561v16.544h-1.561v-6.201h-3.241v-1.341h3.241v-3.161h-2.961
		c-0.84,3.021-2.78,5.722-6.182,7.742l-0.96-1.16c3.861-2.301,5.781-5.521,6.062-9.282h-5.261v-1.341h6.881
		c0,0.921-0.08,1.82-0.24,2.721h2.661V207.386z M194.007,206.906v17.924h-1.561v-17.924H194.007z"/>
	<path fill="#333333" d="M208.387,217.668c-3.901,0.641-8.183,0.7-11.403,0.7l-0.239-1.3c1.5,0,3.24,0,5.021-0.061v-1.24
		c-2.101-0.221-3.421-1.2-3.421-2.641c0-1.641,1.701-2.681,4.241-2.681c2.581,0,4.281,1.04,4.281,2.681
		c0,1.461-1.341,2.44-3.461,2.641v1.16c1.66-0.08,3.32-0.2,4.881-0.42L208.387,217.668z M207.846,209.786h-10.502v-1.24h4.421v-1.74
		h1.641v1.74h4.44V209.786z M199.324,219.769h12.022v5.081h-1.641v-3.781h-10.382V219.769z M202.585,214.647
		c1.66,0,2.721-0.601,2.721-1.521c0-0.94-1.061-1.521-2.721-1.521c-1.62,0-2.7,0.58-2.7,1.521
		C199.885,214.047,200.965,214.647,202.585,214.647z M211.347,206.945v11.982h-1.641v-11.982H211.347z"/>
	<path fill="#333333" d="M220.846,211.666c0,3.262,2.04,6.521,4.641,7.762l-0.96,1.301c-2.041-1.02-3.681-3.16-4.501-5.682
		c-0.78,2.661-2.44,4.922-4.461,6.002l-1-1.301c2.601-1.3,4.641-4.761,4.641-8.082v-3.221h1.641V211.666z M229.348,206.906v17.963
		h-1.641v-10.542h-4.161v-1.341h4.161v-6.08H229.348z"/>
	<path fill="#333333" d="M241.526,217.008c-2.661,0-4.661-1.84-4.661-4.441c0-2.58,2-4.4,4.661-4.4c2.681,0,4.701,1.82,4.701,4.4
		C246.227,215.168,244.206,217.008,241.526,217.008z M241.526,215.588c1.78,0,3.101-1.24,3.101-3.021c0-1.74-1.32-2.98-3.101-2.98
		c-1.74,0-3.061,1.24-3.061,2.98C238.465,214.348,239.785,215.588,241.526,215.588z M251.707,223.109v1.34h-12.082v-5.762h1.64
		v4.422H251.707z M251.167,220.028h-1.641v-13.103h1.641V220.028z"/>
	<path fill="#333333" d="M270.567,215.447v1.32h-16.223v-1.32H270.567z M255.264,213.047c3.181-0.34,6.062-1.9,6.142-3.9h-5.562
		v-1.32h13.263v1.32h-5.581c0.08,2,2.961,3.561,6.142,3.9l-0.58,1.301c-2.941-0.36-5.642-1.66-6.622-3.621
		c-1,1.961-3.681,3.261-6.621,3.621L255.264,213.047z M268.587,221.568c0,2.102-2.321,3.262-6.142,3.262
		c-3.841,0-6.142-1.16-6.142-3.262c0-2.08,2.301-3.24,6.142-3.24C266.266,218.328,268.587,219.488,268.587,221.568z
		 M266.926,221.568c0-1.24-1.68-1.96-4.48-1.96c-2.82,0-4.481,0.72-4.481,1.96c0,1.261,1.661,1.961,4.481,1.961
		C265.246,223.529,266.926,222.829,266.926,221.568z"/>
</g>
<g>
	<path fill="#333333" d="M492.274,202.262c-2.441,0.46-4.48,0.52-8.182,0.52h-1.359v-9.102h8.201V195h-6.563v2.501h6.242v1.3h-6.242
		v2.681c3.461,0,5.402-0.101,7.723-0.521L492.274,202.262z M486.313,208.443h10.322v1.34h-11.963v-5.441h1.641V208.443z
		 M498.475,197.82v1.361h-2.641v6.361h-1.641V192.24h1.641v5.58H498.475z"/>
	<path fill="#333333" d="M516.096,206.502v1.341h-16.283v-1.341h7.24v-4.36h1.641v4.36H516.096z M514.596,202.361
		c-2.742-0.58-5.563-2.439-6.723-5c-1.16,2.561-3.961,4.42-6.721,5l-0.68-1.359c3.141-0.561,6.541-3.201,6.541-6.182v-1.381h1.721
		v1.381c0,2.98,3.42,5.621,6.561,6.182L514.596,202.361z"/>
	<path fill="#333333" d="M526.774,193.38c0,4.562-3.16,7.782-8.441,9.222l-0.641-1.3c4.381-1.181,7.002-3.541,7.32-6.581h-6.52
		v-1.341H526.774z M520.332,203.262h11.303v6.662h-11.303V203.262z M521.951,208.604h8.063v-4.021h-8.063V208.604z M534.295,197.98
		h-2.66v4.441h-1.641V192.22h1.641v4.401h2.66V197.98z"/>
	<path fill="#333333" d="M544.553,202.582v2.061h5.281v5.48h-1.641v-4.181h-10.781v-1.3h5.5v-2.061h-7.301v-1.32h16.225v1.32
		H544.553z M536.592,199.021c3.381-0.34,6.102-1.721,6.242-3.721h-5.543V194h5.621v-1.86h1.641V194h5.621v1.301h-5.561
		c0.141,2,2.861,3.381,6.262,3.721l-0.52,1.24c-2.941-0.301-5.543-1.381-6.623-3.182c-1.08,1.801-3.699,2.881-6.641,3.182
		L536.592,199.021z"/>
	<path fill="#333333" d="M567.133,202.021c-1.959-0.74-3.48-2.16-4.26-4.021c-0.76,2.12-2.381,3.741-4.541,4.562l-0.861-1.341
		c2.762-0.98,4.541-3.381,4.541-6.122v-1.84h1.641v1.78c0,2.561,1.74,4.781,4.361,5.701L567.133,202.021z M572.334,206.783
		c0,2.141-2.301,3.381-5.98,3.381c-3.682,0-5.982-1.24-5.982-3.381c0-2.161,2.301-3.381,5.982-3.381
		C570.033,203.402,572.334,204.622,572.334,206.783z M570.694,206.783c0-1.32-1.639-2.102-4.34-2.102s-4.342,0.781-4.342,2.102
		c0,1.3,1.641,2.08,4.342,2.08S570.694,208.083,570.694,206.783z M570.614,197.4h-3.9v-1.34h3.9v-3.801h1.662v10.602h-1.662V197.4z"
		/>
	<path fill="#333333" d="M580.633,204.803c1.959-0.08,3.959-0.201,5.781-0.42l0.1,1.199c-3.721,0.601-7.941,0.681-11.123,0.681
		l-0.18-1.36c1.141,0,2.461-0.02,3.801-0.061v-5.521h1.621V204.803z M583.114,202.142c0.5-2.98,0.539-5.161,0.539-6.601h-7.461
		V194.2h9.061v0.979c0,1.441,0,3.781-0.5,7.122L583.114,202.142z M592.014,201.121h-2.859v9.063h-1.641V192.24h1.641v7.501h2.859
		V201.121z"/>
	<path fill="#333333" d="M602.352,202.342c-2.66,0-4.66-1.84-4.66-4.441c0-2.58,2-4.4,4.66-4.4c2.682,0,4.701,1.82,4.701,4.4
		C607.053,200.502,605.033,202.342,602.352,202.342z M602.352,200.922c1.781,0,3.102-1.24,3.102-3.021c0-1.74-1.32-2.98-3.102-2.98
		c-1.74,0-3.061,1.24-3.061,2.98C599.291,199.682,600.612,200.922,602.352,200.922z M612.533,208.443v1.34h-12.082v-5.762h1.641
		v4.422H612.533z M611.994,205.362h-1.641V192.26h1.641V205.362z"/>
	<path fill="#333333" d="M631.395,200.781v1.32h-16.223v-1.32H631.395z M616.092,198.381c3.18-0.34,6.061-1.9,6.141-3.9h-5.561
		v-1.32h13.262v1.32h-5.58c0.08,2,2.961,3.561,6.141,3.9l-0.58,1.301c-2.941-0.36-5.641-1.66-6.621-3.621
		c-1,1.961-3.682,3.261-6.621,3.621L616.092,198.381z M629.414,206.902c0,2.102-2.32,3.262-6.141,3.262
		c-3.842,0-6.143-1.16-6.143-3.262c0-2.08,2.301-3.24,6.143-3.24C627.094,203.662,629.414,204.822,629.414,206.902z
		 M627.754,206.902c0-1.24-1.68-1.96-4.48-1.96c-2.82,0-4.482,0.72-4.482,1.96c0,1.261,1.662,1.961,4.482,1.961
		C626.074,208.863,627.754,208.163,627.754,206.902z"/>
</g>
</svg>
