<?xml version="1.0" encoding="utf-8"?>
<!-- Generator: Adobe Illustrator 16.0.0, SVG Export Plug-In . SVG Version: 6.00 Build 0)  -->
<!DOCTYPE svg PUBLIC "-//W3C//DTD SVG 1.1//EN" "http://www.w3.org/Graphics/SVG/1.1/DTD/svg11.dtd">
<svg version="1.1" id="Layer_1" xmlns="http://www.w3.org/2000/svg" xmlns:xlink="http://www.w3.org/1999/xlink" x="0px" y="0px"
	 width="112px" height="112px" viewBox="0 0 112 112" enable-background="new 0 0 112 112" xml:space="preserve">
<g id="XMLID_54_">
	<g id="XMLID_38_">
		<circle id="XMLID_3_" fill="#C6EAF6" cx="56" cy="56.746" r="50"/>
	</g>
</g>
<g id="XMLID_137_">
	<g id="XMLID_136_">
		<path fill="#83D0E2" d="M85.67,88.599H26.33c-3.248,0-5.882-2.636-5.882-5.883V38.405h71.106v44.311
			C91.554,85.963,88.918,88.599,85.67,88.599z"/>
	</g>
	<g id="XMLID_212_">
		<path id="XMLID_4_" fill="#66BDD9" d="M91.554,38.404L80.24,46.538L59.826,61.214c-2.283,1.646-5.368,1.646-7.651,0L31.761,46.538
			l-11.313-8.133l11.313-8.129l8.383-6.031l12.031-8.646c2.283-1.641,5.368-1.641,7.651,0l12.025,8.646l8.389,6.031L91.554,38.404z"
			/>
	</g>
	<g id="XMLID_210_">
		<path id="XMLID_5_" fill="#FFFFFF" d="M80.24,24.245v22.293L59.826,61.214c-2.283,1.646-5.368,1.646-7.651,0L31.761,46.538V24.245
			H80.24z"/>
	</g>
	<g id="XMLID_253_">
		<path id="XMLID_31_" fill="#9FCC7C" d="M55.226,49.531c-0.231,0-0.459-0.077-0.648-0.241l-8.108-6.949
			c-0.42-0.357-0.468-0.987-0.107-1.408c0.357-0.416,0.988-0.464,1.404-0.107l7.387,6.33l10.927-11.66
			c0.378-0.401,1.015-0.424,1.415-0.046c0.401,0.378,0.42,1.01,0.041,1.411L55.955,49.217
			C55.759,49.425,55.495,49.531,55.226,49.531z"/>
	</g>
</g>
</svg>
